<svg width="285" height="256" viewBox="0 0 285 256" fill="none" xmlns="http://www.w3.org/2000/svg">
<path d="M142.606 129.155L109.451 139.779L117.784 175.961L119.714 201.23L119.187 208.697L120.103 208.941C134.355 212.739 149.248 212.607 163.443 208.559L164.973 208.123L164.447 200.656L166.727 174.621L175.235 139.779L142.606 129.155Z" fill="#2250D2"/>
<path d="M149.194 137.547C145.146 141.175 139.341 141.282 135.184 137.804L134.877 137.547V122.193H149.194V137.547Z" fill="#FCC5B6"/>
<path d="M125.92 103.625C125.69 102.609 125.023 101.793 124.507 100.911C123.274 98.8067 122.913 95.9363 124.139 93.8276C124.626 92.9887 125.332 92.3115 125.764 91.437C126.438 90.0739 126.364 88.4243 126.788 86.9458C127.62 84.0364 130.604 82.0734 133.351 82.6291C134.187 82.7982 135.008 83.17 135.855 83.0881C137.212 82.9559 138.224 81.7251 139.39 80.9546C141.09 79.8311 143.575 79.8271 144.829 81.5096C145.38 82.2485 145.651 83.2358 146.331 83.8344C147.083 84.4968 148.134 84.5163 149.101 84.5445C150.621 84.5888 152.167 84.7391 153.576 85.3653C154.985 85.9914 156.254 87.1559 156.765 88.7189C157.262 90.2437 157.007 91.992 157.626 93.4632C158.188 94.7974 159.452 95.9061 159.325 97.3678C159.218 98.6034 158.125 99.5007 157.909 100.719C157.715 101.811 158.267 102.901 158.269 104.014C158.272 105.701 157.054 107.059 155.892 108.172C154.552 109.458 153.143 110.711 151.491 111.445C148.879 112.606 145.929 112.357 143.149 111.835C140.369 111.314 137.589 110.535 134.772 110.699C133.549 110.77 132.329 111.019 131.106 110.929C129.737 110.827 127.681 110.205 126.673 109.08C125.369 107.627 126.313 105.36 125.92 103.625Z" fill="#382A73"/>
<path d="M141.876 130.455C135.486 130.455 130.307 124.802 130.307 117.829V103.14C130.307 98.5591 133.71 94.8451 137.908 94.8451H145.843C150.041 94.8451 153.445 98.5591 153.445 103.14V117.829C153.445 124.802 148.266 130.455 141.876 130.455Z" fill="#FCC5B6"/>
<path d="M141.874 130.714C139.398 130.714 137.028 129.887 135.02 128.322C134.913 128.239 134.888 128.076 134.964 127.959C135.04 127.843 135.189 127.815 135.296 127.899C137.224 129.401 139.499 130.195 141.875 130.195C144.483 130.195 147.029 129.204 149.044 127.406C149.145 127.315 149.296 127.331 149.379 127.443C149.462 127.553 149.447 127.717 149.345 127.808C147.245 129.682 144.592 130.714 141.874 130.714Z" fill="#382A73"/>
<path d="M154.219 107.785C155.533 107.574 157.018 108.186 157.597 109.489C157.962 110.309 157.933 111.268 157.819 112.171C157.617 113.776 157.137 115.403 156.111 116.575C155.086 117.747 153.421 118.351 152.057 117.711C150.731 117.088 149.988 115.44 149.977 113.865C149.955 110.955 151.445 108.232 154.219 107.785Z" fill="#FCC5B6"/>
<path d="M137.227 112.977C136.789 112.977 136.434 112.59 136.434 112.111V111.072C136.434 110.595 136.788 110.207 137.227 110.207C137.665 110.207 138.02 110.594 138.02 111.072V112.111C138.02 112.589 137.665 112.977 137.227 112.977Z" fill="#382A73"/>
<path d="M148.016 112.977C147.578 112.977 147.223 112.59 147.223 112.111V111.072C147.223 110.595 147.578 110.207 148.016 110.207C148.454 110.207 148.809 110.594 148.809 111.072V112.111C148.809 112.589 148.454 112.977 148.016 112.977Z" fill="#382A73"/>
<path d="M146.048 104.676C145.611 104.764 145.156 104.888 144.838 105.226C144.52 105.564 144.412 106.181 144.723 106.526C144.953 106.78 145.313 106.807 145.639 106.817C146.914 106.861 148.189 106.904 149.464 106.917C149.931 106.921 150.41 106.919 150.845 106.734C152.073 106.212 151.848 104.768 150.659 104.597C149.127 104.374 147.57 104.372 146.048 104.676Z" fill="#382A73"/>
<path d="M138.752 103.939C139.188 104.026 139.644 104.15 139.962 104.489C140.28 104.826 140.388 105.444 140.076 105.789C139.847 106.042 139.486 106.069 139.16 106.08C137.886 106.123 136.611 106.166 135.335 106.179C134.868 106.184 134.389 106.182 133.955 105.997C132.727 105.474 132.951 104.031 134.14 103.859C135.672 103.637 137.229 103.634 138.752 103.939Z" fill="#382A73"/>
<path d="M148.253 117.783C145.577 117.783 143.4 115.407 143.4 112.488C143.4 109.568 145.577 107.193 148.253 107.193C150.928 107.193 153.105 109.568 153.105 112.488C153.105 115.407 150.929 117.783 148.253 117.783ZM148.253 107.748C145.857 107.748 143.909 109.874 143.909 112.488C143.909 115.102 145.857 117.228 148.253 117.228C150.648 117.228 152.596 115.102 152.596 112.488C152.596 109.874 150.648 107.748 148.253 107.748Z" fill="white"/>
<path d="M144.622 112.864C144.893 113.367 145.22 113.868 145.26 114.45C145.304 115.091 144.967 115.719 144.486 116.09C144.004 116.462 143.398 116.602 142.808 116.6C142.553 116.599 142.272 116.56 142.102 116.353C141.875 116.076 141.954 115.648 142.037 115.288C142.485 113.35 142.687 111.344 142.634 109.346C142.623 108.899 142.601 108.435 142.749 108.017C142.86 107.704 143.568 106.897 143.596 107.574C143.62 108.177 143.53 108.774 143.586 109.384C143.699 110.607 144.051 111.805 144.622 112.864Z" fill="#FCC5B6"/>
<path d="M142.783 116.658C142.762 116.658 142.742 116.658 142.722 116.658C142.59 116.657 142.484 116.541 142.484 116.397C142.484 116.254 142.591 116.138 142.722 116.138C142.746 116.138 142.762 116.138 142.783 116.138C143.209 116.138 143.623 116.123 144.003 115.987C144.422 115.839 144.738 115.552 144.869 115.201C145.076 114.65 144.84 113.991 144.58 113.364C143.933 111.801 143.128 109.856 143.324 107.866C143.339 107.723 143.456 107.62 143.586 107.635C143.717 107.651 143.812 107.779 143.797 107.921C143.614 109.771 144.39 111.644 145.013 113.15C145.315 113.88 145.588 114.656 145.309 115.398C145.125 115.89 144.701 116.284 144.15 116.48C143.705 116.639 143.249 116.658 142.783 116.658Z" fill="#382A73"/>
<path d="M142.42 121.113C140.934 121.113 139.45 120.542 138.319 119.473C138.219 119.379 138.208 119.215 138.295 119.107C138.381 118.998 138.531 118.986 138.63 119.08C140.15 120.516 142.359 120.98 144.258 120.262C144.382 120.215 144.517 120.286 144.56 120.422C144.603 120.558 144.537 120.705 144.413 120.752C143.771 120.995 143.095 121.113 142.42 121.113Z" fill="#382A73"/>
<path d="M155.79 113.876C155.677 113.876 155.576 113.787 155.556 113.661C155.376 112.531 154.815 111.454 154.017 110.707C153.917 110.614 153.905 110.45 153.991 110.341C154.076 110.231 154.226 110.219 154.327 110.313C155.22 111.149 155.823 112.307 156.025 113.572C156.047 113.713 155.961 113.848 155.831 113.872C155.817 113.875 155.804 113.876 155.79 113.876Z" fill="#382A73"/>
<path d="M129.624 107.785C128.31 107.574 126.825 108.186 126.245 109.489C125.881 110.309 125.91 111.268 126.023 112.171C126.226 113.776 126.705 115.403 127.731 116.575C128.757 117.747 130.421 118.351 131.785 117.711C133.111 117.088 133.854 115.44 133.866 113.865C133.888 110.955 132.397 108.232 129.624 107.785Z" fill="#FCC5B6"/>
<path d="M128.051 113.876C128.038 113.876 128.024 113.875 128.01 113.872C127.88 113.848 127.793 113.713 127.816 113.572C128.017 112.307 128.621 111.149 129.514 110.313C129.614 110.22 129.764 110.232 129.85 110.342C129.935 110.45 129.924 110.614 129.824 110.708C129.026 111.455 128.465 112.531 128.285 113.662C128.265 113.788 128.165 113.876 128.051 113.876Z" fill="#382A73"/>
<path d="M137.278 117.783C134.602 117.783 132.426 115.407 132.426 112.488C132.426 109.568 134.603 107.193 137.278 107.193C139.954 107.193 142.13 109.568 142.13 112.488C142.13 115.407 139.953 117.783 137.278 117.783ZM137.278 107.748C134.883 107.748 132.934 109.874 132.934 112.488C132.934 115.102 134.883 117.228 137.278 117.228C139.674 117.228 141.622 115.102 141.622 112.488C141.622 109.874 139.673 107.748 137.278 107.748Z" fill="white"/>
<path d="M141.534 110.956C141.458 110.956 141.383 110.919 141.332 110.848C141.246 110.727 141.267 110.552 141.379 110.459C142.158 109.802 143.263 109.611 144.191 109.972C144.323 110.023 144.393 110.182 144.345 110.327C144.298 110.472 144.153 110.546 144.02 110.495C143.251 110.196 142.336 110.354 141.689 110.899C141.643 110.937 141.588 110.956 141.534 110.956Z" fill="white"/>
<path d="M135.735 95.49C137.378 95.9847 138.985 96.7075 140.685 96.8276C142.937 96.986 145.216 96.0726 147.428 96.5639C148.521 96.8068 149.525 97.3799 150.521 97.9296C151.517 98.4799 152.541 99.0202 153.646 99.1893C154.752 99.3584 155.967 99.0994 156.755 98.2363C157.737 97.1592 157.813 95.3659 157.232 93.9847C156.651 92.6042 155.533 91.578 154.353 90.7713C150.616 88.2176 146.074 87.4794 141.666 87.3371C139.455 87.266 137.198 87.3378 135.112 88.1378C133.368 88.8062 131.729 90.0498 130.786 91.8149C130.372 92.5887 129.786 93.9686 130.271 94.8444C130.66 95.5451 131.489 95.18 132.091 95.0941C133.32 94.9196 134.548 95.1323 135.735 95.49Z" fill="#382A73"/>
<path d="M234.869 120.107L244.539 108.263L251.005 101.662C251.654 103.391 251.41 105.365 250.365 106.844L248.081 110.074C250.542 111.568 252.633 111.876 256.269 110.431L259.586 106.767L261.502 105.106C262.647 104.441 263.078 105.072 263.652 106.07L264.855 105.943C265.525 106.358 265.873 107.058 265.554 107.823L264.849 109.516C264.535 110.162 264.116 110.74 263.613 111.222L258.972 116.24C257.91 117.281 255.18 119.393 253.861 120.399L239.653 127.034L234.869 120.107Z" fill="#FCC5B6"/>
<path d="M162.039 134.255L207.611 138.929L225.984 124.416C228.773 121.94 231.756 119.737 234.898 117.829L237.499 116.251C238.041 120.317 240.603 123.721 244.153 125.092L244.59 125.26L242.78 127.731C240.693 130.579 238.398 133.238 235.916 135.679L218.11 151.924C215.54 154.452 212.187 155.827 208.726 155.772L177.46 152.334L162.039 134.255Z" fill="#2250D2"/>
<path d="M206.295 73.6661L208.254 68.6037L215.643 59.7709L221.676 52.6999C222.433 54.375 222.314 56.3629 221.364 57.9166L219.29 61.3112C221.84 62.6165 223.946 62.7669 227.482 61.0515L230.559 57.1461L232.366 55.3455C233.466 54.5965 233.935 55.1925 234.572 56.1462L235.764 55.9287C236.458 56.2925 236.849 56.9643 236.58 57.7515L235.983 59.4938C235.712 60.1615 235.33 60.7696 234.859 61.2884L230.545 66.6433C229.552 67.7615 226.961 70.0742 225.709 71.1762L211.954 78.8633L206.295 73.6661Z" fill="#FCC5B6"/>
<path d="M151.711 132.857L192.34 109.852L200.583 86.7921C201.699 83.0626 203.112 79.4472 204.806 75.9868L206.209 73.1231C208.683 76.2211 212.526 77.5687 216.191 76.6224L216.641 76.5056L216.346 79.6526C216.006 83.28 215.395 86.8713 214.521 90.3907L207.615 114.57C206.709 118.215 204.573 121.352 201.636 123.351L173.646 138.941L151.711 132.857Z" fill="#2250D2"/>
<path d="M50.0849 123.731L40.0167 112.288L33.3304 105.955C32.7413 107.708 33.0525 109.671 34.1472 111.107L36.5395 114.242C34.1312 115.835 32.0512 116.228 28.3686 114.931L24.9289 111.405L22.9572 109.823C21.7906 109.205 21.3816 109.852 20.8416 110.874L19.635 110.796C18.98 111.237 18.6565 111.952 19.0009 112.703L19.7635 114.366C20.0987 114.998 20.5372 115.559 21.0569 116.02L25.8662 120.846C26.9627 121.843 29.7634 123.843 31.1152 124.794L45.5394 130.847L50.0849 123.731Z" fill="#FCC5B6"/>
<path d="M123.349 134.908L77.9679 141.432L59.112 127.676C56.2406 125.315 53.1846 123.234 49.9799 121.456L47.3274 119.984C46.9245 124.07 44.4805 127.576 40.9799 129.09L40.5488 129.276L42.4418 131.672C44.6238 134.434 47.0088 136.997 49.5721 139.336L67.9194 154.844C70.575 157.267 73.9716 158.505 77.4285 158.308L108.556 153.601L123.349 134.908Z" fill="#2250D2"/>
<path d="M80.5167 72.0949L78.7258 66.9588L71.6324 57.8421L65.8361 50.5388C65.0249 52.1831 65.0784 54.1744 65.9757 55.7643L67.9369 59.238C65.3459 60.4427 63.2358 60.5098 59.7592 58.6568L56.8122 54.6334L55.0656 52.763C53.9912 51.971 53.5022 52.5489 52.8343 53.4764L51.6505 53.2119C50.9451 53.5482 50.5318 54.2045 50.7753 55.0019L51.3141 56.7663C51.5638 57.4441 51.9248 58.0669 52.3792 58.6038L56.5139 64.1246C57.4696 65.2809 59.9825 67.6936 61.1971 68.8446L74.6896 77.0667L80.5167 72.0949Z" fill="#FCC5B6"/>
<path d="M133.115 133.39L93.2694 108.805L85.7922 85.4364C84.7996 81.6653 83.5063 77.9969 81.9269 74.4728L80.6194 71.5554C78.0451 74.5547 74.1601 75.7499 70.5291 74.6607L70.082 74.5265L70.2733 77.6835C70.4935 81.3224 70.9855 84.9351 71.7438 88.4867L77.8483 112.921C78.6336 116.599 80.6643 119.818 83.5339 121.931L110.992 138.609L133.115 133.39Z" fill="#2250D2"/>
<path d="M277.463 249H8.53723C6.01772 249 5.04357 239.748 7.15463 235.868L29.5465 194.712C31.6828 190.785 34.1777 188.695 36.7279 188.695H249.271C251.821 188.695 254.316 190.785 256.453 194.712L278.845 235.868C280.956 239.748 279.983 249 277.463 249Z" fill="url(#paint0_linear_1104_12789)"/>
<path d="M113.488 139.148L91.0887 173.908C88.7917 177.472 90.0198 182.436 93.6477 184.255L123.082 199.014L129.478 188.812L106.6 176.195L124.312 149.35" fill="#2250D2"/>
<path d="M172.458 138.88L194.858 173.639C197.155 177.204 195.927 182.167 192.299 183.987L162.865 198.745L156.469 188.544L179.347 175.927L161.635 149.081" fill="#2250D2"/>
<path d="M175.212 201.161H111.051L104.252 160.11C103.996 158.56 105.087 157.135 106.53 157.135H179.733C181.176 157.135 182.268 158.56 182.011 160.11L175.212 201.161Z" fill="white"/>
<path d="M144.105 183.573H142.161C140.786 183.573 139.67 182.356 139.67 180.855C139.67 179.353 140.786 178.136 142.161 178.136H144.105C145.481 178.136 146.597 179.353 146.597 180.855C146.596 182.356 145.481 183.573 144.105 183.573Z" fill="#0A2C8C"/>
<path d="M103.648 154.531C103.601 154.531 103.555 154.516 103.513 154.485C103.405 154.403 103.378 154.242 103.453 154.123L111.746 141.028C113.651 138.021 116.505 135.954 119.785 135.208L131.89 132.451C132.019 132.422 132.144 132.512 132.171 132.653C132.198 132.793 132.115 132.93 131.987 132.96L119.882 135.716C116.723 136.436 113.973 138.427 112.138 141.324L103.844 154.419C103.798 154.492 103.723 154.531 103.648 154.531Z" fill="white"/>
<path d="M181.44 153.107C181.367 153.107 181.295 153.07 181.248 153.001L172.585 140.193C170.669 137.36 167.863 135.463 164.686 134.851L152.507 132.507C152.378 132.482 152.291 132.347 152.314 132.206C152.337 132.065 152.461 131.97 152.59 131.996L164.768 134.34C168.066 134.975 170.979 136.944 172.968 139.885L181.631 152.693C181.709 152.808 181.687 152.97 181.581 153.056C181.538 153.09 181.489 153.107 181.44 153.107Z" fill="white"/>
<g filter="url(#filter0_b_1104_12789)">
<path d="M19.0199 104.968C29.4908 104.968 37.9792 96.7115 37.9792 86.5269C37.9792 76.3422 29.4908 68.0859 19.0199 68.0859C8.54893 68.0859 0.0605469 76.3422 0.0605469 86.5269C0.0605469 96.7115 8.54893 104.968 19.0199 104.968Z" fill="white"/>
<path d="M37.4792 86.5269C37.4792 96.4224 29.2279 104.468 19.0199 104.468C8.81191 104.468 0.560534 96.4224 0.560534 86.5269C0.560534 76.6313 8.81191 68.5859 19.0199 68.5859C29.2279 68.5859 37.4792 76.6313 37.4792 86.5269Z" stroke="#AAC0FF" stroke-opacity="0.15"/>
</g>
<path d="M25.258 92.4359C28.7835 89.0963 28.7835 83.6816 25.258 80.3419C21.7325 77.0023 16.0165 77.0023 12.4909 80.3419C8.96542 83.6816 8.96542 89.0963 12.4909 92.4359C16.0165 95.7756 21.7325 95.7756 25.258 92.4359Z" fill="#183A9B"/>
<path d="M29.7135 85.1792H7.98242V95.3506H29.7135V85.1792Z" fill="#183A9B"/>
<path d="M28.8558 85.9505H8.90039V88.1539H28.8558V85.9505Z" fill="#B9CBFF"/>
<path d="M8.90039 91.3065V91.9385V92.568V93.2H16.1043V92.568V91.9385V91.3065H8.90039Z" fill="#B9CBFF"/>
<path d="M21.6504 91.3065V91.9385V92.568V93.2H28.8543V92.568V91.9385V91.3065H21.6504Z" fill="#B9CBFF"/>
<path d="M29.7115 85.1792H7.98047V84.367C7.98047 83.908 8.37364 83.5356 8.85813 83.5356H28.8338C29.3183 83.5356 29.7115 83.908 29.7115 84.367V85.1792Z" fill="#001C6C"/>
<path d="M16.8013 91.3473L15.6497 90.3622L14.498 91.3473H15.0206V96.3213C15.0206 96.6505 15.3021 96.9172 15.6497 96.9172C15.9972 96.9172 16.2787 96.6505 16.2787 96.3213V91.3473H16.8013Z" fill="#B32A00"/>
<path d="M25.9966 94.1852L24.845 93.2L23.6934 94.1852H24.2159V96.3213C24.2159 96.6505 24.4975 96.9172 24.845 96.9172C25.1925 96.9172 25.474 96.6505 25.474 96.3213V94.1852H25.9966Z" fill="#B32A00"/>
<path d="M14.1079 95.6413L12.9563 94.6561L11.8047 95.6413H12.3272V96.3213C12.3272 96.6505 12.6088 96.9172 12.9563 96.9172C13.3038 96.9172 13.5854 96.6505 13.5854 96.3213V95.6413H14.1079Z" fill="#B32A00"/>
<path d="M23.436 89.1392L22.2844 88.154L21.1328 89.1392H21.6554V96.3214C21.6554 96.6506 21.9369 96.9173 22.2844 96.9173C22.6319 96.9173 22.9135 96.6506 22.9135 96.3214V89.1392H23.436Z" fill="#B32A00"/>
<path d="M19.1313 79.2177H18.5605V76.7235C18.5605 76.5745 18.6874 76.4544 18.8446 76.4544C19.0019 76.4544 19.1288 76.5745 19.1288 76.7235V79.2177H19.1313Z" fill="#F4A82D"/>
<path d="M17.5149 78.4367C17.454 78.4511 17.3931 78.4174 17.3754 78.3598L17.1344 77.5091C17.1192 77.4515 17.1547 77.3938 17.2155 77.377C17.2764 77.3626 17.3373 77.3962 17.3551 77.4539L17.596 78.3045C17.6113 78.3622 17.5757 78.4222 17.5149 78.4367Z" fill="#E0F3FF"/>
<path d="M15.2091 79.6982C15.166 79.739 15.0924 79.739 15.0493 79.6982L14.3898 79.0734C14.3466 79.0326 14.3466 78.9629 14.3898 78.9221C14.4329 78.8812 14.5064 78.8812 14.5496 78.9221L15.2091 79.5468C15.2522 79.5877 15.2522 79.6573 15.2091 79.6982Z" fill="#E0F3FF"/>
<path d="M13.8761 81.8825C13.8608 81.9402 13.7974 81.9738 13.7366 81.9594L12.8386 81.7311C12.7777 81.7167 12.7422 81.6566 12.7574 81.599C12.7726 81.5413 12.8361 81.5077 12.8969 81.5221L13.7949 81.7503C13.8558 81.7672 13.8913 81.8248 13.8761 81.8825Z" fill="#E0F3FF"/>
<path d="M13.8761 84.4055C13.8913 84.4631 13.8558 84.5208 13.7949 84.5376L12.8969 84.7659C12.8361 84.7803 12.7752 84.7467 12.7574 84.689C12.7422 84.6313 12.7777 84.5737 12.8386 84.5569L13.7366 84.3286C13.7974 84.3142 13.8608 84.3478 13.8761 84.4055Z" fill="#E0F3FF"/>
<path d="M15.2091 86.5896C15.2522 86.6305 15.2522 86.7002 15.2091 86.741L14.5496 87.3658C14.5064 87.4066 14.4329 87.4066 14.3898 87.3658C14.3466 87.3249 14.3466 87.2552 14.3898 87.2144L15.0493 86.5896C15.0924 86.5488 15.1634 86.5488 15.2091 86.5896Z" fill="#E0F3FF"/>
<path d="M22.4835 86.5897C22.5266 86.5488 22.6002 86.5488 22.6433 86.5897L23.3028 87.2144C23.346 87.2553 23.346 87.325 23.3028 87.3658C23.2597 87.4067 23.1862 87.4067 23.143 87.3658L22.4835 86.7411C22.4404 86.7002 22.4404 86.6329 22.4835 86.5897Z" fill="#E0F3FF"/>
<path d="M23.816 84.4055C23.8312 84.3478 23.8947 84.3142 23.9555 84.3286L24.8535 84.5569C24.9144 84.5713 24.9499 84.6313 24.9347 84.689C24.9194 84.7467 24.856 84.7803 24.7951 84.7659L23.8972 84.5376C23.8363 84.5208 23.8008 84.4631 23.816 84.4055Z" fill="#E0F3FF"/>
<path d="M23.816 81.8825C23.8008 81.8248 23.8363 81.7672 23.8972 81.7503L24.7951 81.5221C24.856 81.5077 24.9169 81.5413 24.9347 81.599C24.9499 81.6566 24.9144 81.7143 24.8535 81.7311L23.9555 81.9594C23.8947 81.9738 23.8312 81.9402 23.816 81.8825Z" fill="#E0F3FF"/>
<path d="M22.4835 79.6982C22.4404 79.6573 22.4404 79.5877 22.4835 79.5468L23.143 78.9221C23.1862 78.8812 23.2597 78.8812 23.3028 78.9221C23.346 78.9629 23.346 79.0326 23.3028 79.0734L22.6433 79.6982C22.6002 79.739 22.5266 79.739 22.4835 79.6982Z" fill="#E0F3FF"/>
<path d="M20.1765 78.4367C20.1156 78.4222 20.0801 78.3622 20.0953 78.3045L20.3363 77.4539C20.3515 77.3962 20.4149 77.3626 20.4758 77.377C20.5367 77.3914 20.5722 77.4515 20.557 77.5091L20.316 78.3598C20.2982 78.4174 20.2374 78.4535 20.1765 78.4367Z" fill="#E0F3FF"/>
<path d="M17.0195 79.6069L16.5248 79.876L15.2083 77.7182C15.1297 77.5885 15.1754 77.4227 15.3123 77.3482C15.4493 77.2737 15.6244 77.317 15.703 77.4467L17.0195 79.6069Z" fill="#F4A82D"/>
<path d="M15.3997 80.9478L15.1156 81.4164L12.8377 80.1693C12.7008 80.0948 12.6551 79.929 12.7337 79.7992C12.8124 79.6695 12.9874 79.6262 13.1244 79.7007L15.3997 80.9478Z" fill="#F4A82D"/>
<path d="M14.7003 82.8748V83.4154H12.0673C11.91 83.4154 11.7832 83.2953 11.7832 83.1463C11.7832 82.9973 11.91 82.8772 12.0673 82.8772H14.7003V82.8748Z" fill="#F4A82D"/>
<path d="M15.1123 84.8741L15.3964 85.3426L13.1185 86.5897C12.9815 86.6642 12.8065 86.6209 12.7279 86.4912C12.6492 86.3614 12.6949 86.1956 12.8319 86.1211L15.1123 84.8741Z" fill="#F4A82D"/>
<path d="M16.5248 86.4095L17.0195 86.6786L15.703 88.8364C15.6244 88.9661 15.4493 89.0094 15.3123 88.9349C15.1754 88.8604 15.1297 88.6946 15.2083 88.5648L16.5248 86.4095Z" fill="#F4A82D"/>
<path d="M20.6719 86.6811L21.1665 86.4119L22.483 88.5697C22.5616 88.6995 22.516 88.8653 22.379 88.9398C22.242 89.0142 22.067 88.971 21.9884 88.8412L20.6719 86.6811Z" fill="#F4A82D"/>
<path d="M22.293 85.3426L22.5771 84.874L24.8549 86.1211C24.9919 86.1956 25.0376 86.3614 24.9589 86.4911C24.8803 86.6209 24.7053 86.6641 24.5683 86.5896L22.293 85.3426Z" fill="#F4A82D"/>
<path d="M22.9902 83.4154V82.8748H25.6232C25.7805 82.8748 25.9073 82.9949 25.9073 83.1439C25.9073 83.2929 25.7805 83.413 25.6232 83.413H22.9902V83.4154Z" fill="#F4A82D"/>
<path d="M22.581 81.4139L22.2969 80.9453L24.5747 79.6982C24.7117 79.6237 24.8867 79.667 24.9654 79.7967C25.044 79.9265 24.9983 80.0923 24.8614 80.1668L22.581 81.4139Z" fill="#F4A82D"/>
<path d="M21.1665 79.8784L20.6719 79.6093L21.9884 77.4515C22.067 77.3218 22.242 77.2785 22.379 77.353C22.516 77.4275 22.5616 77.5933 22.483 77.7231L21.1665 79.8784Z" fill="#F4A82D"/>
<path d="M22.8063 86.8974C24.9945 84.8246 24.9945 81.4638 22.8063 79.3909C20.6181 77.3181 17.0703 77.318 14.882 79.3909C12.6938 81.4638 12.6938 84.8246 14.882 86.8974C17.0703 88.9703 20.6181 88.9703 22.8063 86.8974Z" fill="#E0F3FF"/>
<path d="M17.3274 81.1112L13.9258 81.5797L16.3888 83.8529L15.8079 87.0607L18.8493 85.5469V78.1917L17.3274 81.1112Z" fill="#F4D34A"/>
<path d="M23.7731 81.5797L20.3716 81.1112L18.8496 78.1917V85.5469L21.891 87.0607L21.3101 83.8529L23.7731 81.5797Z" fill="#F4A82D"/>
<path d="M18.8476 96.9173C17.8203 96.9173 16.9883 96.1292 16.9883 95.156V87.0631H18.8476V96.9173Z" fill="#FF693B"/>
<path d="M21.8894 87.0655H15.8066L18.848 84.4583L21.8894 87.0655Z" fill="#FF693B"/>
<path d="M18.8476 87.0607H16.9883V87.7816H18.8476V96.9173C19.8749 96.9173 20.7069 96.1292 20.7069 95.156V87.0631H18.8476V87.0607Z" fill="#B32A00"/>
<g filter="url(#filter1_b_1104_12789)">
<path d="M142.889 36.8818C153.36 36.8818 161.848 28.6256 161.848 18.4409C161.848 8.25628 153.36 0 142.889 0C132.418 0 123.93 8.25628 123.93 18.4409C123.93 28.6256 132.418 36.8818 142.889 36.8818Z" fill="white"/>
<path d="M161.348 18.4409C161.348 28.3364 153.097 36.3818 142.889 36.3818C132.681 36.3818 124.43 28.3364 124.43 18.4409C124.43 8.54539 132.681 0.499987 142.889 0.499987C153.097 0.499987 161.348 8.54539 161.348 18.4409Z" stroke="#AAC0FF" stroke-opacity="0.15"/>
</g>
<path d="M155.48 8.49652H131.658V27.8832H155.48V8.49652Z" fill="#001C6C"/>
<path d="M154.304 12.113H132.924V26.5012H154.304V12.113Z" fill="#183A9B"/>
<path d="M154.304 9.5473H132.924V11.2738H154.304V9.5473Z" fill="#183A9B"/>
<path d="M135.889 12.7067H134.535V13.1366H135.889V12.7067Z" fill="#F4D34A"/>
<path d="M135.889 17.0161H134.535V17.446H135.889V17.0161Z" fill="#F4D34A"/>
<path d="M136.768 13.396H135.414V13.8259H136.768V13.396Z" fill="#FF693B"/>
<path d="M138.329 13.396H136.975V13.8259H138.329V13.396Z" fill="#FF693B"/>
<path d="M139.889 13.396H138.535V13.8259H139.889V13.396Z" fill="white"/>
<path d="M141.448 13.396H140.094V13.8259H141.448V13.396Z" fill="white"/>
<path d="M144.188 13.396H141.803V13.8259H144.188V13.396Z" fill="white"/>
<path d="M137.444 14.1091H136.09V14.539H137.444V14.1091Z" fill="#FF693B"/>
<path d="M139.006 14.1091H137.652V14.539H139.006V14.1091Z" fill="#FF693B"/>
<path d="M140.567 14.1091H139.213V14.539H140.567V14.1091Z" fill="white"/>
<path d="M142.124 14.1091H140.77V14.539H142.124V14.1091Z" fill="white"/>
<path d="M137.444 15.5764H136.09V16.0063H137.444V15.5764Z" fill="#FF693B"/>
<path d="M139.006 15.5764H137.652V16.0063H139.006V15.5764Z" fill="#FF693B"/>
<path d="M140.567 15.5764H139.213V16.0063H140.567V15.5764Z" fill="white"/>
<path d="M142.124 15.5764H140.77V16.0063H142.124V15.5764Z" fill="white"/>
<path d="M144.864 15.5764H142.479V16.0063H144.864V15.5764Z" fill="white"/>
<path d="M136.768 16.3132H135.414V16.7431H136.768V16.3132Z" fill="#FF693B"/>
<path d="M138.329 16.3132H136.975V16.7431H138.329V16.3132Z" fill="#FF693B"/>
<path d="M139.889 16.3132H138.535V16.7431H139.889V16.3132Z" fill="white"/>
<path d="M141.448 16.3132H140.094V16.7431H141.448V16.3132Z" fill="white"/>
<path d="M138.122 14.8256H136.768V15.2555H138.122V14.8256Z" fill="#FF693B"/>
<path d="M139.684 14.8256H138.33V15.2555H139.684V14.8256Z" fill="#FF693B"/>
<path d="M141.245 14.8256H139.891V15.2555H141.245V14.8256Z" fill="white"/>
<path d="M142.801 14.8256H141.447V15.2555H142.801V14.8256Z" fill="white"/>
<path d="M145.542 14.8256H143.156V15.2555H145.542V14.8256Z" fill="white"/>
<path d="M135.889 23.301H134.535V23.7309H135.889V23.301Z" fill="#F4D34A"/>
<path d="M136.768 23.9868H135.414V24.4167H136.768V23.9868Z" fill="#FF693B"/>
<path d="M138.329 23.9868H136.975V24.4167H138.329V23.9868Z" fill="#FF693B"/>
<path d="M139.889 23.9868H138.535V24.4167H139.889V23.9868Z" fill="white"/>
<path d="M141.448 23.9868H140.094V24.4167H141.448V23.9868Z" fill="white"/>
<path d="M144.188 23.9868H141.803V24.4167H144.188V23.9868Z" fill="white"/>
<path d="M137.444 24.7032H136.09V25.1331H137.444V24.7032Z" fill="#FF693B"/>
<path d="M139.006 24.7032H137.652V25.1331H139.006V24.7032Z" fill="#FF693B"/>
<path d="M140.567 24.7032H139.213V25.1331H140.567V24.7032Z" fill="white"/>
<path d="M138.122 25.4197H136.768V25.8496H138.122V25.4197Z" fill="#FF693B"/>
<path d="M139.684 25.4197H138.33V25.8496H139.684V25.4197Z" fill="#FF693B"/>
<path d="M141.245 25.4197H139.891V25.8496H141.245V25.4197Z" fill="white"/>
<path d="M142.801 25.4197H141.447V25.8496H142.801V25.4197Z" fill="white"/>
<path d="M145.542 25.4197H143.156V25.8496H145.542V25.4197Z" fill="white"/>
<path d="M135.61 21.885L133.986 20.8683V20.063L135.61 19.0565V19.814L134.488 20.4657L135.61 21.1344V21.885Z" fill="white"/>
<path d="M136.115 22.5402L137.325 17.6611H137.992L136.778 22.5402H136.115Z" fill="white"/>
<path d="M140.441 22.2569C140.269 22.4821 139.999 22.5947 139.631 22.5947C139.262 22.5947 138.985 22.4753 138.803 22.233C138.621 21.9942 138.529 21.6462 138.529 21.1958V19.0804C138.529 18.357 138.722 17.9067 139.115 17.7258C139.259 17.661 139.434 17.6269 139.638 17.6269C140.339 17.6269 140.69 18.0568 140.69 18.9166V19.5854H139.957V18.9644C139.957 18.7153 139.936 18.5345 139.89 18.4287C139.848 18.3195 139.761 18.2683 139.634 18.2683C139.508 18.2683 139.42 18.3263 139.371 18.4389C139.322 18.5515 139.298 18.729 139.298 18.9644V21.2333C139.298 21.496 139.322 21.6803 139.368 21.7929C139.413 21.9055 139.501 21.9601 139.627 21.9601C139.754 21.9601 139.838 21.9021 139.887 21.7895C139.932 21.6769 139.957 21.4858 139.957 21.2231V20.5271H140.704V21.2129C140.697 21.6837 140.613 22.0317 140.441 22.2569Z" fill="white"/>
<path d="M143.197 22.2467C143.022 22.4788 142.745 22.5982 142.362 22.5982C141.98 22.5982 141.699 22.4822 141.521 22.2467C141.342 22.0113 141.254 21.6599 141.254 21.1856V18.9644C141.254 18.0739 141.626 17.6304 142.373 17.6304C142.759 17.6304 143.036 17.743 143.204 17.9682C143.373 18.1933 143.457 18.5277 143.457 18.9644V21.1856C143.46 21.6565 143.373 22.0113 143.197 22.2467ZM142.085 21.7861C142.131 21.8987 142.222 21.9533 142.359 21.9533C142.496 21.9533 142.587 21.8953 142.632 21.7793C142.678 21.6633 142.699 21.4654 142.699 21.189V18.9269C142.699 18.6983 142.678 18.5277 142.632 18.4219C142.587 18.3162 142.499 18.265 142.373 18.265C142.243 18.265 142.152 18.3162 142.099 18.4219C142.047 18.5277 142.022 18.6949 142.022 18.9235V21.189C142.019 21.4756 142.04 21.6735 142.085 21.7861Z" fill="white"/>
<path d="M144.146 22.5404V17.6852H145.265C145.634 17.6852 145.897 17.7909 146.065 18.0025C146.23 18.214 146.314 18.5245 146.314 18.934L146.318 21.1244C146.318 21.6123 146.234 21.9706 146.069 22.1992C145.904 22.4278 145.627 22.5404 145.244 22.5404H144.146ZM144.908 21.9672H145.157C145.297 21.9672 145.399 21.9228 145.462 21.8341C145.525 21.7454 145.557 21.585 145.557 21.3496L145.553 18.951C145.553 18.6985 145.522 18.5211 145.458 18.4119C145.395 18.3062 145.287 18.2516 145.132 18.2516H144.908V21.9672Z" fill="white"/>
<path d="M147 22.5404V17.6852H148.673V18.3232H147.761V19.7358H148.628V20.3602H147.761V21.9058H148.708V22.5438H147V22.5404Z" fill="white"/>
<path d="M149.197 21.885V21.1276L150.32 20.4759L149.197 19.8072V19.0565L150.825 20.0665V20.8751L149.197 21.885Z" fill="white"/>
<path d="M153.735 9.91241H152.711V10.9087H153.735V9.91241Z" fill="white"/>
<path d="M152.165 9.91241H151.141V10.9087H152.165V9.91241Z" fill="white"/>
<path d="M150.599 9.91241H149.574V10.9087H150.599V9.91241Z" fill="white"/>
<path d="M134.532 9.91241H133.508V10.9087H134.532V9.91241Z" fill="white"/>
<path d="M155.469 24.7135L155.244 24.5327C155.329 24.3757 155.402 24.212 155.469 24.0448V20.2097C154.683 18.2683 152.747 16.8933 150.474 16.8933C147.506 16.8933 145.1 19.2339 145.1 22.1204C145.1 25.0069 147.506 27.3475 150.474 27.3475C151.887 27.3475 153.171 26.8153 154.132 25.9486L155.469 27.02V24.7135ZM150.474 25.6723C148.457 25.6723 146.825 24.0823 146.825 22.1238C146.825 20.162 148.46 18.5754 150.474 18.5754C152.491 18.5754 154.125 20.1654 154.125 22.1238C154.125 24.0823 152.491 25.6723 150.474 25.6723Z" fill="#2D2D2D" fill-opacity="0.7"/>
<path d="M156.863 27.3339L152.913 24.1676C153.299 23.4476 153.52 22.6254 153.52 21.7553C153.52 18.8688 151.113 16.5282 148.146 16.5282C145.178 16.5282 142.771 18.8688 142.771 21.7553C142.771 24.6418 145.178 26.9824 148.146 26.9824C149.559 26.9824 150.843 26.4502 151.804 25.5835L155.698 28.7055C156.084 29.0159 156.656 28.9614 156.975 28.586L156.985 28.5724C157.305 28.2005 157.248 27.6443 156.863 27.3339ZM148.142 25.3072C146.125 25.3072 144.494 23.7172 144.494 21.7587C144.494 19.7969 146.129 18.2103 148.142 18.2103C150.159 18.2103 151.79 19.8003 151.79 21.7587C151.794 23.7172 150.159 25.3072 148.142 25.3072Z" fill="#FF693B"/>
<g filter="url(#filter2_b_1104_12789)">
<path d="M170 93.375C178.284 93.375 185 86.8429 185 78.7852C185 70.7274 178.284 64.1953 170 64.1953C161.716 64.1953 155 70.7274 155 78.7852C155 86.8429 161.716 93.375 170 93.375Z" fill="white"/>
<path d="M184.5 78.7852C184.5 86.5538 178.021 92.875 170 92.875C161.979 92.875 155.5 86.5538 155.5 78.7852C155.5 71.0165 161.979 64.6953 170 64.6953C178.021 64.6953 184.5 71.0165 184.5 78.7852Z" stroke="#AAC0FF" stroke-opacity="0.15"/>
</g>
<path d="M172.284 87.4871H171.596C170.649 87.4871 170.187 87.0027 170.504 86.1105C170.548 85.988 170.594 85.862 170.641 85.7346C171.039 84.6605 171.788 83.7578 172.739 83.1189L174.056 82.2341C174.259 82.0975 174.544 82.0403 174.701 82.2283C174.921 82.4921 174.885 82.862 174.676 83.1342C173.976 84.0427 172.317 84.9501 172.798 85.1371C173.36 85.3557 174.821 83.7162 175.439 83.0057C175.66 82.7514 175.702 82.5094 175.658 82.3034L175.655 82.2925C175.577 81.9338 175.484 81.5026 175.723 81.2264L176.388 80.4602C176.61 80.2046 176.996 80.1734 177.256 80.3901C177.448 80.5509 177.526 80.812 177.451 81.0518L176.525 84.0343C176.151 85.2384 175.352 86.2656 174.277 86.9247C173.677 87.2925 172.988 87.4871 172.284 87.4871Z" fill="#183A9B"/>
<path d="M169.988 88.8534C169.988 88.3704 170.38 87.9789 170.863 87.9789H172.373C172.856 87.9789 173.247 88.3704 173.247 88.8534C173.247 89.3363 172.856 89.7278 172.373 89.7278H170.863C170.38 89.7278 169.988 89.3363 169.988 88.8534Z" fill="#FF693B"/>
<path d="M166.29 87.4871H166.978C167.925 87.4871 168.388 87.0026 168.07 86.1105C168.026 85.9879 167.98 85.8619 167.933 85.7346C167.536 84.6605 166.786 83.7577 165.835 83.1189L164.519 82.2341C164.315 82.0975 164.03 82.0402 163.873 82.2283C163.653 82.492 163.689 82.8619 163.898 83.1341C164.598 84.0427 166.257 84.95 165.776 85.1371C165.214 85.3557 163.753 83.7161 163.135 83.0057C162.914 82.7513 162.872 82.5094 162.917 82.3033L162.919 82.2925C162.997 81.9337 163.09 81.5025 162.851 81.2264L162.186 80.4602C161.964 80.2045 161.579 80.1733 161.319 80.3901C161.126 80.5509 161.049 80.8119 161.123 81.0517L162.049 84.0343C162.423 85.2384 163.222 86.2655 164.297 86.9246C164.897 87.2924 165.587 87.4871 166.29 87.4871Z" fill="#183A9B"/>
<path d="M165.09 88.7852C165.09 88.3023 165.481 87.9108 165.964 87.9108H167.474C167.957 87.9108 168.349 88.3023 168.349 88.7852C168.349 89.2681 167.957 89.6596 167.474 89.6596H165.964C165.481 89.6596 165.09 89.2681 165.09 88.7852Z" fill="#FF693B"/>
<path d="M168.361 69.1038C168.877 68.5527 169.751 68.5527 170.268 69.1038C170.61 69.4688 171.13 69.6066 171.608 69.4586L171.654 69.4442C172.361 69.2251 173.105 69.6556 173.268 70.378C173.376 70.8617 173.757 71.2377 174.242 71.3408L174.293 71.3517C175.012 71.5048 175.44 72.2481 175.211 72.9472C175.058 73.4161 175.198 73.9321 175.568 74.2593C176.126 74.7537 176.126 75.6275 175.568 76.1219C175.198 76.4491 175.058 76.9651 175.211 77.434C175.44 78.1331 175.012 78.8764 174.293 79.0295L174.242 79.0404C173.757 79.1435 173.376 79.5195 173.268 80.0032C173.105 80.7256 172.361 81.1561 171.654 80.937L171.608 80.9226C171.13 80.7746 170.61 80.9124 170.268 81.2774C169.751 81.8285 168.877 81.8285 168.361 81.2774C168.019 80.9124 167.498 80.7746 167.021 80.9226L166.974 80.937C166.267 81.1561 165.523 80.7256 165.361 80.0032C165.252 79.5195 164.871 79.1435 164.387 79.0404L164.336 79.0295C163.616 78.8764 163.188 78.1331 163.417 77.434C163.57 76.9651 163.43 76.4491 163.061 76.1219C162.503 75.6275 162.503 74.7537 163.061 74.2593C163.43 73.9321 163.57 73.4161 163.417 72.9472C163.188 72.2481 163.616 71.5048 164.336 71.3517L164.387 71.3408C164.871 71.2377 165.252 70.8617 165.361 70.378C165.523 69.6556 166.267 69.2251 166.974 69.4442L167.021 69.4586C167.498 69.6066 168.019 69.4688 168.361 69.1038Z" fill="#2250D2"/>
<ellipse cx="169.314" cy="75.1906" rx="4.38264" ry="4.2628" fill="#183A9B"/>
<path d="M168.13 74.8816L167.602 75.5961C167.24 76.0842 167.589 76.7755 168.196 76.7755H170.766C171.233 76.7755 171.5 76.243 171.22 75.8692L170.803 75.3107C170.662 75.123 170.397 75.0831 170.208 75.2212C170.022 75.3567 169.762 75.3213 169.62 75.141L169.399 74.8614C169.072 74.4489 168.443 74.4589 168.13 74.8816Z" fill="white"/>
<ellipse cx="170.381" cy="73.9883" rx="0.449501" ry="0.43721" fill="white"/>
<g filter="url(#filter3_b_1104_12789)">
<path d="M227.182 50.3795C237.653 50.3795 246.141 42.1232 246.141 31.9386C246.141 21.754 237.653 13.4977 227.182 13.4977C216.711 13.4977 208.223 21.754 208.223 31.9386C208.223 42.1232 216.711 50.3795 227.182 50.3795Z" fill="white"/>
<path d="M245.641 31.9386C245.641 41.8341 237.39 49.8795 227.182 49.8795C216.974 49.8795 208.723 41.8341 208.723 31.9386C208.723 22.0431 216.974 13.9977 227.182 13.9977C237.39 13.9977 245.641 22.0431 245.641 31.9386Z" stroke="#AAC0FF" stroke-opacity="0.15"/>
</g>
<path d="M227.425 41.7264L227.225 41.5235V41.4822L227.203 41.5044L227.184 41.4822V41.5235L226.981 41.7264L223.152 43.9931H227.184H227.225H231.253L227.425 41.7264Z" fill="#0A2C8C"/>
<path d="M228.582 40.5406H225.826V42.427H228.582V40.5406Z" fill="#577FEE"/>
<path d="M239.636 24.3058H214.768V41.1336H239.636V24.3058Z" fill="#0A2C8C"/>
<path d="M238.563 25.7609H215.844V39.6498H238.563V25.7609Z" fill="#EDEDED"/>
<path d="M237.749 28.0815H216.652V39.6499H237.749V28.0815Z" fill="white"/>
<path d="M238.563 25.7609H215.844V26.5439H238.563V25.7609Z" fill="#EDEDED"/>
<path d="M238.563 38.274H215.844V39.6499H238.563V38.274Z" fill="#0A2C8C"/>
<path d="M227.824 29.4622H221.885V35.3938H227.824V29.4622Z" fill="#0A2C8C"/>
<path d="M230.955 28.931H220.588V29.2544H230.955V28.931Z" fill="#0A2C8C"/>
<path d="M232.219 35.5698H221.852V35.8931H232.219V35.5698Z" fill="#0A2C8C"/>
<path d="M221.678 37.5397L221.678 27.4557L221.345 27.4557L221.345 37.5397L221.678 37.5397Z" fill="#0A2C8C"/>
<path d="M228.172 26.964L228.172 37.048L228.504 37.048L228.504 26.964L228.172 26.964Z" fill="#0A2C8C"/>
<path d="M230.66 27.4396C230.66 27.4396 227.984 27.1067 227.248 28.6411C226.511 30.1787 226.178 32.9876 225.442 33.1207C224.705 33.2539 230.663 34.3254 232.603 30.0455C234.542 25.7657 230.66 27.4396 230.66 27.4396Z" fill="#FF693B"/>
<path d="M233.537 25.1887C233.537 25.1887 234.921 24.0981 237.042 22.7825C239.137 21.4826 241.771 20.3762 241.771 20.3762C241.771 20.3762 240.445 22.5732 238.648 24.3422C237.064 25.902 235.48 27.4396 235.48 27.4396L233.537 25.1887Z" fill="#272727"/>
<path d="M239.384 21.8441C239.384 21.8441 235.835 23.5592 233.492 25.6991C231.15 27.839 234.118 25.9654 234.118 25.9654C234.118 25.9654 237.086 23.2041 239.384 21.8441Z" fill="#939393"/>
<path d="M233.542 24.9698L230.621 27.3965L232.708 29.9021L235.629 27.4753L233.542 24.9698Z" fill="#D8D8D8"/>
<path d="M231.597 26.5858L230.623 27.3947L232.71 29.9003L233.684 29.0913L231.597 26.5858Z" fill="#0A2C8C"/>
<path d="M233.491 25.3218L231.885 26.6374L232.266 27.0813L233.827 25.7434L233.491 25.3218Z" fill="white"/>
<path d="M230.928 27.4554L232.702 29.6937L233.505 29.0596L232.718 29.5288L230.928 27.4554Z" fill="white"/>
<path d="M230.279 27.8168C230.279 27.8168 228.495 27.5284 227.914 28.5745C227.333 29.6207 228.895 29.0437 230.279 27.8168Z" fill="#B22A00"/>
<path d="M240.3 41.3063C239.998 41.0368 239.687 40.7705 239.376 40.5169C237.764 39.2108 236.462 38.3389 236.072 38.0821L236.161 37.9363L232.907 35.9771L232.878 36.0246C232.878 36.0246 232.316 33.3901 230.618 33.1999C228.923 33.0097 226.192 34.0458 225.823 33.3959C225.455 32.746 226.364 38.285 231.047 38.713C231.113 38.7194 231.18 38.7257 231.243 38.7289L231.221 38.7669L232.307 39.42L234.478 40.7261L234.545 40.6152C234.738 40.7135 235.249 40.9671 235.929 41.3063H240.3Z" fill="black" fill-opacity="0.6"/>
<g filter="url(#filter4_b_1104_12789)">
<path d="M58.266 51.4717C68.7369 51.4717 77.2253 43.2154 77.2253 33.0308C77.2253 22.8461 68.7369 14.5898 58.266 14.5898C47.795 14.5898 39.3066 22.8461 39.3066 33.0308C39.3066 43.2154 47.795 51.4717 58.266 51.4717Z" fill="white"/>
<path d="M76.7253 33.0308C76.7253 42.9263 68.4739 50.9717 58.266 50.9717C48.058 50.9717 39.8066 42.9263 39.8066 33.0308C39.8066 23.1352 48.058 15.0898 58.266 15.0898C68.4739 15.0898 76.7253 23.1352 76.7253 33.0308Z" stroke="#AAC0FF" stroke-opacity="0.15"/>
</g>
<path d="M63.7444 27.0538L65.2124 28.4539L65.2067 24.2891C65.2067 24.0918 65.0382 23.9329 64.8326 23.9329L51.4377 23.9575C51.2321 23.9575 51.0664 24.1192 51.0664 24.3165L51.1007 41.8965C51.1007 42.0937 51.2692 42.2527 51.472 42.2527L54.2966 42.2472L52.483 40.5127L63.7444 27.0538Z" fill="#FF693B"/>
<path d="M65.2393 41.8718L65.2108 27.8757L63.7428 26.4756L52.4785 40.5155L54.2921 42.2499L64.8652 42.2307C65.0737 42.228 65.2393 42.0691 65.2393 41.8718Z" fill="#B22A00"/>
<path d="M61.9377 23.9339L54.332 23.9486L54.3367 26.1872L61.9424 26.1725L61.9377 23.9339Z" fill="#1A45BF"/>
<path d="M52.914 26.1879C52.6627 26.1879 52.457 26.3852 52.457 26.6263V27.0538H58.1206V26.1879H52.914Z" fill="#F4D34A"/>
<path d="M63.7465 26.6263C63.7465 26.3852 63.5637 26.1879 63.3123 26.1879H58.1172V27.0538H63.7465V26.6263Z" fill="#F4A82D"/>
<path d="M62.4475 26.8293C62.5674 26.8293 62.6646 26.736 62.6646 26.6209C62.6646 26.5059 62.5674 26.4126 62.4475 26.4126C62.3277 26.4126 62.2305 26.5059 62.2305 26.6209C62.2305 26.736 62.3277 26.8293 62.4475 26.8293Z" fill="white"/>
<path d="M61.7991 26.8293C61.919 26.8293 62.0161 26.736 62.0161 26.6209C62.0161 26.5059 61.919 26.4126 61.7991 26.4126C61.6792 26.4126 61.582 26.5059 61.582 26.6209C61.582 26.736 61.6792 26.8293 61.7991 26.8293Z" fill="white"/>
<path d="M63.313 26.6209C63.313 26.7361 63.2159 26.8293 63.096 26.8293C62.976 26.8293 62.8789 26.7361 62.8789 26.6209C62.8789 26.5058 62.976 26.4126 63.096 26.4126C63.2159 26.4126 63.313 26.5058 63.313 26.6209Z" fill="white"/>
<path d="M52.934 39.3264V38.4934H58.1234V34.3231H52.934V33.4901H58.1234V32.6571H52.934V31.8242H58.1234V30.9912H52.934V28.0786H58.1234V27.0593H52.457L52.4856 40.5183L58.1263 40.5073V39.3291H52.934V39.3264ZM52.934 36.8247V35.9917V35.1588H56.3384V35.9917V36.8247V37.6577H52.934V36.8247Z" fill="#FAFEFF"/>
<path d="M63.76 32.8928L63.7543 29.9746L63.7486 27.0565H58.125V28.0758H63.3173V30.9884H58.125V31.8214H63.3173V32.6544H58.125V33.4874H63.3173V34.3203H58.125V38.4906H63.3173V39.3236H58.125V40.5018L63.7771 40.4909L63.76 32.8928ZM63.3144 35.9917V36.8247V37.6577H59.8843V36.8247V35.9917V35.1588H63.3144V35.9917Z" fill="#C9C9C9"/>
<path d="M58.1211 28.073H52.9316V30.9856H58.1211V28.073Z" fill="#C9C9C9"/>
<path d="M63.3134 28.073H58.1211V30.9856H63.3134V28.073Z" fill="#979797"/>
<path d="M58.1211 31.8214H52.9316V32.6543H58.1211V31.8214Z" fill="#C9C9C9"/>
<path d="M63.3134 31.8214H58.1211V32.6544H63.3134V31.8214Z" fill="#979797"/>
<path d="M63.3134 33.4873H58.1211V34.3203H63.3134V33.4873Z" fill="#979797"/>
<path d="M58.1211 33.4873H52.9316V34.3203H58.1211V33.4873Z" fill="#C9C9C9"/>
<path d="M56.3361 36.8247V35.9917V35.156H52.9316V35.9917V36.8247V37.6576H56.3361V36.8247Z" fill="#C9C9C9"/>
<path d="M59.8848 35.9917V36.8247V37.6576H63.3149V36.8247V35.9917V35.156H59.8848V35.9917Z" fill="#979797"/>
<path d="M58.1211 38.4933H52.9316V39.3263H58.1211V38.4933Z" fill="#C9C9C9"/>
<path d="M63.3134 38.4933H58.1211V39.3263H63.3134V38.4933Z" fill="#979797"/>
<path d="M58.0503 42.3432L58.056 43.905L57.4706 42.8939L57.4648 40.5046L58.1474 40.5019L58.1503 42.3405L58.0503 42.3432Z" fill="#F4D34A"/>
<path d="M58.2559 43.9021L58.2502 42.3431L58.1474 42.3403L58.1445 40.5018H58.8271L58.8357 42.8883L58.2559 43.9021Z" fill="#F4A82D"/>
<path d="M58.255 42.6035L58.2579 43.9022L58.1551 44.0009L58.058 43.905L58.0551 42.6035C57.9323 42.5624 57.8438 42.4528 57.8438 42.3212C57.8438 42.1568 57.9837 42.0253 58.1522 42.0226C58.3236 42.0226 58.4635 42.1568 58.4635 42.3185C58.4635 42.45 58.375 42.5624 58.255 42.6035Z" fill="black"/>
<path d="M58.1217 28.8758L58.1074 22.7244L59.4698 22.7217V23.245H59.4726L59.4755 23.6999L59.484 28.8703L58.1217 28.8758Z" fill="#001C6C"/>
<path d="M56.7565 28.876L56.745 23.7028L56.7422 23.2507L56.745 22.7301L58.1074 22.7246L58.1217 28.876H56.7565Z" fill="#183A9B"/>
<path d="M58.1263 30.0093L57.0039 30.0116L57.025 40.5059L58.1475 40.5036L58.1263 30.0093Z" fill="#183A9B"/>
<path d="M59.2151 30.0093L58.127 30.0115L58.1484 40.5031L59.2366 40.5009L59.2151 30.0093Z" fill="#001C6C"/>
<path d="M58.4767 22.7245L58.4853 27.9306C58.4853 28.1251 58.3225 28.284 58.1169 28.284C57.9141 28.284 57.7513 28.1279 57.7484 27.9333L57.737 22.7245L56.7402 22.7273C56.7374 22.2067 57.1772 21.782 57.7199 21.782L58.1026 21.7792H58.4824C59.0251 21.7792 59.4649 22.2012 59.4678 22.7191L58.4767 22.7245Z" fill="white"/>
<path d="M59.2258 35.8236L58.1348 35.8264L58.1359 36.2815L59.2269 36.2787L59.2258 35.8236Z" fill="#C9C9C9"/>
<path d="M58.1361 35.8236L57.0137 35.8262L57.0147 36.2813L58.1372 36.2787L58.1361 35.8236Z" fill="white"/>
<path d="M59.4902 30.0076L58.1279 30.0103L58.125 28.876L59.4873 28.8705L59.4902 30.0076Z" fill="#C9C9C9"/>
<path d="M58.1239 28.8747L56.7559 28.8776L56.7583 30.012L58.1263 30.0091L58.1239 28.8747Z" fill="white"/>
<mask id="mask0_1104_12789" style="mask-type:luminance" maskUnits="userSpaceOnUse" x="247" y="66" width="32" height="34">
<path d="M273.852 94.962C279.791 88.481 279.791 77.9732 273.852 71.4922C267.913 65.0112 258.284 65.0112 252.345 71.4922C246.406 77.9732 246.406 88.481 252.345 94.962C258.284 101.443 267.913 101.443 273.852 94.962Z" fill="white"/>
</mask>
<g mask="url(#mask0_1104_12789)">
<path d="M247.891 84.1244L249.489 99.8255H247.891V84.1244Z" fill="#7C6ED8"/>
</g>
<mask id="mask1_1104_12789" style="mask-type:luminance" maskUnits="userSpaceOnUse" x="247" y="66" width="32" height="34">
<path d="M273.852 94.962C279.791 88.481 279.791 77.9732 273.852 71.4922C267.913 65.0112 258.284 65.0112 252.345 71.4922C246.406 77.9732 246.406 88.481 252.345 94.962C258.284 101.443 267.913 101.443 273.852 94.962Z" fill="white"/>
</mask>
<g mask="url(#mask1_1104_12789)">
<path d="M247.891 79.9446L249.915 99.8255H249.489L247.891 84.1244V79.9446Z" fill="#7C6ED8"/>
</g>
<mask id="mask2_1104_12789" style="mask-type:luminance" maskUnits="userSpaceOnUse" x="247" y="66" width="32" height="34">
<path d="M273.852 94.962C279.791 88.481 279.791 77.9732 273.852 71.4922C267.913 65.0112 258.284 65.0112 252.345 71.4922C246.406 77.9732 246.406 88.481 252.345 94.962C258.284 101.443 267.913 101.443 273.852 94.962Z" fill="white"/>
</mask>
<g mask="url(#mask2_1104_12789)">
<path d="M247.891 75.7641L250.34 99.8255H249.915L247.891 79.9445V75.7641Z" fill="#7D6FD9"/>
</g>
<mask id="mask3_1104_12789" style="mask-type:luminance" maskUnits="userSpaceOnUse" x="247" y="66" width="32" height="34">
<path d="M273.852 94.962C279.791 88.481 279.791 77.9732 273.852 71.4922C267.913 65.0112 258.284 65.0112 252.345 71.4922C246.406 77.9732 246.406 88.481 252.345 94.962C258.284 101.443 267.913 101.443 273.852 94.962Z" fill="white"/>
</mask>
<g mask="url(#mask3_1104_12789)">
<path d="M247.891 71.5843L250.766 99.8255H250.34L247.891 75.7641V71.5843Z" fill="#7D70D9"/>
</g>
<mask id="mask4_1104_12789" style="mask-type:luminance" maskUnits="userSpaceOnUse" x="247" y="66" width="32" height="34">
<path d="M273.852 94.962C279.791 88.481 279.791 77.9732 273.852 71.4922C267.913 65.0112 258.284 65.0112 252.345 71.4922C246.406 77.9732 246.406 88.481 252.345 94.962C258.284 101.443 267.913 101.443 273.852 94.962Z" fill="white"/>
</mask>
<g mask="url(#mask4_1104_12789)">
<path d="M247.891 67.4037L251.192 99.8255H250.766L247.891 71.5842V67.4037Z" fill="#7E71DA"/>
</g>
<mask id="mask5_1104_12789" style="mask-type:luminance" maskUnits="userSpaceOnUse" x="247" y="66" width="32" height="34">
<path d="M273.852 94.962C279.791 88.481 279.791 77.9732 273.852 71.4922C267.913 65.0112 258.284 65.0112 252.345 71.4922C246.406 77.9732 246.406 88.481 252.345 94.962C258.284 101.443 267.913 101.443 273.852 94.962Z" fill="white"/>
</mask>
<g mask="url(#mask5_1104_12789)">
<path d="M247.891 67.183L248.289 67.1346L251.618 99.8255H251.192L247.891 67.4038V67.183Z" fill="#7E72DA"/>
</g>
<mask id="mask6_1104_12789" style="mask-type:luminance" maskUnits="userSpaceOnUse" x="247" y="66" width="32" height="34">
<path d="M273.852 94.962C279.791 88.481 279.791 77.9732 273.852 71.4922C267.913 65.0112 258.284 65.0112 252.345 71.4922C246.406 77.9732 246.406 88.481 252.345 94.962C258.284 101.443 267.913 101.443 273.852 94.962Z" fill="white"/>
</mask>
<g mask="url(#mask6_1104_12789)">
<path d="M248.287 67.1347L248.708 67.0837L252.042 99.8256H251.616L248.287 67.1347Z" fill="#7F73DB"/>
</g>
<mask id="mask7_1104_12789" style="mask-type:luminance" maskUnits="userSpaceOnUse" x="247" y="66" width="32" height="34">
<path d="M273.852 94.962C279.791 88.481 279.791 77.9732 273.852 71.4922C267.913 65.0112 258.284 65.0112 252.345 71.4922C246.406 77.9732 246.406 88.481 252.345 94.962C258.284 101.443 267.913 101.443 273.852 94.962Z" fill="white"/>
</mask>
<g mask="url(#mask7_1104_12789)">
<path d="M248.709 67.0837L249.13 67.0327L252.468 99.8255H252.043L248.709 67.0837Z" fill="#7F74DB"/>
</g>
<mask id="mask8_1104_12789" style="mask-type:luminance" maskUnits="userSpaceOnUse" x="247" y="66" width="32" height="34">
<path d="M273.852 94.962C279.791 88.481 279.791 77.9732 273.852 71.4922C267.913 65.0112 258.284 65.0112 252.345 71.4922C246.406 77.9732 246.406 88.481 252.345 94.962C258.284 101.443 267.913 101.443 273.852 94.962Z" fill="white"/>
</mask>
<g mask="url(#mask8_1104_12789)">
<path d="M249.129 67.0326L249.549 66.9816L252.893 99.8255H252.468L249.129 67.0326Z" fill="#8075DC"/>
</g>
<mask id="mask9_1104_12789" style="mask-type:luminance" maskUnits="userSpaceOnUse" x="247" y="66" width="32" height="34">
<path d="M273.852 94.962C279.791 88.481 279.791 77.9732 273.852 71.4922C267.913 65.0112 258.284 65.0112 252.345 71.4922C246.406 77.9732 246.406 88.481 252.345 94.962C258.284 101.443 267.913 101.443 273.852 94.962Z" fill="white"/>
</mask>
<g mask="url(#mask9_1104_12789)">
<path d="M249.549 66.9816L249.97 66.9306L253.319 99.8255H252.893L249.549 66.9816Z" fill="#8076DC"/>
</g>
<mask id="mask10_1104_12789" style="mask-type:luminance" maskUnits="userSpaceOnUse" x="247" y="66" width="32" height="34">
<path d="M273.852 94.962C279.791 88.481 279.791 77.9732 273.852 71.4922C267.913 65.0112 258.284 65.0112 252.345 71.4922C246.406 77.9732 246.406 88.481 252.345 94.962C258.284 101.443 267.913 101.443 273.852 94.962Z" fill="white"/>
</mask>
<g mask="url(#mask10_1104_12789)">
<path d="M249.971 66.9306L250.391 66.8796L253.746 99.8255H253.32L249.971 66.9306Z" fill="#8177DD"/>
</g>
<mask id="mask11_1104_12789" style="mask-type:luminance" maskUnits="userSpaceOnUse" x="247" y="66" width="32" height="34">
<path d="M273.852 94.962C279.791 88.481 279.791 77.9732 273.852 71.4922C267.913 65.0112 258.284 65.0112 252.345 71.4922C246.406 77.9732 246.406 88.481 252.345 94.962C258.284 101.443 267.913 101.443 273.852 94.962Z" fill="white"/>
</mask>
<g mask="url(#mask11_1104_12789)">
<path d="M250.391 66.8796L250.811 66.8286L254.171 99.8255H253.745L250.391 66.8796Z" fill="#8178DD"/>
</g>
<mask id="mask12_1104_12789" style="mask-type:luminance" maskUnits="userSpaceOnUse" x="247" y="66" width="32" height="34">
<path d="M273.852 94.962C279.791 88.481 279.791 77.9732 273.852 71.4922C267.913 65.0112 258.284 65.0112 252.345 71.4922C246.406 77.9732 246.406 88.481 252.345 94.962C258.284 101.443 267.913 101.443 273.852 94.962Z" fill="white"/>
</mask>
<g mask="url(#mask12_1104_12789)">
<path d="M250.811 66.8287L251.231 66.7776L254.596 99.8256H254.17L250.811 66.8287Z" fill="#8279DE"/>
</g>
<mask id="mask13_1104_12789" style="mask-type:luminance" maskUnits="userSpaceOnUse" x="247" y="66" width="32" height="34">
<path d="M273.852 94.962C279.791 88.481 279.791 77.9732 273.852 71.4922C267.913 65.0112 258.284 65.0112 252.345 71.4922C246.406 77.9732 246.406 88.481 252.345 94.962C258.284 101.443 267.913 101.443 273.852 94.962Z" fill="white"/>
</mask>
<g mask="url(#mask13_1104_12789)">
<path d="M251.23 66.7776L251.651 66.7266L255.021 99.8255H254.595L251.23 66.7776Z" fill="#827ADE"/>
</g>
<mask id="mask14_1104_12789" style="mask-type:luminance" maskUnits="userSpaceOnUse" x="247" y="66" width="32" height="34">
<path d="M273.852 94.962C279.791 88.481 279.791 77.9732 273.852 71.4922C267.913 65.0112 258.284 65.0112 252.345 71.4922C246.406 77.9732 246.406 88.481 252.345 94.962C258.284 101.443 267.913 101.443 273.852 94.962Z" fill="white"/>
</mask>
<g mask="url(#mask14_1104_12789)">
<path d="M251.65 66.7266L252.071 66.6756L255.446 99.8255H255.021L251.65 66.7266Z" fill="#837BDF"/>
</g>
<mask id="mask15_1104_12789" style="mask-type:luminance" maskUnits="userSpaceOnUse" x="247" y="66" width="32" height="34">
<path d="M273.852 94.962C279.791 88.481 279.791 77.9732 273.852 71.4922C267.913 65.0112 258.284 65.0112 252.345 71.4922C246.406 77.9732 246.406 88.481 252.345 94.962C258.284 101.443 267.913 101.443 273.852 94.962Z" fill="white"/>
</mask>
<g mask="url(#mask15_1104_12789)">
<path d="M252.072 66.6756L252.481 66.6259H252.493L255.873 99.8255H255.447L252.072 66.6756Z" fill="#847CDF"/>
</g>
<mask id="mask16_1104_12789" style="mask-type:luminance" maskUnits="userSpaceOnUse" x="247" y="66" width="32" height="34">
<path d="M273.852 94.962C279.791 88.481 279.791 77.9732 273.852 71.4922C267.913 65.0112 258.284 65.0112 252.345 71.4922C246.406 77.9732 246.406 88.481 252.345 94.962C258.284 101.443 267.913 101.443 273.852 94.962Z" fill="white"/>
</mask>
<g mask="url(#mask16_1104_12789)">
<path d="M252.918 66.6259L256.298 99.8255H255.872L252.492 66.6259H252.918Z" fill="#847DE0"/>
</g>
<mask id="mask17_1104_12789" style="mask-type:luminance" maskUnits="userSpaceOnUse" x="247" y="66" width="32" height="34">
<path d="M273.852 94.962C279.791 88.481 279.791 77.9732 273.852 71.4922C267.913 65.0112 258.284 65.0112 252.345 71.4922C246.406 77.9732 246.406 88.481 252.345 94.962C258.284 101.443 267.913 101.443 273.852 94.962Z" fill="white"/>
</mask>
<g mask="url(#mask17_1104_12789)">
<path d="M253.344 66.6259L256.724 99.8255H256.298L252.918 66.6259H253.344Z" fill="#857EE0"/>
</g>
<mask id="mask18_1104_12789" style="mask-type:luminance" maskUnits="userSpaceOnUse" x="247" y="66" width="32" height="34">
<path d="M273.852 94.962C279.791 88.481 279.791 77.9732 273.852 71.4922C267.913 65.0112 258.284 65.0112 252.345 71.4922C246.406 77.9732 246.406 88.481 252.345 94.962C258.284 101.443 267.913 101.443 273.852 94.962Z" fill="white"/>
</mask>
<g mask="url(#mask18_1104_12789)">
<path d="M253.769 66.6259L257.149 99.8255H256.724L253.344 66.6259H253.769Z" fill="#857FE1"/>
</g>
<mask id="mask19_1104_12789" style="mask-type:luminance" maskUnits="userSpaceOnUse" x="247" y="66" width="32" height="34">
<path d="M273.852 94.962C279.791 88.481 279.791 77.9732 273.852 71.4922C267.913 65.0112 258.284 65.0112 252.345 71.4922C246.406 77.9732 246.406 88.481 252.345 94.962C258.284 101.443 267.913 101.443 273.852 94.962Z" fill="white"/>
</mask>
<g mask="url(#mask19_1104_12789)">
<path d="M254.195 66.6259L257.575 99.8255H257.15L253.77 66.6259H254.195Z" fill="#8680E1"/>
</g>
<mask id="mask20_1104_12789" style="mask-type:luminance" maskUnits="userSpaceOnUse" x="247" y="66" width="32" height="34">
<path d="M273.852 94.962C279.791 88.481 279.791 77.9732 273.852 71.4922C267.913 65.0112 258.284 65.0112 252.345 71.4922C246.406 77.9732 246.406 88.481 252.345 94.962C258.284 101.443 267.913 101.443 273.852 94.962Z" fill="white"/>
</mask>
<g mask="url(#mask20_1104_12789)">
<path d="M254.621 66.6259L258.001 99.8255H257.575L254.195 66.6259H254.621Z" fill="#8681E2"/>
</g>
<mask id="mask21_1104_12789" style="mask-type:luminance" maskUnits="userSpaceOnUse" x="247" y="66" width="32" height="34">
<path d="M273.852 94.962C279.791 88.481 279.791 77.9732 273.852 71.4922C267.913 65.0112 258.284 65.0112 252.345 71.4922C246.406 77.9732 246.406 88.481 252.345 94.962C258.284 101.443 267.913 101.443 273.852 94.962Z" fill="white"/>
</mask>
<g mask="url(#mask21_1104_12789)">
<path d="M255.047 66.6259L258.427 99.8255H258.001L254.621 66.6259H255.047Z" fill="#8782E2"/>
</g>
<mask id="mask22_1104_12789" style="mask-type:luminance" maskUnits="userSpaceOnUse" x="247" y="66" width="32" height="34">
<path d="M273.852 94.962C279.791 88.481 279.791 77.9732 273.852 71.4922C267.913 65.0112 258.284 65.0112 252.345 71.4922C246.406 77.9732 246.406 88.481 252.345 94.962C258.284 101.443 267.913 101.443 273.852 94.962Z" fill="white"/>
</mask>
<g mask="url(#mask22_1104_12789)">
<path d="M255.472 66.6259L258.852 99.8255H258.427L255.047 66.6259H255.472Z" fill="#8783E3"/>
</g>
<mask id="mask23_1104_12789" style="mask-type:luminance" maskUnits="userSpaceOnUse" x="247" y="66" width="32" height="34">
<path d="M273.852 94.962C279.791 88.481 279.791 77.9732 273.852 71.4922C267.913 65.0112 258.284 65.0112 252.345 71.4922C246.406 77.9732 246.406 88.481 252.345 94.962C258.284 101.443 267.913 101.443 273.852 94.962Z" fill="white"/>
</mask>
<g mask="url(#mask23_1104_12789)">
<path d="M255.896 66.6259L259.277 99.8255H258.851L255.471 66.6259H255.896Z" fill="#8884E3"/>
</g>
<mask id="mask24_1104_12789" style="mask-type:luminance" maskUnits="userSpaceOnUse" x="247" y="66" width="32" height="34">
<path d="M273.852 94.962C279.791 88.481 279.791 77.9732 273.852 71.4922C267.913 65.0112 258.284 65.0112 252.345 71.4922C246.406 77.9732 246.406 88.481 252.345 94.962C258.284 101.443 267.913 101.443 273.852 94.962Z" fill="white"/>
</mask>
<g mask="url(#mask24_1104_12789)">
<path d="M256.322 66.6259L259.703 99.8255H259.277L255.896 66.6259H256.322Z" fill="#8885E4"/>
</g>
<mask id="mask25_1104_12789" style="mask-type:luminance" maskUnits="userSpaceOnUse" x="247" y="66" width="32" height="34">
<path d="M273.852 94.962C279.791 88.481 279.791 77.9732 273.852 71.4922C267.913 65.0112 258.284 65.0112 252.345 71.4922C246.406 77.9732 246.406 88.481 252.345 94.962C258.284 101.443 267.913 101.443 273.852 94.962Z" fill="white"/>
</mask>
<g mask="url(#mask25_1104_12789)">
<path d="M256.748 66.6259L260.129 99.8255H259.703L256.322 66.6259H256.748Z" fill="#8986E4"/>
</g>
<mask id="mask26_1104_12789" style="mask-type:luminance" maskUnits="userSpaceOnUse" x="247" y="66" width="32" height="34">
<path d="M273.852 94.962C279.791 88.481 279.791 77.9732 273.852 71.4922C267.913 65.0112 258.284 65.0112 252.345 71.4922C246.406 77.9732 246.406 88.481 252.345 94.962C258.284 101.443 267.913 101.443 273.852 94.962Z" fill="white"/>
</mask>
<g mask="url(#mask26_1104_12789)">
<path d="M257.174 66.6259L260.554 99.8255H260.129L256.748 66.6259H257.174Z" fill="#8987E5"/>
</g>
<mask id="mask27_1104_12789" style="mask-type:luminance" maskUnits="userSpaceOnUse" x="247" y="66" width="32" height="34">
<path d="M273.852 94.962C279.791 88.481 279.791 77.9732 273.852 71.4922C267.913 65.0112 258.284 65.0112 252.345 71.4922C246.406 77.9732 246.406 88.481 252.345 94.962C258.284 101.443 267.913 101.443 273.852 94.962Z" fill="white"/>
</mask>
<g mask="url(#mask27_1104_12789)">
<path d="M257.599 66.6259L260.98 99.8255H260.554L257.174 66.6259H257.599Z" fill="#8A88E5"/>
</g>
<mask id="mask28_1104_12789" style="mask-type:luminance" maskUnits="userSpaceOnUse" x="247" y="66" width="32" height="34">
<path d="M273.852 94.962C279.791 88.481 279.791 77.9732 273.852 71.4922C267.913 65.0112 258.284 65.0112 252.345 71.4922C246.406 77.9732 246.406 88.481 252.345 94.962C258.284 101.443 267.913 101.443 273.852 94.962Z" fill="white"/>
</mask>
<g mask="url(#mask28_1104_12789)">
<path d="M258.025 66.6259L261.406 99.8255H260.98L257.6 66.6259H258.025Z" fill="#8B89E6"/>
</g>
<mask id="mask29_1104_12789" style="mask-type:luminance" maskUnits="userSpaceOnUse" x="247" y="66" width="32" height="34">
<path d="M273.852 94.962C279.791 88.481 279.791 77.9732 273.852 71.4922C267.913 65.0112 258.284 65.0112 252.345 71.4922C246.406 77.9732 246.406 88.481 252.345 94.962C258.284 101.443 267.913 101.443 273.852 94.962Z" fill="white"/>
</mask>
<g mask="url(#mask29_1104_12789)">
<path d="M258.451 66.6259L261.832 99.8255H261.406L258.025 66.6259H258.451Z" fill="#8B8AE6"/>
</g>
<mask id="mask30_1104_12789" style="mask-type:luminance" maskUnits="userSpaceOnUse" x="247" y="66" width="32" height="34">
<path d="M273.852 94.962C279.791 88.481 279.791 77.9732 273.852 71.4922C267.913 65.0112 258.284 65.0112 252.345 71.4922C246.406 77.9732 246.406 88.481 252.345 94.962C258.284 101.443 267.913 101.443 273.852 94.962Z" fill="white"/>
</mask>
<g mask="url(#mask30_1104_12789)">
<path d="M258.877 66.6259L262.257 99.8255H261.832L258.451 66.6259H258.877Z" fill="#8C8BE7"/>
</g>
<mask id="mask31_1104_12789" style="mask-type:luminance" maskUnits="userSpaceOnUse" x="247" y="66" width="32" height="34">
<path d="M273.852 94.962C279.791 88.481 279.791 77.9732 273.852 71.4922C267.913 65.0112 258.284 65.0112 252.345 71.4922C246.406 77.9732 246.406 88.481 252.345 94.962C258.284 101.443 267.913 101.443 273.852 94.962Z" fill="white"/>
</mask>
<g mask="url(#mask31_1104_12789)">
<path d="M259.303 66.6259L262.683 99.8255H262.258L258.877 66.6259H259.303Z" fill="#8C8CE7"/>
</g>
<mask id="mask32_1104_12789" style="mask-type:luminance" maskUnits="userSpaceOnUse" x="247" y="66" width="32" height="34">
<path d="M273.852 94.962C279.791 88.481 279.791 77.9732 273.852 71.4922C267.913 65.0112 258.284 65.0112 252.345 71.4922C246.406 77.9732 246.406 88.481 252.345 94.962C258.284 101.443 267.913 101.443 273.852 94.962Z" fill="white"/>
</mask>
<g mask="url(#mask32_1104_12789)">
<path d="M259.728 66.6259L263.108 99.8255H262.683L259.303 66.6259H259.728Z" fill="#8D8DE8"/>
</g>
<mask id="mask33_1104_12789" style="mask-type:luminance" maskUnits="userSpaceOnUse" x="247" y="66" width="32" height="34">
<path d="M273.852 94.962C279.791 88.481 279.791 77.9732 273.852 71.4922C267.913 65.0112 258.284 65.0112 252.345 71.4922C246.406 77.9732 246.406 88.481 252.345 94.962C258.284 101.443 267.913 101.443 273.852 94.962Z" fill="white"/>
</mask>
<g mask="url(#mask33_1104_12789)">
<path d="M260.154 66.6259L263.534 99.8255H263.109L259.729 66.6259H260.154Z" fill="#8D8EE8"/>
</g>
<mask id="mask34_1104_12789" style="mask-type:luminance" maskUnits="userSpaceOnUse" x="247" y="66" width="32" height="34">
<path d="M273.852 94.962C279.791 88.481 279.791 77.9732 273.852 71.4922C267.913 65.0112 258.284 65.0112 252.345 71.4922C246.406 77.9732 246.406 88.481 252.345 94.962C258.284 101.443 267.913 101.443 273.852 94.962Z" fill="white"/>
</mask>
<g mask="url(#mask34_1104_12789)">
<path d="M260.58 66.6259L263.96 99.8255H263.534L260.154 66.6259H260.58Z" fill="#8E8FE9"/>
</g>
<mask id="mask35_1104_12789" style="mask-type:luminance" maskUnits="userSpaceOnUse" x="247" y="66" width="32" height="34">
<path d="M273.852 94.962C279.791 88.481 279.791 77.9732 273.852 71.4922C267.913 65.0112 258.284 65.0112 252.345 71.4922C246.406 77.9732 246.406 88.481 252.345 94.962C258.284 101.443 267.913 101.443 273.852 94.962Z" fill="white"/>
</mask>
<g mask="url(#mask35_1104_12789)">
<path d="M261.006 66.6259L264.386 99.8255H263.96L260.58 66.6259H261.006Z" fill="#8E90E9"/>
</g>
<mask id="mask36_1104_12789" style="mask-type:luminance" maskUnits="userSpaceOnUse" x="247" y="66" width="32" height="34">
<path d="M273.852 94.962C279.791 88.481 279.791 77.9732 273.852 71.4922C267.913 65.0112 258.284 65.0112 252.345 71.4922C246.406 77.9732 246.406 88.481 252.345 94.962C258.284 101.443 267.913 101.443 273.852 94.962Z" fill="white"/>
</mask>
<g mask="url(#mask36_1104_12789)">
<path d="M261.429 66.6259L264.81 99.8255H264.384L261.004 66.6259H261.429Z" fill="#8F91EA"/>
</g>
<mask id="mask37_1104_12789" style="mask-type:luminance" maskUnits="userSpaceOnUse" x="247" y="66" width="32" height="34">
<path d="M273.852 94.962C279.791 88.481 279.791 77.9732 273.852 71.4922C267.913 65.0112 258.284 65.0112 252.345 71.4922C246.406 77.9732 246.406 88.481 252.345 94.962C258.284 101.443 267.913 101.443 273.852 94.962Z" fill="white"/>
</mask>
<g mask="url(#mask37_1104_12789)">
<path d="M261.855 66.6259L265.235 99.8255H264.81L261.43 66.6259H261.855Z" fill="#8F92EA"/>
</g>
<mask id="mask38_1104_12789" style="mask-type:luminance" maskUnits="userSpaceOnUse" x="247" y="66" width="32" height="34">
<path d="M273.852 94.962C279.791 88.481 279.791 77.9732 273.852 71.4922C267.913 65.0112 258.284 65.0112 252.345 71.4922C246.406 77.9732 246.406 88.481 252.345 94.962C258.284 101.443 267.913 101.443 273.852 94.962Z" fill="white"/>
</mask>
<g mask="url(#mask38_1104_12789)">
<path d="M262.281 66.6259L265.661 99.8255H265.236L261.855 66.6259H262.281Z" fill="#9093EB"/>
</g>
<mask id="mask39_1104_12789" style="mask-type:luminance" maskUnits="userSpaceOnUse" x="247" y="66" width="32" height="34">
<path d="M273.852 94.962C279.791 88.481 279.791 77.9732 273.852 71.4922C267.913 65.0112 258.284 65.0112 252.345 71.4922C246.406 77.9732 246.406 88.481 252.345 94.962C258.284 101.443 267.913 101.443 273.852 94.962Z" fill="white"/>
</mask>
<g mask="url(#mask39_1104_12789)">
<path d="M262.707 66.6259L266.087 99.8255H265.661L262.281 66.6259H262.707Z" fill="#9094EB"/>
</g>
<mask id="mask40_1104_12789" style="mask-type:luminance" maskUnits="userSpaceOnUse" x="247" y="66" width="32" height="34">
<path d="M273.852 94.962C279.791 88.481 279.791 77.9732 273.852 71.4922C267.913 65.0112 258.284 65.0112 252.345 71.4922C246.406 77.9732 246.406 88.481 252.345 94.962C258.284 101.443 267.913 101.443 273.852 94.962Z" fill="white"/>
</mask>
<g mask="url(#mask40_1104_12789)">
<path d="M263.133 66.6259L266.513 99.8255H266.087L262.707 66.6259H263.133Z" fill="#9196EC"/>
</g>
<mask id="mask41_1104_12789" style="mask-type:luminance" maskUnits="userSpaceOnUse" x="247" y="66" width="32" height="34">
<path d="M273.852 94.962C279.791 88.481 279.791 77.9732 273.852 71.4922C267.913 65.0112 258.284 65.0112 252.345 71.4922C246.406 77.9732 246.406 88.481 252.345 94.962C258.284 101.443 267.913 101.443 273.852 94.962Z" fill="white"/>
</mask>
<g mask="url(#mask41_1104_12789)">
<path d="M263.558 66.6259L266.938 99.8255H266.513L263.133 66.6259H263.558Z" fill="#9297EC"/>
</g>
<mask id="mask42_1104_12789" style="mask-type:luminance" maskUnits="userSpaceOnUse" x="247" y="66" width="32" height="34">
<path d="M273.852 94.962C279.791 88.481 279.791 77.9732 273.852 71.4922C267.913 65.0112 258.284 65.0112 252.345 71.4922C246.406 77.9732 246.406 88.481 252.345 94.962C258.284 101.443 267.913 101.443 273.852 94.962Z" fill="white"/>
</mask>
<g mask="url(#mask42_1104_12789)">
<path d="M263.984 66.6259L267.365 99.8255H266.939L263.559 66.6259H263.984Z" fill="#9298ED"/>
</g>
<mask id="mask43_1104_12789" style="mask-type:luminance" maskUnits="userSpaceOnUse" x="247" y="66" width="32" height="34">
<path d="M273.852 94.962C279.791 88.481 279.791 77.9732 273.852 71.4922C267.913 65.0112 258.284 65.0112 252.345 71.4922C246.406 77.9732 246.406 88.481 252.345 94.962C258.284 101.443 267.913 101.443 273.852 94.962Z" fill="white"/>
</mask>
<g mask="url(#mask43_1104_12789)">
<path d="M264.41 66.6259L267.791 99.8255H267.365L263.984 66.6259H264.41Z" fill="#9399ED"/>
</g>
<mask id="mask44_1104_12789" style="mask-type:luminance" maskUnits="userSpaceOnUse" x="247" y="66" width="32" height="34">
<path d="M273.852 94.962C279.791 88.481 279.791 77.9732 273.852 71.4922C267.913 65.0112 258.284 65.0112 252.345 71.4922C246.406 77.9732 246.406 88.481 252.345 94.962C258.284 101.443 267.913 101.443 273.852 94.962Z" fill="white"/>
</mask>
<g mask="url(#mask44_1104_12789)">
<path d="M264.836 66.6259L268.216 99.8255H267.791L264.41 66.6259H264.836Z" fill="#939AEE"/>
</g>
<mask id="mask45_1104_12789" style="mask-type:luminance" maskUnits="userSpaceOnUse" x="247" y="66" width="32" height="34">
<path d="M273.852 94.962C279.791 88.481 279.791 77.9732 273.852 71.4922C267.913 65.0112 258.284 65.0112 252.345 71.4922C246.406 77.9732 246.406 88.481 252.345 94.962C258.284 101.443 267.913 101.443 273.852 94.962Z" fill="white"/>
</mask>
<g mask="url(#mask45_1104_12789)">
<path d="M265.262 66.6259L268.642 99.8255H268.217L264.836 66.6259H265.262Z" fill="#949BEE"/>
</g>
<mask id="mask46_1104_12789" style="mask-type:luminance" maskUnits="userSpaceOnUse" x="247" y="66" width="32" height="34">
<path d="M273.852 94.962C279.791 88.481 279.791 77.9732 273.852 71.4922C267.913 65.0112 258.284 65.0112 252.345 71.4922C246.406 77.9732 246.406 88.481 252.345 94.962C258.284 101.443 267.913 101.443 273.852 94.962Z" fill="white"/>
</mask>
<g mask="url(#mask46_1104_12789)">
<path d="M265.685 66.6259L269.066 99.8255H268.64L265.26 66.6259H265.685Z" fill="#949CEF"/>
</g>
<mask id="mask47_1104_12789" style="mask-type:luminance" maskUnits="userSpaceOnUse" x="247" y="66" width="32" height="34">
<path d="M273.852 94.962C279.791 88.481 279.791 77.9732 273.852 71.4922C267.913 65.0112 258.284 65.0112 252.345 71.4922C246.406 77.9732 246.406 88.481 252.345 94.962C258.284 101.443 267.913 101.443 273.852 94.962Z" fill="white"/>
</mask>
<g mask="url(#mask47_1104_12789)">
<path d="M266.111 66.6259L269.492 99.8255H269.066L265.686 66.6259H266.111Z" fill="#959DEF"/>
</g>
<mask id="mask48_1104_12789" style="mask-type:luminance" maskUnits="userSpaceOnUse" x="247" y="66" width="32" height="34">
<path d="M273.852 94.962C279.791 88.481 279.791 77.9732 273.852 71.4922C267.913 65.0112 258.284 65.0112 252.345 71.4922C246.406 77.9732 246.406 88.481 252.345 94.962C258.284 101.443 267.913 101.443 273.852 94.962Z" fill="white"/>
</mask>
<g mask="url(#mask48_1104_12789)">
<path d="M266.537 66.6259L269.918 99.8255H269.492L266.111 66.6259H266.537Z" fill="#959EF0"/>
</g>
<mask id="mask49_1104_12789" style="mask-type:luminance" maskUnits="userSpaceOnUse" x="247" y="66" width="32" height="34">
<path d="M273.852 94.962C279.791 88.481 279.791 77.9732 273.852 71.4922C267.913 65.0112 258.284 65.0112 252.345 71.4922C246.406 77.9732 246.406 88.481 252.345 94.962C258.284 101.443 267.913 101.443 273.852 94.962Z" fill="white"/>
</mask>
<g mask="url(#mask49_1104_12789)">
<path d="M266.963 66.6259L270.343 99.8255H269.918L266.537 66.6259H266.963Z" fill="#969FF0"/>
</g>
<mask id="mask50_1104_12789" style="mask-type:luminance" maskUnits="userSpaceOnUse" x="247" y="66" width="32" height="34">
<path d="M273.852 94.962C279.791 88.481 279.791 77.9732 273.852 71.4922C267.913 65.0112 258.284 65.0112 252.345 71.4922C246.406 77.9732 246.406 88.481 252.345 94.962C258.284 101.443 267.913 101.443 273.852 94.962Z" fill="white"/>
</mask>
<g mask="url(#mask50_1104_12789)">
<path d="M267.389 66.6259L270.769 99.8255H270.344L266.963 66.6259H267.389Z" fill="#96A0F1"/>
</g>
<mask id="mask51_1104_12789" style="mask-type:luminance" maskUnits="userSpaceOnUse" x="247" y="66" width="32" height="34">
<path d="M273.852 94.962C279.791 88.481 279.791 77.9732 273.852 71.4922C267.913 65.0112 258.284 65.0112 252.345 71.4922C246.406 77.9732 246.406 88.481 252.345 94.962C258.284 101.443 267.913 101.443 273.852 94.962Z" fill="white"/>
</mask>
<g mask="url(#mask51_1104_12789)">
<path d="M267.814 66.6259L271.194 99.8255H270.769L267.389 66.6259H267.814Z" fill="#97A1F1"/>
</g>
<mask id="mask52_1104_12789" style="mask-type:luminance" maskUnits="userSpaceOnUse" x="247" y="66" width="32" height="34">
<path d="M273.852 94.962C279.791 88.481 279.791 77.9732 273.852 71.4922C267.913 65.0112 258.284 65.0112 252.345 71.4922C246.406 77.9732 246.406 88.481 252.345 94.962C258.284 101.443 267.913 101.443 273.852 94.962Z" fill="white"/>
</mask>
<g mask="url(#mask52_1104_12789)">
<path d="M268.24 66.6259L271.62 99.8255H271.194L267.814 66.6259H268.24Z" fill="#97A2F2"/>
</g>
<mask id="mask53_1104_12789" style="mask-type:luminance" maskUnits="userSpaceOnUse" x="247" y="66" width="32" height="34">
<path d="M273.852 94.962C279.791 88.481 279.791 77.9732 273.852 71.4922C267.913 65.0112 258.284 65.0112 252.345 71.4922C246.406 77.9732 246.406 88.481 252.345 94.962C258.284 101.443 267.913 101.443 273.852 94.962Z" fill="white"/>
</mask>
<g mask="url(#mask53_1104_12789)">
<path d="M268.666 66.6259L272.046 99.8255H271.62L268.24 66.6259H268.666Z" fill="#98A3F2"/>
</g>
<mask id="mask54_1104_12789" style="mask-type:luminance" maskUnits="userSpaceOnUse" x="247" y="66" width="32" height="34">
<path d="M273.852 94.962C279.791 88.481 279.791 77.9732 273.852 71.4922C267.913 65.0112 258.284 65.0112 252.345 71.4922C246.406 77.9732 246.406 88.481 252.345 94.962C258.284 101.443 267.913 101.443 273.852 94.962Z" fill="white"/>
</mask>
<g mask="url(#mask54_1104_12789)">
<path d="M269.092 66.6259L272.472 99.8255H272.046L268.666 66.6259H269.092Z" fill="#99A4F3"/>
</g>
<mask id="mask55_1104_12789" style="mask-type:luminance" maskUnits="userSpaceOnUse" x="247" y="66" width="32" height="34">
<path d="M273.852 94.962C279.791 88.481 279.791 77.9732 273.852 71.4922C267.913 65.0112 258.284 65.0112 252.345 71.4922C246.406 77.9732 246.406 88.481 252.345 94.962C258.284 101.443 267.913 101.443 273.852 94.962Z" fill="white"/>
</mask>
<g mask="url(#mask55_1104_12789)">
<path d="M269.517 66.6259L272.897 99.8255H272.472L269.092 66.6259H269.517Z" fill="#99A5F3"/>
</g>
<mask id="mask56_1104_12789" style="mask-type:luminance" maskUnits="userSpaceOnUse" x="247" y="66" width="32" height="34">
<path d="M273.852 94.962C279.791 88.481 279.791 77.9732 273.852 71.4922C267.913 65.0112 258.284 65.0112 252.345 71.4922C246.406 77.9732 246.406 88.481 252.345 94.962C258.284 101.443 267.913 101.443 273.852 94.962Z" fill="white"/>
</mask>
<g mask="url(#mask56_1104_12789)">
<path d="M269.943 66.6259L273.323 99.8255H272.898L269.518 66.6259H269.943Z" fill="#9AA6F4"/>
</g>
<mask id="mask57_1104_12789" style="mask-type:luminance" maskUnits="userSpaceOnUse" x="247" y="66" width="32" height="34">
<path d="M273.852 94.962C279.791 88.481 279.791 77.9732 273.852 71.4922C267.913 65.0112 258.284 65.0112 252.345 71.4922C246.406 77.9732 246.406 88.481 252.345 94.962C258.284 101.443 267.913 101.443 273.852 94.962Z" fill="white"/>
</mask>
<g mask="url(#mask57_1104_12789)">
<path d="M270.369 66.6259L273.749 99.8222L273.723 99.8255H273.323L269.943 66.6259H270.369Z" fill="#9AA7F4"/>
</g>
<mask id="mask58_1104_12789" style="mask-type:luminance" maskUnits="userSpaceOnUse" x="247" y="66" width="32" height="34">
<path d="M273.852 94.962C279.791 88.481 279.791 77.9732 273.852 71.4922C267.913 65.0112 258.284 65.0112 252.345 71.4922C246.406 77.9732 246.406 88.481 252.345 94.962C258.284 101.443 267.913 101.443 273.852 94.962Z" fill="white"/>
</mask>
<g mask="url(#mask58_1104_12789)">
<path d="M270.793 66.6259L274.167 99.7712L273.747 99.8222L270.367 66.6259H270.793Z" fill="#9BA8F5"/>
</g>
<mask id="mask59_1104_12789" style="mask-type:luminance" maskUnits="userSpaceOnUse" x="247" y="66" width="32" height="34">
<path d="M273.852 94.962C279.791 88.481 279.791 77.9732 273.852 71.4922C267.913 65.0112 258.284 65.0112 252.345 71.4922C246.406 77.9732 246.406 88.481 252.345 94.962C258.284 101.443 267.913 101.443 273.852 94.962Z" fill="white"/>
</mask>
<g mask="url(#mask59_1104_12789)">
<path d="M271.219 66.6259L274.588 99.7201L274.167 99.7712L270.793 66.6259H271.219Z" fill="#9BA9F5"/>
</g>
<mask id="mask60_1104_12789" style="mask-type:luminance" maskUnits="userSpaceOnUse" x="247" y="66" width="32" height="34">
<path d="M273.852 94.962C279.791 88.481 279.791 77.9732 273.852 71.4922C267.913 65.0112 258.284 65.0112 252.345 71.4922C246.406 77.9732 246.406 88.481 252.345 94.962C258.284 101.443 267.913 101.443 273.852 94.962Z" fill="white"/>
</mask>
<g mask="url(#mask60_1104_12789)">
<path d="M271.644 66.6259L275.009 99.6691L274.588 99.7201L271.219 66.6259H271.644Z" fill="#9CAAF6"/>
</g>
<mask id="mask61_1104_12789" style="mask-type:luminance" maskUnits="userSpaceOnUse" x="247" y="66" width="32" height="34">
<path d="M273.852 94.962C279.791 88.481 279.791 77.9732 273.852 71.4922C267.913 65.0112 258.284 65.0112 252.345 71.4922C246.406 77.9732 246.406 88.481 252.345 94.962C258.284 101.443 267.913 101.443 273.852 94.962Z" fill="white"/>
</mask>
<g mask="url(#mask61_1104_12789)">
<path d="M272.07 66.6259L275.429 99.6181L275.009 99.6691L271.645 66.6259H272.07Z" fill="#9CABF6"/>
</g>
<mask id="mask62_1104_12789" style="mask-type:luminance" maskUnits="userSpaceOnUse" x="247" y="66" width="32" height="34">
<path d="M273.852 94.962C279.791 88.481 279.791 77.9732 273.852 71.4922C267.913 65.0112 258.284 65.0112 252.345 71.4922C246.406 77.9732 246.406 88.481 252.345 94.962C258.284 101.443 267.913 101.443 273.852 94.962Z" fill="white"/>
</mask>
<g mask="url(#mask62_1104_12789)">
<path d="M272.496 66.6259L275.85 99.5671L275.429 99.6181L272.07 66.6259H272.496Z" fill="#9DACF7"/>
</g>
<mask id="mask63_1104_12789" style="mask-type:luminance" maskUnits="userSpaceOnUse" x="247" y="66" width="32" height="34">
<path d="M273.852 94.962C279.791 88.481 279.791 77.9732 273.852 71.4922C267.913 65.0112 258.284 65.0112 252.345 71.4922C246.406 77.9732 246.406 88.481 252.345 94.962C258.284 101.443 267.913 101.443 273.852 94.962Z" fill="white"/>
</mask>
<g mask="url(#mask63_1104_12789)">
<path d="M272.922 66.6259L276.27 99.5161L275.85 99.5671L272.496 66.6259H272.922Z" fill="#9DADF7"/>
</g>
<mask id="mask64_1104_12789" style="mask-type:luminance" maskUnits="userSpaceOnUse" x="247" y="66" width="32" height="34">
<path d="M273.852 94.962C279.791 88.481 279.791 77.9732 273.852 71.4922C267.913 65.0112 258.284 65.0112 252.345 71.4922C246.406 77.9732 246.406 88.481 252.345 94.962C258.284 101.443 267.913 101.443 273.852 94.962Z" fill="white"/>
</mask>
<g mask="url(#mask64_1104_12789)">
<path d="M273.347 66.6259L276.691 99.4651L276.271 99.5161L272.922 66.6259H273.347Z" fill="#9EAEF8"/>
</g>
<mask id="mask65_1104_12789" style="mask-type:luminance" maskUnits="userSpaceOnUse" x="247" y="66" width="32" height="34">
<path d="M273.852 94.962C279.791 88.481 279.791 77.9732 273.852 71.4922C267.913 65.0112 258.284 65.0112 252.345 71.4922C246.406 77.9732 246.406 88.481 252.345 94.962C258.284 101.443 267.913 101.443 273.852 94.962Z" fill="white"/>
</mask>
<g mask="url(#mask65_1104_12789)">
<path d="M273.773 66.6259L277.112 99.4141L276.691 99.4651L273.348 66.6259H273.773Z" fill="#9EAFF8"/>
</g>
<mask id="mask66_1104_12789" style="mask-type:luminance" maskUnits="userSpaceOnUse" x="247" y="66" width="32" height="34">
<path d="M273.852 94.962C279.791 88.481 279.791 77.9732 273.852 71.4922C267.913 65.0112 258.284 65.0112 252.345 71.4922C246.406 77.9732 246.406 88.481 252.345 94.962C258.284 101.443 267.913 101.443 273.852 94.962Z" fill="white"/>
</mask>
<g mask="url(#mask66_1104_12789)">
<path d="M274.199 66.6259L277.532 99.3631L277.112 99.4141L273.773 66.6259H274.199Z" fill="#9FB0F9"/>
</g>
<mask id="mask67_1104_12789" style="mask-type:luminance" maskUnits="userSpaceOnUse" x="247" y="66" width="32" height="34">
<path d="M273.852 94.962C279.791 88.481 279.791 77.9732 273.852 71.4922C267.913 65.0112 258.284 65.0112 252.345 71.4922C246.406 77.9732 246.406 88.481 252.345 94.962C258.284 101.443 267.913 101.443 273.852 94.962Z" fill="white"/>
</mask>
<g mask="url(#mask67_1104_12789)">
<path d="M274.625 66.6259L277.953 99.3121L277.533 99.3631L274.199 66.6259H274.625Z" fill="#A0B1F9"/>
</g>
<mask id="mask68_1104_12789" style="mask-type:luminance" maskUnits="userSpaceOnUse" x="247" y="66" width="32" height="34">
<path d="M273.852 94.962C279.791 88.481 279.791 77.9732 273.852 71.4922C267.913 65.0112 258.284 65.0112 252.345 71.4922C246.406 77.9732 246.406 88.481 252.345 94.962C258.284 101.443 267.913 101.443 273.852 94.962Z" fill="white"/>
</mask>
<g mask="url(#mask68_1104_12789)">
<path d="M275.049 66.6259L278.312 98.6698V99.2685L277.951 99.3121L274.623 66.6259H275.049Z" fill="#A0B2FA"/>
</g>
<mask id="mask69_1104_12789" style="mask-type:luminance" maskUnits="userSpaceOnUse" x="247" y="66" width="32" height="34">
<path d="M273.852 94.962C279.791 88.481 279.791 77.9732 273.852 71.4922C267.913 65.0112 258.284 65.0112 252.345 71.4922C246.406 77.9732 246.406 88.481 252.345 94.962C258.284 101.443 267.913 101.443 273.852 94.962Z" fill="white"/>
</mask>
<g mask="url(#mask69_1104_12789)">
<path d="M275.475 66.6259L278.312 94.49V98.6698L275.049 66.6259H275.475Z" fill="#A1B3FA"/>
</g>
<g filter="url(#filter5_b_1104_12789)">
<path d="M263.545 101.466C274.016 101.466 282.505 93.2098 282.505 83.0251C282.505 72.8405 274.016 64.5842 263.545 64.5842C253.074 64.5842 244.586 72.8405 244.586 83.0251C244.586 93.2098 253.074 101.466 263.545 101.466Z" fill="white"/>
<path d="M282.005 83.0251C282.005 92.9207 273.753 100.966 263.545 100.966C253.337 100.966 245.086 92.9207 245.086 83.0251C245.086 73.1296 253.337 65.0842 263.545 65.0842C273.753 65.0842 282.005 73.1296 282.005 83.0251Z" stroke="#AAC0FF" stroke-opacity="0.15"/>
</g>
<path d="M263.162 82.8484H254.482V90.2178H263.162V82.8484Z" fill="#001C6C"/>
<path d="M272.066 82.8484H263.158V90.2178H272.066V82.8484Z" fill="#183A9B"/>
<path d="M263.158 91.7447H271.541C271.83 91.7447 272.066 91.5152 272.066 91.234V90.2177H263.158V91.7447Z" fill="#001C6C"/>
<path d="M254.482 90.2177V91.234C254.482 91.5152 254.718 91.7447 255.008 91.7447H263.162V90.2177H254.482Z" fill="#183A9B"/>
<path d="M256.992 80.4058H254.48V82.8485H256.992V80.4058Z" fill="white"/>
<path d="M262.018 80.4058L264.529 82.8485H267.04L264.529 80.4058H262.018Z" fill="white"/>
<path d="M264.531 80.4058L267.043 82.8485H269.554L267.043 80.4058H264.531Z" fill="#001C6C"/>
<path d="M259.506 80.4058L262.02 82.8485H264.531L262.02 80.4058H259.506Z" fill="#073B5B"/>
<path d="M267.041 80.4058L269.552 82.8485H272.066L269.552 80.4058H267.041Z" fill="white"/>
<path d="M269.553 80.4058L272.064 82.8485V80.6947C272.064 80.5347 271.932 80.4058 271.767 80.4058H269.553Z" fill="#001C6C"/>
<path d="M254.48 80.4058L256.992 82.8485H259.503L256.992 80.4058H254.48Z" fill="#183A9B"/>
<path d="M259.504 80.4058H256.992L259.504 82.8485H262.018L259.504 80.4058Z" fill="white"/>
<path d="M270.855 73.7121L268.426 74.3311L269.062 76.6965L271.237 76.1445C271.377 76.1083 271.462 75.9691 271.425 75.8298L270.855 73.7121Z" fill="white"/>
<path d="M263.563 75.5692L261.768 78.551L259.336 79.1675L261.131 76.1857L263.563 75.5692Z" fill="white"/>
<path d="M261.135 76.1857L259.339 79.1675L256.91 79.7865L258.706 76.8047L261.135 76.1857Z" fill="#183A9B"/>
<path d="M265.994 74.9501L264.199 77.932L261.77 78.551L263.565 75.5692L265.994 74.9501Z" fill="#183A9B"/>
<path d="M258.704 76.8047L256.908 79.7865L254.477 80.4056L256.272 77.4238L258.704 76.8047Z" fill="white"/>
<path d="M256.272 77.4238L254.477 80.4056L253.925 78.355C253.878 78.1821 253.986 78.0042 254.164 77.9577L256.272 77.4238Z" fill="#183A9B"/>
<path d="M270.855 73.712L269.06 76.6964L266.631 77.3129L268.426 74.3311L270.855 73.712Z" fill="#183A9B"/>
<path d="M265.993 74.9502L268.424 74.3312L266.629 77.313L264.197 77.9321L265.993 74.9502Z" fill="white"/>
<path d="M257.143 82.0307H254.334C254.186 82.0307 254.066 81.9147 254.066 81.7702V79.0386C254.066 78.8065 254.353 78.693 254.523 78.8555L257.331 81.5871C257.498 81.7522 257.379 82.0307 257.143 82.0307Z" fill="#001C6C"/>
<path d="M254.728 79.4075C254.728 79.539 254.616 79.6473 254.481 79.6473C254.346 79.6473 254.234 79.539 254.234 79.4075C254.234 79.2759 254.346 79.1676 254.481 79.1676C254.619 79.1676 254.728 79.2759 254.728 79.4075Z" fill="white"/>
<path d="M254.728 81.6257C254.728 81.7573 254.616 81.8656 254.481 81.8656C254.346 81.8656 254.234 81.7573 254.234 81.6257C254.234 81.4942 254.346 81.3858 254.481 81.3858C254.619 81.3884 254.728 81.4942 254.728 81.6257Z" fill="white"/>
<path d="M257.034 81.6257C257.034 81.7573 256.923 81.8656 256.788 81.8656C256.652 81.8656 256.541 81.7573 256.541 81.6257C256.541 81.4942 256.652 81.3858 256.788 81.3858C256.926 81.3884 257.034 81.4942 257.034 81.6257Z" fill="white"/>
<path d="M263.171 77.1092C259.994 77.1092 257.422 79.6138 257.422 82.7013C257.422 85.7915 259.997 88.2935 263.171 88.2935C263.386 88.2935 263.598 88.2806 263.805 88.2574C265.974 88.0253 267.775 86.6195 268.533 84.7081C268.78 84.0839 268.921 83.4081 268.921 82.6988C268.921 79.6112 266.348 77.1092 263.171 77.1092Z" fill="#F4D34A"/>
<path d="M263.205 77.914C260.487 77.914 258.283 80.0575 258.283 82.7014C258.283 85.3453 260.487 87.4888 263.205 87.4888C263.388 87.4888 263.571 87.4785 263.749 87.4578L261.235 85.0125C261.176 84.979 261.134 84.9171 261.134 84.8397V80.5579C261.134 80.4083 261.296 80.3103 261.434 80.3773L265.836 82.5182C265.884 82.5415 265.913 82.5801 265.929 82.624L267.796 84.4167C268.008 83.8828 268.127 83.305 268.127 82.6988C268.127 80.0575 265.923 77.914 263.205 77.914Z" fill="#FF693B"/>
<path d="M265.835 82.8821L261.433 85.023C261.364 85.0565 261.293 85.0488 261.234 85.0152L263.748 87.4605C265.605 87.2619 267.146 86.0599 267.795 84.422L265.928 82.6293C265.965 82.717 265.939 82.8305 265.835 82.8821Z" fill="#B22A00"/>
<path d="M265.833 82.5208L261.431 80.3799C261.293 80.3128 261.131 80.4108 261.131 80.5605V84.8423C261.131 84.9171 261.173 84.979 261.232 85.0151C261.29 85.0487 261.362 85.0564 261.431 85.0229L265.833 82.8819C265.984 82.8071 265.984 82.5956 265.833 82.5208Z" fill="white"/>
<g filter="url(#filter6_b_1104_12789)">
<path d="M112 84.6211C120.284 84.6211 127 78.089 127 70.0313C127 61.9735 120.284 55.4414 112 55.4414C103.716 55.4414 97 61.9735 97 70.0313C97 78.089 103.716 84.6211 112 84.6211Z" fill="white"/>
<path d="M126.5 70.0313C126.5 77.7999 120.021 84.1211 112 84.1211C103.979 84.1211 97.5 77.7999 97.5 70.0313C97.5 62.2626 103.979 55.9414 112 55.9414C120.021 55.9414 126.5 62.2626 126.5 70.0313Z" stroke="#AAC0FF" stroke-opacity="0.15"/>
</g>
<path d="M119.731 64.1953H104.852C104.459 64.1953 104.137 64.5179 104.137 64.9097V73.7879C104.137 74.1821 104.459 74.5022 104.852 74.5022H119.731C120.125 74.5022 120.446 74.1797 120.446 73.7879V64.9097C120.448 64.5179 120.125 64.1953 119.731 64.1953Z" fill="#183A9B"/>
<path d="M119.557 64.8906C119.473 64.8428 119.376 64.8165 119.272 64.8165H105.314C104.996 64.8165 104.738 65.0698 104.738 65.378V73.5657C104.738 73.7473 104.83 73.9097 104.969 74.0125C105.066 74.0842 105.185 74.1272 105.314 74.1272H119.274C119.592 74.1272 119.85 73.8739 119.85 73.5657V65.3756C119.848 65.1677 119.731 64.9862 119.557 64.8906Z" fill="#6D8EEC"/>
<g opacity="0.6">
<path d="M106.437 65.1529H105.566V65.4294H106.437V65.1529Z" fill="#F4D34A"/>
<path d="M106.437 67.9245H105.566V68.201H106.437V67.9245Z" fill="#F4D34A"/>
<path d="M107.004 65.5963H106.133V65.8727H107.004V65.5963Z" fill="#FF693B"/>
<path d="M108.008 65.5963H107.137V65.8727H108.008V65.5963Z" fill="#FF693B"/>
<path d="M109.011 65.5963H108.141V65.8727H109.011V65.5963Z" fill="white"/>
<path d="M110.013 65.5963H109.143V65.8727H110.013V65.5963Z" fill="white"/>
<path d="M111.776 65.5963H110.242V65.8727H111.776V65.5963Z" fill="white"/>
<path d="M107.439 66.0548H106.568V66.3313H107.439V66.0548Z" fill="#FF693B"/>
<path d="M108.443 66.0548H107.572V66.3313H108.443V66.0548Z" fill="#FF693B"/>
<path d="M109.447 66.0548H108.576V66.3313H109.447V66.0548Z" fill="white"/>
<path d="M110.449 66.0548H109.578V66.3313H110.449V66.0548Z" fill="white"/>
<path d="M107.439 66.9984H106.568V67.2749H107.439V66.9984Z" fill="#FF693B"/>
<path d="M108.443 66.9984H107.572V67.2749H108.443V66.9984Z" fill="#FF693B"/>
<path d="M109.447 66.9984H108.576V67.2749H109.447V66.9984Z" fill="white"/>
<path d="M110.449 66.9984H109.578V67.2749H110.449V66.9984Z" fill="white"/>
<path d="M112.21 66.9984H110.676V67.2749H112.21V66.9984Z" fill="white"/>
<path d="M107.004 67.4724H106.133V67.7489H107.004V67.4724Z" fill="#FF693B"/>
<path d="M108.008 67.4724H107.137V67.7489H108.008V67.4724Z" fill="#FF693B"/>
<path d="M109.011 67.4724H108.141V67.7489H109.011V67.4724Z" fill="white"/>
<path d="M110.013 67.4724H109.143V67.7489H110.013V67.4724Z" fill="white"/>
<path d="M107.875 66.5156H107.004V66.7921H107.875V66.5156Z" fill="#FF693B"/>
<path d="M108.879 66.5156H108.008V66.7921H108.879V66.5156Z" fill="#FF693B"/>
<path d="M109.883 66.5156H109.012V66.7921H109.883V66.5156Z" fill="white"/>
<path d="M110.885 66.5156H110.014V66.7921H110.885V66.5156Z" fill="white"/>
<path d="M112.645 66.5156H111.111V66.7921H112.645V66.5156Z" fill="white"/>
<path d="M106.437 71.9665H105.566V72.243H106.437V71.9665Z" fill="#F4D34A"/>
<path d="M107.004 72.4076H106.133V72.6841H107.004V72.4076Z" fill="#FF693B"/>
<path d="M108.008 72.4076H107.137V72.6841H108.008V72.4076Z" fill="#FF693B"/>
<path d="M109.011 72.4076H108.141V72.6841H109.011V72.4076Z" fill="white"/>
<path d="M110.013 72.4076H109.143V72.6841H110.013V72.4076Z" fill="white"/>
<path d="M111.776 72.4076H110.242V72.6841H111.776V72.4076Z" fill="white"/>
<path d="M107.439 72.8684H106.568V73.1449H107.439V72.8684Z" fill="#FF693B"/>
<path d="M108.443 72.8684H107.572V73.1449H108.443V72.8684Z" fill="#FF693B"/>
<path d="M109.447 72.8684H108.576V73.1449H109.447V72.8684Z" fill="white"/>
<path d="M107.875 73.3293H107.004V73.6058H107.875V73.3293Z" fill="#FF693B"/>
<path d="M108.879 73.3293H108.008V73.6058H108.879V73.3293Z" fill="#FF693B"/>
<path d="M109.883 73.3293H109.012V73.6058H109.883V73.3293Z" fill="white"/>
<path d="M110.885 73.3293H110.014V73.6058H110.885V73.3293Z" fill="white"/>
<path d="M112.645 73.3293H111.111V73.6058H112.645V73.3293Z" fill="white"/>
<path d="M106.259 71.0558L105.215 70.4019V69.884L106.259 69.2366V69.7238L105.537 70.1429L106.259 70.573V71.0558Z" fill="white"/>
<path d="M106.584 71.4772L107.362 68.3392H107.791L107.01 71.4772H106.584Z" fill="white"/>
<path d="M109.366 71.295C109.256 71.4398 109.082 71.5123 108.845 71.5123C108.608 71.5123 108.43 71.4354 108.313 71.2796C108.195 71.126 108.137 70.9022 108.137 70.6125V69.252C108.137 68.7868 108.261 68.4971 108.513 68.3808C108.606 68.3391 108.719 68.3172 108.85 68.3172C109.301 68.3172 109.526 68.5937 109.526 69.1467V69.5768H109.055V69.1774C109.055 69.0172 109.041 68.9009 109.012 68.8329C108.985 68.7627 108.929 68.7297 108.847 68.7297C108.766 68.7297 108.71 68.7671 108.678 68.8395C108.647 68.9119 108.631 69.026 108.631 69.1774V70.6367C108.631 70.8057 108.647 70.9242 108.676 70.9966C108.705 71.069 108.762 71.1041 108.843 71.1041C108.924 71.1041 108.978 71.0668 109.01 70.9944C109.039 70.922 109.055 70.7991 109.055 70.6301V70.1824H109.535V70.6235C109.531 70.9263 109.477 71.1502 109.366 71.295Z" fill="white"/>
<path d="M111.139 71.2885C111.026 71.4378 110.848 71.5146 110.602 71.5146C110.356 71.5146 110.175 71.44 110.06 71.2885C109.945 71.1371 109.889 70.9111 109.889 70.6061V69.1775C109.889 68.6048 110.128 68.3195 110.608 68.3195C110.857 68.3195 111.035 68.3919 111.143 68.5368C111.251 68.6816 111.305 68.8966 111.305 69.1775V70.6061C111.308 70.9089 111.251 71.1371 111.139 71.2885ZM110.423 70.9923C110.453 71.0647 110.511 71.0998 110.599 71.0998C110.687 71.0998 110.746 71.0625 110.775 70.9879C110.805 70.9133 110.818 70.786 110.818 70.6083V69.1534C110.818 69.0064 110.805 68.8966 110.775 68.8286C110.746 68.7606 110.69 68.7277 110.608 68.7277C110.525 68.7277 110.466 68.7606 110.432 68.8286C110.399 68.8966 110.383 69.0042 110.383 69.1512V70.6083C110.381 70.7926 110.394 70.9199 110.423 70.9923Z" fill="white"/>
<path d="M111.748 71.4773V68.3547H112.468C112.705 68.3547 112.874 68.4227 112.982 68.5588C113.088 68.6948 113.142 68.8945 113.142 69.1578L113.145 70.5666C113.145 70.8804 113.09 71.1108 112.984 71.2579C112.878 71.4049 112.7 71.4773 112.454 71.4773H111.748ZM112.238 71.1087H112.398C112.488 71.1087 112.553 71.0801 112.594 71.0231C112.635 70.966 112.655 70.8629 112.655 70.7115L112.653 69.1688C112.653 69.0064 112.632 68.8923 112.592 68.8221C112.551 68.7541 112.481 68.7189 112.382 68.7189H112.238V71.1087Z" fill="white"/>
<path d="M113.586 71.4773V68.3547H114.662V68.765H114.076V69.6735H114.633V70.0751H114.076V71.0692H114.685V71.4795H113.586V71.4773Z" fill="white"/>
<path d="M114.998 71.0558V70.5686L115.72 70.1495L114.998 69.7194V69.2366L116.045 69.8862V70.4063L114.998 71.0558Z" fill="white"/>
</g>
<path opacity="0.75" d="M119.272 64.8141H105.314C104.996 64.8141 104.738 65.0674 104.738 65.3756V73.5633C104.738 73.7449 104.83 73.9074 104.969 74.0101L119.56 64.8882C119.473 64.8428 119.376 64.8141 119.272 64.8141Z" fill="#2448AE" fill-opacity="0.7"/>
<path d="M113.976 66.0532C113.682 66.3868 113.624 66.8362 113.784 67.2142L110.362 71.0822C109.947 70.9897 109.496 71.1161 109.2 71.4485C108.78 71.9237 108.839 72.6364 109.333 73.0413C109.334 73.0425 109.337 73.0437 109.338 73.0448L109.725 72.6071L109.467 72.3965L109.587 71.7668L110.215 71.5515L110.472 71.7622L114.577 67.1241L114.571 67.1229L114.267 66.3013L114.836 65.6577C114.516 65.667 114.2 65.7993 113.976 66.0532Z" fill="#183A9B"/>
<path d="M115.462 67.281L114.577 67.1242L110.473 71.7622L110.722 71.9671L110.601 72.5967L110.288 72.7044L109.974 72.812L109.725 72.6072L109.338 73.0449C109.832 73.4452 110.569 73.3867 110.988 72.9139C111.283 72.5803 111.341 72.1309 111.18 71.7529L114.603 67.8849C115.017 67.9774 115.469 67.851 115.764 67.5186C115.988 67.2646 116.074 66.9439 116.033 66.6385L115.462 67.281Z" fill="#001C6C"/>
<path d="M109.957 66.3681L109.01 65.7595C108.985 65.7408 108.933 65.7549 108.89 65.79L108.852 65.8216L111.712 69.0669C111.775 69.0166 111.83 68.9663 111.874 68.9171L110.245 67.0692L109.957 66.3681Z" fill="#E8E8E8"/>
<path d="M108.811 65.8543C108.769 65.8894 108.746 65.9374 108.76 65.9631L109.228 66.9626L109.902 67.3488L111.531 69.1968C111.599 69.1535 111.658 69.1114 111.711 69.0692L108.85 65.8227L108.811 65.8543Z" fill="white"/>
<path d="M113.889 70.3812C113.842 70.3297 113.795 70.2782 113.748 70.2267C113.096 69.9587 112.662 69.466 112.428 68.7755C112.381 68.7486 112.33 68.7345 112.279 68.731C112.176 68.7228 112.068 68.7521 111.983 68.8223C111.983 68.8223 111.948 68.8516 111.895 68.8949C111.888 68.9031 111.88 68.9101 111.873 68.9183C111.829 68.9674 111.775 69.0166 111.711 69.0681L115.167 72.9899L115.451 72.7582C115.621 72.6189 115.642 72.3719 115.498 72.2081L113.889 70.3812Z" fill="#B22A00"/>
<path d="M111.529 69.1957C111.52 69.2015 111.512 69.2074 111.503 69.2132C111.449 69.2565 111.414 69.2846 111.414 69.2846C111.329 69.3548 111.281 69.4508 111.273 69.5503C111.268 69.5995 111.279 69.6521 111.295 69.7001C111.956 70.0407 112.39 70.5322 112.565 71.1899C112.61 71.2426 112.655 71.2953 112.702 71.3479L114.312 73.1748C114.457 73.3387 114.713 73.3586 114.883 73.2205L115.167 72.9899L111.709 69.0681C111.656 69.1102 111.596 69.1524 111.529 69.1957Z" fill="#FF693B"/>
<path d="M121.687 76.3609L121.677 76.134L103 76.2845V76.3729C103 76.6142 103.263 76.8101 103.591 76.8101H121.099C121.429 76.8101 121.697 76.607 121.687 76.3609Z" fill="#001C6C"/>
<path d="M119.974 74.4711H104.731C104.378 74.4711 104.021 74.5834 103.931 74.7243L103.028 76.1339C102.916 76.3083 103.154 76.4565 103.559 76.4565H121.146C121.551 76.4565 121.789 76.3083 121.678 76.1339L120.776 74.7243C120.684 74.5834 120.327 74.4711 119.974 74.4711Z" fill="#183A9B"/>
<path d="M119.312 75.011H105.394C105.073 75.011 104.78 75.0636 104.746 75.1257L104.41 75.7254C104.371 75.7947 104.617 75.852 104.959 75.852H119.749C120.089 75.852 120.337 75.7947 120.297 75.7254L119.962 75.1257C119.925 75.0636 119.632 75.011 119.312 75.011Z" fill="#001C6C"/>
<path d="M119.103 74.6073H105.605C105.294 74.6073 105.031 74.6217 105.021 74.6385L104.932 74.7944C104.922 74.8112 105.173 74.8256 105.491 74.8256H119.215C119.53 74.8256 119.783 74.8112 119.773 74.7944L119.687 74.6385C119.677 74.6217 119.413 74.6073 119.103 74.6073Z" fill="#001C6C"/>
<path d="M115.782 75.9236H108.924C108.765 75.9236 108.631 75.9475 108.624 75.9738L108.557 76.2318C108.55 76.2605 108.676 76.2844 108.837 76.2844H115.866C116.027 76.2844 116.154 76.2605 116.147 76.2318L116.08 75.9738C116.075 75.9451 115.94 75.9236 115.782 75.9236Z" fill="#001C6C"/>
<defs>
<filter id="filter0_b_1104_12789" x="-20.9395" y="47.0859" width="79.9189" height="78.8818" filterUnits="userSpaceOnUse" color-interpolation-filters="sRGB">
<feFlood flood-opacity="0" result="BackgroundImageFix"/>
<feGaussianBlur in="BackgroundImageFix" stdDeviation="10.5"/>
<feComposite in2="SourceAlpha" operator="in" result="effect1_backgroundBlur_1104_12789"/>
<feBlend mode="normal" in="SourceGraphic" in2="effect1_backgroundBlur_1104_12789" result="shape"/>
</filter>
<filter id="filter1_b_1104_12789" x="102.93" y="-21" width="79.9189" height="78.8818" filterUnits="userSpaceOnUse" color-interpolation-filters="sRGB">
<feFlood flood-opacity="0" result="BackgroundImageFix"/>
<feGaussianBlur in="BackgroundImageFix" stdDeviation="10.5"/>
<feComposite in2="SourceAlpha" operator="in" result="effect1_backgroundBlur_1104_12789"/>
<feBlend mode="normal" in="SourceGraphic" in2="effect1_backgroundBlur_1104_12789" result="shape"/>
</filter>
<filter id="filter2_b_1104_12789" x="134" y="43.1953" width="72" height="71.1797" filterUnits="userSpaceOnUse" color-interpolation-filters="sRGB">
<feFlood flood-opacity="0" result="BackgroundImageFix"/>
<feGaussianBlur in="BackgroundImageFix" stdDeviation="10.5"/>
<feComposite in2="SourceAlpha" operator="in" result="effect1_backgroundBlur_1104_12789"/>
<feBlend mode="normal" in="SourceGraphic" in2="effect1_backgroundBlur_1104_12789" result="shape"/>
</filter>
<filter id="filter3_b_1104_12789" x="187.223" y="-7.50232" width="79.9189" height="78.8818" filterUnits="userSpaceOnUse" color-interpolation-filters="sRGB">
<feFlood flood-opacity="0" result="BackgroundImageFix"/>
<feGaussianBlur in="BackgroundImageFix" stdDeviation="10.5"/>
<feComposite in2="SourceAlpha" operator="in" result="effect1_backgroundBlur_1104_12789"/>
<feBlend mode="normal" in="SourceGraphic" in2="effect1_backgroundBlur_1104_12789" result="shape"/>
</filter>
<filter id="filter4_b_1104_12789" x="18.3066" y="-6.41016" width="79.9189" height="78.8818" filterUnits="userSpaceOnUse" color-interpolation-filters="sRGB">
<feFlood flood-opacity="0" result="BackgroundImageFix"/>
<feGaussianBlur in="BackgroundImageFix" stdDeviation="10.5"/>
<feComposite in2="SourceAlpha" operator="in" result="effect1_backgroundBlur_1104_12789"/>
<feBlend mode="normal" in="SourceGraphic" in2="effect1_backgroundBlur_1104_12789" result="shape"/>
</filter>
<filter id="filter5_b_1104_12789" x="223.586" y="43.5842" width="79.9189" height="78.8818" filterUnits="userSpaceOnUse" color-interpolation-filters="sRGB">
<feFlood flood-opacity="0" result="BackgroundImageFix"/>
<feGaussianBlur in="BackgroundImageFix" stdDeviation="10.5"/>
<feComposite in2="SourceAlpha" operator="in" result="effect1_backgroundBlur_1104_12789"/>
<feBlend mode="normal" in="SourceGraphic" in2="effect1_backgroundBlur_1104_12789" result="shape"/>
</filter>
<filter id="filter6_b_1104_12789" x="76" y="34.4414" width="72" height="71.1797" filterUnits="userSpaceOnUse" color-interpolation-filters="sRGB">
<feFlood flood-opacity="0" result="BackgroundImageFix"/>
<feGaussianBlur in="BackgroundImageFix" stdDeviation="10.5"/>
<feComposite in2="SourceAlpha" operator="in" result="effect1_backgroundBlur_1104_12789"/>
<feBlend mode="normal" in="SourceGraphic" in2="effect1_backgroundBlur_1104_12789" result="shape"/>
</filter>
<linearGradient id="paint0_linear_1104_12789" x1="143" y1="188.695" x2="143" y2="249" gradientUnits="userSpaceOnUse">
<stop offset="0.787261" stop-color="#193CA0"/>
<stop offset="1" stop-color="#09163A"/>
</linearGradient>
</defs>
</svg>
