<svg width="124" height="36" viewBox="0 0 124 36" fill="none" xmlns="http://www.w3.org/2000/svg">
<path d="M10.0868 11.022V15.4823H17.5661V19.4411H10.0868V24.9373H18.7356V28.8954H6.08545V10.9933H10.1757V7.06323H18.7356V11.022H10.0868Z" fill="white"/>
<path d="M27.1733 13.0613C23.2464 13.0613 20.4138 15.4518 20.4138 20.6889V28.8951H24.4159V20.6889C24.4159 18.1772 25.2398 17.0201 27.1733 17.0201C29.1067 17.0201 29.9314 18.1772 29.9314 20.6889V28.8951H33.9334V20.6889C33.9327 15.4511 31.1002 13.0613 27.1733 13.0613Z" fill="white"/>
<path d="M45.4418 13.3057L41.9045 23.5669L38.4127 13.3057H34.2307L39.9118 28.8957H43.8979L49.6086 13.3057H45.4418Z" fill="white"/>
<path d="M92.0525 21.5109C92.0525 24.0233 91.2278 25.1804 89.2944 25.1804C87.3609 25.1804 86.5369 24.0233 86.5369 21.5109V13.3054H82.5349V21.5116C82.5349 26.7493 85.3675 29.1392 89.2944 29.1392C90.239 29.1392 91.1382 28.9564 92.0222 28.5915V28.6825C92.0222 30.2199 91.1527 31.1795 89.2944 31.1795C88.2153 31.1795 87.7057 30.8293 87.0913 30.0532H82.6397C83.1941 31.6061 84.0484 32.8395 85.2027 33.7683C86.357 34.6816 87.7209 35.1383 89.2944 35.1383C91.2582 35.1383 92.8765 34.4687 94.1507 33.1442C95.425 31.8043 96.0545 30.1296 96.0545 28.1201V13.3061H92.0525V21.5109Z" fill="white"/>
<path d="M103.728 7.09326H99.7257V13.3046H97.4626V17.2627H99.7257V21.5409C99.7257 24.0533 100.34 25.9101 101.554 27.1436C102.769 28.377 104.417 28.9857 106.485 28.9857V25.0276C104.521 25.0276 103.727 24.0379 103.727 21.5409V17.2627H106.485V13.3046H103.727V7.09326H103.728Z" fill="white"/>
<path d="M123.36 20.7498C123.211 15.7866 119.149 13.0613 115.342 13.0613C113.903 13.0613 112.584 13.4269 111.385 14.1729C110.171 14.9188 109.242 15.8931 108.567 17.1265C107.893 18.36 107.548 19.6992 107.548 21.1309C107.548 22.5772 107.893 23.9164 108.598 25.1499C109.302 26.3833 110.261 27.3422 111.475 28.058C112.689 28.7732 114.023 29.1388 115.477 29.1388C117.08 29.1388 118.534 28.6975 119.838 27.7989C121.142 26.9164 122.116 25.7586 122.746 24.3129L117.994 24.2821C117.275 24.876 116.391 25.18 115.342 25.18C113.558 25.18 112.224 24.2211 111.849 22.6837H123.24C123.345 22.0442 123.39 21.4047 123.36 20.7498ZM111.849 19.4407C112.494 17.9334 113.738 17.0201 115.477 17.0201C116.241 17.0201 116.96 17.233 117.635 17.6743C118.294 18.1162 118.774 18.7095 119.089 19.4407H111.849Z" fill="white"/>
<path d="M63.7006 20.2244C63.7427 20.5263 63.764 20.8254 63.764 21.114C63.764 24.6658 60.919 27.5557 57.4224 27.5557C53.9258 27.5557 51.0808 24.6658 51.0808 21.114C51.0808 18.3487 52.8095 15.9084 55.3904 15.0196C55.5028 15.0931 55.6303 15.1316 55.7627 15.1316C56.1482 15.1316 56.4619 14.8129 56.4619 14.4214C56.4619 14.0299 56.1482 13.7112 55.7627 13.7112C55.4055 13.7112 55.1097 13.9843 55.0684 14.3367C52.2358 15.3537 50.3389 18.0657 50.3389 21.1154C50.3389 25.0826 53.5162 28.3108 57.4224 28.3108C61.3279 28.3108 64.506 25.0833 64.506 21.1154C64.506 20.7946 64.4825 20.4619 64.4356 20.125C64.5949 19.9905 64.6873 19.793 64.6873 19.5807C64.6873 19.1892 64.3736 18.8705 63.9881 18.8705C63.6027 18.8705 63.2889 19.1892 63.2889 19.5807C63.2882 19.8623 63.4503 20.1109 63.7006 20.2244Z" fill="white"/>
<path d="M65.646 19.9899C65.2523 19.9899 64.9324 20.3149 64.9324 20.7149C64.9324 20.9719 65.0655 21.2066 65.2785 21.3361C65.1641 25.6304 61.6557 29.1094 57.4172 29.1094C53.0793 29.1094 49.551 25.5247 49.551 21.119C49.551 16.9781 52.7153 13.4977 56.769 13.1594C56.9042 13.3352 57.1076 13.4382 57.3289 13.4382C57.7226 13.4382 58.0426 13.1132 58.0426 12.7132C58.0426 12.3133 57.7226 11.9883 57.3289 11.9883C57.0538 11.9883 56.8069 12.1494 56.689 12.398C54.5598 12.5801 52.5836 13.5565 51.1156 15.1528C49.6207 16.7792 48.7974 18.8987 48.7974 21.119C48.7974 25.947 52.6643 29.8757 57.4179 29.8757C59.6954 29.8757 61.8447 28.9778 63.4692 27.3479C65.073 25.739 65.9818 23.6013 66.0329 21.3221C66.2363 21.189 66.3597 20.9635 66.3597 20.7156C66.3597 20.3149 66.0391 19.9899 65.646 19.9899Z" fill="white"/>
<path d="M57.4513 15.3433C54.3401 15.3433 51.8088 17.9145 51.8088 21.0748C51.8088 24.2351 54.3401 26.8064 57.4513 26.8064C60.5624 26.8064 63.0937 24.2351 63.0937 21.0748C63.0937 17.9145 60.5624 15.3433 57.4513 15.3433ZM57.4513 25.5442C55.0255 25.5442 53.0514 23.5396 53.0514 21.0748C53.0514 18.6107 55.0255 16.6054 57.4513 16.6054C59.877 16.6054 61.8512 18.6107 61.8512 21.0748C61.8512 23.5396 59.877 25.5442 57.4513 25.5442Z" fill="white"/>
<path d="M60.3506 21.1174C60.3506 19.5268 59.0812 18.2373 57.5153 18.2373C55.9494 18.2373 54.6799 19.5268 54.6799 21.1174C54.6799 22.7081 55.9494 23.9976 57.5153 23.9976C59.0812 23.9976 60.3506 22.7081 60.3506 21.1174Z" fill="#FF693B"/>
<path d="M8.84171 5.45459H4.72314V9.63822H8.84171V5.45459Z" fill="#FF693B"/>
<path d="M3.89642 1.73999H0.653564V5.03408H3.89642V1.73999Z" fill="#FF693B"/>
<path d="M8.78487 0.344727H6.61768V2.54686H8.78487V0.344727Z" fill="#FF693B"/>
<path d="M74.3001 14.4359C72.9652 14.4359 71.8054 14.7924 70.8207 15.4907V7.06323H67.1931V21.6692C67.1931 22.9846 67.5165 24.19 68.1502 25.2995C68.7846 26.4096 69.6478 27.2859 70.7401 27.9303C71.8323 28.5739 73.019 28.9024 74.3001 28.9024C75.5813 28.9024 76.7817 28.5739 77.8739 27.9303C78.9669 27.2859 79.8295 26.4096 80.4638 25.2995C81.0975 24.19 81.4209 22.9846 81.4209 21.6692C81.5023 17.751 78.1305 14.3539 74.3001 14.4359ZM76.8493 24.2859C76.1887 24.9843 75.3385 25.3408 74.327 25.3408C73.3024 25.3408 72.4529 24.9843 71.7785 24.2859C71.1041 23.5869 70.767 22.7107 70.767 21.6692C70.767 20.6283 71.1041 19.7514 71.7785 19.0524C72.4529 18.3541 73.3024 17.9975 74.327 17.9975C75.3385 17.9975 76.1887 18.3401 76.8493 19.0391C77.5099 19.7374 77.834 20.6143 77.834 21.6692C77.834 22.724 77.5099 23.5869 76.8493 24.2859Z" fill="white"/>
</svg>
