<svg width="16" height="17" viewBox="0 0 16 17" fill="none" xmlns="http://www.w3.org/2000/svg">
<g clip-path="url(#clip0_681_8799)">
<path d="M7.99902 15.4079C11.9799 15.4079 15.207 12.1808 15.207 8.19994C15.207 4.21907 11.9799 0.991943 7.99902 0.991943C4.01815 0.991943 0.791016 4.21907 0.791016 8.19994C0.791016 12.1808 4.01815 15.4079 7.99902 15.4079Z" fill="#0A2C8C"/>
<path d="M7.99102 0.991943C6.56699 0.991943 5.17495 1.41422 3.99091 2.20536C2.80688 2.99651 1.88404 4.12099 1.33909 5.43662C0.794135 6.75225 0.651551 8.19993 0.929365 9.59659C1.20718 10.9933 1.89291 12.2762 2.89985 13.2831C3.90679 14.29 5.1897 14.9758 6.58637 15.2536C7.98303 15.5314 9.43071 15.3888 10.7463 14.8439C12.062 14.2989 13.1865 13.3761 13.9776 12.192C14.7687 11.008 15.191 9.61597 15.191 8.19194C15.191 6.28238 14.4324 4.45104 13.0822 3.10077C11.7319 1.75051 9.90058 0.991943 7.99102 0.991943ZM11.375 6.15994L7.82302 11.0879C7.71722 11.2308 7.56281 11.33 7.38891 11.3668C7.21502 11.4037 7.03366 11.3756 6.87902 11.2879L4.83902 10.0959C4.67352 9.99622 4.55442 9.83484 4.50791 9.64731C4.4614 9.45977 4.4913 9.26144 4.59102 9.09594C4.69074 8.93045 4.85212 8.81135 5.03966 8.76484C5.22719 8.71833 5.42552 8.74822 5.59102 8.84794L7.03902 9.71194L10.239 5.31994C10.3578 5.20096 10.5144 5.12729 10.6818 5.1117C10.8492 5.09611 11.0168 5.13958 11.1555 5.23457C11.2942 5.32957 11.3952 5.47011 11.4412 5.63181C11.4871 5.79352 11.475 5.96621 11.407 6.11994L11.375 6.15994Z" fill="#FFD54D"/>
</g>
<defs>
<clipPath id="clip0_681_8799">
<rect width="16" height="16" fill="white" transform="translate(0 0.199951)"/>
</clipPath>
</defs>
</svg>
