<svg width="16" height="17" viewBox="0 0 16 17" fill="none" xmlns="http://www.w3.org/2000/svg">
<path d="M8.00001 14.7C11.5899 14.7 14.5 11.7898 14.5 8.19996C14.5 4.6101 11.5899 1.69995 8.00001 1.69995C4.41015 1.69995 1.5 4.6101 1.5 8.19996C1.5 11.7898 4.41015 14.7 8.00001 14.7Z" fill="white" stroke="#0A2C8C"/>
<path d="M7.99335 2.19995C6.80798 2.19995 5.64923 2.55145 4.66363 3.21001C3.67802 3.86857 2.90984 4.8046 2.45622 5.89974C2.0026 6.99489 1.88391 8.19995 2.11516 9.36254C2.34642 10.5251 2.91723 11.5931 3.75541 12.4312C4.5936 13.2694 5.66151 13.8402 6.82411 14.0715C7.9867 14.3027 9.19177 14.1841 10.2869 13.7304C11.382 13.2768 12.3181 12.5086 12.9766 11.523C13.6352 10.5374 13.9867 9.37867 13.9867 8.1933C13.9867 6.60377 13.3553 5.07933 12.2313 3.95536C11.1073 2.83139 9.58289 2.19995 7.99335 2.19995ZM10.8102 6.50184L7.85351 10.604C7.76543 10.7229 7.63691 10.8054 7.49215 10.8361C7.3474 10.8668 7.19643 10.8434 7.06771 10.7704L5.3696 9.77821C5.23184 9.6952 5.13269 9.56086 5.09398 9.40476C5.05527 9.24865 5.08015 9.08356 5.16316 8.9458C5.24617 8.80804 5.3805 8.7089 5.53661 8.67018C5.69272 8.63147 5.85781 8.65635 5.99557 8.73936L7.2009 9.45856L9.86461 5.80262C9.96347 5.70358 10.0939 5.64226 10.2332 5.62928C10.3725 5.6163 10.512 5.65248 10.6275 5.73156C10.7429 5.81063 10.8271 5.92762 10.8653 6.06222C10.9035 6.19683 10.8935 6.34058 10.8369 6.46855L10.8102 6.50184Z" fill="white"/>
</svg>
