<svg width="40" height="40" viewBox="0 0 40 40" fill="none" xmlns="http://www.w3.org/2000/svg">
<path d="M31.5668 9.03324L22.9501 4.0499C21.3001 3.0999 18.7168 3.0999 17.0668 4.0499L8.3668 9.06657C4.9168 11.3999 4.7168 11.7499 4.7168 15.4666V24.5166C4.7168 28.2332 4.9168 28.5999 8.43346 30.9666L17.0501 35.9499C17.8835 36.4332 18.9501 36.6666 20.0001 36.6666C21.0501 36.6666 22.1168 36.4332 22.9335 35.9499L31.6335 30.9332C35.0835 28.5999 35.2835 28.2499 35.2835 24.5332V15.4666C35.2835 11.7499 35.0835 11.3999 31.5668 9.03324Z" fill="#001246"/>
<path d="M19.9997 25.4166C22.9912 25.4166 25.4163 22.9915 25.4163 19.9999C25.4163 17.0084 22.9912 14.5833 19.9997 14.5833C17.0081 14.5833 14.583 17.0084 14.583 19.9999C14.583 22.9915 17.0081 25.4166 19.9997 25.4166Z" fill="white"/>
</svg>
