<svg width="232" height="382" viewBox="0 0 232 382" fill="none" xmlns="http://www.w3.org/2000/svg">
<path d="M108.651 190.616C112.857 190.128 117.74 188.385 121.785 187.194C126.663 185.77 130.99 183.859 135.233 181.057C143.918 175.319 150.925 168.156 157.225 159.915C163.382 151.842 166.315 142.677 168.989 133.146C168.963 132.483 168.98 131.795 169.034 131.133C168.827 130.614 168.756 130.054 168.913 129.437C168.991 129.168 169.039 128.904 169.086 128.641C168.86 125.85 168.278 123.109 167.991 120.329C167.648 117.162 166.858 113.202 168.049 110.151C169.38 106.739 174.518 107.861 174.887 111.262C175.312 115.05 176.613 119.632 176.753 123.95C177.528 123.489 178.29 123.047 179.046 122.573C179.86 121.978 180.643 121.388 181.389 120.773C183.603 118.965 185.565 116.391 188.708 117.133C191.57 117.815 192.248 121.08 190.064 122.962C186.697 125.858 183.436 128.639 179.53 130.759C177.015 132.145 176.917 132.131 176.045 134.488C175.269 136.588 175.127 138.937 174.424 141.088C170.803 152.226 164.806 161.86 157.129 170.578C150.609 177.969 143.257 184.034 134.463 188.566C130.335 190.695 125.87 192.027 121.292 192.743C117.378 193.353 112.505 194.457 108.61 193.52C106.989 193.182 106.904 190.811 108.651 190.616Z" fill="#FF693B"/>
<path d="M125.906 256.323C124.041 267.058 120.937 277.719 115.44 287.133C111.055 294.624 105.211 301.191 98.8498 307.105C76.6191 327.813 46.6567 341.067 16.3128 339.752C-24.7466 337.96 -62.5746 307.9 -75.2339 268.812C-87.8807 229.705 -75.5156 184.097 -46.0381 155.449C-29.4975 139.369 -7.8881 128.371 14.9753 125.336C31.1771 123.194 46.6234 125.695 62.0875 130.548C71.6091 133.536 81.8311 136.092 89.8337 142.335C109.538 157.641 121.546 185.631 125.799 209.512C128.567 224.947 128.595 240.886 125.906 256.323Z" fill="white"/>
<path d="M142.094 99.9744C145.034 115.043 141.499 131.941 130.44 142.604C123.894 148.901 115.272 152.638 106.477 154.911C94.1257 158.094 80.6518 158.539 68.9158 153.541C60.9779 150.166 54.1768 144.401 48.9834 137.513C38.7593 123.93 34.9332 105.587 39.3813 89.1572C43.8295 72.7274 56.5876 58.6651 72.6594 53.1262C106.438 41.5085 135.835 67.9337 142.094 99.9744Z" fill="white"/>
<path d="M114.247 94.4912C114.341 94.3944 114.434 94.2976 114.528 94.2007C114.584 94.1586 114.609 94.1222 114.665 94.08C115.96 92.9025 117.702 92.2475 119.551 92.5274C123.66 93.1549 124.622 98.2287 122.895 101.475C122.786 101.75 122.659 102.012 122.496 102.249C121.449 104.001 119.645 104.747 117.934 104.617C115.766 104.682 113.637 103.483 112.738 101.007C111.927 98.7537 112.649 96.186 114.247 94.4912Z" fill="black"/>
<path d="M72.599 85.4084C72.6927 85.3116 72.7863 85.2148 72.8799 85.118C72.9358 85.0759 72.9609 85.0394 73.0168 84.9973C74.2998 83.838 76.0229 83.1704 77.8414 83.456C81.9192 84.0891 82.8704 89.1014 81.1556 92.3294C81.0468 92.604 80.9199 92.8661 80.7565 93.103C79.7222 94.8371 77.9488 95.5776 76.2384 95.4472C74.0888 95.5249 71.9779 94.3385 71.0964 91.8753C70.3035 89.6345 71.0132 87.085 72.599 85.4084Z" fill="black"/>
<path d="M33.6654 245.089C33.7591 244.992 33.8527 244.895 33.9463 244.798C34.0022 244.756 34.0273 244.72 34.0833 244.677C35.348 243.506 37.0893 242.851 38.9078 243.136C42.9856 243.769 43.9369 248.782 42.222 252.01C42.1132 252.284 41.9863 252.546 41.8229 252.783C40.7886 254.517 39.0152 255.258 37.3048 255.127C35.1552 255.205 33.0443 254.019 32.1628 251.555C31.3699 249.315 32.0796 246.765 33.6654 245.089Z" fill="black"/>
<path d="M19.4664 277.573C19.56 277.476 19.6536 277.379 19.7472 277.282C19.8032 277.24 19.8283 277.204 19.8842 277.161C21.1489 275.99 22.8903 275.335 24.7087 275.62C28.7866 276.253 29.7378 281.266 28.0229 284.494C27.9142 284.768 27.7873 285.03 27.6239 285.267C26.5896 287.001 24.798 287.729 23.1057 287.611C20.9562 287.689 18.8452 286.503 17.9638 284.039C17.1709 281.799 17.8806 279.249 19.4664 277.573Z" fill="black"/>
<path d="M-2.11174 304.701C-2.01812 304.604 -1.9245 304.508 -1.83089 304.411C-1.77497 304.369 -1.74984 304.332 -1.69392 304.29C-0.429214 303.118 1.31216 302.463 3.1306 302.749C7.20843 303.382 8.15968 308.394 6.44479 311.622C6.33607 311.897 6.20913 312.159 6.04576 312.396C5.01147 314.13 3.21984 314.858 1.52762 314.74C-0.621931 314.818 -2.73292 313.631 -3.61434 311.168C-4.42545 308.915 -3.69754 306.378 -2.11174 304.701Z" fill="black"/>
<path d="M74.4689 112.084C75.1858 120.242 78.5736 128.736 87.0631 131.389C94.8624 133.834 101.558 129.657 106.903 124.36C107.551 123.731 108.785 124.474 108.606 125.319C106.793 134.691 93.6912 138.378 85.6865 136.114C76.7773 133.602 66.9512 121.234 70.7314 111.658C71.4159 109.925 74.2852 110.128 74.4689 112.084Z" fill="black"/>
<path d="M52.1994 216.851C51.0679 220.831 50.0891 224.862 48.4143 228.656C48.2999 228.9 48.1604 229.18 47.889 229.262C47.6918 229.314 47.4902 229.256 47.3193 229.192C37.926 225.862 28.9311 221.409 20.5785 215.946C19.6006 215.299 18.5624 214.583 18.089 213.477C17.426 211.944 18.0614 210.204 18.7181 208.667C27.1615 188.429 36.1224 168.065 49.7349 150.854C51.2447 148.937 52.84 147.052 54.9288 145.776C59.8127 142.823 66.1279 144.031 71.4466 146.138C74.655 147.408 79.8543 150.079 78.3509 154.286C76.718 158.915 73.8785 163.385 71.7638 167.816C66.8942 177.959 62.2319 188.19 58.2277 198.714C55.9658 204.684 53.9237 210.725 52.1994 216.851Z" fill="#1073D0"/>
<path d="M41.902 142.765C46.9873 140.651 50.1216 138.482 53.3668 143.597C54.391 145.19 55.6744 147.85 57.942 148.069C59.707 148.237 61.6874 146.456 63.487 146.379C65.0656 146.311 65.6905 146.768 66.8034 147.805C68.8595 149.733 68.7129 154.311 71.7518 154.658C73.8963 154.9 75.8132 152.86 78.0598 154.005C80.5502 155.265 82.4968 161.367 82.1006 163.891C82.0245 164.43 81.3291 164.542 80.9843 164.223C79.9738 163.312 79.5896 161.998 79.0013 160.786C77.3613 157.396 76.2376 156.648 72.6551 157.674C67.6541 159.121 67.8219 155.526 65.4947 152.119C62.8321 148.186 61.0205 151.321 57.4073 151.572C55.7421 151.688 54.8094 151.287 53.6098 150.299C51.98 148.96 51.0996 144.508 49.4848 143.771C48.6136 143.359 43.9962 145.769 42.3894 145.683C40.598 145.631 40.3201 143.423 41.902 142.765Z" fill="#001C6C"/>
<path d="M39.1402 150.085C44.2256 147.97 47.3598 145.802 50.6051 150.916C51.6293 152.51 52.9127 155.17 55.1803 155.388C56.9453 155.556 58.9256 153.775 60.7253 153.698C62.3039 153.63 62.9288 154.088 64.0416 155.124C66.0978 157.053 65.9512 161.631 68.9901 161.978C71.1345 162.219 73.0514 160.179 75.2981 161.325C77.7885 162.585 79.7351 168.687 79.3389 171.21C79.2628 171.749 78.5674 171.861 78.2226 171.543C77.2121 170.631 76.8279 169.318 76.2396 168.105C74.5995 164.716 73.4759 163.968 69.8934 164.994C64.8924 166.44 65.0602 162.845 62.733 159.439C60.0704 155.506 58.2588 158.64 54.6456 158.892C52.9804 159.008 52.0476 158.607 50.8481 157.619C49.2183 156.28 48.3379 151.827 46.7231 151.091C45.8519 150.678 41.2345 153.088 39.6277 153.002C37.8362 152.951 37.5766 150.755 39.1402 150.085Z" fill="#001C6C"/>
<path d="M36.3961 157.417C41.4814 155.303 44.6157 153.134 47.861 158.249C48.8851 159.842 50.1685 162.502 52.4361 162.721C54.2012 162.889 56.1815 161.108 57.9812 161.031C59.5597 160.963 60.1846 161.42 61.2975 162.456C63.3537 164.385 63.207 168.963 66.2459 169.31C68.3904 169.552 70.3073 167.512 72.554 168.657C75.0443 169.917 76.991 176.019 76.5947 178.542C76.5186 179.082 75.8232 179.194 75.4784 178.875C74.4679 177.964 74.0838 176.65 73.4954 175.438C71.8554 172.048 70.7318 171.3 67.1492 172.326C62.1482 173.773 62.3161 170.177 59.9888 166.771C57.3263 162.838 55.5147 165.972 51.9015 166.224C50.2362 166.34 49.3035 165.939 48.1039 164.951C46.4742 163.612 45.5938 159.16 43.9789 158.423C43.1078 158.01 38.4904 160.421 36.8654 160.322C35.0921 160.283 34.8143 158.074 36.3961 157.417Z" fill="#001C6C"/>
<path d="M33.6344 164.736C38.7197 162.622 41.854 160.453 45.0992 165.568C46.1234 167.161 47.4068 169.821 49.6744 170.04C51.4395 170.208 53.4198 168.427 55.2194 168.35C56.798 168.282 57.4229 168.74 58.5358 169.776C60.592 171.704 60.4453 176.282 63.4842 176.629C65.6287 176.871 67.5456 174.831 69.7922 175.976C72.2826 177.236 74.2293 183.338 73.833 185.862C73.7569 186.401 73.0615 186.513 72.7167 186.195C71.7062 185.283 71.3221 183.969 70.7337 182.757C69.0937 179.367 67.9701 178.62 64.3875 179.646C59.3865 181.092 59.5543 177.497 57.2271 174.091C54.5645 170.157 52.7529 173.292 49.1398 173.544C47.4745 173.66 46.5418 173.259 45.3422 172.27C43.7124 170.931 42.8321 166.479 41.2172 165.742C40.3461 165.33 35.7287 167.74 34.1219 167.654C32.3304 167.602 32.0708 165.406 33.6344 164.736Z" fill="#001C6C"/>
<path d="M30.8766 172.087C35.9619 169.972 39.0962 167.804 42.3414 172.918C43.3656 174.512 44.649 177.171 46.9166 177.39C48.6816 177.558 50.662 175.777 52.4616 175.7C54.0402 175.632 54.6651 176.09 55.778 177.126C57.8341 179.055 57.6875 183.633 60.7264 183.98C62.8709 184.221 64.7878 182.181 67.0344 183.327C69.5248 184.587 71.4714 190.688 71.0752 193.212C70.9991 193.751 70.3037 193.863 69.9589 193.545C68.9484 192.633 68.5642 191.32 67.9759 190.107C66.3359 186.718 65.2123 185.97 61.6297 186.996C56.6287 188.442 56.7965 184.847 54.4693 181.441C51.8067 177.508 49.9951 180.642 46.3819 180.894C44.7167 181.01 43.784 180.609 42.5844 179.621C40.9546 178.282 40.0742 173.829 38.4594 173.092C37.5882 172.68 32.9708 175.09 31.364 175.004C29.5851 174.934 29.3073 172.726 30.8766 172.087Z" fill="#001C6C"/>
<path d="M28.1148 179.406C33.2002 177.292 36.3344 175.123 39.5797 180.238C40.6039 181.831 41.8873 184.491 44.1549 184.71C45.9199 184.878 47.9002 183.097 49.6999 183.02C51.2785 182.952 51.9034 183.41 53.0163 184.446C55.0724 186.374 54.9258 190.952 57.9647 191.299C60.1091 191.541 62.0261 189.501 64.2727 190.646C66.7631 191.906 68.7097 198.008 68.3135 200.532C68.2374 201.071 67.542 201.183 67.1972 200.865C66.1867 199.953 65.8025 198.639 65.2142 197.427C63.5741 194.037 62.4505 193.289 58.868 194.315C53.867 195.762 54.0348 192.167 51.7076 188.76C49.045 184.827 47.2334 187.962 43.6202 188.214C41.955 188.329 41.0222 187.928 39.8227 186.94C38.1929 185.601 37.3125 181.149 35.6977 180.412C34.8265 180 30.2091 182.41 28.6023 182.324C26.8234 182.254 26.5512 180.076 28.1148 179.406Z" fill="#001C6C"/>
<path d="M25.3707 186.738C30.456 184.624 33.5903 182.455 36.8356 187.57C37.8597 189.163 39.1431 191.823 41.4107 192.042C43.1758 192.21 45.1561 190.429 46.9558 190.352C48.5343 190.284 49.1592 190.742 50.2721 191.778C52.3283 193.706 52.1816 198.284 55.2205 198.631C57.365 198.873 59.2819 196.833 61.5286 197.978C64.0189 199.238 65.9656 205.34 65.5693 207.864C65.4932 208.403 64.7978 208.515 64.453 208.197C63.4425 207.285 63.0584 205.971 62.47 204.759C60.83 201.369 59.7064 200.621 56.1238 201.648C51.1228 203.094 51.2906 199.499 48.9634 196.092C46.3009 192.159 44.4893 195.294 40.8761 195.546C39.2108 195.661 38.2781 195.26 37.0785 194.272C35.4488 192.933 34.5684 188.481 32.9535 187.744C32.0824 187.332 27.465 189.742 25.84 189.643C24.0793 189.586 23.7889 187.396 25.3707 186.738Z" fill="#001C6C"/>
<path d="M22.609 194.058C27.6943 191.943 30.8286 189.775 34.0738 194.889C35.098 196.483 36.3814 199.143 38.649 199.361C40.4141 199.53 42.3944 197.748 44.194 197.671C45.7726 197.603 46.3975 198.061 47.5104 199.097C49.5666 201.026 49.4199 205.604 52.4588 205.951C54.6033 206.192 56.5202 204.152 58.7669 205.298C61.2572 206.558 63.2039 212.66 62.8076 215.183C62.7315 215.722 62.0361 215.835 61.6913 215.516C60.6808 214.604 60.2967 213.291 59.7083 212.078C58.0683 208.689 56.9447 207.941 53.3621 208.967C48.3611 210.414 48.5289 206.818 46.2017 203.412C43.5391 199.479 41.7275 202.613 38.1144 202.865C36.4491 202.981 35.5164 202.58 34.3168 201.592C32.687 200.253 31.8067 195.8 30.1918 195.064C29.3207 194.651 24.7033 197.061 23.0965 196.976C21.3175 196.905 21.0454 194.728 22.609 194.058Z" fill="#001C6C"/>
<path d="M19.8648 201.39C24.9502 199.275 28.0845 197.107 31.3297 202.222C32.3539 203.815 33.6373 206.475 35.9049 206.693C37.6699 206.862 39.6502 205.08 41.4499 205.003C43.0285 204.935 43.6534 205.393 44.7663 206.429C46.8224 208.358 46.6758 212.936 49.7147 213.283C51.8591 213.524 53.7761 211.485 56.0227 212.63C58.5131 213.89 60.4597 219.992 60.0635 222.515C59.9874 223.054 59.292 223.167 58.9472 222.848C57.9367 221.936 57.5525 220.623 56.9642 219.41C55.3242 216.021 54.2005 215.273 50.618 216.299C45.617 217.746 45.7848 214.15 43.4576 210.744C40.795 206.811 38.9834 209.945 35.3702 210.197C33.705 210.313 32.7722 209.912 31.5727 208.924C29.9429 207.585 29.0625 203.133 27.4477 202.396C26.5765 201.983 21.9591 204.393 20.3523 204.308C18.5734 204.238 18.283 202.047 19.8648 201.39Z" fill="#001C6C"/>
<path d="M17.1031 208.71C22.1884 206.595 25.3227 204.426 28.568 209.541C29.5922 211.135 30.8756 213.794 33.1431 214.013C34.9082 214.181 36.8885 212.4 38.6882 212.323C40.2667 212.255 40.8917 212.713 42.0045 213.749C44.0607 215.677 43.914 220.255 46.953 220.603C49.0974 220.844 51.0143 218.804 53.261 219.95C55.7514 221.209 57.698 227.311 57.3018 229.835C57.2256 230.374 56.5303 230.486 56.1855 230.168C55.175 229.256 54.7908 227.942 54.2025 226.73C52.5624 223.34 51.4388 222.593 47.8563 223.619C42.8553 225.065 43.0231 221.47 40.6958 218.064C38.0333 214.13 36.2217 217.265 32.6085 217.517C30.9432 217.633 30.0105 217.232 28.811 216.243C27.1812 214.905 26.3008 210.452 24.686 209.715C23.8148 209.303 19.1974 211.713 17.5906 211.627C15.8117 211.557 15.5213 209.367 17.1031 208.71Z" fill="#001C6C"/>
<path d="M-17.8693 212.782C-13.069 210.067 -10.2236 207.538 -6.38847 212.226C-5.19654 213.693 -3.57893 216.18 -1.31883 216.098C0.455709 216.057 2.18794 214.051 3.97886 213.753C5.55431 213.495 6.21128 213.867 7.4429 214.77C9.71836 216.419 10.1301 221.006 13.1811 220.985C15.3419 220.968 16.9982 218.722 19.3661 219.575C21.9778 220.541 24.6657 226.348 24.5634 228.913C24.5363 229.459 23.8704 229.645 23.4879 229.381C22.3587 228.603 21.8263 227.348 21.1079 226.208C19.0777 223.033 17.8718 222.444 14.4299 223.889C9.64669 225.916 9.37229 222.339 6.64109 219.246C3.51865 215.668 2.09082 218.986 -1.45587 219.687C-3.08159 220.019 -4.07715 219.709 -5.38982 218.884C-7.15783 217.746 -8.58098 213.457 -10.2599 212.891C-11.1883 212.601 -15.4703 215.538 -17.074 215.643C-18.8008 215.77 -19.35 213.643 -17.8693 212.782Z" fill="#001C6C"/>
<mask id="mask0_1199_23021" style="mask-type:luminance" maskUnits="userSpaceOnUse" x="31" y="151" width="54" height="87">
<path d="M65.8056 225.053C65.1697 229.132 64.6556 233.269 63.4569 237.229C63.379 237.498 63.2577 237.791 63.0227 237.898C62.8311 237.981 62.6295 237.922 62.4335 237.895C52.6964 235.727 43.2358 232.378 34.2956 227.962C33.2298 227.442 32.1344 226.848 31.531 225.814C30.6946 224.377 31.1101 222.566 31.5652 220.97C37.5244 199.854 43.9648 178.586 55.4224 159.862C56.6954 157.781 58.0483 155.702 59.9688 154.203C64.4627 150.686 70.876 151.127 76.4079 152.574C79.7331 153.442 85.2127 155.471 84.247 159.834C83.17 164.632 80.9089 169.392 79.3307 174.059C75.699 184.705 72.3055 195.435 69.6147 206.354C68.0921 212.538 66.8019 218.775 65.8056 225.053Z" fill="white"/>
</mask>
<g mask="url(#mask0_1199_23021)">
<path d="M65.8056 225.053C65.1697 229.132 64.6556 233.269 63.4569 237.229C63.379 237.498 63.2577 237.791 63.0227 237.898C62.8311 237.981 62.6295 237.922 62.4335 237.895C52.6964 235.727 43.2358 232.378 34.2956 227.962C33.2298 227.442 32.1344 226.848 31.531 225.814C30.6946 224.377 31.1101 222.566 31.5652 220.97C37.5244 199.854 43.9648 178.586 55.4224 159.862C56.6954 157.781 58.0483 155.702 59.9688 154.203C64.4627 150.686 70.876 151.127 76.4079 152.574C79.7331 153.442 85.2127 155.471 84.247 159.834C83.17 164.632 80.9089 169.392 79.3307 174.059C75.699 184.705 72.3055 195.435 69.6147 206.354C68.0921 212.538 66.8019 218.775 65.8056 225.053Z" fill="#0C89FF"/>
</g>
<mask id="mask1_1199_23021" style="mask-type:luminance" maskUnits="userSpaceOnUse" x="31" y="151" width="54" height="87">
<path d="M65.8056 225.053C65.1697 229.132 64.6556 233.269 63.4569 237.229C63.379 237.498 63.2577 237.791 63.0227 237.898C62.8311 237.981 62.6295 237.922 62.4335 237.895C52.6964 235.727 43.2358 232.378 34.2956 227.962C33.2298 227.442 32.1344 226.848 31.531 225.814C30.6946 224.377 31.1101 222.566 31.5652 220.97C37.5244 199.854 43.9648 178.586 55.4224 159.862C56.6954 157.781 58.0483 155.702 59.9688 154.203C64.4627 150.686 70.876 151.127 76.4079 152.574C79.7331 153.442 85.2127 155.471 84.247 159.834C83.17 164.632 80.9089 169.392 79.3307 174.059C75.699 184.705 72.3055 195.435 69.6147 206.354C68.0921 212.538 66.8019 218.775 65.8056 225.053Z" fill="white"/>
</mask>
<g mask="url(#mask1_1199_23021)">
<path d="M46.6912 152.766C51.4915 150.052 54.3369 147.523 58.1721 152.211C59.364 153.678 60.9816 156.164 63.2417 156.082C65.0163 156.042 66.7485 154.036 68.5394 153.738C70.1149 153.479 70.7718 153.851 72.0034 154.754C74.2789 156.404 74.6907 160.99 77.7416 160.969C79.9024 160.953 81.5587 158.707 83.9267 159.559C86.5383 160.526 89.2262 166.332 89.124 168.897C89.0968 169.443 88.431 169.63 88.0485 169.366C86.9192 168.587 86.3868 167.333 85.6684 166.192C83.6383 163.018 82.4323 162.428 78.9904 163.874C74.2072 165.901 73.9328 162.323 71.2016 159.23C68.0792 155.652 66.6514 158.971 63.1047 159.672C61.479 160.003 60.4834 159.693 59.1707 158.869C57.4027 157.731 55.9796 153.442 54.3006 152.876C53.3723 152.586 49.0902 155.523 47.4683 155.615C45.7289 155.76 45.1923 153.615 46.6912 152.766Z" fill="#001C6C"/>
</g>
<mask id="mask2_1199_23021" style="mask-type:luminance" maskUnits="userSpaceOnUse" x="31" y="151" width="54" height="87">
<path d="M65.8056 225.053C65.1697 229.132 64.6556 233.269 63.4569 237.229C63.379 237.498 63.2577 237.791 63.0227 237.898C62.8311 237.981 62.6295 237.922 62.4335 237.895C52.6964 235.727 43.2358 232.378 34.2956 227.962C33.2298 227.442 32.1344 226.848 31.531 225.814C30.6946 224.377 31.1101 222.566 31.5652 220.97C37.5244 199.854 43.9648 178.586 55.4224 159.862C56.6954 157.781 58.0483 155.702 59.9688 154.203C64.4627 150.686 70.876 151.127 76.4079 152.574C79.7331 153.442 85.2127 155.471 84.247 159.834C83.17 164.632 80.9089 169.392 79.3307 174.059C75.699 184.705 72.3055 195.435 69.6147 206.354C68.0921 212.538 66.8019 218.775 65.8056 225.053Z" fill="white"/>
</mask>
<g mask="url(#mask2_1199_23021)">
<path d="M44.826 160.382C49.6263 157.668 52.4717 155.138 56.3068 159.826C57.4988 161.293 59.1164 163.78 61.3765 163.698C63.151 163.657 64.8832 161.651 66.6742 161.353C68.2496 161.095 68.9066 161.467 70.1382 162.37C72.4137 164.019 72.8072 168.593 75.8764 168.585C78.0372 168.569 79.6935 166.322 82.0614 167.175C84.6731 168.142 87.361 173.948 87.2587 176.513C87.2316 177.059 86.5657 177.245 86.1832 176.982C85.054 176.203 84.5216 174.949 83.8032 173.808C81.773 170.633 80.5671 170.044 77.1252 171.49C72.342 173.517 72.0676 169.939 69.3364 166.846C66.214 163.268 64.7861 166.586 61.2394 167.288C59.6137 167.619 58.6182 167.309 57.3055 166.485C55.5375 165.346 54.1143 161.058 52.4354 160.492C51.5071 160.201 47.225 163.138 45.6213 163.243C43.8945 163.37 43.3396 161.213 44.826 160.382Z" fill="#001C6C"/>
</g>
<mask id="mask3_1199_23021" style="mask-type:luminance" maskUnits="userSpaceOnUse" x="31" y="151" width="54" height="87">
<path d="M65.8056 225.053C65.1697 229.132 64.6556 233.269 63.4569 237.229C63.379 237.498 63.2577 237.791 63.0227 237.898C62.8311 237.981 62.6295 237.922 62.4335 237.895C52.6964 235.727 43.2358 232.378 34.2956 227.962C33.2298 227.442 32.1344 226.848 31.531 225.814C30.6946 224.377 31.1101 222.566 31.5652 220.97C37.5244 199.854 43.9648 178.586 55.4224 159.862C56.6954 157.781 58.0483 155.702 59.9688 154.203C64.4627 150.686 70.876 151.127 76.4079 152.574C79.7331 153.442 85.2127 155.471 84.247 159.834C83.17 164.632 80.9089 169.392 79.3307 174.059C75.699 184.705 72.3055 195.435 69.6147 206.354C68.0921 212.538 66.8019 218.775 65.8056 225.053Z" fill="white"/>
</mask>
<g mask="url(#mask3_1199_23021)">
<path d="M42.9744 167.979C47.7747 165.265 50.6201 162.736 54.4553 167.424C55.6472 168.891 57.2648 171.377 59.5249 171.295C61.2995 171.255 63.0317 169.249 64.8226 168.951C66.3981 168.692 67.055 169.065 68.2867 169.967C70.5621 171.617 70.9739 176.203 74.0248 176.182C76.1856 176.166 77.8419 173.92 80.2099 174.772C82.8215 175.739 85.5095 181.545 85.4072 184.11C85.38 184.656 84.7142 184.843 84.3317 184.579C83.2024 183.8 82.67 182.546 81.9516 181.405C79.9215 178.231 78.7155 177.641 75.2736 179.087C70.4904 181.114 70.216 177.537 67.4848 174.443C64.3624 170.865 62.9346 174.184 59.3879 174.885C57.7622 175.216 56.7666 174.906 55.4539 174.082C53.6859 172.944 52.2628 168.655 50.5838 168.089C49.6555 167.799 45.3734 170.736 43.7515 170.828C42.0429 170.968 41.4755 168.828 42.9744 167.979Z" fill="#001C6C"/>
</g>
<mask id="mask4_1199_23021" style="mask-type:luminance" maskUnits="userSpaceOnUse" x="31" y="151" width="54" height="87">
<path d="M65.8056 225.053C65.1697 229.132 64.6556 233.269 63.4569 237.229C63.379 237.498 63.2577 237.791 63.0227 237.898C62.8311 237.981 62.6295 237.922 62.4335 237.895C52.6964 235.727 43.2358 232.378 34.2956 227.962C33.2298 227.442 32.1344 226.848 31.531 225.814C30.6946 224.377 31.1101 222.566 31.5652 220.97C37.5244 199.854 43.9648 178.586 55.4224 159.862C56.6954 157.781 58.0483 155.702 59.9688 154.203C64.4627 150.686 70.876 151.127 76.4079 152.574C79.7331 153.442 85.2127 155.471 84.247 159.834C83.17 164.632 80.9089 169.392 79.3307 174.059C75.699 184.705 72.3055 195.435 69.6147 206.354C68.0921 212.538 66.8019 218.775 65.8056 225.053Z" fill="white"/>
</mask>
<g mask="url(#mask4_1199_23021)">
<path d="M41.1209 175.577C45.9212 172.862 48.7666 170.333 52.6018 175.021C53.7937 176.488 55.4113 178.975 57.6714 178.893C59.446 178.852 61.1782 176.846 62.9691 176.548C64.5445 176.29 65.2015 176.662 66.4331 177.565C68.7086 179.214 69.1203 183.801 72.1713 183.78C74.3321 183.764 75.9884 181.517 78.3564 182.37C80.968 183.337 83.6559 189.143 83.5537 191.708C83.5265 192.254 82.8607 192.44 82.4782 192.176C81.3489 191.398 80.8165 190.143 80.0981 189.003C78.068 185.828 76.862 185.239 73.4201 186.684C68.6369 188.711 68.3625 185.134 65.6313 182.041C62.5089 178.463 61.0811 181.781 57.5344 182.482C55.9086 182.814 54.9131 182.504 53.6004 181.68C51.8324 180.541 50.4093 176.252 48.7303 175.687C47.802 175.396 43.5199 178.333 41.9162 178.438C40.1768 178.583 39.622 176.426 41.1209 175.577Z" fill="#001C6C"/>
</g>
<mask id="mask5_1199_23021" style="mask-type:luminance" maskUnits="userSpaceOnUse" x="31" y="151" width="54" height="87">
<path d="M65.8056 225.053C65.1697 229.132 64.6556 233.269 63.4569 237.229C63.379 237.498 63.2577 237.791 63.0227 237.898C62.8311 237.981 62.6295 237.922 62.4335 237.895C52.6964 235.727 43.2358 232.378 34.2956 227.962C33.2298 227.442 32.1344 226.848 31.531 225.814C30.6946 224.377 31.1101 222.566 31.5652 220.97C37.5244 199.854 43.9648 178.586 55.4224 159.862C56.6954 157.781 58.0483 155.702 59.9688 154.203C64.4627 150.686 70.876 151.127 76.4079 152.574C79.7331 153.442 85.2127 155.471 84.247 159.834C83.17 164.632 80.9089 169.392 79.3307 174.059C75.699 184.705 72.3055 195.435 69.6147 206.354C68.0921 212.538 66.8019 218.775 65.8056 225.053Z" fill="white"/>
</mask>
<g mask="url(#mask5_1199_23021)">
<path d="M39.2576 183.193C44.0579 180.478 46.9033 177.949 50.7385 182.637C51.9304 184.104 53.548 186.591 55.8081 186.508C57.5827 186.468 59.3149 184.462 61.1058 184.164C62.6813 183.905 63.3382 184.278 64.5699 185.181C66.8453 186.83 67.2389 191.404 70.308 191.396C72.4688 191.379 74.1251 189.133 76.4931 189.985C79.1047 190.952 81.7927 196.759 81.6904 199.323C81.6633 199.869 80.9974 200.056 80.6149 199.792C79.4856 199.014 78.9532 197.759 78.2348 196.618C76.2047 193.444 74.9987 192.855 71.5568 194.3C66.7736 196.327 66.4992 192.75 63.768 189.657C60.6456 186.079 59.2178 189.397 55.6711 190.098C54.0454 190.429 53.0498 190.12 51.7371 189.295C49.9691 188.157 48.546 183.868 46.867 183.302C45.9387 183.012 41.6566 185.949 40.0347 186.041C38.3261 186.181 37.7713 184.023 39.2576 183.193Z" fill="#001C6C"/>
</g>
<mask id="mask6_1199_23021" style="mask-type:luminance" maskUnits="userSpaceOnUse" x="31" y="151" width="54" height="87">
<path d="M65.8056 225.053C65.1697 229.132 64.6556 233.269 63.4569 237.229C63.379 237.498 63.2577 237.791 63.0227 237.898C62.8311 237.981 62.6295 237.922 62.4335 237.895C52.6964 235.727 43.2358 232.378 34.2956 227.962C33.2298 227.442 32.1344 226.848 31.531 225.814C30.6946 224.377 31.1101 222.566 31.5652 220.97C37.5244 199.854 43.9648 178.586 55.4224 159.862C56.6954 157.781 58.0483 155.702 59.9688 154.203C64.4627 150.686 70.876 151.127 76.4079 152.574C79.7331 153.442 85.2127 155.471 84.247 159.834C83.17 164.632 80.9089 169.392 79.3307 174.059C75.699 184.705 72.3055 195.435 69.6147 206.354C68.0921 212.538 66.8019 218.775 65.8056 225.053Z" fill="white"/>
</mask>
<g mask="url(#mask6_1199_23021)">
<path d="M37.4041 190.79C42.2044 188.076 45.0498 185.546 48.885 190.234C50.0769 191.701 51.6945 194.188 53.9546 194.106C55.7291 194.065 57.4614 192.059 59.2523 191.761C60.8278 191.503 61.4847 191.875 62.7163 192.778C64.9918 194.427 65.4036 199.014 68.4545 198.993C70.6153 198.977 72.2716 196.73 74.6396 197.583C77.2512 198.55 79.9391 204.356 79.8369 206.921C79.8097 207.467 79.1439 207.653 78.7614 207.39C77.6321 206.611 77.0997 205.356 76.3813 204.216C74.3512 201.041 73.1452 200.452 69.7033 201.898C64.9201 203.925 64.6457 200.347 61.9145 197.254C58.7921 193.676 57.3643 196.994 53.8176 197.695C52.1918 198.027 51.1963 197.717 49.8836 196.893C48.1156 195.754 46.6925 191.466 45.0135 190.9C44.0852 190.609 39.8031 193.546 38.1994 193.651C36.4726 193.778 35.936 191.633 37.4041 190.79Z" fill="#001C6C"/>
</g>
<mask id="mask7_1199_23021" style="mask-type:luminance" maskUnits="userSpaceOnUse" x="31" y="151" width="54" height="87">
<path d="M65.8056 225.053C65.1697 229.132 64.6556 233.269 63.4569 237.229C63.379 237.498 63.2577 237.791 63.0227 237.898C62.8311 237.981 62.6295 237.922 62.4335 237.895C52.6964 235.727 43.2358 232.378 34.2956 227.962C33.2298 227.442 32.1344 226.848 31.531 225.814C30.6946 224.377 31.1101 222.566 31.5652 220.97C37.5244 199.854 43.9648 178.586 55.4224 159.862C56.6954 157.781 58.0483 155.702 59.9688 154.203C64.4627 150.686 70.876 151.127 76.4079 152.574C79.7331 153.442 85.2127 155.471 84.247 159.834C83.17 164.632 80.9089 169.392 79.3307 174.059C75.699 184.705 72.3055 195.435 69.6147 206.354C68.0921 212.538 66.8019 218.775 65.8056 225.053Z" fill="white"/>
</mask>
<g mask="url(#mask7_1199_23021)">
<path d="M35.5526 198.387C40.3528 195.673 43.1982 193.144 47.0334 197.832C48.2253 199.299 49.8429 201.785 52.103 201.703C53.8776 201.663 55.6098 199.657 57.4007 199.359C58.9762 199.1 59.6332 199.473 60.8648 200.375C63.1402 202.025 63.5338 206.599 66.6029 206.59C68.7638 206.574 70.42 204.328 72.788 205.18C75.3997 206.147 78.0876 211.953 77.9853 214.518C77.9582 215.064 77.2923 215.251 76.9098 214.987C75.7805 214.208 75.2481 212.954 74.5298 211.813C72.4996 208.639 71.2937 208.049 67.8517 209.495C63.0686 211.522 62.7942 207.944 60.063 204.851C56.9405 201.273 55.5127 204.592 51.966 205.293C50.3403 205.624 49.3447 205.314 48.0321 204.49C46.264 203.352 44.8409 199.063 43.162 198.497C42.2336 198.207 37.9515 201.144 36.3296 201.236C34.6085 201.394 34.0718 199.249 35.5526 198.387Z" fill="#001C6C"/>
</g>
<mask id="mask8_1199_23021" style="mask-type:luminance" maskUnits="userSpaceOnUse" x="31" y="151" width="54" height="87">
<path d="M65.8056 225.053C65.1697 229.132 64.6556 233.269 63.4569 237.229C63.379 237.498 63.2577 237.791 63.0227 237.898C62.8311 237.981 62.6295 237.922 62.4335 237.895C52.6964 235.727 43.2358 232.378 34.2956 227.962C33.2298 227.442 32.1344 226.848 31.531 225.814C30.6946 224.377 31.1101 222.566 31.5652 220.97C37.5244 199.854 43.9648 178.586 55.4224 159.862C56.6954 157.781 58.0483 155.702 59.9688 154.203C64.4627 150.686 70.876 151.127 76.4079 152.574C79.7331 153.442 85.2127 155.471 84.247 159.834C83.17 164.632 80.9089 169.392 79.3307 174.059C75.699 184.705 72.3055 195.435 69.6147 206.354C68.0921 212.538 66.8019 218.775 65.8056 225.053Z" fill="white"/>
</mask>
<g mask="url(#mask8_1199_23021)">
<path d="M33.6873 206.003C38.4876 203.288 41.333 200.759 45.1682 205.447C46.3601 206.914 47.9777 209.401 50.2378 209.319C52.0124 209.278 53.7446 207.272 55.5355 206.974C57.111 206.716 57.7679 207.088 58.9995 207.991C61.275 209.64 61.6868 214.227 64.7377 214.206C66.8985 214.19 68.5548 211.943 70.9228 212.796C73.5344 213.763 76.2223 219.569 76.1201 222.134C76.0929 222.68 75.4271 222.866 75.0446 222.602C73.9153 221.824 73.3829 220.569 72.6645 219.429C70.6344 216.254 69.4284 215.665 65.9865 217.111C61.2033 219.137 60.9289 215.56 58.1977 212.467C55.0753 208.889 53.6475 212.207 50.1008 212.908C48.4751 213.24 47.4795 212.93 46.1668 212.106C44.3988 210.967 42.9757 206.678 41.2967 206.113C40.3684 205.822 36.0863 208.759 34.4826 208.864C32.7558 208.991 32.2192 206.846 33.6873 206.003Z" fill="#001C6C"/>
</g>
<mask id="mask9_1199_23021" style="mask-type:luminance" maskUnits="userSpaceOnUse" x="31" y="151" width="54" height="87">
<path d="M65.8056 225.053C65.1697 229.132 64.6556 233.269 63.4569 237.229C63.379 237.498 63.2577 237.791 63.0227 237.898C62.8311 237.981 62.6295 237.922 62.4335 237.895C52.6964 235.727 43.2358 232.378 34.2956 227.962C33.2298 227.442 32.1344 226.848 31.531 225.814C30.6946 224.377 31.1101 222.566 31.5652 220.97C37.5244 199.854 43.9648 178.586 55.4224 159.862C56.6954 157.781 58.0483 155.702 59.9688 154.203C64.4627 150.686 70.876 151.127 76.4079 152.574C79.7331 153.442 85.2127 155.471 84.247 159.834C83.17 164.632 80.9089 169.392 79.3307 174.059C75.699 184.705 72.3055 195.435 69.6147 206.354C68.0921 212.538 66.8019 218.775 65.8056 225.053Z" fill="white"/>
</mask>
<g mask="url(#mask9_1199_23021)">
<path d="M31.8553 213.613C36.6556 210.899 39.501 208.369 43.3361 213.057C44.5281 214.524 46.1457 217.011 48.4058 216.929C50.1803 216.888 51.9125 214.882 53.7035 214.584C55.2789 214.326 55.9359 214.698 57.1675 215.601C59.443 217.25 59.8365 221.824 62.9057 221.816C65.0665 221.8 66.7228 219.553 69.0907 220.406C71.7024 221.373 74.3903 227.179 74.288 229.744C74.2609 230.29 73.595 230.476 73.2125 230.213C72.0833 229.434 71.5509 228.179 70.8325 227.039C68.8023 223.864 67.5964 223.275 64.1545 224.721C59.3713 226.748 59.0969 223.17 56.3657 220.077C53.2433 216.499 51.8154 219.817 48.2687 220.519C46.643 220.85 45.6475 220.54 44.3348 219.716C42.5668 218.577 41.1436 214.289 39.4647 213.723C38.5364 213.432 34.2543 216.369 32.6324 216.461C30.9055 216.589 30.3689 214.444 31.8553 213.613Z" fill="#001C6C"/>
</g>
<mask id="mask10_1199_23021" style="mask-type:luminance" maskUnits="userSpaceOnUse" x="31" y="151" width="54" height="87">
<path d="M65.8056 225.053C65.1697 229.132 64.6556 233.269 63.4569 237.229C63.379 237.498 63.2577 237.791 63.0227 237.898C62.8311 237.981 62.6295 237.922 62.4335 237.895C52.6964 235.727 43.2358 232.378 34.2956 227.962C33.2298 227.442 32.1344 226.848 31.531 225.814C30.6946 224.377 31.1101 222.566 31.5652 220.97C37.5244 199.854 43.9648 178.586 55.4224 159.862C56.6954 157.781 58.0483 155.702 59.9688 154.203C64.4627 150.686 70.876 151.127 76.4079 152.574C79.7331 153.442 85.2127 155.471 84.247 159.834C83.17 164.632 80.9089 169.392 79.3307 174.059C75.699 184.705 72.3055 195.435 69.6147 206.354C68.0921 212.538 66.8019 218.775 65.8056 225.053Z" fill="white"/>
</mask>
<g mask="url(#mask10_1199_23021)">
<path d="M30.0018 221.21C34.802 218.496 37.6475 215.967 41.4826 220.655C42.6746 222.122 44.2922 224.608 46.5523 224.526C48.3268 224.486 50.059 222.48 51.8499 222.182C53.4254 221.923 54.0824 222.296 55.314 223.198C57.5895 224.848 58.0012 229.434 61.0521 229.413C63.213 229.397 64.8693 227.151 67.2372 228.003C69.8489 228.97 72.5368 234.776 72.4345 237.341C72.4074 237.887 71.7415 238.074 71.359 237.81C70.2298 237.031 69.6974 235.777 68.979 234.636C66.9488 231.462 65.7429 230.872 62.301 232.318C57.5178 234.345 57.2434 230.767 54.5122 227.674C51.3898 224.096 49.9619 227.415 46.4152 228.116C44.7895 228.447 43.7939 228.137 42.4813 227.313C40.7133 226.175 39.2901 221.886 37.6112 221.32C36.6828 221.03 32.4008 223.967 30.7971 224.071C29.0395 224.204 28.5028 222.059 30.0018 221.21Z" fill="#001C6C"/>
</g>
<mask id="mask11_1199_23021" style="mask-type:luminance" maskUnits="userSpaceOnUse" x="31" y="151" width="54" height="87">
<path d="M65.8056 225.053C65.1697 229.132 64.6556 233.269 63.4569 237.229C63.379 237.498 63.2577 237.791 63.0227 237.898C62.8311 237.981 62.6295 237.922 62.4335 237.895C52.6964 235.727 43.2358 232.378 34.2956 227.962C33.2298 227.442 32.1344 226.848 31.531 225.814C30.6946 224.377 31.1101 222.566 31.5652 220.97C37.5244 199.854 43.9648 178.586 55.4224 159.862C56.6954 157.781 58.0483 155.702 59.9688 154.203C64.4627 150.686 70.876 151.127 76.4079 152.574C79.7331 153.442 85.2127 155.471 84.247 159.834C83.17 164.632 80.9089 169.392 79.3307 174.059C75.699 184.705 72.3055 195.435 69.6147 206.354C68.0921 212.538 66.8019 218.775 65.8056 225.053Z" fill="white"/>
</mask>
<g mask="url(#mask11_1199_23021)">
<path d="M28.1502 228.808C32.9505 226.093 35.7959 223.564 39.631 228.252C40.823 229.719 42.4406 232.206 44.7007 232.124C46.4752 232.083 48.2075 230.077 49.9984 229.779C51.5738 229.521 52.2308 229.893 53.4624 230.796C55.7379 232.445 56.1314 237.019 59.2006 237.011C61.3614 236.995 63.0177 234.748 65.3857 235.601C67.9973 236.568 70.6852 242.374 70.583 244.939C70.5558 245.485 69.8899 245.671 69.5075 245.407C68.3782 244.629 67.8458 243.374 67.1274 242.234C65.0972 239.059 63.8913 238.47 60.4494 239.915C55.6662 241.942 55.3918 238.365 52.6606 235.272C49.5382 231.694 48.1103 235.012 44.5637 235.713C42.9379 236.045 41.9424 235.735 40.6297 234.91C38.8617 233.772 37.4386 229.483 35.7596 228.918C34.8313 228.627 30.5492 231.564 28.9273 231.656C27.1879 231.802 26.6513 229.657 28.1502 228.808Z" fill="#001C6C"/>
</g>
<path d="M106.973 102.626C113.726 105.265 120.459 107.971 127.174 110.664C130.077 111.832 132.98 112.999 135.674 114.588C135.541 114.819 135.263 114.95 134.992 115.032C124.399 118.781 112.973 120.154 101.807 119.045C97.3824 118.603 92.5144 117.479 90.0566 113.795C87.1008 109.39 88.984 102.917 93.3377 100.11C97.2258 97.6272 103.356 101.208 106.973 102.626Z" fill="#FF693B"/>
<mask id="mask12_1199_23021" style="mask-type:luminance" maskUnits="userSpaceOnUse" x="24" y="113" width="93" height="60">
<path d="M45.6507 122.819C43.1701 119.791 40.8277 116.563 37.5718 114.426C36.7397 113.879 35.8082 113.398 34.8132 113.438C33.751 113.459 32.7835 114.083 31.9505 114.745C29.619 116.607 27.8484 119.097 26.4012 121.703C25.2638 123.743 24.2527 125.95 24.1234 128.281C23.8316 133.108 27.1832 137.328 30.5154 140.836C40.3257 151.122 51.929 159.821 64.9802 165.484C78.0132 171.135 92.5569 173.659 106.65 171.731C111.835 171.03 116.62 167.364 116.447 161.651C116.379 159.372 115.856 156.779 115.431 154.55C114.831 151.367 112.598 150.553 109.53 150.832C105.338 151.222 101.237 152.455 97.0186 152.532C93.1812 152.603 88.9434 150.837 85.2916 149.664C76.5778 146.83 68.3097 142.609 60.9074 137.21C55.2775 133.059 50.1126 128.235 45.6507 122.819Z" fill="white"/>
</mask>
<g mask="url(#mask12_1199_23021)">
<path d="M45.6507 122.819C43.1701 119.791 40.8277 116.563 37.5718 114.426C36.7397 113.879 35.8082 113.398 34.8132 113.438C33.751 113.459 32.7835 114.083 31.9505 114.745C29.619 116.607 27.8484 119.097 26.4012 121.703C25.2638 123.743 24.2527 125.95 24.1234 128.281C23.8316 133.108 27.1832 137.328 30.5154 140.836C40.3257 151.122 51.929 159.821 64.9802 165.484C78.0132 171.135 92.5569 173.659 106.65 171.731C111.835 171.03 116.62 167.364 116.447 161.651C116.379 159.372 115.856 156.779 115.431 154.55C114.831 151.367 112.598 150.553 109.53 150.832C105.338 151.222 101.237 152.455 97.0186 152.532C93.1812 152.603 88.9434 150.837 85.2916 149.664C76.5778 146.83 68.3097 142.609 60.9074 137.21C55.2775 133.059 50.1126 128.235 45.6507 122.819Z" fill="#0C89FF"/>
</g>
<mask id="mask13_1199_23021" style="mask-type:luminance" maskUnits="userSpaceOnUse" x="24" y="113" width="93" height="60">
<path d="M45.6507 122.819C43.1701 119.791 40.8277 116.563 37.5718 114.426C36.7397 113.879 35.8082 113.398 34.8132 113.438C33.751 113.459 32.7835 114.083 31.9505 114.745C29.619 116.607 27.8484 119.097 26.4012 121.703C25.2638 123.743 24.2527 125.95 24.1234 128.281C23.8316 133.108 27.1832 137.328 30.5154 140.836C40.3257 151.122 51.929 159.821 64.9802 165.484C78.0132 171.135 92.5569 173.659 106.65 171.731C111.835 171.03 116.62 167.364 116.447 161.651C116.379 159.372 115.856 156.779 115.431 154.55C114.831 151.367 112.598 150.553 109.53 150.832C105.338 151.222 101.237 152.455 97.0186 152.532C93.1812 152.603 88.9434 150.837 85.2916 149.664C76.5778 146.83 68.3097 142.609 60.9074 137.21C55.2775 133.059 50.1126 128.235 45.6507 122.819Z" fill="white"/>
</mask>
<g mask="url(#mask13_1199_23021)">
<path d="M101.708 147.133C101.414 146.312 102.493 145.604 103.058 146.343C104.856 148.685 109.719 152.818 110.056 155.954C110.376 158.998 106.723 159.814 105.498 161.982C104.582 163.582 104.987 163.189 106.262 164.848C106.93 165.712 107.765 166.799 108.234 167.795C108.65 168.673 108.992 169.151 108.841 170.149C108.45 172.783 104.677 177.282 102.514 178.587C101.67 179.109 100.779 178.413 101.021 177.478C101.656 175.038 106.253 171.565 105.995 169.289C105.742 167.044 101.269 165.036 101.828 162.276C102.235 160.243 105.117 159.649 106.118 158.08C108.391 154.511 102.962 150.498 101.708 147.133Z" fill="#001C6C"/>
</g>
<mask id="mask14_1199_23021" style="mask-type:luminance" maskUnits="userSpaceOnUse" x="24" y="113" width="93" height="60">
<path d="M45.6507 122.819C43.1701 119.791 40.8277 116.563 37.5718 114.426C36.7397 113.879 35.8082 113.398 34.8132 113.438C33.751 113.459 32.7835 114.083 31.9505 114.745C29.619 116.607 27.8484 119.097 26.4012 121.703C25.2638 123.743 24.2527 125.95 24.1234 128.281C23.8316 133.108 27.1832 137.328 30.5154 140.836C40.3257 151.122 51.929 159.821 64.9802 165.484C78.0132 171.135 92.5569 173.659 106.65 171.731C111.835 171.03 116.62 167.364 116.447 161.651C116.379 159.372 115.856 156.779 115.431 154.55C114.831 151.367 112.598 150.553 109.53 150.832C105.338 151.222 101.237 152.455 97.0186 152.532C93.1812 152.603 88.9434 150.837 85.2916 149.664C76.5778 146.83 68.3097 142.609 60.9074 137.21C55.2775 133.059 50.1126 128.235 45.6507 122.819Z" fill="white"/>
</mask>
<g mask="url(#mask14_1199_23021)">
<path d="M97.8853 152.834C97.0076 150.911 95.4665 149.015 94.372 147.211C94.0071 146.61 94.6845 145.706 95.3138 146.274C97.088 147.793 98.1812 149.676 99.6564 151.473C100.536 152.536 102.423 153.891 102.602 155.386C103.027 159.095 96.9304 159.598 96.9128 162.624C96.9022 165.602 102.247 167.243 101.213 171.236C100.48 174.092 96.71 177.651 94.0558 178.968C93.1091 179.445 92.4774 178.256 92.9129 177.508C93.7838 176.01 94.8299 174.688 95.8886 173.347C97.8678 170.866 98.3422 169.983 96.2982 166.907C95.3092 165.418 93.19 164.36 93.5787 162.316C93.9478 160.338 96.3425 159.515 97.415 158.076C99.1831 155.745 99.0004 155.27 97.8853 152.834Z" fill="#001C6C"/>
</g>
<mask id="mask15_1199_23021" style="mask-type:luminance" maskUnits="userSpaceOnUse" x="24" y="113" width="93" height="60">
<path d="M45.6507 122.819C43.1701 119.791 40.8277 116.563 37.5718 114.426C36.7397 113.879 35.8082 113.398 34.8132 113.438C33.751 113.459 32.7835 114.083 31.9505 114.745C29.619 116.607 27.8484 119.097 26.4012 121.703C25.2638 123.743 24.2527 125.95 24.1234 128.281C23.8316 133.108 27.1832 137.328 30.5154 140.836C40.3257 151.122 51.929 159.821 64.9802 165.484C78.0132 171.135 92.5569 173.659 106.65 171.731C111.835 171.03 116.62 167.364 116.447 161.651C116.379 159.372 115.856 156.779 115.431 154.55C114.831 151.367 112.598 150.553 109.53 150.832C105.338 151.222 101.237 152.455 97.0186 152.532C93.1812 152.603 88.9434 150.837 85.2916 149.664C76.5778 146.83 68.3097 142.609 60.9074 137.21C55.2775 133.059 50.1126 128.235 45.6507 122.819Z" fill="white"/>
</mask>
<g mask="url(#mask15_1199_23021)">
<path d="M87.1167 145.732C86.897 144.881 88.0423 144.272 88.5208 145.06C90.1076 147.552 94.5892 152.121 94.6249 155.265C94.662 158.329 90.9652 158.819 89.5578 160.861C88.5021 162.392 88.9438 162.024 90.0634 163.791C90.6625 164.715 91.3809 165.856 91.7632 166.899C92.0922 167.825 92.3911 168.327 92.1547 169.293C91.5178 171.893 87.3762 176.03 85.1121 177.131C84.2213 177.566 83.3986 176.81 83.7386 175.888C84.5928 173.519 89.4779 170.487 89.4225 168.19C89.3727 165.923 85.1017 163.543 85.8937 160.836C86.484 158.849 89.4112 158.501 90.5397 157.02C93.1095 153.682 88.0557 149.203 87.1167 145.732Z" fill="#001C6C"/>
</g>
<mask id="mask16_1199_23021" style="mask-type:luminance" maskUnits="userSpaceOnUse" x="24" y="113" width="93" height="60">
<path d="M45.6507 122.819C43.1701 119.791 40.8277 116.563 37.5718 114.426C36.7397 113.879 35.8082 113.398 34.8132 113.438C33.751 113.459 32.7835 114.083 31.9505 114.745C29.619 116.607 27.8484 119.097 26.4012 121.703C25.2638 123.743 24.2527 125.95 24.1234 128.281C23.8316 133.108 27.1832 137.328 30.5154 140.836C40.3257 151.122 51.929 159.821 64.9802 165.484C78.0132 171.135 92.5569 173.659 106.65 171.731C111.835 171.03 116.62 167.364 116.447 161.651C116.379 159.372 115.856 156.779 115.431 154.55C114.831 151.367 112.598 150.553 109.53 150.832C105.338 151.222 101.237 152.455 97.0186 152.532C93.1812 152.603 88.9434 150.837 85.2916 149.664C76.5778 146.83 68.3097 142.609 60.9074 137.21C55.2775 133.059 50.1126 128.235 45.6507 122.819Z" fill="white"/>
</mask>
<g mask="url(#mask16_1199_23021)">
<path d="M82.8145 151.076C82.1283 149.07 80.7424 147.065 79.803 145.154C79.4998 144.542 80.25 143.687 80.8233 144.298C82.4355 145.974 83.3735 147.965 84.6935 149.87C85.4609 151.018 87.2477 152.518 87.285 154.023C87.3666 157.764 81.266 157.726 80.9726 160.724C80.7044 163.685 85.8818 165.803 84.4941 169.686C83.5105 172.477 79.4331 175.663 76.6722 176.745C75.6777 177.135 75.1635 175.893 75.6718 175.194C76.6703 173.785 77.8131 172.556 79.0175 171.316C81.2084 169.035 81.7682 168.184 79.9969 164.945C79.1379 163.385 77.1262 162.133 77.7108 160.115C78.2633 158.184 80.7157 157.589 81.9158 156.238C83.8283 154.087 83.689 153.588 82.8145 151.076Z" fill="#001C6C"/>
</g>
<mask id="mask17_1199_23021" style="mask-type:luminance" maskUnits="userSpaceOnUse" x="24" y="113" width="93" height="60">
<path d="M45.6507 122.819C43.1701 119.791 40.8277 116.563 37.5718 114.426C36.7397 113.879 35.8082 113.398 34.8132 113.438C33.751 113.459 32.7835 114.083 31.9505 114.745C29.619 116.607 27.8484 119.097 26.4012 121.703C25.2638 123.743 24.2527 125.95 24.1234 128.281C23.8316 133.108 27.1832 137.328 30.5154 140.836C40.3257 151.122 51.929 159.821 64.9802 165.484C78.0132 171.135 92.5569 173.659 106.65 171.731C111.835 171.03 116.62 167.364 116.447 161.651C116.379 159.372 115.856 156.779 115.431 154.55C114.831 151.367 112.598 150.553 109.53 150.832C105.338 151.222 101.237 152.455 97.0186 152.532C93.1812 152.603 88.9434 150.837 85.2916 149.664C76.5778 146.83 68.3097 142.609 60.9074 137.21C55.2775 133.059 50.1126 128.235 45.6507 122.819Z" fill="white"/>
</mask>
<g mask="url(#mask17_1199_23021)">
<path d="M74.7409 143.063C74.7059 142.178 75.9636 141.835 76.2687 142.718C77.2556 145.496 80.6245 150.938 79.9492 154.022C79.306 157.021 75.5981 156.67 73.7604 158.361C72.3964 159.599 72.8915 159.348 73.5902 161.336C73.9543 162.367 74.4126 163.651 74.5487 164.74C74.6622 165.705 74.8436 166.261 74.4056 167.169C73.2072 169.57 68.2536 172.662 65.8012 173.257C64.8401 173.482 64.2102 172.564 64.7449 171.749C66.1047 169.621 71.5361 167.745 72.0139 165.493C72.4667 163.277 68.8423 159.999 70.2071 157.551C71.2119 155.743 74.1346 156.064 75.584 154.858C78.8252 152.145 74.874 146.651 74.7409 143.063Z" fill="#001C6C"/>
</g>
<mask id="mask18_1199_23021" style="mask-type:luminance" maskUnits="userSpaceOnUse" x="24" y="113" width="93" height="60">
<path d="M45.6507 122.819C43.1701 119.791 40.8277 116.563 37.5718 114.426C36.7397 113.879 35.8082 113.398 34.8132 113.438C33.751 113.459 32.7835 114.083 31.9505 114.745C29.619 116.607 27.8484 119.097 26.4012 121.703C25.2638 123.743 24.2527 125.95 24.1234 128.281C23.8316 133.108 27.1832 137.328 30.5154 140.836C40.3257 151.122 51.929 159.821 64.9802 165.484C78.0132 171.135 92.5569 173.659 106.65 171.731C111.835 171.03 116.62 167.364 116.447 161.651C116.379 159.372 115.856 156.779 115.431 154.55C114.831 151.367 112.598 150.553 109.53 150.832C105.338 151.222 101.237 152.455 97.0186 152.532C93.1812 152.603 88.9434 150.837 85.2916 149.664C76.5778 146.83 68.3097 142.609 60.9074 137.21C55.2775 133.059 50.1126 128.235 45.6507 122.819Z" fill="white"/>
</mask>
<g mask="url(#mask18_1199_23021)">
<path d="M69.3638 147.316C69.1212 145.212 68.2429 142.939 67.754 140.881C67.5989 140.21 68.5118 139.548 68.93 140.267C70.1381 142.256 70.595 144.4 71.4689 146.562C71.958 147.84 73.3521 149.716 73.0647 151.185C72.319 154.839 66.3688 153.453 65.4329 156.331C64.5039 159.159 69.0869 162.372 66.877 165.851C65.2967 168.338 60.6146 170.569 57.6861 170.997C56.6339 171.159 56.4036 169.817 57.0633 169.25C58.3644 168.103 59.7484 167.148 61.1814 166.2C63.8364 164.454 64.5532 163.765 63.5665 160.207C63.0782 158.499 61.4045 156.834 62.4036 154.995C63.3707 153.241 65.8883 153.175 67.3534 152.142C69.6754 150.489 69.6409 149.954 69.3638 147.316Z" fill="#001C6C"/>
</g>
<mask id="mask19_1199_23021" style="mask-type:luminance" maskUnits="userSpaceOnUse" x="24" y="113" width="93" height="60">
<path d="M45.6507 122.819C43.1701 119.791 40.8277 116.563 37.5718 114.426C36.7397 113.879 35.8082 113.398 34.8132 113.438C33.751 113.459 32.7835 114.083 31.9505 114.745C29.619 116.607 27.8484 119.097 26.4012 121.703C25.2638 123.743 24.2527 125.95 24.1234 128.281C23.8316 133.108 27.1832 137.328 30.5154 140.836C40.3257 151.122 51.929 159.821 64.9802 165.484C78.0132 171.135 92.5569 173.659 106.65 171.731C111.835 171.03 116.62 167.364 116.447 161.651C116.379 159.372 115.856 156.779 115.431 154.55C114.831 151.367 112.598 150.553 109.53 150.832C105.338 151.222 101.237 152.455 97.0186 152.532C93.1812 152.603 88.9434 150.837 85.2916 149.664C76.5778 146.83 68.3097 142.609 60.9074 137.21C55.2775 133.059 50.1126 128.235 45.6507 122.819Z" fill="white"/>
</mask>
<g mask="url(#mask19_1199_23021)">
<path d="M61.2929 137.234C61.3377 136.351 62.6179 136.131 62.8489 137.043C63.577 139.884 66.4439 145.626 65.5181 148.645C64.6242 151.578 60.934 150.89 58.9701 152.413C57.5037 153.527 58.0226 153.32 58.5549 155.354C58.8449 156.414 59.18 157.721 59.2238 158.827C59.2575 159.791 59.383 160.389 58.8665 161.216C57.4552 163.497 52.2448 166.144 49.7472 166.492C48.7691 166.625 48.226 165.659 48.8153 164.882C50.3572 162.879 55.9462 161.515 56.5892 159.296C57.2254 157.126 53.9126 153.552 55.4903 151.224C56.6591 149.529 59.5472 150.095 61.0864 149.032C64.531 146.647 61.1069 140.817 61.2929 137.234Z" fill="#001C6C"/>
</g>
<mask id="mask20_1199_23021" style="mask-type:luminance" maskUnits="userSpaceOnUse" x="24" y="113" width="93" height="60">
<path d="M45.6507 122.819C43.1701 119.791 40.8277 116.563 37.5718 114.426C36.7397 113.879 35.8082 113.398 34.8132 113.438C33.751 113.459 32.7835 114.083 31.9505 114.745C29.619 116.607 27.8484 119.097 26.4012 121.703C25.2638 123.743 24.2527 125.95 24.1234 128.281C23.8316 133.108 27.1832 137.328 30.5154 140.836C40.3257 151.122 51.929 159.821 64.9802 165.484C78.0132 171.135 92.5569 173.659 106.65 171.731C111.835 171.03 116.62 167.364 116.447 161.651C116.379 159.372 115.856 156.779 115.431 154.55C114.831 151.367 112.598 150.553 109.53 150.832C105.338 151.222 101.237 152.455 97.0186 152.532C93.1812 152.603 88.9434 150.837 85.2916 149.664C76.5778 146.83 68.3097 142.609 60.9074 137.21C55.2775 133.059 50.1126 128.235 45.6507 122.819Z" fill="white"/>
</mask>
<g mask="url(#mask20_1199_23021)">
<path d="M55.9542 139.953C55.9144 137.828 55.2334 135.502 54.9235 133.38C54.83 132.697 55.7906 132.122 56.1654 132.864C57.1876 134.967 57.4724 137.127 58.1057 139.365C58.5081 140.691 59.7163 142.681 59.2819 144.129C58.2058 147.717 52.4115 145.793 51.2193 148.574C50.0341 151.307 54.3098 154.927 51.8084 158.204C50.0096 160.541 45.1561 162.358 42.1767 162.509C41.1202 162.56 41.0187 161.227 41.6897 160.721C43.0749 159.686 44.5487 158.874 46.0533 158.055C48.8514 156.569 49.6229 155.918 48.944 152.303C48.6221 150.549 47.0854 148.763 48.2428 147.006C49.3682 145.335 51.882 145.508 53.4494 144.599C55.9831 143.146 56.0158 142.63 55.9542 139.953Z" fill="#001C6C"/>
</g>
<mask id="mask21_1199_23021" style="mask-type:luminance" maskUnits="userSpaceOnUse" x="24" y="113" width="93" height="60">
<path d="M45.6507 122.819C43.1701 119.791 40.8277 116.563 37.5718 114.426C36.7397 113.879 35.8082 113.398 34.8132 113.438C33.751 113.459 32.7835 114.083 31.9505 114.745C29.619 116.607 27.8484 119.097 26.4012 121.703C25.2638 123.743 24.2527 125.95 24.1234 128.281C23.8316 133.108 27.1832 137.328 30.5154 140.836C40.3257 151.122 51.929 159.821 64.9802 165.484C78.0132 171.135 92.5569 173.659 106.65 171.731C111.835 171.03 116.62 167.364 116.447 161.651C116.379 159.372 115.856 156.779 115.431 154.55C114.831 151.367 112.598 150.553 109.53 150.832C105.338 151.222 101.237 152.455 97.0186 152.532C93.1812 152.603 88.9434 150.837 85.2916 149.664C76.5778 146.83 68.3097 142.609 60.9074 137.21C55.2775 133.059 50.1126 128.235 45.6507 122.819Z" fill="white"/>
</mask>
<g mask="url(#mask21_1199_23021)">
<path d="M44.5336 141.277C49.0869 139.037 50.3069 141.438 50.0055 134.938C49.8766 132.24 49.4607 129.453 50.2879 126.85C50.5136 126.172 51.5607 126.329 51.6541 127.012C52.1037 130.764 54.9167 139.507 51.0204 142.118C50.4122 142.533 49.5668 142.434 48.9235 142.743C48.3079 142.857 47.6615 142.976 47.0458 143.089C44.7541 144.387 43.8178 146.135 44.2677 148.327C43.3876 151.942 43.529 154.622 41.11 157.741C40.7776 158.184 39.9164 157.913 40.0428 157.301C40.5666 154.865 41.6795 152.432 41.9947 149.987C42.191 148.455 41.7843 147.018 41.9793 145.566C42.2417 143.354 42.387 142.325 44.5336 141.277Z" fill="#001C6C"/>
</g>
<mask id="mask22_1199_23021" style="mask-type:luminance" maskUnits="userSpaceOnUse" x="24" y="113" width="93" height="60">
<path d="M45.6507 122.819C43.1701 119.791 40.8277 116.563 37.5718 114.426C36.7397 113.879 35.8082 113.398 34.8132 113.438C33.751 113.459 32.7835 114.083 31.9505 114.745C29.619 116.607 27.8484 119.097 26.4012 121.703C25.2638 123.743 24.2527 125.95 24.1234 128.281C23.8316 133.108 27.1832 137.328 30.5154 140.836C40.3257 151.122 51.929 159.821 64.9802 165.484C78.0132 171.135 92.5569 173.659 106.65 171.731C111.835 171.03 116.62 167.364 116.447 161.651C116.379 159.372 115.856 156.779 115.431 154.55C114.831 151.367 112.598 150.553 109.53 150.832C105.338 151.222 101.237 152.455 97.0186 152.532C93.1812 152.603 88.9434 150.837 85.2916 149.664C76.5778 146.83 68.3097 142.609 60.9074 137.21C55.2775 133.059 50.1126 128.235 45.6507 122.819Z" fill="white"/>
</mask>
<g mask="url(#mask22_1199_23021)">
<path d="M37.5141 134.582C40.0501 133.748 43.698 135.941 44.5479 132.681C45.484 129.024 43.7845 124.356 44.0303 120.492C44.0851 119.75 45.1027 119.833 45.252 120.474C46.2124 124.148 49.8461 134.156 45.3323 136.61C41.2953 138.802 38.9808 134.598 37.5139 141.52C36.6374 145.675 37.0688 149.415 34.8287 153.249C34.343 154.07 33.3048 153.354 33.298 152.624C33.2803 150.272 34.0753 148.534 34.5236 146.208C34.965 143.931 34.7041 141.815 34.8824 139.49C35.0468 137.264 34.9906 135.397 37.5141 134.582Z" fill="#001C6C"/>
</g>
<mask id="mask23_1199_23021" style="mask-type:luminance" maskUnits="userSpaceOnUse" x="24" y="113" width="93" height="60">
<path d="M45.6507 122.819C43.1701 119.791 40.8277 116.563 37.5718 114.426C36.7397 113.879 35.8082 113.398 34.8132 113.438C33.751 113.459 32.7835 114.083 31.9505 114.745C29.619 116.607 27.8484 119.097 26.4012 121.703C25.2638 123.743 24.2527 125.95 24.1234 128.281C23.8316 133.108 27.1832 137.328 30.5154 140.836C40.3257 151.122 51.929 159.821 64.9802 165.484C78.0132 171.135 92.5569 173.659 106.65 171.731C111.835 171.03 116.62 167.364 116.447 161.651C116.379 159.372 115.856 156.779 115.431 154.55C114.831 151.367 112.598 150.553 109.53 150.832C105.338 151.222 101.237 152.455 97.0186 152.532C93.1812 152.603 88.9434 150.837 85.2916 149.664C76.5778 146.83 68.3097 142.609 60.9074 137.21C55.2775 133.059 50.1126 128.235 45.6507 122.819Z" fill="white"/>
</mask>
<g mask="url(#mask23_1199_23021)">
<path d="M30.486 128.875C32.4474 127.511 34.5955 128.293 36.7589 128.117C40.7665 127.761 40.1576 125.916 39.7324 122.557C39.4433 120.287 39.038 117.991 38.5642 115.755C38.3935 114.911 39.7378 114.52 40.0316 115.341C41.2897 118.817 45.3915 128.341 40.592 130.625C36.9056 132.387 32.7927 128.18 31.0635 133.845C30.0081 137.285 31.3327 141.21 29.7566 144.588C29.3563 145.441 28.2143 145.461 27.8043 144.613C26.58 142.102 27.7612 137.699 28.0745 134.984C28.3131 132.728 28.5246 130.239 30.486 128.875Z" fill="#001C6C"/>
</g>
<mask id="mask24_1199_23021" style="mask-type:luminance" maskUnits="userSpaceOnUse" x="24" y="113" width="93" height="60">
<path d="M45.6507 122.819C43.1701 119.791 40.8277 116.563 37.5718 114.426C36.7397 113.879 35.8082 113.398 34.8132 113.438C33.751 113.459 32.7835 114.083 31.9505 114.745C29.619 116.607 27.8484 119.097 26.4012 121.703C25.2638 123.743 24.2527 125.95 24.1234 128.281C23.8316 133.108 27.1832 137.328 30.5154 140.836C40.3257 151.122 51.929 159.821 64.9802 165.484C78.0132 171.135 92.5569 173.659 106.65 171.731C111.835 171.03 116.62 167.364 116.447 161.651C116.379 159.372 115.856 156.779 115.431 154.55C114.831 151.367 112.598 150.553 109.53 150.832C105.338 151.222 101.237 152.455 97.0186 152.532C93.1812 152.603 88.9434 150.837 85.2916 149.664C76.5778 146.83 68.3097 142.609 60.9074 137.21C55.2775 133.059 50.1126 128.235 45.6507 122.819Z" fill="white"/>
</mask>
<g mask="url(#mask24_1199_23021)">
<path d="M27.9505 122.691C30.969 121.625 34.8582 123.312 34.2958 118.164C34.0287 115.667 33.2665 113.421 33.5284 110.858C33.6524 109.626 35.4903 109.844 35.4279 111.065C35.2531 114.71 39.0758 122.105 34.4766 124.528C31.4743 126.115 29.8738 122.941 27.246 127.61C25.3313 131.05 25.9053 134.7 23.544 138.047C22.7969 139.091 21.358 138.099 21.695 136.987C22.7724 133.319 23.6596 128.876 25.1697 125.399C25.9214 123.685 26.2776 123.285 27.9505 122.691Z" fill="#001C6C"/>
</g>
<mask id="mask25_1199_23021" style="mask-type:luminance" maskUnits="userSpaceOnUse" x="24" y="113" width="93" height="60">
<path d="M45.6507 122.819C43.1701 119.791 40.8277 116.563 37.5718 114.426C36.7397 113.879 35.8082 113.398 34.8132 113.438C33.751 113.459 32.7835 114.083 31.9505 114.745C29.619 116.607 27.8484 119.097 26.4012 121.703C25.2638 123.743 24.2527 125.95 24.1234 128.281C23.8316 133.108 27.1832 137.328 30.5154 140.836C40.3257 151.122 51.929 159.821 64.9802 165.484C78.0132 171.135 92.5569 173.659 106.65 171.731C111.835 171.03 116.62 167.364 116.447 161.651C116.379 159.372 115.856 156.779 115.431 154.55C114.831 151.367 112.598 150.553 109.53 150.832C105.338 151.222 101.237 152.455 97.0186 152.532C93.1812 152.603 88.9434 150.837 85.2916 149.664C76.5778 146.83 68.3097 142.609 60.9074 137.21C55.2775 133.059 50.1126 128.235 45.6507 122.819Z" fill="white"/>
</mask>
<g mask="url(#mask25_1199_23021)">
<path d="M21.7358 118.998C23.6857 118.352 25.6945 118.635 27.6895 118.235C30.713 117.631 29.0986 114.555 28.8365 112.518C28.6834 111.337 30.4059 111.099 30.6638 112.245C31.2079 114.691 32.9492 117.505 30.6811 119.626C28.5626 121.607 24.6046 121.541 22.0005 120.875C21.1814 120.66 20.6685 119.338 21.7358 118.998Z" fill="#001C6C"/>
</g>
<mask id="mask26_1199_23021" style="mask-type:luminance" maskUnits="userSpaceOnUse" x="24" y="113" width="93" height="60">
<path d="M45.6507 122.819C43.1701 119.791 40.8277 116.563 37.5718 114.426C36.7397 113.879 35.8082 113.398 34.8132 113.438C33.751 113.459 32.7835 114.083 31.9505 114.745C29.619 116.607 27.8484 119.097 26.4012 121.703C25.2638 123.743 24.2527 125.95 24.1234 128.281C23.8316 133.108 27.1832 137.328 30.5154 140.836C40.3257 151.122 51.929 159.821 64.9802 165.484C78.0132 171.135 92.5569 173.659 106.65 171.731C111.835 171.03 116.62 167.364 116.447 161.651C116.379 159.372 115.856 156.779 115.431 154.55C114.831 151.367 112.598 150.553 109.53 150.832C105.338 151.222 101.237 152.455 97.0186 152.532C93.1812 152.603 88.9434 150.837 85.2916 149.664C76.5778 146.83 68.3097 142.609 60.9074 137.21C55.2775 133.059 50.1126 128.235 45.6507 122.819Z" fill="white"/>
</mask>
<g mask="url(#mask26_1199_23021)">
<path d="M108.635 146.557C111.581 149.61 117.288 153.921 115.177 158.893C114.814 159.772 114.228 160.309 113.622 160.994C111.639 163.284 111.536 163.24 112.984 165.583C114.306 167.758 114.729 170.067 114.708 172.553C114.692 173.941 112.594 173.866 112.362 172.603C112.063 170.972 111.992 169.282 111.36 167.744C110.928 166.693 109.668 165.637 109.317 164.588C109.047 163.81 109.019 163.226 109.376 162.397C110.792 159.096 114.798 159.6 112.983 154.476C112.079 151.89 109.269 149.495 107.522 147.43C106.913 146.715 108.025 145.921 108.635 146.557Z" fill="#001C6C"/>
</g>
<path d="M49.1086 51.9757C48.6291 53.1779 48.2224 54.4304 47.925 55.7582C47.1856 59.0133 46.428 62.2558 45.6704 65.4984C45.4799 66.2813 45.3428 67.1818 45.8421 67.8218C46.0763 68.1447 46.4601 68.3286 46.8508 68.4634C49.5548 69.4133 52.6674 68.6012 55.4087 68.3666C58.8021 68.0438 62.383 68.6571 65.7757 68.764C73.4441 69.022 81.1119 68.93 88.7565 69.1447C101.536 69.5113 114.527 70.8573 126.192 76.0758C129.362 77.4809 132.376 80.124 135.649 81.2237C139.611 82.5305 139.622 77.6434 138.848 74.9853C136.421 66.6965 132.463 58.9123 127.269 52.0242C126.903 51.5029 126.506 50.9872 126.115 50.5024C125.038 49.1414 123.918 47.8042 122.729 46.5275C122.126 45.8429 121.48 45.1822 120.834 44.5216C115.996 39.5729 110.46 35.3258 104.443 31.9309C103.665 31.5016 102.849 31.0471 102.04 30.6234C95.8782 27.4781 89.1669 25.3252 82.2742 25.3061C74.7922 25.2843 66.8236 28.0731 61.9598 33.9976C60.4261 35.8715 58.8265 37.6461 57.2941 39.4401C55.6178 41.4038 54.0086 43.387 52.5635 45.4833C51.8723 46.4858 51.2176 47.5135 50.6357 48.5913C50.0902 49.6943 49.563 50.8099 49.1086 51.9757Z" fill="#0C89FF"/>
<path d="M118.235 78.4963C96.5284 70.5768 72.4905 69.8976 50.744 78.3278C48.3229 79.2671 45.2636 80.1968 43.4455 78.3517C42.3521 77.2483 42.2011 75.5576 42.2812 73.9993C42.7485 65.0976 49.6491 56.9201 58.3413 54.9527C62.2222 54.0786 66.4202 53.7189 70.3745 53.2449C74.8144 52.7293 79.3051 52.4907 83.7794 52.5097C95.7595 52.594 107.671 54.2981 118.507 59.51C128.594 64.3668 137.443 72.1886 142.32 82.3812C143.229 84.2984 144.914 87.9343 142.848 89.6833C140.77 91.4506 138.04 89.4075 136.422 88.1303C130.967 83.8046 124.747 80.861 118.235 78.4963Z" fill="#001C6C"/>
<path d="M52.5995 45.5082C54.4237 45.0448 56.2166 44.2371 57.7897 43.3585C59.8088 42.2227 61.588 40.7333 63.415 39.3305C66.1435 37.2047 67.3138 36.5594 70.5521 39.034C72.717 40.6879 73.4452 42.7497 76.5189 42.072C82.2536 40.8086 85.6595 34.3093 92.1449 38.6998C94.4524 40.2638 94.6448 42.4402 97.6059 42.2765C101.857 42.0343 104.389 38.7512 108.564 41.3874C111.208 43.0486 112.911 46.697 115.955 47.5047C118.009 48.0333 120.395 47.339 122.71 46.5147C122.107 45.8301 121.461 45.1695 120.815 44.5088C120.618 44.5611 120.433 44.5951 120.236 44.6474C116.775 45.3805 115.171 43.5755 112.806 41.3538C110.871 39.5622 108.468 37.3951 105.757 37.274C102.85 37.1253 98.7132 39.8129 96.4553 38.6058C93.8625 37.2217 92.5416 33.837 89.291 33.2901C84.9569 32.561 81.6728 36.4282 77.9507 37.7345C72.7907 39.5286 72.0351 33.4141 67.2278 33.4882C64.5632 33.5336 62.0135 36.3743 60.0327 37.8054C59.1199 38.4669 58.2152 38.9996 57.3118 39.4524C55.6412 41.447 54.0321 43.4302 52.5995 45.5082Z" fill="#001C6C"/>
<path d="M49.1083 51.9755C52.7581 50.9689 56.3401 49.5929 59.7538 47.9933C61.1886 47.3152 62.9176 45.8987 64.5608 46.0097C66.407 46.0992 67.1295 48.1302 68.8329 49.0894C71.6976 50.7417 73.9917 50.0644 76.7829 48.6272C79.209 47.3687 81.4942 44.5608 84.1989 45.0809C86.6769 45.5791 87.4811 47.8815 89.6103 49.0805C92.5603 50.7647 95.9513 49.8217 99.0162 48.9229C101.927 48.0524 104.376 46.1373 107.302 48.2079C109.202 49.5447 110.462 51.7312 112.467 53.0327C114.921 54.6173 117.134 54.4484 119.85 53.8205C122.401 53.2393 124.87 52.7366 127.282 52.0058C126.916 51.4845 126.519 50.9689 126.128 50.484C123.597 50.998 121.042 51.4687 118.64 51.5611C114.372 51.7109 112.08 49.1894 109.208 46.4564C108.259 45.5333 107.486 44.355 106.096 44.1496C103.824 43.8203 101.17 45.9165 98.9803 46.5585C95.0579 47.7267 91.9071 47.4639 88.6519 44.897C87.3544 43.8948 86.2009 41.9432 84.3755 41.7067C81.6808 41.3279 79.0407 44.4558 76.9826 45.7261C74.5218 47.2297 74.4772 47.3334 71.4177 46.3536C68.0403 45.2891 69.4901 45.2129 67.3848 44.0573C66.6424 43.653 66.4779 43.19 65.5973 42.9863C62.6614 42.3337 58.9873 45.6362 56.3985 46.702C54.5509 47.472 52.6331 48.0322 50.7026 48.6106C50.09 49.6942 49.5627 50.8097 49.1083 51.9755Z" fill="#001C6C"/>
<path d="M-21.0605 170.436C-16.0857 162.168 -9.63188 151.988 -0.798482 147.322C1.2627 146.242 2.95865 149.589 1.07833 150.874C-2.77592 153.542 -5.88755 158.523 -8.40472 162.408C-11.6451 167.381 -14.7411 172.534 -17.5192 177.772C-23.0685 188.199 -27.9485 199.759 -31.0275 211.163C-32.5023 216.654 -33.6259 222.065 -34.4707 227.694C-35.3639 233.667 -36.4964 239.636 -34.3669 245.434C-32.3962 250.799 -30.4745 256.158 -28.8186 261.629C-27.7226 265.262 -25.1518 269.562 -25.8146 273.408C-26.275 276.102 -29.6805 277.573 -31.829 275.662C-36.1261 271.839 -37.049 263.511 -38.3702 258.217C-38.6928 256.892 -39.0336 255.555 -39.3926 254.205C-39.7285 253.328 -40.0644 252.451 -40.4003 251.574C-40.8654 253.028 -41.3305 254.482 -41.8139 255.924C-43.7044 261.316 -46.2181 266.521 -48.1269 271.901C-47.8185 274.884 -51.7124 278.116 -55.0386 275.769C-55.1297 275.706 -55.2025 275.656 -55.2936 275.593C-56.8839 274.47 -56.9726 272.338 -56.4126 270.707C-54.6477 265.497 -52.1196 260.543 -50.0677 255.423C-49.025 252.781 -48.1407 250.056 -47.0798 247.426C-46.3131 245.534 -43.7817 242.681 -43.6406 240.761C-43.5927 240.068 -43.3878 239.537 -43.0554 239.094C-43.2259 227.843 -40.1115 215.765 -36.7331 205.213C-32.9146 193.243 -27.5176 181.205 -21.0605 170.436Z" fill="#FF693B" fill-opacity="0.3"/>
</svg>
