<?xml version="1.0" encoding="UTF-8"?>
<svg version="1.1" xmlns="http://www.w3.org/2000/svg" width="32" height="32">
<path d="M0 0 C10.56 0 21.12 0 32 0 C32 10.56 32 21.12 32 32 C21.44 32 10.88 32 0 32 C0 21.44 0 10.88 0 0 Z " fill="#B2BDDB" transform="translate(0,0)"/>
<path d="M0 0 C10.56 0 21.12 0 32 0 C32 10.56 32 21.12 32 32 C21.44 32 10.88 32 0 32 C0 21.44 0 10.88 0 0 Z M3.625 8.8125 C1.68384696 12.62014635 1.47178091 14.77424726 2 19 C3.98844117 24.33739473 6.90667648 27.45333824 12 30 C17.24308569 30.40331428 20.56127553 29.86051133 25 27 C29.26439336 22.96611439 29.61880232 19.62266579 30 14 C29.05125 13.9175 28.1025 13.835 27.125 13.75 C26.09375 13.5025 25.0625 13.255 24 13 C22.8125 11.0625 22.8125 11.0625 22 9 C18.77208445 6.8480563 17.71599191 6.79913557 14 7 C14 6.01 14 5.02 14 4 C14.99 4 15.98 4 17 4 C17 3.34 17 2.68 17 2 C10.90020152 1.28237665 7.41997964 4.31844517 3.625 8.8125 Z " fill="#0E308E" transform="translate(0,0)"/>
<path d="M0 0 C0.66 0.33 1.32 0.66 2 1 C1.34 1.66 0.68 2.32 0 3 C0.66 3.33 1.32 3.66 2 4 C1.360625 4.33 0.72125 4.66 0.0625 5 C-2.57733923 7.5598441 -2.94750147 9.39097134 -3.2265625 12.9921875 C-3.12274786 15.32543515 -3.12274786 15.32543515 -0.9375 18 C1.84233693 20.16663801 1.84233693 20.16663801 5 20.625 C9.03885789 19.78357127 10.49117556 18.22563142 13 15 C13.87238858 12.32209104 13.87238858 12.32209104 14 10 C14.99 9.67 15.98 9.34 17 9 C17.66 9.66 18.32 10.32 19 11 C18.34 11 17.68 11 17 11 C17.103125 11.86625 17.20625 12.7325 17.3125 13.625 C16.88126027 18.28238905 15.23508273 19.68789149 12 23 C8.27533151 24.86233425 4.05504687 24.57130829 0 24 C-3.12578143 22.3279253 -5.39281175 20.2143765 -7 17 C-7.51512617 12.90842645 -7.94367269 8.76410454 -5.953125 5.04296875 C-4.18601378 2.90684313 -2.49101659 1.24550829 0 0 Z " fill="#576EB0" transform="translate(11,4)"/>
<path d="M0 0 C2.375 1.625 2.375 1.625 4 4 C4.61195145 7.6717087 4.48706506 9.28813568 2.375 12.375 C-0.71186432 14.48706506 -2.3282913 14.61195145 -6 14 C-8.375 12.375 -8.375 12.375 -10 10 C-10.61195145 6.3282913 -10.48706506 4.71186432 -8.375 1.625 C-5.28813568 -0.48706506 -3.6717087 -0.61195145 0 0 Z " fill="#354089" transform="translate(19,9)"/>
<path d="M0 0 C1.9375 1.4375 1.9375 1.4375 3 3 C3 3.66 3 4.32 3 5 C3.99 5 4.98 5 6 5 C6 7.31 6 9.62 6 12 C5.34 11.67 4.68 11.34 4 11 C3.38125 11.804375 2.7625 12.60875 2.125 13.4375 C-0.34718738 16.41866714 -1.02082894 16.89120322 -4.8125 17.3125 C-8.82232894 16.91937952 -10.28446644 15.94829358 -13 13 C-14.05358898 9.69875453 -14.15819434 7.68023567 -13.375 4.3125 C-10.04859087 -1.28191535 -5.98395864 -1.55139669 0 0 Z M-10.375 2.625 C-12.48706506 5.71186432 -12.61195145 7.3282913 -12 11 C-10.5 13.5 -10.5 13.5 -8 15 C-4.3282913 15.61195145 -2.71186432 15.48706506 0.375 13.375 C2.48706506 10.28813568 2.61195145 8.6717087 2 5 C0.5 2.5 0.5 2.5 -2 1 C-5.6717087 0.38804855 -7.28813568 0.51293494 -10.375 2.625 Z " fill="#D9DEED" transform="translate(21,8)"/>
<path d="M0 0 C3 0.125 3 0.125 4 1.125 C4.125 4.125 4.125 4.125 4 7.125 C3 8.125 3 8.125 0 8.25 C-3 8.125 -3 8.125 -4 7.125 C-4.125 4.125 -4.125 4.125 -4 1.125 C-3 0.125 -3 0.125 0 0 Z " fill="#F3663E" transform="translate(16,11.875)"/>
<path d="M0 0 C0.99 0.66 1.98 1.32 3 2 C2.34 2 1.68 2 1 2 C1.061875 2.9075 1.12375 3.815 1.1875 4.75 C0.9782145 8.37761533 0.57993166 9.5090315 -2 12 C-5.98970779 14.21650433 -9.4990948 14.17650609 -14 14 C-14 13.67 -14 13.34 -14 13 C-12.02 13 -10.04 13 -8 13 C-8 12.34 -8 11.68 -8 11 C-7.195625 10.236875 -6.39125 9.47375 -5.5625 8.6875 C-2.8673058 5.86083292 -2.51687661 4.72151157 -2 1 C-1.34 0.67 -0.68 0.34 0 0 Z " fill="#7D8FC2" transform="translate(27,13)"/>
<path d="M0 0 C2 1.3125 2 1.3125 3 3 C2.6875 5.1875 2.6875 5.1875 2 7 C1.46375 6.175 0.9275 5.35 0.375 4.5 C-1.78900051 1.71765328 -1.78900051 1.71765328 -5.0625 1.5 C-8.27767457 2.04726376 -9.14010402 2.39614562 -11 5 C-12.17574711 7.09989652 -12.17574711 7.09989652 -13 9 C-13.375 6.25 -13.375 6.25 -13 3 C-8.68492889 -1.10457984 -5.67164548 -1.60518268 0 0 Z " fill="#DEE3EF" transform="translate(21,8)"/>
<path d="M0 0 C0.66 0.33 1.32 0.66 2 1 C1.34 1.66 0.68 2.32 0 3 C0.66 3.33 1.32 3.66 2 4 C-0.475 5.485 -0.475 5.485 -3 7 C-3.33 6.67 -3.66 6.34 -4 6 C-6.01954959 10.03909918 -5.41506087 15.75481738 -4 20 C-6.068385 18.31118565 -6.92067819 17.38404974 -7.46875 14.73046875 C-7.52382481 10.24875639 -7.5528827 7.00639844 -4.625 3.4375 C-2 1 -2 1 0 0 Z " fill="#4861A9" transform="translate(11,4)"/>
<path d="M0 0 C0 0.66 0 1.32 0 2 C-0.99 2 -1.98 2 -3 2 C-3.33 3.32 -3.66 4.64 -4 6 C-5.32 5.67 -6.64 5.34 -8 5 C-7.34 4.34 -6.68 3.68 -6 3 C-9.19199167 5.41556126 -11.74716687 7.68003538 -14 11 C-13.84817368 8.34303932 -13.52675976 6.55765476 -11.66796875 4.58984375 C-7.52591685 1.13309484 -5.32252888 -0.14006655 0 0 Z " fill="#BBC4DF" transform="translate(17,2)"/>
<path d="M0 0 C0.33 0 0.66 0 1 0 C0.98839844 0.66386719 0.97679687 1.32773438 0.96484375 2.01171875 C0.88106591 8.56306787 0.88106591 8.56306787 2 15 C1.34 15 0.68 15 0 15 C-2.61881031 11.07178453 -2.28987737 7.56556861 -2 3 C-1.34 2.01 -0.68 1.02 0 0 Z " fill="#97A5CE" transform="translate(7,9)"/>
<path d="M0 0 C0 0.66 0 1.32 0 2 C-1.423125 2.309375 -1.423125 2.309375 -2.875 2.625 C-6.29166667 3.70833333 -6.29166667 3.70833333 -7.375 7.125 C-7.58125 8.07375 -7.7875 9.0225 -8 10 C-8.66 10 -9.32 10 -10 10 C-10.32152515 6.46322336 -10.4131192 4.6037896 -8.375 1.625 C-5.3962104 -0.4131192 -3.53677664 -0.32152515 0 0 Z " fill="#254399" transform="translate(19,9)"/>
<path d="M0 0 C0.66 0.33 1.32 0.66 2 1 C1.34 1.66 0.68 2.32 0 3 C0.66 3.33 1.32 3.66 2 4 C-0.475 5.485 -0.475 5.485 -3 7 C-3.33 5.68 -3.66 4.36 -4 3 C-2.68 2.01 -1.36 1.02 0 0 Z " fill="#6177B5" transform="translate(11,4)"/>
<path d="M0 0 C-1.175625 0.86625 -1.175625 0.86625 -2.375 1.75 C-4.80047244 3.82897637 -5.85694417 5.09040333 -7 8 C-7.25 5.1875 -7.25 5.1875 -7 2 C-4.34311663 -0.84011671 -3.7870049 -1.26233497 0 0 Z " fill="#E5E9F3" transform="translate(15,9)"/>
</svg>
