<svg width="52" height="81" viewBox="0 0 52 81" fill="none" xmlns="http://www.w3.org/2000/svg">
<path d="M3.13948 0.210659C1.8273 -1.10162 0.418598 4.04787 0 6.69899H4.81387C4.81387 4.8153 4.60451 1.67579 3.13948 0.210659Z" fill="#000514"/>
<path d="M48.1388 0.210379C46.6738 1.67551 46.2551 4.81613 46.2551 6.69982L51.2783 6.69978C50.9023 4.31857 49.7276 -0.0790526 48.5415 0.00108023H48.3481L48.1389 0.210323L48.1388 0.210379Z" fill="#000514"/>
<path fill-rule="evenodd" clip-rule="evenodd" d="M48.3481 0.0012207C47.9295 0.419716 46.4644 2.09411 46.2551 6.69897C45.9734 12.8969 46.1156 58.8143 46.2551 81L25.5347 62.3725L4.81418 81C4.95371 58.8144 5.09588 12.8969 4.81418 6.699C4.60488 2.09414 3.13979 0.41975 2.72119 0.00125488H25.5345V0.0012207H48.3481Z" fill="url(#paint0_linear_1094_3278)"/>
<path d="M16.1868 26.0399C15.6518 26.0399 15.1933 25.9423 14.8111 25.747C14.4375 25.5432 14.153 25.2502 13.9577 24.8681C13.7624 24.486 13.6605 24.0232 13.652 23.4797C13.652 23.4627 13.652 23.4457 13.652 23.4287C13.652 23.4033 13.652 23.382 13.652 23.365H15.0149C15.0149 23.8576 15.0956 24.2397 15.257 24.5114C15.4183 24.7747 15.7325 24.9063 16.1995 24.9063C16.4543 24.9063 16.6666 24.8299 16.8364 24.677C17.0063 24.5157 17.1336 24.2737 17.2186 23.951C17.3035 23.6198 17.3459 23.2037 17.3459 22.7027V21.136C17.2186 21.3483 17.0275 21.5223 16.7727 21.6582C16.5265 21.7856 16.2165 21.8493 15.8429 21.8493C15.2739 21.8493 14.8281 21.7261 14.5054 21.4799C14.1828 21.2251 13.9535 20.877 13.8176 20.4354C13.6902 19.9853 13.6265 19.4631 13.6265 18.8687C13.6265 18.2403 13.7115 17.6756 13.8813 17.1746C14.0511 16.6651 14.3229 16.2617 14.6965 15.9645C15.0786 15.6673 15.5754 15.5187 16.1868 15.5187C16.7812 15.5187 17.2653 15.6715 17.6389 15.9772C18.0125 16.2744 18.2843 16.6778 18.4541 17.1873C18.6324 17.6968 18.7216 18.2658 18.7216 18.8941V22.3588C18.7216 23.0211 18.6452 23.6325 18.4923 24.193C18.3395 24.7534 18.0805 25.2035 17.7153 25.5432C17.3502 25.8743 16.8407 26.0399 16.1868 26.0399ZM16.1868 20.8175C16.484 20.8175 16.726 20.7453 16.9129 20.601C17.0997 20.4481 17.244 20.2825 17.3459 20.1042V18.5757C17.3459 18.2191 17.312 17.8964 17.244 17.6076C17.1761 17.3104 17.0572 17.0769 16.8874 16.9071C16.7175 16.7288 16.484 16.6396 16.1868 16.6396C15.8896 16.6396 15.6518 16.7288 15.4735 16.9071C15.3037 17.0854 15.1805 17.3189 15.1041 17.6076C15.0362 17.8879 15.0022 18.1978 15.0022 18.5375C15.0022 18.9451 15.0192 19.323 15.0532 19.6711C15.0956 20.0193 15.1975 20.2995 15.3589 20.5118C15.5287 20.7156 15.8047 20.8175 16.1868 20.8175Z" fill="white"/>
<path d="M23.1475 25.9253V18.563H24.5104V25.9253H23.1475ZM23.1475 17.4675V16.0409H24.5104V17.4675H23.1475Z" fill="white"/>
<path d="M25.9691 25.9253V18.563H27.332V19.289C27.5783 19.0597 27.85 18.8644 28.1472 18.7031C28.4444 18.5417 28.7714 18.4611 29.128 18.4611C29.4252 18.4611 29.6503 18.5375 29.8031 18.6903C29.9644 18.8432 30.0748 19.0343 30.1343 19.2635C30.2022 19.4928 30.2362 19.7263 30.2362 19.9641V25.9253H28.8733V20.359C28.8733 20.0957 28.835 19.8919 28.7586 19.7476C28.6822 19.6032 28.5251 19.531 28.2873 19.531C28.1345 19.531 27.9731 19.5777 27.8033 19.6711C27.642 19.7561 27.4849 19.8622 27.332 19.9896V25.9253H25.9691Z" fill="white"/>
<path d="M15.0892 36.395C14.6458 36.395 14.3004 36.3022 14.0529 36.1166C13.8106 35.931 13.6405 35.6809 13.5425 35.3665C13.4497 35.052 13.4033 34.7014 13.4033 34.3147V32.1029C13.4033 31.6801 13.4497 31.3115 13.5425 30.997C13.6405 30.6825 13.8106 30.4402 14.0529 30.27C14.3004 30.0948 14.6458 30.0071 15.0892 30.0071C15.4811 30.0071 15.7904 30.0793 16.0173 30.2236C16.2493 30.368 16.4142 30.5742 16.5122 30.8423C16.6153 31.1104 16.6669 31.4327 16.6669 31.809V32.304H15.8394V31.8632C15.8394 31.6311 15.8265 31.4275 15.8007 31.2522C15.7801 31.0718 15.7182 30.9326 15.6151 30.8346C15.512 30.7366 15.3393 30.6877 15.097 30.6877C14.8495 30.6877 14.669 30.7418 14.5556 30.8501C14.4422 30.9532 14.3674 31.1027 14.3313 31.2986C14.3004 31.4894 14.2849 31.7136 14.2849 31.9714V34.4539C14.2849 34.7684 14.3107 35.0184 14.3623 35.204C14.4138 35.3845 14.4989 35.5134 14.6175 35.5907C14.7361 35.6681 14.8959 35.7067 15.097 35.7067C15.3341 35.7067 15.5043 35.6552 15.6074 35.5521C15.7105 35.4438 15.7749 35.2969 15.8007 35.1112C15.8265 34.9256 15.8394 34.7091 15.8394 34.4616V33.9976H16.6669V34.4616C16.6669 34.8431 16.6205 35.1808 16.5277 35.4747C16.4349 35.7634 16.275 35.9903 16.0482 36.1553C15.8213 36.3151 15.5017 36.395 15.0892 36.395Z" fill="white"/>
<path d="M18.6594 36.3873C18.3294 36.3873 18.0691 36.3203 17.8783 36.1862C17.6876 36.0522 17.5509 35.8614 17.4684 35.6139C17.3911 35.3665 17.3524 35.0752 17.3524 34.74V33.4408C17.3524 33.1057 17.3911 32.8144 17.4684 32.5669C17.5509 32.3194 17.6876 32.1287 17.8783 31.9946C18.0691 31.8606 18.3294 31.7936 18.6594 31.7936C18.9894 31.7936 19.2472 31.8606 19.4328 31.9946C19.6235 32.1287 19.7576 32.3194 19.8349 32.5669C19.9174 32.8144 19.9586 33.1057 19.9586 33.4408V34.74C19.9586 35.0752 19.9174 35.3665 19.8349 35.6139C19.7576 35.8614 19.6235 36.0522 19.4328 36.1862C19.2472 36.3203 18.9894 36.3873 18.6594 36.3873ZM18.6594 35.7763C18.8192 35.7763 18.9301 35.7299 18.992 35.6371C19.059 35.5443 19.0976 35.4232 19.108 35.2736C19.1234 35.119 19.1312 34.9592 19.1312 34.7942V33.3944C19.1312 33.2243 19.1234 33.0644 19.108 32.9149C19.0976 32.7654 19.059 32.6442 18.992 32.5514C18.9301 32.4535 18.8192 32.4045 18.6594 32.4045C18.4996 32.4045 18.3862 32.4535 18.3191 32.5514C18.2521 32.6442 18.2109 32.7654 18.1954 32.9149C18.1851 33.0644 18.1799 33.2243 18.1799 33.3944V34.7942C18.1799 34.9592 18.1851 35.119 18.1954 35.2736C18.2109 35.4232 18.2521 35.5443 18.3191 35.6371C18.3862 35.7299 18.4996 35.7763 18.6594 35.7763Z" fill="white"/>
<path d="M20.715 36.3254V31.8554H21.4806V32.2808C21.6302 32.1106 21.7951 31.9843 21.9756 31.9018C22.156 31.8193 22.3416 31.7781 22.5324 31.7781C22.6974 31.7781 22.8443 31.8193 22.9732 31.9018C23.1073 31.9843 23.2026 32.1313 23.2594 32.3426C23.4192 32.1467 23.5919 32.0049 23.7775 31.9173C23.9683 31.8245 24.1668 31.7781 24.373 31.7781C24.5173 31.7781 24.6488 31.8142 24.7674 31.8864C24.886 31.9534 24.9814 32.0642 25.0535 32.2189C25.1257 32.3684 25.1618 32.5669 25.1618 32.8144V36.3254H24.4039V32.8685C24.4039 32.652 24.3678 32.5076 24.2957 32.4354C24.2286 32.3581 24.1358 32.3194 24.0172 32.3194C23.9038 32.3194 23.7852 32.3529 23.6615 32.42C23.5378 32.4818 23.4243 32.5695 23.3212 32.6829C23.3212 32.7035 23.3212 32.7242 23.3212 32.7448C23.3212 32.7654 23.3212 32.7886 23.3212 32.8144V36.3254H22.5633V32.8685C22.5633 32.652 22.5272 32.5076 22.4551 32.4354C22.388 32.3581 22.2952 32.3194 22.1767 32.3194C22.0632 32.3194 21.9447 32.3529 21.8209 32.42C21.7023 32.4818 21.5889 32.5695 21.4806 32.6829V36.3254H20.715Z" fill="white"/>
<path d="M27.5723 36.3873C27.4124 36.3873 27.2681 36.3486 27.1392 36.2713C27.0154 36.1888 26.9072 36.0986 26.8144 36.0006V36.3254H25.9869V30.0612H26.8144V32.2112C26.9123 32.0977 27.0283 31.9998 27.1624 31.9173C27.3016 31.8348 27.4666 31.7936 27.6573 31.7936C27.8893 31.7936 28.0724 31.8554 28.2064 31.9792C28.3456 32.0977 28.4487 32.2498 28.5157 32.4354C28.5828 32.6159 28.6266 32.8015 28.6472 32.9923C28.6678 33.1779 28.6782 33.3377 28.6782 33.4717V34.5544C28.6782 34.8689 28.6472 35.168 28.5854 35.4515C28.5235 35.7299 28.4126 35.9568 28.2528 36.1321C28.093 36.3022 27.8661 36.3873 27.5723 36.3873ZM27.4021 35.7377C27.5465 35.7377 27.6496 35.6861 27.7115 35.583C27.7733 35.4747 27.812 35.3304 27.8275 35.1499C27.8429 34.9695 27.8507 34.771 27.8507 34.5544V33.4717C27.8507 33.2861 27.8404 33.116 27.8197 32.9613C27.7991 32.8015 27.7553 32.6752 27.6883 32.5824C27.6212 32.4896 27.5155 32.4432 27.3712 32.4432C27.2629 32.4432 27.1598 32.4664 27.0618 32.5128C26.969 32.5592 26.8866 32.6107 26.8144 32.6674V35.5366C26.8866 35.5933 26.9716 35.6423 27.0696 35.6835C27.1727 35.7196 27.2835 35.7377 27.4021 35.7377Z" fill="white"/>
<path d="M30.66 36.3873C30.33 36.3873 30.0697 36.3203 29.8789 36.1862C29.6881 36.0522 29.5515 35.8614 29.469 35.6139C29.3917 35.3665 29.353 35.0752 29.353 34.74V33.4408C29.353 33.1057 29.3917 32.8144 29.469 32.5669C29.5515 32.3194 29.6881 32.1287 29.8789 31.9946C30.0697 31.8606 30.33 31.7936 30.66 31.7936C30.99 31.7936 31.2477 31.8606 31.4334 31.9946C31.6241 32.1287 31.7582 32.3194 31.8355 32.5669C31.918 32.8144 31.9592 33.1057 31.9592 33.4408V34.74C31.9592 35.0752 31.918 35.3665 31.8355 35.6139C31.7582 35.8614 31.6241 36.0522 31.4334 36.1862C31.2477 36.3203 30.99 36.3873 30.66 36.3873ZM30.66 35.7763C30.8198 35.7763 30.9307 35.7299 30.9925 35.6371C31.0596 35.5443 31.0982 35.4232 31.1085 35.2736C31.124 35.119 31.1317 34.9592 31.1317 34.7942V33.3944C31.1317 33.2243 31.124 33.0644 31.1085 32.9149C31.0982 32.7654 31.0596 32.6442 30.9925 32.5514C30.9307 32.4535 30.8198 32.4045 30.66 32.4045C30.5002 32.4045 30.3867 32.4535 30.3197 32.5514C30.2527 32.6442 30.2115 32.7654 30.196 32.9149C30.1857 33.0644 30.1805 33.2243 30.1805 33.3944V34.7942C30.1805 34.9592 30.1857 35.119 30.196 35.2736C30.2115 35.4232 30.2527 35.5443 30.3197 35.6371C30.3867 35.7299 30.5002 35.7763 30.66 35.7763Z" fill="white"/>
<path d="M35.8847 38.5181V18.2744C35.7709 18.445 35.5435 18.6156 35.2023 18.7862C34.8611 18.9568 34.482 19.1084 34.065 19.2411C33.667 19.3738 33.2973 19.497 32.9562 19.6107C32.6339 19.7055 32.4254 19.7623 32.3306 19.7813V18.1038C32.596 18.028 32.9088 17.9142 33.2689 17.7626C33.629 17.611 33.9892 17.4309 34.3493 17.2224C34.7095 16.9949 35.0601 16.7391 35.4013 16.4547C35.7615 16.1704 36.0647 15.8482 36.3111 15.488H37.9886V38.5181H35.8847Z" fill="white"/>
<path d="M14.7567 54.4031C13.8365 54.4031 13.1016 54.2235 12.5517 53.8645C12.0019 53.5054 11.6091 52.9948 11.3735 52.3328C11.1378 51.6595 11.02 50.874 11.02 49.9763V44.8089C11.02 43.9113 11.1378 43.1426 11.3735 42.503C11.6204 41.8522 12.0131 41.3584 12.5517 41.0218C13.1016 40.6739 13.8365 40.5 14.7567 40.5C15.6768 40.5 16.4062 40.6739 16.9448 41.0218C17.4834 41.3696 17.8706 41.8634 18.1062 42.503C18.3531 43.1426 18.4765 43.9113 18.4765 44.8089V49.9931C18.4765 50.8796 18.3531 51.6539 18.1062 52.3159C17.8706 52.978 17.4834 53.4942 16.9448 53.8645C16.4062 54.2235 15.6768 54.4031 14.7567 54.4031ZM14.7567 52.9051C15.2616 52.9051 15.6432 52.8041 15.9013 52.6021C16.1593 52.3889 16.3333 52.0971 16.423 51.7268C16.5128 51.3453 16.5577 50.9021 16.5577 50.3971V44.4218C16.5577 43.9169 16.5128 43.4848 16.423 43.1258C16.3333 42.7555 16.1593 42.4749 15.9013 42.2842C15.6432 42.0822 15.2616 41.9812 14.7567 41.9812C14.2517 41.9812 13.8646 42.0822 13.5953 42.2842C13.3372 42.4749 13.1633 42.7555 13.0735 43.1258C12.9837 43.4848 12.9388 43.9169 12.9388 44.4218V50.3971C12.9388 50.9021 12.9837 51.3453 13.0735 51.7268C13.1633 52.0971 13.3372 52.3889 13.5953 52.6021C13.8646 52.8041 14.2517 52.9051 14.7567 52.9051Z" fill="white"/>
<path d="M20.7667 54.2516V45.8525H19.6053V44.5228H20.7667V44.0179C20.7667 43.4119 20.8116 42.8957 20.9014 42.4693C21.0023 42.0317 21.2043 41.6951 21.5073 41.4594C21.8103 41.2238 22.2647 41.1059 22.8707 41.1059C23.0951 41.1059 23.2915 41.1172 23.4598 41.1396C23.6393 41.1508 23.8357 41.1789 24.0489 41.2238V42.5367C23.9479 42.5142 23.8357 42.4974 23.7123 42.4862C23.5888 42.4637 23.4766 42.4525 23.3756 42.4525C23.0278 42.4525 22.8034 42.5703 22.7024 42.806C22.6126 43.0304 22.5677 43.3334 22.5677 43.7149V44.5228H24.0489V45.8525H22.5677V54.2516H20.7667ZM25.042 54.2516V45.8525H23.8806V44.5228H25.042V44.0179C25.042 43.4119 25.0869 42.8957 25.1766 42.4693C25.2776 42.0317 25.4796 41.6951 25.7826 41.4594C26.0856 41.2238 26.54 41.1059 27.146 41.1059C27.3704 41.1059 27.5668 41.1172 27.7351 41.1396C27.9146 41.1508 28.111 41.1789 28.3242 41.2238V42.5367C28.2232 42.5142 28.111 42.4974 27.9876 42.4862C27.8641 42.4637 27.7519 42.4525 27.6509 42.4525C27.3031 42.4525 27.0786 42.5703 26.9776 42.806C26.8879 43.0304 26.843 43.3334 26.843 43.7149V44.5228H28.3242V45.8525H26.843V54.2516H25.042Z" fill="white"/>
<path d="M31.665 54.3863C30.902 54.3863 30.3129 54.2404 29.8977 53.9486C29.4825 53.6457 29.1908 53.208 29.0225 52.6357C28.8654 52.0522 28.7868 51.3397 28.7868 50.4981V48.2763C28.7868 47.4123 28.871 46.6941 29.0393 46.1218C29.2076 45.5495 29.4994 45.1175 29.9145 44.8258C30.3409 44.534 30.9244 44.3882 31.665 44.3882C32.4842 44.3882 33.0845 44.5565 33.4661 44.8931C33.8588 45.2297 34.1169 45.7179 34.2403 46.3575C34.3638 46.9859 34.4255 47.7433 34.4255 48.6298V49.4209H30.5878V51.3734C30.5878 51.7661 30.6215 52.0859 30.6888 52.3328C30.7673 52.5796 30.8852 52.7648 31.0423 52.8882C31.2106 53.0004 31.4238 53.0565 31.6819 53.0565C31.9512 53.0565 32.1532 52.9948 32.2878 52.8714C32.4337 52.7367 32.5291 52.5516 32.574 52.3159C32.6301 52.0691 32.6581 51.7829 32.6581 51.4575V50.8684H34.4086V51.2387C34.4086 52.215 34.201 52.9836 33.7859 53.5447C33.3707 54.1057 32.6637 54.3863 31.665 54.3863ZM30.5878 48.4446H32.6581V47.5694C32.6581 47.1654 32.6357 46.8288 32.5908 46.5595C32.5459 46.2789 32.4505 46.0713 32.3047 45.9367C32.17 45.7908 31.9512 45.7179 31.6482 45.7179C31.3565 45.7179 31.132 45.7852 30.9749 45.9199C30.8291 46.0545 30.7281 46.2845 30.672 46.61C30.6159 46.9241 30.5878 47.3618 30.5878 47.9228V48.4446Z" fill="white"/>
<path d="M36.1069 54.2516V44.5228H37.9079V45.903C38.267 45.3083 38.6261 44.9099 38.9852 44.708C39.3443 44.506 39.7033 44.405 40.0624 44.405C40.1073 44.405 40.1466 44.405 40.1802 44.405C40.2251 44.405 40.2812 44.4106 40.3486 44.4218V46.408C40.2139 46.3519 40.0568 46.307 39.8773 46.2733C39.709 46.2284 39.535 46.206 39.3555 46.206C39.075 46.206 38.8169 46.2733 38.5812 46.408C38.3568 46.5314 38.1324 46.7783 37.9079 47.1486V54.2516H36.1069Z" fill="white"/>
<defs>
<linearGradient id="paint0_linear_1094_3278" x1="-25.7433" y1="110.094" x2="-34.3127" y2="-21.8767" gradientUnits="userSpaceOnUse">
<stop offset="0.64" stop-color="#3363EC"/>
<stop offset="0.81" stop-color="#1D47BF"/>
<stop offset="1" stop-color="#1C46BD"/>
</linearGradient>
</defs>
</svg>
