<svg width="30" height="30" viewBox="0 0 30 30" fill="none" xmlns="http://www.w3.org/2000/svg">
<g clip-path="url(#clip0_1_881)">
<path d="M27.1875 0.703233H2.8125C2.25945 0.697605 1.72675 0.911603 1.33129 1.29827C0.935838 1.68494 0.709925 2.21269 0.703125 2.76573V27.2392C0.711154 27.7914 0.937608 28.3179 1.33293 28.7036C1.72825 29.0893 2.26025 29.3026 2.8125 29.297H27.1875C27.7406 29.3014 28.2729 29.0866 28.6682 28.6997C29.0634 28.3128 29.2895 27.7852 29.2969 27.2321V2.7587C29.287 2.20728 29.0599 1.68205 28.6649 1.29715C28.2699 0.91226 27.739 0.698822 27.1875 0.703233Z" fill="#0076B2"/>
<path d="M4.93613 11.4211H9.18066V25.0782H4.93613V11.4211ZM7.05957 4.62427C7.5464 4.62427 8.02229 4.76866 8.42704 5.03917C8.83179 5.30969 9.14721 5.69417 9.3334 6.14399C9.5196 6.5938 9.5682 7.08873 9.47305 7.56617C9.3779 8.04361 9.14329 8.4821 8.79889 8.82618C8.45448 9.17025 8.01577 9.40445 7.53824 9.49914C7.06071 9.59383 6.56582 9.54476 6.11619 9.35814C5.66655 9.17152 5.28237 8.85573 5.01224 8.45072C4.74211 8.04572 4.59817 7.56969 4.59863 7.08286C4.59926 6.43059 4.85881 5.80524 5.32025 5.34423C5.7817 4.88322 6.4073 4.62427 7.05957 4.62427ZM11.8432 11.4211H15.9119V13.2961H15.9682C16.5354 12.2227 17.9182 11.0907 19.983 11.0907C24.2814 11.0813 25.0783 13.9102 25.0783 17.5782V25.0782H20.8338V18.4336C20.8338 16.8516 20.8057 14.8149 18.6283 14.8149C16.451 14.8149 16.0807 16.5399 16.0807 18.3305V25.0782H11.8432V11.4211Z" fill="white"/>
</g>
<defs>
<clipPath id="clip0_1_881">
<rect width="30" height="30" fill="white"/>
</clipPath>
</defs>
</svg>
