<svg width="117" height="116" viewBox="0 0 117 116" fill="none" xmlns="http://www.w3.org/2000/svg">
<g filter="url(#filter0_b_1066_58728)">
<path d="M58.4287 115.885C90.4294 115.885 116.371 89.943 116.371 57.9424C116.371 25.9417 90.4294 0 58.4287 0C26.428 0 0.486328 25.9417 0.486328 57.9424C0.486328 89.943 26.428 115.885 58.4287 115.885Z" fill="#AAC0FF" fill-opacity="0.6"/>
<path d="M115.871 57.9424C115.871 89.6669 90.1532 115.385 58.4287 115.385C26.7041 115.385 0.986315 89.6669 0.986315 57.9424C0.986315 26.2178 26.7041 0.499987 58.4287 0.499987C90.1532 0.499987 115.871 26.2178 115.871 57.9424Z" stroke="#AAC0FF" stroke-opacity="0.15"/>
</g>
<path d="M88.4661 32H28.0126C26.4188 32 25.1074 33.3473 25.1074 34.9841V72.0709C25.1074 73.7176 26.4188 75.055 28.0126 75.055H88.4661C90.07 75.055 91.3712 73.7076 91.3712 72.0709V34.9841C91.3813 33.3473 90.07 32 88.4661 32Z" fill="#183A9B"/>
<path d="M87.7602 34.9042C87.4173 34.7046 87.0239 34.5948 86.6002 34.5948H29.8891C28.5979 34.5948 27.5488 35.6528 27.5488 36.9402V71.1427C27.5488 71.9012 27.9221 72.5798 28.487 73.009C28.8804 73.3084 29.3646 73.488 29.8891 73.488H86.6103C87.9015 73.488 88.9506 72.4301 88.9506 71.1427V36.9302C88.9405 36.062 88.4664 35.3034 87.7602 34.9042Z" fill="#6D8EEC"/>
<g opacity="0.6">
<path d="M34.4544 36H30.916V37.155H34.4544V36Z" fill="#F4D34A"/>
<path d="M34.4544 47.5776H30.916V48.7326H34.4544V47.5776Z" fill="#F4D34A"/>
<path d="M36.7551 37.8518H33.2168V39.0068H36.7551V37.8518Z" fill="#FF693B"/>
<path d="M40.8342 37.8518H37.2959V39.0068H40.8342V37.8518Z" fill="#FF693B"/>
<path d="M44.9143 37.8518H41.376V39.0068H44.9143V37.8518Z" fill="white"/>
<path d="M48.9837 37.8518H45.4453V39.0068H48.9837V37.8518Z" fill="white"/>
<path d="M56.1425 37.8518H49.9092V39.0068H56.1425V37.8518Z" fill="white"/>
<path d="M38.5247 39.7675H34.9863V40.9225H38.5247V39.7675Z" fill="#FF693B"/>
<path d="M42.6037 39.7675H39.0654V40.9225H42.6037V39.7675Z" fill="#FF693B"/>
<path d="M46.6829 39.7675H43.1445V40.9225H46.6829V39.7675Z" fill="white"/>
<path d="M50.7532 39.7675H47.2148V40.9225H50.7532V39.7675Z" fill="white"/>
<path d="M38.5247 43.7092H34.9863V44.8642H38.5247V43.7092Z" fill="#FF693B"/>
<path d="M42.6037 43.7092H39.0654V44.8642H42.6037V43.7092Z" fill="#FF693B"/>
<path d="M46.6829 43.7092H43.1445V44.8642H46.6829V43.7092Z" fill="white"/>
<path d="M50.7532 43.7092H47.2148V44.8642H50.7532V43.7092Z" fill="white"/>
<path d="M57.9121 43.7092H51.6787V44.8642H57.9121V43.7092Z" fill="white"/>
<path d="M36.7551 45.6892H33.2168V46.8442H36.7551V45.6892Z" fill="#FF693B"/>
<path d="M40.8342 45.6892H37.2959V46.8442H40.8342V45.6892Z" fill="#FF693B"/>
<path d="M44.9143 45.6892H41.376V46.8442H44.9143V45.6892Z" fill="white"/>
<path d="M48.9837 45.6892H45.4453V46.8442H48.9837V45.6892Z" fill="white"/>
<path d="M40.2942 41.6925H36.7559V42.8475H40.2942V41.6925Z" fill="#FF693B"/>
<path d="M44.3733 41.6925H40.835V42.8475H44.3733V41.6925Z" fill="#FF693B"/>
<path d="M48.4524 41.6925H44.9141V42.8475H48.4524V41.6925Z" fill="white"/>
<path d="M52.5217 41.6925H48.9834V42.8475H52.5217V41.6925Z" fill="white"/>
<path d="M59.6816 41.6925H53.4482V42.8475H59.6816V41.6925Z" fill="white"/>
<path d="M34.4544 64.4625H30.916V65.6175H34.4544V64.4625Z" fill="#F4D34A"/>
<path d="M36.7551 66.3051H33.2168V67.46H36.7551V66.3051Z" fill="#FF693B"/>
<path d="M40.8342 66.3051H37.2959V67.46H40.8342V66.3051Z" fill="#FF693B"/>
<path d="M44.9143 66.3051H41.376V67.46H44.9143V66.3051Z" fill="white"/>
<path d="M48.9837 66.3051H45.4453V67.46H48.9837V66.3051Z" fill="white"/>
<path d="M56.1425 66.3051H49.9092V67.46H56.1425V66.3051Z" fill="white"/>
<path d="M38.5247 68.2301H34.9863V69.3851H38.5247V68.2301Z" fill="#FF693B"/>
<path d="M42.6037 68.2301H39.0654V69.3851H42.6037V68.2301Z" fill="#FF693B"/>
<path d="M46.6829 68.2301H43.1445V69.3851H46.6829V68.2301Z" fill="white"/>
<path d="M40.2942 70.155H36.7559V71.31H40.2942V70.155Z" fill="#FF693B"/>
<path d="M44.3733 70.155H40.835V71.31H44.3733V70.155Z" fill="#FF693B"/>
<path d="M48.4524 70.155H44.9141V71.31H48.4524V70.155Z" fill="white"/>
<path d="M52.5217 70.155H48.9834V71.31H52.5217V70.155Z" fill="white"/>
<path d="M59.6816 70.155H53.4482V71.31H59.6816V70.155Z" fill="white"/>
<path d="M33.7305 60.6583L29.4863 57.9266V55.7633L33.7305 53.0591V55.0941L30.7972 56.8449L33.7305 58.6416V60.6583Z" fill="white"/>
<path d="M35.0508 62.4185L38.2133 49.3102H39.955L36.7833 62.4185H35.0508Z" fill="white"/>
<path d="M46.3532 61.6575C45.9041 62.2625 45.1982 62.565 44.2357 62.565C43.2732 62.565 42.5491 62.2442 42.0724 61.5934C41.5958 60.9517 41.3574 60.0167 41.3574 58.8067V53.1234C41.3574 51.18 41.8616 49.97 42.8882 49.4842C43.2641 49.31 43.7224 49.2184 44.2541 49.2184C46.0874 49.2184 47.0041 50.3734 47.0041 52.6834V54.48H45.0883V52.8117C45.0883 52.1425 45.0333 51.6567 44.9141 51.3725C44.8041 51.0792 44.5749 50.9417 44.2449 50.9417C43.9149 50.9417 43.6857 51.0975 43.5574 51.4C43.4291 51.7025 43.3649 52.1792 43.3649 52.8117V58.9075C43.3649 59.6134 43.4291 60.1084 43.5482 60.4109C43.6674 60.7134 43.8966 60.86 44.2266 60.86C44.5566 60.86 44.7766 60.7042 44.9049 60.4017C45.0241 60.0992 45.0883 59.5859 45.0883 58.88V57.01H47.0407V58.8525C47.0224 60.1175 46.8024 61.0525 46.3532 61.6575Z" fill="white"/>
<path d="M53.5578 61.6302C53.0995 62.2535 52.3753 62.5743 51.3762 62.5743C50.377 62.5743 49.6437 62.2627 49.1762 61.6302C48.7087 60.9977 48.4795 60.0535 48.4795 58.7793V52.8118C48.4795 50.4193 49.4512 49.2277 51.4037 49.2277C52.412 49.2277 53.1362 49.5302 53.5762 50.1352C54.0162 50.7402 54.2362 51.6385 54.2362 52.8118V58.7793C54.2453 60.0443 54.0162 60.9977 53.5578 61.6302ZM50.652 60.3927C50.7712 60.6952 51.0095 60.8418 51.367 60.8418C51.7245 60.8418 51.9628 60.686 52.082 60.3743C52.2012 60.0627 52.2562 59.531 52.2562 58.7885V52.711C52.2562 52.0968 52.2012 51.6385 52.082 51.3543C51.9628 51.0702 51.7337 50.9327 51.4037 50.9327C51.0645 50.9327 50.8262 51.0702 50.6887 51.3543C50.5512 51.6385 50.487 52.0877 50.487 52.7018V58.7885C50.4778 59.5585 50.5328 60.0902 50.652 60.3927Z" fill="white"/>
<path d="M56.0332 62.4186V49.3744H58.9574C59.9199 49.3744 60.6074 49.6585 61.0474 50.2269C61.4782 50.7952 61.6982 51.6294 61.6982 52.7294L61.7074 58.6144C61.7074 59.9252 61.4874 60.8877 61.0565 61.5019C60.6257 62.1161 59.9015 62.4186 58.9024 62.4186H56.0332ZM58.0224 60.8785H58.6732C59.0399 60.8785 59.3057 60.7594 59.4707 60.521C59.6357 60.2827 59.7182 59.8519 59.7182 59.2194L59.709 52.7752C59.709 52.0969 59.6266 51.6202 59.4616 51.3269C59.2966 51.0427 59.0124 50.896 58.6091 50.896H58.0224V60.8785Z" fill="white"/>
<path d="M63.4951 62.4186V49.3744H67.8676V51.0886H65.4843V54.8836H67.7485V56.5611H65.4843V60.7136H67.9593V62.4277H63.4951V62.4186Z" fill="white"/>
<path d="M69.2334 60.6583V58.6233L72.1667 56.8724L69.2334 55.0758V53.0591L73.4867 55.7724V57.9449L69.2334 60.6583Z" fill="white"/>
</g>
<path opacity="0.75" d="M86.6002 34.5848H29.8891C28.5979 34.5848 27.5488 35.6427 27.5488 36.9302V71.1327C27.5488 71.8912 27.9221 72.5698 28.487 72.999L87.7703 34.8942C87.4173 34.7046 87.0239 34.5848 86.6002 34.5848Z" fill="#2448AE" fill-opacity="0.7"/>
<path d="M65.0899 39.7612C63.8941 41.1545 63.6569 43.0318 64.3092 44.6109L50.4043 60.7686C48.7194 60.3824 46.8861 60.9104 45.6854 62.2988C43.9757 64.2837 44.2178 67.261 46.224 68.9526C46.2289 68.9574 46.2388 68.9623 46.2438 68.9672L47.8151 67.1388L46.7675 66.2588L47.2567 63.6286L49.8064 62.729L50.854 63.609L67.5309 44.2345L67.5062 44.2296L66.2709 40.7976L68.5834 38.1088C67.2838 38.1479 65.9991 38.7003 65.0899 39.7612Z" fill="#183A9B"/>
<path d="M71.1285 44.8897L67.5313 44.2346L50.8544 63.6091L51.8673 64.4646L51.3782 67.0949L50.1033 67.5446L48.8284 67.9944L47.8155 67.1388L46.2441 68.9673C48.2503 70.6393 51.2447 70.3948 52.9495 68.4197C54.1453 67.0264 54.3825 65.1491 53.7302 63.57L67.635 47.4123C69.32 47.7985 71.1532 47.2705 72.354 45.8821C73.2632 44.8212 73.614 43.4817 73.446 42.2057L71.1285 44.8897Z" fill="#001C6C"/>
<path d="M48.7641 41.0764L44.9148 38.5342C44.816 38.4559 44.6035 38.5146 44.4306 38.6613L44.2725 38.7933L55.8944 52.3501C56.1513 52.1398 56.3737 51.9296 56.5516 51.7243L49.9352 44.0048L48.7641 41.0764Z" fill="#E8E8E8"/>
<path d="M44.1091 38.93C43.9362 39.0766 43.8423 39.2771 43.9016 39.3846L45.804 43.5597L48.5415 45.173L55.1579 52.8925C55.4346 52.7117 55.6767 52.5357 55.8892 52.3597L44.2672 38.798L44.1091 38.93Z" fill="white"/>
<path d="M64.7337 57.8402C64.5409 57.6251 64.3532 57.4099 64.1605 57.1948C61.5119 56.0753 59.7479 54.0171 58.7992 51.1327C58.6064 51.0202 58.3989 50.9615 58.1914 50.9469C57.7714 50.9127 57.3365 51.0349 56.9906 51.3282C56.9906 51.3282 56.8473 51.4504 56.6299 51.6313C56.6052 51.6655 56.5706 51.6949 56.541 51.7291C56.3631 51.9344 56.1457 52.1398 55.8838 52.3549L69.927 68.7374L71.0783 67.7694C71.7701 67.1877 71.8541 66.1561 71.271 65.4717L64.7337 57.8402Z" fill="#B22A00"/>
<path d="M55.1577 52.8877C55.1182 52.9122 55.0885 52.9366 55.049 52.9611C54.8316 53.142 54.6883 53.2593 54.6883 53.2593C54.3424 53.5526 54.1497 53.9535 54.1151 54.3691C54.0953 54.5744 54.1398 54.7944 54.204 54.9948C56.8921 56.4175 58.6561 58.4708 59.3677 61.2184C59.5505 61.4384 59.7333 61.6583 59.9211 61.8783L66.4634 69.5099C67.0514 70.1943 68.094 70.2774 68.7858 69.7005L69.9371 68.7374L55.889 52.3549C55.6716 52.5309 55.4295 52.7069 55.1577 52.8877Z" fill="#FF693B"/>
<path d="M96.4148 82.8197L96.3745 81.8716L20.4873 82.5003V82.8696C20.4873 83.8776 21.5566 84.696 22.8881 84.696H94.0241C95.3657 84.696 96.4552 83.8477 96.4148 82.8197Z" fill="#001C6C"/>
<path d="M89.4545 74.9252H27.5181C26.0857 74.9252 24.6332 75.3942 24.27 75.9831L20.5982 81.8715C20.1443 82.6 21.1127 83.2188 22.7569 83.2188H94.2157C95.86 83.2188 96.8284 82.6 96.3744 81.8715L92.7127 75.9831C92.3395 75.3942 90.8869 74.9252 89.4545 74.9252Z" fill="#183A9B"/>
<path d="M86.7616 77.1808H30.2119C28.9106 77.1808 27.7203 77.4004 27.5791 77.6598L26.2173 80.1649C26.0559 80.4543 27.0546 80.6938 28.4466 80.6938H88.537C89.9189 80.6938 90.9277 80.4543 90.7663 80.1649L89.4045 77.6598C89.2532 77.4004 88.0629 77.1808 86.7616 77.1808Z" fill="#001C6C"/>
<path d="M85.9138 75.4941H31.0688C29.8079 75.4941 28.7386 75.554 28.6983 75.6239L28.3351 76.2726C28.2948 76.3425 29.3136 76.4024 30.6048 76.4024H86.3677C87.6488 76.4024 88.6777 76.3425 88.6373 76.2726L88.2843 75.6239C88.2439 75.554 87.1747 75.4941 85.9138 75.4941Z" fill="#001C6C"/>
<path d="M72.417 80.9932H44.5557C43.9101 80.9932 43.3654 81.093 43.3352 81.2027L43.0628 82.2806C43.0325 82.4004 43.547 82.5002 44.2027 82.5002H72.76C73.4156 82.5002 73.9301 82.4004 73.8998 82.2806L73.6275 81.2027C73.6073 81.083 73.0626 80.9932 72.417 80.9932Z" fill="#001C6C"/>
<defs>
<filter id="filter0_b_1066_58728" x="-20.5137" y="-21" width="157.885" height="157.885" filterUnits="userSpaceOnUse" color-interpolation-filters="sRGB">
<feFlood flood-opacity="0" result="BackgroundImageFix"/>
<feGaussianBlur in="BackgroundImageFix" stdDeviation="10.5"/>
<feComposite in2="SourceAlpha" operator="in" result="effect1_backgroundBlur_1066_58728"/>
<feBlend mode="normal" in="SourceGraphic" in2="effect1_backgroundBlur_1066_58728" result="shape"/>
</filter>
</defs>
</svg>
