<svg width="114" height="113" viewBox="0 0 114 113" fill="none" xmlns="http://www.w3.org/2000/svg">
<g filter="url(#filter0_b_1066_58557)">
<path d="M56.6359 112.929C87.8018 112.929 113.067 87.6644 113.067 56.4986C113.067 25.3327 87.8018 0.067749 56.6359 0.067749C25.47 0.067749 0.205078 25.3327 0.205078 56.4986C0.205078 87.6644 25.47 112.929 56.6359 112.929Z" fill="#AAC0FF" fill-opacity="0.6"/>
<path d="M112.567 56.4986C112.567 87.3883 87.5256 112.429 56.6359 112.429C25.7462 112.429 0.705065 87.3883 0.705065 56.4986C0.705065 25.6088 25.7462 0.567736 56.6359 0.567736C87.5256 0.567736 112.567 25.6088 112.567 56.4986Z" stroke="#AAC0FF" stroke-opacity="0.15"/>
</g>
<path d="M55.4938 55.9578H29.6592V78.5088H55.4938V55.9578Z" fill="#001C6C"/>
<path d="M81.9988 55.9578H55.4854V78.5088H81.9988V55.9578Z" fill="#183A9B"/>
<path d="M55.4854 83.1815H80.4359C81.2963 83.1815 81.9988 82.479 81.9988 81.6186V78.5087H55.4854V83.1815Z" fill="#001C6C"/>
<path d="M29.6592 78.5087V81.6186C29.6592 82.479 30.3617 83.1815 31.222 83.1815H55.4938V78.5087H29.6592Z" fill="#183A9B"/>
<path d="M37.1341 48.4829H29.6592V55.9578H37.1341V48.4829Z" fill="white"/>
<path d="M52.0918 48.4829L59.5667 55.9578H67.0416L59.5667 48.4829H52.0918Z" fill="white"/>
<path d="M59.5664 48.4829L67.0413 55.9578H74.5162L67.0413 48.4829H59.5664Z" fill="#001C6C"/>
<path d="M44.6084 48.4829L52.0912 55.9578H59.5661L52.0912 48.4829H44.6084Z" fill="#073B5B"/>
<path d="M67.042 48.4829L74.5169 55.9578H81.9997L74.5169 48.4829H67.042Z" fill="white"/>
<path d="M74.5166 48.4829L81.9915 55.9578V49.367C81.9915 48.8776 81.5969 48.4829 81.1075 48.4829H74.5166Z" fill="#001C6C"/>
<path d="M29.6592 48.4829L37.1341 55.9578H44.609L37.1341 48.4829H29.6592Z" fill="#183A9B"/>
<path d="M44.6087 48.4829H37.1338L44.6087 55.9578H52.0915L44.6087 48.4829Z" fill="white"/>
<path d="M78.3923 28L71.1621 29.8944L73.0565 37.1325L79.529 35.4433C79.9473 35.3328 80.1999 34.9066 80.0894 34.4804L78.3923 28Z" fill="white"/>
<path d="M56.6932 33.6831L51.3494 42.8077L44.1113 44.6942L49.4551 35.5696L56.6932 33.6831Z" fill="white"/>
<path d="M49.4558 35.5696L44.1121 44.6942L36.8818 46.5886L42.2256 37.464L49.4558 35.5696Z" fill="#183A9B"/>
<path d="M63.9236 31.7887L58.5798 40.9133L51.3496 42.8077L56.6933 33.6831L63.9236 31.7887Z" fill="#183A9B"/>
<path d="M42.2244 37.464L36.8807 46.5886L29.6426 48.483L34.9863 39.3584L42.2244 37.464Z" fill="white"/>
<path d="M34.9868 39.3584L29.6431 48.483L28.0013 42.2079C27.8592 41.679 28.1828 41.1344 28.7117 40.9923L34.9868 39.3584Z" fill="#183A9B"/>
<path d="M78.3913 28L73.0476 37.1325L65.8174 39.019L71.1611 29.8944L78.3913 28Z" fill="#183A9B"/>
<path d="M63.9238 31.7888L71.1619 29.8944L65.8182 39.019L58.5801 40.9134L63.9238 31.7888Z" fill="white"/>
<path d="M37.5761 53.4557H29.2171C28.7751 53.4557 28.4199 53.1005 28.4199 52.6585V44.2995C28.4199 43.5891 29.2724 43.2418 29.7776 43.7391L38.1365 52.0981C38.6338 52.6032 38.2786 53.4557 37.5761 53.4557Z" fill="#001C6C"/>
<path d="M30.3851 45.4284C30.3851 45.831 30.0536 46.1625 29.6511 46.1625C29.2485 46.1625 28.917 45.831 28.917 45.4284C28.917 45.0258 29.2485 44.6943 29.6511 44.6943C30.0615 44.6943 30.3851 45.0258 30.3851 45.4284Z" fill="white"/>
<path d="M30.3851 52.2164C30.3851 52.6189 30.0536 52.9505 29.6511 52.9505C29.2485 52.9505 28.917 52.6189 28.917 52.2164C28.917 51.8138 29.2485 51.4823 29.6511 51.4823C30.0615 51.4902 30.3851 51.8138 30.3851 52.2164Z" fill="white"/>
<path d="M37.2601 52.2164C37.2601 52.6189 36.9286 52.9505 36.5261 52.9505C36.1235 52.9505 35.792 52.6189 35.792 52.2164C35.792 51.8138 36.1235 51.4823 36.5261 51.4823C36.9365 51.4902 37.2601 51.8138 37.2601 52.2164Z" fill="white"/>
<path d="M55.5169 38.3953C46.0608 38.3953 38.4043 46.0596 38.4043 55.5078C38.4043 64.9639 46.0687 72.6204 55.5169 72.6204C56.1562 72.6204 56.7877 72.5809 57.4034 72.5099C63.8601 71.7995 69.2196 67.4977 71.477 61.6488C72.2111 59.7386 72.6295 57.6706 72.6295 55.4999C72.6295 46.0517 64.973 38.3953 55.5169 38.3953Z" fill="#F4D34A"/>
<path d="M55.6196 40.8582C47.529 40.8582 40.9697 47.4174 40.9697 55.508C40.9697 63.5986 47.529 70.1579 55.6196 70.1579C56.1642 70.1579 56.7089 70.1263 57.2377 70.0632L49.7549 62.5804C49.5813 62.4778 49.455 62.2883 49.455 62.0515V48.9487C49.455 48.4909 49.9365 48.191 50.3469 48.3962L63.4497 54.9476C63.5918 55.0187 63.6786 55.137 63.726 55.2712L69.2828 60.757C69.9143 59.1231 70.2695 57.355 70.2695 55.5001C70.2695 47.4174 63.7102 40.8582 55.6196 40.8582Z" fill="#FF693B"/>
<path d="M63.4497 56.0605L50.3469 62.6119C50.1417 62.7145 49.9285 62.6909 49.7549 62.5882L57.2377 70.071C62.763 69.4633 67.3489 65.785 69.2828 60.7728L63.7259 55.287C63.8364 55.5554 63.7575 55.9026 63.4497 56.0605Z" fill="#B22A00"/>
<path d="M63.4498 54.9554L50.347 48.4041C49.9366 48.1988 49.4551 48.4988 49.4551 48.9566V62.0594C49.4551 62.2883 49.5814 62.4777 49.755 62.5882C49.9287 62.6908 50.1418 62.7145 50.347 62.6119L63.4498 56.0605C63.8997 55.8316 63.8997 55.1844 63.4498 54.9554Z" fill="white"/>
<defs>
<filter id="filter0_b_1066_58557" x="-20.7949" y="-20.9323" width="154.861" height="154.862" filterUnits="userSpaceOnUse" color-interpolation-filters="sRGB">
<feFlood flood-opacity="0" result="BackgroundImageFix"/>
<feGaussianBlur in="BackgroundImageFix" stdDeviation="10.5"/>
<feComposite in2="SourceAlpha" operator="in" result="effect1_backgroundBlur_1066_58557"/>
<feBlend mode="normal" in="SourceGraphic" in2="effect1_backgroundBlur_1066_58557" result="shape"/>
</filter>
</defs>
</svg>
