<svg width="117" height="116" viewBox="0 0 117 116" fill="none" xmlns="http://www.w3.org/2000/svg">
<g filter="url(#filter0_b_1066_58457)">
<path d="M58.2138 115.885C90.2145 115.885 116.156 89.943 116.156 57.9424C116.156 25.9417 90.2145 0 58.2138 0C26.2132 0 0.271484 25.9417 0.271484 57.9424C0.271484 89.943 26.2132 115.885 58.2138 115.885Z" fill="#AAC0FF" fill-opacity="0.6"/>
<path d="M115.656 57.9424C115.656 89.6669 89.9384 115.385 58.2138 115.385C26.4893 115.385 0.771472 89.6669 0.771472 57.9424C0.771472 26.2178 26.4893 0.499987 58.2138 0.499987C89.9384 0.499987 115.656 26.2178 115.656 57.9424Z" stroke="#AAC0FF" stroke-opacity="0.15"/>
</g>
<path d="M67.5998 84.9596H63.5866C61.879 84.9596 60.9423 84.0834 61.4489 82.4526C61.9477 80.847 62.721 78.7213 63.4381 76.8403C64.0686 75.1866 65.2008 73.7766 66.6568 72.7706L72.8672 68.4798C73.511 68.035 74.416 67.8523 74.9008 68.4667C75.5479 69.2867 75.4473 70.4072 74.8256 71.2466C72.7023 74.1133 67.5851 76.9855 69.0606 77.5757C70.7778 78.2626 75.2424 73.1111 77.1313 70.8788C77.8369 70.0449 77.946 69.2535 77.7802 68.5884C77.5109 67.5081 77.2308 66.2008 77.9488 65.3499L80.0127 62.9037C80.6959 62.094 81.9079 61.9961 82.7122 62.6855C83.2862 63.1775 83.5155 63.9619 83.2969 64.6856L80.2969 74.6165C79.2521 78.0753 76.9938 81.0408 73.9373 82.9677L73.4661 83.2648C71.7098 84.372 69.676 84.9596 67.5998 84.9596Z" fill="#183A9B"/>
<path d="M60.4746 88.505C60.4746 87.4004 61.37 86.505 62.4746 86.505H68.4342C69.5388 86.505 70.4342 87.4004 70.4342 88.505V90C70.4342 91.1045 69.5388 92 68.4342 92H62.4746C61.37 92 60.4746 91.1045 60.4746 90V88.505Z" fill="#FF693B"/>
<path d="M49.0564 84.9596H53.0696C54.7773 84.9596 55.714 84.0834 55.2073 82.4526C54.7086 80.847 53.9353 78.7213 53.2181 76.8403C52.5877 75.1866 51.4554 73.7766 49.9994 72.7706L43.7891 68.4798C43.1452 68.035 42.2403 67.8523 41.7554 68.4667C41.1083 69.2867 41.2089 70.4072 41.8307 71.2466C43.954 74.1133 49.0711 76.9855 47.5956 77.5757C45.8785 78.2626 41.4138 73.1111 39.5249 70.8788C38.8194 70.0449 38.7103 69.2535 38.8761 68.5884C39.1453 67.5081 39.4254 66.2008 38.7075 65.3499L36.6435 62.9037C35.9604 62.094 34.7483 61.9961 33.944 62.6855C33.3701 63.1775 33.1407 63.9619 33.3593 64.6856L36.3593 74.6165C37.4042 78.0753 39.6624 81.0408 42.7189 82.9677L43.1901 83.2648C44.9464 84.372 46.9803 84.9596 49.0564 84.9596Z" fill="#183A9B"/>
<path d="M45.499 88.291C45.499 87.1864 46.3945 86.291 47.499 86.291H53.4586C54.5632 86.291 55.4586 87.1864 55.4586 88.291V89.786C55.4586 90.8905 54.5632 91.786 53.4586 91.786H47.499C46.3945 91.786 45.499 90.8905 45.499 89.786V88.291Z" fill="#FF693B"/>
<path d="M56.9357 25.6227C57.729 24.752 59.0992 24.752 59.8925 25.6227L62.1727 28.1254C62.6989 28.703 63.5134 28.9212 64.2579 28.6841L67.484 27.6568C68.6064 27.2994 69.793 27.9845 70.0447 29.1352L70.768 32.4427C70.935 33.2061 71.5312 33.8023 72.2946 33.9692L75.6021 34.6926C76.7528 34.9443 77.4379 36.1309 77.0805 37.2533L76.0532 40.4794C75.8161 41.2239 76.0343 42.0384 76.6119 42.5646L79.1146 44.8448C79.9853 45.6381 79.9853 47.0083 79.1146 47.8016L76.6119 50.0818C76.0343 50.6081 75.8161 51.4225 76.0532 52.1671L77.0805 55.3932C77.4379 56.5156 76.7528 57.7022 75.6021 57.9538L72.2945 58.6772C71.5312 58.8442 70.935 59.4404 70.768 60.2037L70.0447 63.5112C69.793 64.662 68.6064 65.3471 67.484 64.9897L64.2579 63.9623C63.5134 63.7252 62.6989 63.9435 62.1727 64.5211L59.8925 67.0238C59.0992 67.8945 57.7289 67.8945 56.9356 67.0238L54.6554 64.5211C54.1292 63.9435 53.3147 63.7252 52.5702 63.9623L49.3441 64.9897C48.2217 65.3471 47.0351 64.662 46.7834 63.5112L46.0601 60.2037C45.8931 59.4404 45.2969 58.8442 44.5336 58.6772L41.226 57.9538C40.0753 57.7022 39.3902 56.5156 39.7476 55.3932L40.7749 52.1671C41.012 51.4225 40.7938 50.6081 40.2162 50.0818L37.7135 47.8016C36.8428 47.0083 36.8428 45.6381 37.7135 44.8448L40.2162 42.5646C40.7938 42.0384 41.012 41.2239 40.7749 40.4794L39.7476 37.2533C39.3902 36.1309 40.0753 34.9443 41.226 34.6926L44.5336 33.9692C45.2969 33.8023 45.8931 33.2061 46.0601 32.4427L46.7834 29.1352C47.0351 27.9845 48.2217 27.2994 49.3441 27.6568L52.5702 28.6841C53.3147 28.9212 54.1292 28.703 54.6554 28.1254L56.9357 25.6227Z" fill="#183A9B"/>
<circle cx="58.4135" cy="46.3233" r="13.3939" stroke="white" stroke-width="2"/>
<path d="M55.1264 44.8978L51.6553 49.7187C51.1791 50.3802 51.6518 51.303 52.4669 51.303H64.3489C65.1661 51.303 65.6383 50.3758 65.1576 49.7149L62.9591 46.6919C62.537 46.1115 61.7214 45.9888 61.1473 46.4195C60.5839 46.842 59.7855 46.7329 59.3561 46.1747L58.3348 44.8469C57.5181 43.7853 55.9091 43.8108 55.1264 44.8978Z" fill="white"/>
<circle cx="61.6765" cy="42.5455" r="1.37374" fill="white"/>
<defs>
<filter id="filter0_b_1066_58457" x="-20.7285" y="-21" width="157.885" height="157.885" filterUnits="userSpaceOnUse" color-interpolation-filters="sRGB">
<feFlood flood-opacity="0" result="BackgroundImageFix"/>
<feGaussianBlur in="BackgroundImageFix" stdDeviation="10.5"/>
<feComposite in2="SourceAlpha" operator="in" result="effect1_backgroundBlur_1066_58457"/>
<feBlend mode="normal" in="SourceGraphic" in2="effect1_backgroundBlur_1066_58457" result="shape"/>
</filter>
</defs>
</svg>
