<svg width="113" height="113" viewBox="0 0 113 113" fill="none" xmlns="http://www.w3.org/2000/svg">
<g filter="url(#filter0_b_1066_58476)">
<path d="M56.4416 112.929C87.6074 112.929 112.872 87.6644 112.872 56.4986C112.872 25.3327 87.6074 0.067749 56.4416 0.067749C25.2757 0.067749 0.0107422 25.3327 0.0107422 56.4986C0.0107422 87.6644 25.2757 112.929 56.4416 112.929Z" fill="#AAC0FF" fill-opacity="0.6"/>
<path d="M112.372 56.4986C112.372 87.3883 87.3313 112.429 56.4416 112.429C25.5518 112.429 0.510729 87.3883 0.510729 56.4986C0.510729 25.6088 25.5518 0.567736 56.4416 0.567736C87.3313 0.567736 112.372 25.6088 112.372 56.4986Z" stroke="#AAC0FF" stroke-opacity="0.15"/>
</g>
<path d="M75.0107 74.5809C85.5042 64.3612 85.5042 47.7919 75.0108 37.5722C64.5173 27.3525 47.5042 27.3525 37.0107 37.5722C26.5173 47.7919 26.5173 64.3612 37.0108 74.5809C47.5042 84.8006 64.5173 84.8006 75.0107 74.5809Z" fill="#183A9B"/>
<path d="M88.2674 52.3746H23.5869V83.4999H88.2674V52.3746Z" fill="#183A9B"/>
<path d="M85.7149 54.7349H26.3193V61.4776H85.7149V54.7349Z" fill="#B9CBFF"/>
<path d="M26.3193 71.1249V73.0587V74.9852V76.9191H47.7612V74.9852V73.0587V71.1249H26.3193Z" fill="#B9CBFF"/>
<path d="M64.2734 71.1249V73.0587V74.9852V76.9191H85.7153V74.9852V73.0587V71.1249H64.2734Z" fill="#B9CBFF"/>
<path d="M88.2596 52.3746H23.5791V49.8892C23.5791 48.4848 24.7493 47.3451 26.1914 47.3451H85.6473C87.0894 47.3451 88.2596 48.4848 88.2596 49.8892V52.3746Z" fill="#001C6C"/>
<path d="M49.8378 71.2497L46.4101 68.235L42.9824 71.2497H44.5377V86.4704C44.5377 87.4778 45.3757 88.294 46.4101 88.294C47.4444 88.294 48.2825 87.4778 48.2825 86.4704V71.2497H49.8378Z" fill="#B32A00"/>
<path d="M77.2059 79.9338L73.7783 76.9191L70.3506 79.9338H71.9059V86.4706C71.9059 87.478 72.7439 88.2942 73.7783 88.2942C74.8126 88.2942 75.6507 87.478 75.6507 86.4706V79.9338H77.2059Z" fill="#B32A00"/>
<path d="M41.8192 84.3896L38.3916 81.3749L34.9639 84.3896H36.5192V86.4705C36.5192 87.4779 37.3572 88.2941 38.3916 88.2941C39.4259 88.2941 40.264 87.4779 40.264 86.4705V84.3896H41.8192Z" fill="#B32A00"/>
<path d="M69.5888 64.4924L66.1611 61.4777L62.7334 64.4924H64.2887V86.4705C64.2887 87.4779 65.1267 88.2941 66.1611 88.2941C67.1954 88.2941 68.0335 87.4779 68.0335 86.4705V64.4924H69.5888Z" fill="#B32A00"/>
<path d="M56.7691 34.1319H55.0703V26.4994C55.0703 26.0436 55.4478 25.6759 55.9159 25.6759C56.384 25.6759 56.7615 26.0436 56.7615 26.4994V34.1319H56.7691Z" fill="#F4A82D"/>
<path d="M51.9594 31.7421C51.7782 31.7862 51.597 31.6833 51.5441 31.5068L50.8269 28.9039C50.7816 28.7274 50.8873 28.5509 51.0685 28.4994C51.2497 28.4553 51.4309 28.5583 51.4837 28.7347L52.201 31.3377C52.2463 31.5142 52.1406 31.698 51.9594 31.7421Z" fill="#E0F3FF"/>
<path d="M45.0964 35.6023C44.9681 35.7273 44.7491 35.7273 44.6208 35.6023L42.6578 33.6905C42.5294 33.5655 42.5294 33.3523 42.6578 33.2273C42.7861 33.1023 43.0051 33.1023 43.1334 33.2273L45.0964 35.1391C45.2248 35.2641 45.2248 35.4773 45.0964 35.6023Z" fill="#E0F3FF"/>
<path d="M41.133 42.2864C41.0877 42.4628 40.8989 42.5658 40.7177 42.5216L38.045 41.8231C37.8638 41.779 37.7581 41.5952 37.8034 41.4187C37.8487 41.2422 38.0375 41.1393 38.2187 41.1834L40.8914 41.8819C41.0726 41.9334 41.1783 42.1099 41.133 42.2864Z" fill="#E0F3FF"/>
<path d="M41.133 50.007C41.1783 50.1834 41.0726 50.3599 40.8914 50.4114L38.2187 51.1099C38.0375 51.154 37.8563 51.0511 37.8034 50.8746C37.7581 50.6981 37.8638 50.5217 38.045 50.4702L40.7177 49.7717C40.8989 49.7275 41.0877 49.8305 41.133 50.007Z" fill="#E0F3FF"/>
<path d="M45.0964 56.6909C45.2248 56.8159 45.2248 57.0292 45.0964 57.1542L43.1334 59.0659C43.0051 59.1909 42.7861 59.1909 42.6578 59.0659C42.5294 58.9409 42.5294 58.7277 42.6578 58.6027L44.6208 56.6909C44.7491 56.5659 44.9605 56.5659 45.0964 56.6909Z" fill="#E0F3FF"/>
<path d="M66.7496 56.6909C66.8779 56.5659 67.0969 56.5659 67.2252 56.6909L69.1882 58.6027C69.3166 58.7277 69.3166 58.9409 69.1882 59.0659C69.0599 59.1909 68.8409 59.1909 68.7126 59.0659L66.7496 57.1542C66.6212 57.0292 66.6212 56.8233 66.7496 56.6909Z" fill="#E0F3FF"/>
<path d="M70.7136 50.007C70.7589 49.8305 70.9477 49.7275 71.1288 49.7717L73.8015 50.4702C73.9827 50.5143 74.0884 50.6981 74.0431 50.8746C73.9978 51.0511 73.8091 51.154 73.6279 51.1099L70.9552 50.4114C70.774 50.3599 70.6683 50.1834 70.7136 50.007Z" fill="#E0F3FF"/>
<path d="M70.7136 42.2864C70.6683 42.1099 70.774 41.9334 70.9552 41.8819L73.6279 41.1834C73.8091 41.1393 73.9903 41.2422 74.0431 41.4187C74.0884 41.5952 73.9827 41.7716 73.8015 41.8231L71.1288 42.5216C70.9477 42.5658 70.7589 42.4628 70.7136 42.2864Z" fill="#E0F3FF"/>
<path d="M66.7496 35.6023C66.6212 35.4773 66.6212 35.2641 66.7496 35.1391L68.7126 33.2273C68.8409 33.1023 69.0599 33.1023 69.1882 33.2273C69.3166 33.3523 69.3166 33.5655 69.1882 33.6905L67.2252 35.6023C67.0969 35.7273 66.8779 35.7273 66.7496 35.6023Z" fill="#E0F3FF"/>
<path d="M59.8868 31.7421C59.7056 31.698 59.5999 31.5142 59.6452 31.3377L60.3625 28.7347C60.4078 28.5583 60.5965 28.4553 60.7777 28.4994C60.9589 28.5436 61.0646 28.7274 61.0193 28.9039L60.3021 31.5068C60.2492 31.6833 60.068 31.7936 59.8868 31.7421Z" fill="#E0F3FF"/>
<path d="M50.4875 35.323L49.0152 36.1466L45.0968 29.5436C44.8627 29.1465 44.9986 28.6391 45.4063 28.4112C45.814 28.1833 46.335 28.3156 46.569 28.7127L50.4875 35.323Z" fill="#F4A82D"/>
<path d="M45.6627 39.426L44.8171 40.8598L38.0372 37.0436C37.6295 36.8157 37.4936 36.3083 37.7277 35.9113C37.9617 35.5142 38.4827 35.3819 38.8904 35.6098L45.6627 39.426Z" fill="#F4A82D"/>
<path d="M43.5868 45.3231V46.9775H35.7499C35.2818 46.9775 34.9043 46.6099 34.9043 46.154C34.9043 45.6981 35.2818 45.3305 35.7499 45.3305H43.5868V45.3231Z" fill="#F4A82D"/>
<path d="M44.81 51.4408L45.6556 52.8746L38.8757 56.6908C38.468 56.9188 37.9471 56.7864 37.713 56.3894C37.479 55.9923 37.6149 55.485 38.0226 55.257L44.81 51.4408Z" fill="#F4A82D"/>
<path d="M49.0152 56.1394L50.4875 56.9629L46.569 63.5659C46.335 63.963 45.814 64.0954 45.4063 63.8674C44.9986 63.6395 44.8627 63.1321 45.0968 62.7351L49.0152 56.1394Z" fill="#F4A82D"/>
<path d="M61.3594 56.9703L62.8316 56.1467L66.75 62.7497C66.9841 63.1468 66.8482 63.6542 66.4405 63.8821C66.0328 64.11 65.5119 63.9777 65.2778 63.5806L61.3594 56.9703Z" fill="#F4A82D"/>
<path d="M66.1836 52.8746L67.0292 51.4408L73.8091 55.257C74.2168 55.485 74.3527 55.9923 74.1186 56.3894C73.8846 56.7864 73.3636 56.9188 72.9559 56.6908L66.1836 52.8746Z" fill="#F4A82D"/>
<path d="M68.2598 46.9775V45.3231H76.0966C76.5647 45.3231 76.9422 45.6908 76.9422 46.1467C76.9422 46.6026 76.5647 46.9702 76.0966 46.9702H68.2598V46.9775Z" fill="#F4A82D"/>
<path d="M67.037 40.8525L66.1914 39.4187L72.9713 35.6025C73.379 35.3745 73.8999 35.5069 74.134 35.904C74.368 36.301 74.2321 36.8084 73.8244 37.0363L67.037 40.8525Z" fill="#F4A82D"/>
<path d="M62.8316 36.154L61.3594 35.3304L65.2778 28.7274C65.5119 28.3304 66.0328 28.198 66.4405 28.426C66.8482 28.6539 66.9841 29.1613 66.75 29.5583L62.8316 36.154Z" fill="#F4A82D"/>
<path d="M67.7118 57.6326C74.2248 51.2895 74.2248 41.0052 67.7118 34.6621C61.1987 28.3189 50.639 28.3189 44.1259 34.6621C37.6129 41.0052 37.6129 51.2895 44.1259 57.6326C50.639 63.9758 61.1987 63.9758 67.7118 57.6326Z" fill="#E0F3FF"/>
<path d="M51.3931 39.926L41.2686 41.3598L48.5996 48.3158L46.8706 58.132L55.923 53.4996V30.9921L51.3931 39.926Z" fill="#F4D34A"/>
<path d="M70.5773 41.3598L60.4528 39.926L55.9229 30.9921V53.4996L64.9753 58.132L63.2463 48.3158L70.5773 41.3598Z" fill="#F4A82D"/>
<path d="M55.9228 88.2941C52.865 88.2941 50.3887 85.8823 50.3887 82.9043V58.1394H55.9228V88.2941Z" fill="#FF693B"/>
<path d="M64.9759 58.1467H46.8711L55.9235 50.1687L64.9759 58.1467Z" fill="#FF693B"/>
<path d="M55.9228 58.1321H50.3887V60.338H55.9228V88.2941C58.9805 88.2941 61.4569 85.8823 61.4569 82.9044V58.1394H55.9228V58.1321Z" fill="#B32A00"/>
<defs>
<filter id="filter0_b_1066_58476" x="-20.9893" y="-20.9323" width="154.861" height="154.862" filterUnits="userSpaceOnUse" color-interpolation-filters="sRGB">
<feFlood flood-opacity="0" result="BackgroundImageFix"/>
<feGaussianBlur in="BackgroundImageFix" stdDeviation="10.5"/>
<feComposite in2="SourceAlpha" operator="in" result="effect1_backgroundBlur_1066_58476"/>
<feBlend mode="normal" in="SourceGraphic" in2="effect1_backgroundBlur_1066_58476" result="shape"/>
</filter>
</defs>
</svg>
