<svg width="114" height="113" viewBox="0 0 114 113" fill="none" xmlns="http://www.w3.org/2000/svg">
<g filter="url(#filter0_b_1066_58199)">
<path d="M56.5968 112.929C87.7627 112.929 113.028 87.6644 113.028 56.4986C113.028 25.3327 87.7627 0.067749 56.5968 0.067749C25.431 0.067749 0.166016 25.3327 0.166016 56.4986C0.166016 87.6644 25.431 112.929 56.5968 112.929Z" fill="#AAC0FF" fill-opacity="0.6"/>
<path d="M112.528 56.4986C112.528 87.3883 87.4866 112.429 56.5968 112.429C25.7071 112.429 0.666003 87.3883 0.666003 56.4986C0.666003 25.6088 25.7071 0.567736 56.5968 0.567736C87.4866 0.567736 112.528 25.6088 112.528 56.4986Z" stroke="#AAC0FF" stroke-opacity="0.15"/>
</g>
<path d="M94.07 26.0677H23.166V85.3928H94.07V26.0677Z" fill="#001C6C"/>
<path d="M90.5727 37.1349H26.9355V81.1641H90.5727V37.1349Z" fill="#183A9B"/>
<path d="M90.5727 29.2834H26.9355V34.5665H90.5727V29.2834Z" fill="#183A9B"/>
<path d="M35.7577 38.9515H31.7275V40.2671H35.7577V38.9515Z" fill="#F4D34A"/>
<path d="M35.7577 52.1385H31.7275V53.4541H35.7577V52.1385Z" fill="#F4D34A"/>
<path d="M38.3778 41.0607H34.3477V42.3762H38.3778V41.0607Z" fill="#FF693B"/>
<path d="M43.0243 41.0607H38.9941V42.3762H43.0243V41.0607Z" fill="#FF693B"/>
<path d="M47.6708 41.0607H43.6406V42.3762H47.6708V41.0607Z" fill="white"/>
<path d="M52.3066 41.0607H48.2764V42.3762H52.3066V41.0607Z" fill="white"/>
<path d="M60.4611 41.0607H53.3613V42.3762H60.4611V41.0607Z" fill="white"/>
<path d="M40.3935 43.2428H36.3633V44.5584H40.3935V43.2428Z" fill="#FF693B"/>
<path d="M45.0399 43.2428H41.0098V44.5584H45.0399V43.2428Z" fill="#FF693B"/>
<path d="M49.6855 43.2428H45.6553V44.5584H49.6855V43.2428Z" fill="white"/>
<path d="M54.3212 43.2428H50.291V44.5584H54.3212V43.2428Z" fill="white"/>
<path d="M40.3935 47.7327H36.3633V49.0482H40.3935V47.7327Z" fill="#FF693B"/>
<path d="M45.0399 47.7327H41.0098V49.0482H45.0399V47.7327Z" fill="#FF693B"/>
<path d="M49.6855 47.7327H45.6553V49.0482H49.6855V47.7327Z" fill="white"/>
<path d="M54.3212 47.7327H50.291V49.0482H54.3212V47.7327Z" fill="white"/>
<path d="M62.4758 47.7327H55.376V49.0482H62.4758V47.7327Z" fill="white"/>
<path d="M38.3778 49.9875H34.3477V51.3031H38.3778V49.9875Z" fill="#FF693B"/>
<path d="M43.0243 49.9875H38.9941V51.3031H43.0243V49.9875Z" fill="#FF693B"/>
<path d="M47.6708 49.9875H43.6406V51.3031H47.6708V49.9875Z" fill="white"/>
<path d="M52.3066 49.9875H48.2764V51.3031H52.3066V49.9875Z" fill="white"/>
<path d="M42.4081 45.4355H38.3779V46.7511H42.4081V45.4355Z" fill="#FF693B"/>
<path d="M47.0546 45.4355H43.0244V46.7511H47.0546V45.4355Z" fill="#FF693B"/>
<path d="M51.7011 45.4355H47.6709V46.7511H51.7011V45.4355Z" fill="white"/>
<path d="M56.3368 45.4355H52.3066V46.7511H56.3368V45.4355Z" fill="white"/>
<path d="M64.4904 45.4355H57.3906V46.7511H64.4904V45.4355Z" fill="white"/>
<path d="M35.7577 71.3707H31.7275V72.6863H35.7577V71.3707Z" fill="#F4D34A"/>
<path d="M38.3778 73.4694H34.3477V74.7849H38.3778V73.4694Z" fill="#FF693B"/>
<path d="M43.0243 73.4694H38.9941V74.7849H43.0243V73.4694Z" fill="#FF693B"/>
<path d="M47.6708 73.4694H43.6406V74.7849H47.6708V73.4694Z" fill="white"/>
<path d="M52.3066 73.4694H48.2764V74.7849H52.3066V73.4694Z" fill="white"/>
<path d="M60.4611 73.4694H53.3613V74.7849H60.4611V73.4694Z" fill="white"/>
<path d="M40.3935 75.6617H36.3633V76.9773H40.3935V75.6617Z" fill="#FF693B"/>
<path d="M45.0399 75.6617H41.0098V76.9773H45.0399V75.6617Z" fill="#FF693B"/>
<path d="M49.6855 75.6617H45.6553V76.9773H49.6855V75.6617Z" fill="white"/>
<path d="M42.4081 77.8544H38.3779V79.1699H42.4081V77.8544Z" fill="#FF693B"/>
<path d="M47.0546 77.8544H43.0244V79.1699H47.0546V77.8544Z" fill="#FF693B"/>
<path d="M51.7011 77.8544H47.6709V79.1699H51.7011V77.8544Z" fill="white"/>
<path d="M56.3368 77.8544H52.3066V79.1699H56.3368V77.8544Z" fill="white"/>
<path d="M64.4904 77.8544H57.3906V79.1699H64.4904V77.8544Z" fill="white"/>
<path d="M34.9328 67.0377L30.0986 63.9263V61.4623L34.9328 58.3822V60.7001L31.5917 62.6943L34.9328 64.7407V67.0377Z" fill="white"/>
<path d="M36.4365 69.0423L40.0386 54.1118H42.0224L38.4098 69.0423H36.4365Z" fill="white"/>
<path d="M49.3094 68.1758C48.7978 68.8649 47.9939 69.2095 46.8976 69.2095C45.8013 69.2095 44.9765 68.8441 44.4335 68.1027C43.8906 67.3719 43.6191 66.3069 43.6191 64.9287V58.4554C43.6191 56.2419 44.1934 54.8637 45.3627 54.3103C45.7908 54.112 46.3129 54.0076 46.9185 54.0076C49.0066 54.0076 50.0507 55.3231 50.0507 57.9542V60.0006H47.8686V58.1004C47.8686 57.3382 47.8059 56.7848 47.6702 56.4612C47.5449 56.1271 47.2839 55.9704 46.908 55.9704C46.5321 55.9704 46.2711 56.1479 46.1249 56.4925C45.9788 56.837 45.9057 57.38 45.9057 58.1004V65.0436C45.9057 65.8475 45.9788 66.4113 46.1145 66.7559C46.2502 67.1004 46.5113 67.2675 46.8871 67.2675C47.263 67.2675 47.5136 67.09 47.6598 66.7454C47.7955 66.4009 47.8686 65.8162 47.8686 65.0122V62.8823H50.0925V64.9809C50.0716 66.4218 49.821 67.4867 49.3094 68.1758Z" fill="white"/>
<path d="M57.5167 68.1444C56.9946 68.8544 56.1698 69.2199 55.0317 69.2199C53.8937 69.2199 53.0584 68.8649 52.5259 68.1444C51.9935 67.424 51.7324 66.3486 51.7324 64.8973V58.1003C51.7324 55.3753 52.8392 54.0179 55.0631 54.0179C56.2116 54.0179 57.0364 54.3625 57.5375 55.0516C58.0387 55.7407 58.2893 56.7639 58.2893 58.1003V64.8973C58.2997 66.3382 58.0387 67.424 57.5167 68.1444ZM54.2069 66.7349C54.3426 67.0795 54.6141 67.2465 55.0213 67.2465C55.4285 67.2465 55.6999 67.069 55.8357 66.7141C55.9714 66.3591 56.0341 65.7535 56.0341 64.9078V57.9855C56.0341 57.2859 55.9714 56.7639 55.8357 56.4402C55.6999 56.1166 55.4389 55.9599 55.0631 55.9599C54.6768 55.9599 54.4053 56.1166 54.2487 56.4402C54.0921 56.7639 54.019 57.2755 54.019 57.975V64.9078C54.0085 65.7848 54.0712 66.3904 54.2069 66.7349Z" fill="white"/>
<path d="M60.335 69.0425V54.1852H63.6656C64.7619 54.1852 65.545 54.5088 66.0461 55.1562C66.5368 55.8035 66.7874 56.7536 66.7874 58.0065L66.7979 64.7096C66.7979 66.2026 66.5473 67.2989 66.0566 67.9985C65.5659 68.698 64.741 69.0425 63.603 69.0425H60.335ZM62.6006 67.2885H63.3419C63.7596 67.2885 64.0624 67.1527 64.2503 66.8813C64.4382 66.6098 64.5322 66.1191 64.5322 65.3987L64.5218 58.0587C64.5218 57.2861 64.4278 56.7432 64.2399 56.4091C64.0519 56.0854 63.7283 55.9184 63.2689 55.9184H62.6006V67.2885Z" fill="white"/>
<path d="M68.834 69.0425V54.1852H73.8143V56.1376H71.0997V60.4601H73.6786V62.3708H71.0997V67.1005H73.9187V69.053H68.834V69.0425Z" fill="white"/>
<path d="M75.3701 67.0377V64.7198L78.7112 62.7256L75.3701 60.6792V58.3822L80.2147 61.4727V63.9472L75.3701 67.0377Z" fill="white"/>
<path d="M88.8808 30.4006H85.832V33.4494H88.8808V30.4006Z" fill="white"/>
<path d="M84.203 30.4006H81.1543V33.4494H84.203V30.4006Z" fill="white"/>
<path d="M79.5361 30.4006H76.4873V33.4494H79.5361V30.4006Z" fill="white"/>
<path d="M31.7167 30.4006H28.668V33.4494H31.7167V30.4006Z" fill="white"/>
<path d="M94.039 75.6932L93.3708 75.1398C93.6214 74.6595 93.8407 74.1584 94.039 73.6468V61.9112C91.7003 55.9704 85.9369 51.7627 79.1712 51.7627C70.3382 51.7627 63.1758 58.9251 63.1758 67.7581C63.1758 76.5911 70.3382 83.7535 79.1712 83.7535C83.3789 83.7535 87.2002 82.1248 90.061 79.4728L94.039 82.7512V75.6932ZM79.1712 78.6271C73.1677 78.6271 68.3127 73.7616 68.3127 67.7686C68.3127 61.7651 73.1781 56.9101 79.1712 56.9101C85.1747 56.9101 90.0402 61.7755 90.0402 67.7686C90.0402 73.7616 85.1747 78.6271 79.1712 78.6271Z" fill="#2D2D2D" fill-opacity="0.7"/>
<path d="M98.1841 83.7118L86.4277 74.0226C87.5762 71.8196 88.234 69.3033 88.234 66.6409C88.234 57.8079 81.0716 50.6455 72.2386 50.6455C63.4056 50.6455 56.2432 57.8079 56.2432 66.6409C56.2432 75.4739 63.4056 82.6364 72.2386 82.6364C76.4463 82.6364 80.2676 81.0076 83.1284 78.3556L94.7178 87.909C95.8663 88.8591 97.5681 88.6921 98.5183 87.5436L98.5496 87.5018C99.4997 86.3637 99.3326 84.6619 98.1841 83.7118ZM72.2281 77.5099C66.2246 77.5099 61.3696 72.6444 61.3696 66.6514C61.3696 60.6479 66.2351 55.7929 72.2281 55.7929C78.2316 55.7929 83.0866 60.6583 83.0866 66.6514C83.0971 72.6444 78.2316 77.5099 72.2281 77.5099Z" fill="#FF693B"/>
<defs>
<filter id="filter0_b_1066_58199" x="-20.834" y="-20.9323" width="154.861" height="154.862" filterUnits="userSpaceOnUse" color-interpolation-filters="sRGB">
<feFlood flood-opacity="0" result="BackgroundImageFix"/>
<feGaussianBlur in="BackgroundImageFix" stdDeviation="10.5"/>
<feComposite in2="SourceAlpha" operator="in" result="effect1_backgroundBlur_1066_58199"/>
<feBlend mode="normal" in="SourceGraphic" in2="effect1_backgroundBlur_1066_58199" result="shape"/>
</filter>
</defs>
</svg>
