<svg width="117" height="116" viewBox="0 0 117 116" fill="none" xmlns="http://www.w3.org/2000/svg">
<g filter="url(#filter0_b_1066_58627)">
<path d="M58.8642 115.885C90.8649 115.885 116.807 89.943 116.807 57.9424C116.807 25.9417 90.8649 0 58.8642 0C26.8636 0 0.921875 25.9417 0.921875 57.9424C0.921875 89.943 26.8636 115.885 58.8642 115.885Z" fill="#AAC0FF" fill-opacity="0.6"/>
<path d="M116.307 57.9424C116.307 89.6669 90.5888 115.385 58.8642 115.385C27.1397 115.385 1.42186 89.6669 1.42186 57.9424C1.42186 26.2178 27.1397 0.499987 58.8642 0.499987C90.5888 0.499987 116.307 26.2178 116.307 57.9424Z" stroke="#AAC0FF" stroke-opacity="0.15"/>
</g>
<path d="M59.6009 88.696L58.9897 88.0585V87.929L58.9218 87.9987L58.8636 87.929V88.0585L58.2428 88.696L46.543 95.8182H58.8636H58.9897H71.3007L59.6009 88.696Z" fill="#0A2C8C"/>
<path d="M63.1414 84.9706H54.7207V90.8975H63.1414V84.9706Z" fill="#577FEE"/>
<path d="M96.9219 33.9595H20.9219V86.8333H96.9219V33.9595Z" fill="#0A2C8C"/>
<path d="M93.6432 38.5316H24.2109V82.1714H93.6432V38.5316Z" fill="#EDEDED"/>
<path d="M91.1594 45.8232H26.6846V82.1715H91.1594V45.8232Z" fill="white"/>
<path d="M93.6432 38.5316H24.2109V40.992H93.6432V38.5316Z" fill="#EDEDED"/>
<path d="M93.6432 77.8484H24.2109V82.1715H93.6432V77.8484Z" fill="#0A2C8C"/>
<path d="M48.4636 49.5488H30.3125V68.1862H48.4636V49.5488Z" fill="#0A2C8C"/>
<path d="M87.4149 49.5488H55.7305V50.5649H87.4149V49.5488Z" fill="#0A2C8C"/>
<path d="M87.4149 52.5967H55.7305V53.6127H87.4149V52.5967Z" fill="#0A2C8C"/>
<path d="M87.4149 55.645H55.7305V56.6611H87.4149V55.645Z" fill="#0A2C8C"/>
<path d="M87.4149 58.7029H55.7305V59.7189H87.4149V58.7029Z" fill="#0A2C8C"/>
<path d="M87.4149 61.7511H55.7305V62.7671H87.4149V61.7511Z" fill="#0A2C8C"/>
<path d="M87.4149 64.7992H55.7305V65.8152H87.4149V64.7992Z" fill="#0A2C8C"/>
<path d="M87.4149 67.8474H55.7305V68.8635H87.4149V67.8474Z" fill="#0A2C8C"/>
<path d="M87.4149 70.9054H55.7305V71.9214H87.4149V70.9054Z" fill="#0A2C8C"/>
<path d="M87.4149 73.9536H55.7305V74.9697H87.4149V73.9536Z" fill="#0A2C8C"/>
<path d="M57.1268 43.1936C57.1268 43.1936 48.9486 42.1477 46.6979 46.9689C44.4472 51.8 43.4286 60.6256 41.1779 61.044C38.9272 61.4623 57.1365 64.8292 63.064 51.3817C68.9915 37.9341 57.1268 43.1936 57.1268 43.1936Z" fill="#FF693B"/>
<path d="M65.916 36.121C65.916 36.121 70.1458 32.6944 76.6263 28.5605C83.0291 24.4764 91.0812 21 91.0812 21C91.0812 21 87.0261 27.9031 81.5351 33.4614C76.6942 38.3623 71.8532 43.1935 71.8532 43.1935L65.916 36.121Z" fill="#272727"/>
<path d="M83.7863 25.6121C83.7863 25.6121 72.9402 31.001 65.7806 37.7248C58.6211 44.4486 67.6918 38.5616 67.6918 38.5616C67.6918 38.5616 76.7625 29.8854 83.7863 25.6121Z" fill="#939393"/>
<path d="M65.9374 35.4333L57.0098 43.0583L63.3875 50.9309L72.3151 43.3058L65.9374 35.4333Z" fill="#D8D8D8"/>
<path d="M59.9905 40.5108L57.0146 43.0525L63.3923 50.9251L66.3682 48.3834L59.9905 40.5108Z" fill="#0A2C8C"/>
<path d="M65.78 36.5393L60.8711 40.6732L62.0352 42.0677L66.8083 37.8641L65.78 36.5393Z" fill="white"/>
<path d="M57.9414 43.2433L63.3644 50.2759L65.8189 48.2836L63.4129 49.7579L57.9414 43.2433Z" fill="white"/>
<path d="M55.9629 44.3788C55.9629 44.3788 50.5108 43.4724 48.7354 46.7595C46.9601 50.0467 51.7331 48.2338 55.9629 44.3788Z" fill="#B22A00"/>
<path d="M86.5905 86.7636C85.6688 85.9169 84.7181 85.0802 83.7674 84.2833C78.8391 80.1793 74.8616 77.44 73.6683 76.6331L73.94 76.1749L63.9961 70.0189L63.9088 70.1683C63.9088 70.1683 62.1917 61.8906 57.0015 61.2929C51.821 60.6952 43.4736 63.9506 42.3483 61.9086C41.2229 59.8666 44.0018 77.2706 58.3112 78.6154C58.5149 78.6353 58.7186 78.6552 58.9126 78.6652L58.8447 78.7847L62.1626 80.8367L68.7983 84.9407L69.002 84.5921C69.5938 84.9009 71.1557 85.6978 73.2318 86.7636H86.5905Z" fill="black" fill-opacity="0.6"/>
<defs>
<filter id="filter0_b_1066_58627" x="-20.0781" y="-21" width="157.885" height="157.885" filterUnits="userSpaceOnUse" color-interpolation-filters="sRGB">
<feFlood flood-opacity="0" result="BackgroundImageFix"/>
<feGaussianBlur in="BackgroundImageFix" stdDeviation="10.5"/>
<feComposite in2="SourceAlpha" operator="in" result="effect1_backgroundBlur_1066_58627"/>
<feBlend mode="normal" in="SourceGraphic" in2="effect1_backgroundBlur_1066_58627" result="shape"/>
</filter>
</defs>
</svg>
