<svg width="114" height="113" viewBox="0 0 114 113" fill="none" xmlns="http://www.w3.org/2000/svg">
<g filter="url(#filter0_b_1066_58354)">
<path d="M56.9855 112.929C88.1514 112.929 113.416 87.6644 113.416 56.4986C113.416 25.3327 88.1514 0.067749 56.9855 0.067749C25.8196 0.067749 0.554687 25.3327 0.554687 56.4986C0.554687 87.6644 25.8196 112.929 56.9855 112.929Z" fill="#AAC0FF" fill-opacity="0.6"/>
<path d="M112.916 56.4986C112.916 87.3883 87.8752 112.429 56.9855 112.429C26.0958 112.429 1.05467 87.3883 1.05467 56.4986C1.05467 25.6088 26.0958 0.567736 56.9855 0.567736C87.8752 0.567736 112.916 25.6088 112.916 56.4986Z" stroke="#AAC0FF" stroke-opacity="0.15"/>
</g>
<path d="M85.0882 30.9293H24.6347C23.0408 30.9293 21.7295 32.2767 21.7295 33.9134V71.0002C21.7295 72.6469 23.0408 73.9843 24.6347 73.9843H85.0882C86.692 73.9843 87.9933 72.6369 87.9933 71.0002V33.9134C88.0034 32.2767 86.692 30.9293 85.0882 30.9293Z" fill="#183A9B"/>
<path d="M89.1895 21.9293H88.0219V22.4647H89.1895V21.9293ZM86.2706 21.9293H85.103V22.4647H86.2706V21.9293ZM83.3516 21.9293H82.1841V22.4647H83.3516V21.9293ZM80.4327 21.9293H79.2652V22.4647H80.4327V21.9293ZM77.5138 21.9293H76.3462V22.4647H77.5138V21.9293ZM74.5949 21.9293H73.4273V22.4647H74.5949V21.9293ZM71.676 21.9293H70.5084V22.4647H71.676V21.9293ZM68.757 21.9293H67.5895V22.4647H68.757V21.9293ZM65.8381 21.9293H65.1084V22.4647H65.8381V21.9293ZM65.6922 23.9368H65.1084V25.0075H65.6922V23.9368ZM65.6922 26.6135H65.1084V27.6841H65.6922V26.6135ZM65.6922 29.2901H65.1084V30.3608H65.6922V29.2901ZM65.6922 31.9668H65.1084V33.0375H65.6922V31.9668ZM65.6922 34.6435H65.1084V35.7141H65.6922V34.6435ZM65.6922 37.3201H65.1084V38.3908H65.6922V37.3201ZM65.6922 39.9968H65.1084V41.0674H65.6922V39.9968ZM65.6922 42.6734H65.1084V43.7441H65.6922V42.6734ZM65.6922 45.3501H65.1084V46.4208H65.6922V45.3501ZM65.6922 48.0268H65.1084V49.0974H65.6922V48.0268ZM65.6922 50.7034H65.1084V51.7741H65.6922V50.7034ZM65.6922 53.3801H65.1084V54.4507H65.6922V53.3801ZM65.6922 56.0567H65.1084V57.1274H65.6922V56.0567ZM65.6922 58.7334H65.1084V59.8041H65.6922V58.7334ZM65.7155 61.394H65.1142V61.41V61.9293H65.698C65.7097 61.9293 65.7155 61.9293 65.7155 61.9293V61.394ZM68.6344 61.394H67.4669V61.9293H68.6344V61.394ZM71.5534 61.394H70.3858V61.9293H71.5534V61.394ZM74.4723 61.394H73.3047V61.9293H74.4723V61.394ZM77.3912 61.394H76.2236V61.9293H77.3912V61.394ZM80.3101 61.394H79.1425V61.9293H80.3101V61.394ZM83.229 61.394H82.0615V61.9293H83.229V61.394ZM86.148 61.394H84.9804V61.9293H86.148V61.394ZM89.0669 61.394H87.8993V61.9293H89.0669V61.394ZM91.9858 61.394H90.8182V61.9293H91.9858V61.394ZM92.1084 59.3651H91.5246V60.4357H92.1084V59.3651ZM92.1084 56.6884H91.5246V57.7591H92.1084V56.6884ZM92.1084 54.0118H91.5246V55.0824H92.1084V54.0118ZM92.1084 51.3351H91.5246V52.4058H92.1084V51.3351ZM92.1084 48.6584H91.5246V49.7291H92.1084V48.6584ZM92.1084 45.9818H91.5246V47.0524H92.1084V45.9818ZM92.1084 43.3051H91.5246V44.3758H92.1084V43.3051ZM92.1084 40.6285H91.5246V41.6991H92.1084V40.6285ZM92.1084 37.9518H91.5246V39.0225H92.1084V37.9518ZM92.1084 35.2751H91.5246V36.3458H92.1084V35.2751ZM92.1084 32.5985H91.5246V33.6691H92.1084V32.5985ZM92.1084 29.9218H91.5246V30.9925H92.1084V29.9218ZM92.1084 27.2452H91.5246V28.3158H92.1084V27.2452ZM92.1084 24.5685H91.5246V25.6392H92.1084V24.5685ZM92.1084 21.9293H90.9408V22.4647H91.5246V22.9625H92.1084V21.9293Z" fill="#183A9B"/>
<path d="M84.3823 33.8336C84.0393 33.634 83.6459 33.5242 83.2223 33.5242H26.5112C25.22 33.5242 24.1709 34.5821 24.1709 35.8695V70.072C24.1709 70.8305 24.5441 71.5092 25.109 71.9383C25.5024 72.2377 25.9866 72.4174 26.5112 72.4174H83.2324C84.5235 72.4174 85.5726 71.3595 85.5726 70.072V35.8596C85.5625 34.9913 85.0884 34.2328 84.3823 33.8336Z" fill="#6D8EEC"/>
<path d="M54.1349 65.9293H27.1084V70.2381H54.1349V65.9293Z" fill="#183A9B"/>
<path d="M54.1434 65.9293H46.4541V70.2381H54.1434V65.9293Z" fill="#183A9B"/>
<path d="M44.1948 69.3624H29.4467C28.7636 69.3624 28.2031 68.8107 28.2031 68.1189C28.2031 67.4358 28.7548 66.8752 29.4467 66.8752H44.1948C44.8779 66.8752 45.4384 67.427 45.4384 68.1189C45.4384 68.802 44.8779 69.3624 44.1948 69.3624Z" fill="white"/>
<path d="M51.8754 66.4985H48.7051V69.6688H51.8754V66.4985Z" fill="#001C6C"/>
<path opacity="0.75" d="M83.2223 33.5142H26.5112C25.22 33.5142 24.1709 34.5721 24.1709 35.8595V70.062C24.1709 70.8205 24.5441 71.4991 25.109 71.9283L84.3924 33.8235C84.0393 33.6339 83.6459 33.5142 83.2223 33.5142Z" fill="#2448AE" fill-opacity="0.7"/>
<path d="M72.1084 70.1723H97.0242V36.5074H72.1084V70.1723ZM75.2787 62.6844V39.4588H93.8802V44.1004V48.7508V53.4012V58.0428V58.0516V62.6932V67.3436H89.2298H84.5795H79.9291H75.2787V62.6844Z" fill="#E8EEFF"/>
<path d="M79.9287 58.0429V58.0341V53.3925H84.5791H89.2294H93.8798H89.2294H84.5791H79.9287V48.7508H84.5791V44.1005H89.2294H93.8798V39.4589H75.2783V62.6845H79.9287V58.0429Z" fill="#001C6C"/>
<path d="M93.8799 62.6844H89.2295V67.3348H93.8799V62.6844Z" fill="#B22A00"/>
<path d="M89.2295 62.6844H84.5791V67.3348H89.2295V62.6844Z" fill="#FF693B"/>
<path d="M84.5791 62.6844H79.9287V67.3348H84.5791V62.6844Z" fill="#FF9A7B"/>
<path d="M79.9287 62.6844H75.2783V67.3348H79.9287V62.6844Z" fill="#B22A00"/>
<path d="M93.8799 58.043H89.2295V62.6846H93.8799V58.043Z" fill="#FF693B"/>
<path d="M89.2295 58.043H84.5791V62.6846H89.2295V58.043Z" fill="#FF9A7B"/>
<path d="M84.5791 58.043H79.9287V62.6846H84.5791V58.043Z" fill="white"/>
<path d="M89.2295 58.0341V58.0428H93.8799V58.0341V53.3925H89.2295V58.0341Z" fill="#FF9A7B"/>
<path d="M84.5791 58.0428H89.2295V58.0341V53.3925H84.5791V58.0341V58.0428Z" fill="#FFBCA8"/>
<path d="M84.5791 58.0341V53.3925H79.9287V58.0341V58.0428H84.5791V58.0341Z" fill="#FFE0D7"/>
<path d="M93.8799 48.7507H89.2295V53.4011H93.8799V48.7507Z" fill="#FFBCA8"/>
<path d="M89.2295 48.7507H84.5791V53.4011H89.2295V48.7507Z" fill="#FF693B"/>
<path d="M84.5791 48.7507H79.9287V53.4011H84.5791V48.7507Z" fill="white"/>
<path d="M93.8799 44.1005H89.2295V48.7508H93.8799V44.1005Z" fill="white"/>
<path d="M89.2295 44.1005H84.5791V48.7508H89.2295V44.1005Z" fill="#FFBCA8"/>
<path d="M28.1084 36.9293V50.6702H46.4822V36.9293H28.1084ZM44.8357 48.9362H29.5797V38.6633H44.8357V48.9362Z" fill="#E8EEFF"/>
<path d="M29.5889 48.9362H44.8449V38.6633H29.5889V48.9362ZM42.8043 44.5135V47.3423V47.7276H42.419H39.5902V47.3423H42.419V44.5135H42.8043ZM41.7447 41.5709V46.0549C41.7447 46.3964 41.4644 46.6767 41.1228 46.6767H33.3022C32.9606 46.6767 32.6804 46.3964 32.6804 46.0549V41.5709C32.6804 41.2294 32.9606 40.9491 33.3022 40.9491H41.1228C41.4731 40.9491 41.7447 41.2294 41.7447 41.5709ZM34.826 39.8807V40.266H31.9973V43.0948H31.6119V40.266V39.8807H31.9973H34.826Z" fill="white"/>
<path d="M31.6201 40.2661V43.0948H32.0055V40.2661H34.8255V39.8807H32.0055H31.6201V40.2661Z" fill="#001C6C"/>
<path d="M39.5986 47.3423V47.7277L42.4186 47.7189H42.804V47.3336V44.5135H42.4186V47.3336L39.5986 47.3423Z" fill="#001C6C"/>
<path d="M44.4603 32.7883C44.4603 32.7883 39.7218 32.1823 38.4177 34.9758C37.1137 37.775 36.5234 42.8886 35.2194 43.131C33.9153 43.3734 44.4659 45.3242 47.9004 37.5326C51.3348 29.7409 44.4603 32.7883 44.4603 32.7883Z" fill="#FF693B"/>
<path d="M49.5527 28.6906C49.5527 28.6906 52.0035 26.7051 55.7583 24.3099C59.4682 21.9436 64.1336 19.9293 64.1336 19.9293C64.1336 19.9293 61.784 23.929 58.6026 27.1496C55.7977 29.9892 52.9928 32.7884 52.9928 32.7884L49.5527 28.6906Z" fill="#272727"/>
<path d="M59.9072 22.6016C59.9072 22.6016 53.6229 25.724 49.4746 29.6198C45.3263 33.5156 50.5819 30.1046 50.5819 30.1046C50.5819 30.1046 55.8376 25.0776 59.9072 22.6016Z" fill="#939393"/>
<path d="M49.5653 28.2919L44.3926 32.71L48.0879 37.2714L53.2606 32.8534L49.5653 28.2919Z" fill="#D8D8D8"/>
<path d="M46.1198 31.234L44.3955 32.7067L48.0908 37.2681L49.815 35.7954L46.1198 31.234Z" fill="#0A2C8C"/>
<path d="M49.4741 28.9329L46.6299 31.3281L47.3044 32.1361L50.0699 29.7005L49.4741 28.9329Z" fill="white"/>
<path d="M44.9326 32.8173L48.0748 36.892L49.4969 35.7377L48.1029 36.5919L44.9326 32.8173Z" fill="white"/>
<path d="M43.7853 33.4752C43.7853 33.4752 40.6263 32.95 39.5977 34.8546C38.569 36.7592 41.3346 35.7088 43.7853 33.4752Z" fill="#B22A00"/>
<path d="M61.1342 57.4293C60.5953 56.9653 60.5742 57.0067 60.0183 56.57C57.1367 54.3208 54.811 52.8195 54.1132 52.3773L54.2721 52.1262L48.4578 48.7524L48.4068 48.8343C48.4068 48.8343 47.4027 44.2977 44.368 43.9702C41.3389 43.6426 36.4581 45.4267 35.8001 44.3076C35.1421 43.1885 36.7669 52.7267 45.1337 53.4637C45.2529 53.4746 45.372 53.4855 45.4854 53.491L45.4457 53.5565L47.3857 54.6811L51.2657 56.9303L51.3848 56.7392C51.7308 56.9084 51.9202 56.8452 53.1342 57.4293H61.1342Z" fill="black" fill-opacity="0.2"/>
<path d="M93.0369 81.749L92.9965 80.8009L17.1094 81.4297V81.7989C17.1094 82.8069 18.1786 83.6253 19.5102 83.6253H90.6462C91.9878 83.6253 93.0772 82.777 93.0369 81.749Z" fill="#001C6C"/>
<path d="M86.0766 73.8545H24.1402C22.7078 73.8545 21.2552 74.3236 20.8921 74.9124L17.2203 80.8008C16.7664 81.5293 17.7347 82.1481 19.379 82.1481H90.8378C92.482 82.1481 93.4504 81.5293 92.9965 80.8008L89.3348 74.9124C88.9616 74.3236 87.509 73.8545 86.0766 73.8545Z" fill="#183A9B"/>
<path d="M83.3837 76.1101H26.834C25.5327 76.1101 24.3424 76.3297 24.2012 76.5892L22.8394 79.0942C22.678 79.3836 23.6766 79.6232 25.0687 79.6232H85.159C86.541 79.6232 87.5498 79.3836 87.3884 79.0942L86.0266 76.5892C85.8752 76.3297 84.6849 76.1101 83.3837 76.1101Z" fill="#001C6C"/>
<path d="M82.5358 74.4235H27.6909C26.43 74.4235 25.3607 74.4833 25.3204 74.5532L24.9572 75.2019C24.9169 75.2718 25.9357 75.3317 27.2269 75.3317H82.9898C84.2709 75.3317 85.2998 75.2718 85.2594 75.2019L84.9064 74.5532C84.866 74.4833 83.7968 74.4235 82.5358 74.4235Z" fill="#001C6C"/>
<path d="M69.0391 79.9225H41.1778C40.5322 79.9225 39.9875 80.0223 39.9572 80.1321L39.6849 81.2099C39.6546 81.3297 40.1691 81.4295 40.8247 81.4295H69.382C70.0377 81.4295 70.5522 81.3297 70.5219 81.2099L70.2495 80.1321C70.2294 80.0123 69.6847 79.9225 69.0391 79.9225Z" fill="#001C6C"/>
<defs>
<filter id="filter0_b_1066_58354" x="-20.4453" y="-20.9323" width="154.861" height="154.862" filterUnits="userSpaceOnUse" color-interpolation-filters="sRGB">
<feFlood flood-opacity="0" result="BackgroundImageFix"/>
<feGaussianBlur in="BackgroundImageFix" stdDeviation="10.5"/>
<feComposite in2="SourceAlpha" operator="in" result="effect1_backgroundBlur_1066_58354"/>
<feBlend mode="normal" in="SourceGraphic" in2="effect1_backgroundBlur_1066_58354" result="shape"/>
</filter>
</defs>
</svg>
