<svg width="117" height="116" viewBox="0 0 117 116" fill="none" xmlns="http://www.w3.org/2000/svg">
<g filter="url(#filter0_b_1066_58659)">
<path d="M58.1259 115.885C90.1266 115.885 116.068 89.943 116.068 57.9424C116.068 25.9417 90.1266 0 58.1259 0C26.1253 0 0.183594 25.9417 0.183594 57.9424C0.183594 89.943 26.1253 115.885 58.1259 115.885Z" fill="#AAC0FF" fill-opacity="0.6"/>
<path d="M115.568 57.9424C115.568 89.6669 89.8505 115.385 58.1259 115.385C26.4014 115.385 0.683581 89.6669 0.683581 57.9424C0.683581 26.2178 26.4014 0.499987 58.1259 0.499987C89.8505 0.499987 115.568 26.2178 115.568 57.9424Z" stroke="#AAC0FF" stroke-opacity="0.15"/>
</g>
<path d="M60.5591 60.4646H77.9713L83.5726 66.0659C85.2194 64.3981 86.2369 62.1219 86.2369 59.6045V38.6993C86.2369 36.2657 85.2824 34.063 83.7404 32.4162L76.9119 39.2447L60.5696 38.951H46.3565L39.6958 32.2903C38.0805 33.9476 37.084 36.2133 37.084 38.6993V59.6045C37.084 62.1009 38.091 64.3666 39.7063 66.0344L45.2656 60.4751H60.5591V60.4646Z" fill="#A4D8E6"/>
<path d="M60.5591 60.4646H77.9713L83.5726 66.0659C85.2194 64.3981 86.2369 62.1219 86.2369 59.6045V38.6993C86.2369 36.2657 85.2824 34.063 83.7404 32.4162L76.9119 39.2447L60.5696 38.951H46.3565L39.6958 32.2903C38.0805 33.9476 37.084 36.2133 37.084 38.6993V59.6045C37.084 62.1009 38.091 64.3666 39.7063 66.0344L45.2656 60.4751H60.5591V60.4646Z" fill="#3354B4"/>
<path d="M78.9788 29.71C78.3494 29.5737 77.6886 29.5002 77.0173 29.5002H60.549H46.2836C43.7032 29.5002 41.3641 30.5702 39.6963 32.2904L46.357 38.9511H60.5595L76.9019 39.2448L83.7304 32.4163C82.4822 31.0736 80.8354 30.1086 78.9788 29.71Z" fill="#09277D"/>
<path d="M46.2831 68.8037H77.0168C79.5762 68.8037 81.8943 67.7548 83.5621 66.066L77.9608 60.4647H60.5486H45.2761L39.7168 66.0241C41.3846 67.7338 43.7132 68.8037 46.2831 68.8037Z" fill="#A4D8E6"/>
<path d="M61.6396 38.9722V60.4648H77.9715L83.5728 66.0661C85.2196 64.3983 86.2371 62.1221 86.2371 59.6047V38.6995C86.2371 36.266 85.2826 34.0632 83.7406 32.4164L76.9121 39.2449L61.6396 38.9722Z" fill="#5FB0CF"/>
<path d="M61.6396 38.9722V60.4648H77.9715L83.5728 66.0661C85.2196 64.3983 86.2371 62.1221 86.2371 59.6047V38.6995C86.2371 36.266 85.2826 34.0632 83.7406 32.4164L76.9121 39.2449L61.6396 38.9722Z" fill="#3354B4"/>
<path d="M76.9016 39.2448L83.7301 32.4163C82.4819 31.0736 80.8351 30.1086 78.9785 29.71C78.3491 29.5737 77.6883 29.5002 77.017 29.5002H61.6396V38.9721L76.9016 39.2448Z" fill="#183A9B"/>
<path d="M83.5623 66.066L77.961 60.4647H61.6396V68.8037H77.0275C79.5764 68.8037 81.8945 67.7548 83.5623 66.066Z" fill="#5FB0CF"/>
<path d="M46.2831 68.8037H77.0168C79.5762 68.8037 81.8943 67.7548 83.5621 66.066L77.9608 60.4647H60.5486H45.2761L39.7168 66.0241C41.3846 67.7338 43.7132 68.8037 46.2831 68.8037Z" fill="#E6F2F0"/>
<path d="M46.2831 68.8037H77.0168C79.5762 68.8037 81.8943 67.7548 83.5621 66.066L77.9608 60.4647H60.5486H45.2761L39.7168 66.0241C41.3846 67.7338 43.7132 68.8037 46.2831 68.8037Z" fill="#183A9B"/>
<path d="M79.1459 59.6045C79.1459 60.7793 78.1914 61.7233 77.0271 61.7233H46.2934C45.1186 61.7233 44.1641 60.7688 44.1641 59.6045V38.6993C44.1641 37.5245 45.1186 36.5699 46.2934 36.5699H77.0271C78.2019 36.5699 79.1459 37.5245 79.1459 38.6993V59.6045Z" fill="#436ADA"/>
<path d="M77.0277 36.5699H61.6504V61.7233H77.0172C78.192 61.7233 79.1361 60.7688 79.1361 59.6045V38.6993C79.1466 37.5245 78.192 36.5699 77.0277 36.5699Z" fill="#B9CBFF"/>
<path d="M47.0405 44.6076C47.3867 44.5447 47.7748 44.4922 48.1943 44.4503C48.6139 44.4083 49.0335 44.3978 49.4426 44.3978C49.8726 44.3978 50.3132 44.4293 50.7432 44.5027C51.1838 44.5761 51.5719 44.7125 51.918 44.9223C52.2642 45.1321 52.5474 45.4258 52.7677 45.8034C52.988 46.181 53.0928 46.674 53.0928 47.2824C53.0928 47.8278 52.9984 48.2998 52.8096 48.6775C52.6208 49.0551 52.3691 49.3698 52.0439 49.611C51.7292 49.8523 51.3726 50.0306 50.9635 50.1355C50.5649 50.2404 50.1453 50.2928 49.7153 50.2928C49.6733 50.2928 49.6104 50.2928 49.516 50.2928C49.4216 50.2928 49.3272 50.2928 49.2328 50.2823C49.1279 50.2823 49.0335 50.2718 48.9391 50.2614C48.8447 50.2509 48.7712 50.2404 48.7293 50.2404V53.2508H47.0195V44.6076H47.0405ZM49.5789 45.8663C49.4111 45.8663 49.2538 45.8768 49.1069 45.8873C48.9601 45.8978 48.8342 45.9188 48.7503 45.9293V48.7614C48.7817 48.7719 48.8342 48.7824 48.8971 48.7824C48.9601 48.7928 49.0335 48.7929 49.1069 48.8033C49.1803 48.8033 49.2538 48.8138 49.3272 48.8138C49.4006 48.8138 49.4531 48.8138 49.4845 48.8138C49.7048 48.8138 49.9356 48.7928 50.1558 48.7509C50.3761 48.7089 50.5754 48.6355 50.7432 48.5201C50.9216 48.4047 51.0579 48.2474 51.1628 48.0481C51.2677 47.8488 51.3202 47.5866 51.3202 47.2614C51.3202 46.9887 51.2677 46.7579 51.1733 46.5796C51.0789 46.4013 50.9425 46.2544 50.7852 46.1495C50.6279 46.0446 50.439 45.9712 50.2293 45.9293C50.009 45.8873 49.7992 45.8663 49.5789 45.8663Z" fill="white"/>
<path d="M53.7539 48.8768C53.7539 47.4188 54.0791 46.307 54.7189 45.5203C55.3588 44.7336 56.2713 44.3455 57.4566 44.3455C58.0755 44.3455 58.6209 44.4503 59.093 44.6706C59.5545 44.8909 59.9426 45.1951 60.2468 45.5937C60.551 45.9923 60.7817 46.4748 60.9286 47.0307C61.0754 47.5867 61.1489 48.2055 61.1489 48.8873C61.1489 50.3453 60.8237 51.4572 60.1839 52.2439C59.544 53.0306 58.6314 53.4187 57.4461 53.4187C56.8168 53.4187 56.2713 53.3138 55.7993 53.0935C55.3378 52.8733 54.9497 52.5691 54.6455 52.1705C54.3413 51.7719 54.121 51.2894 53.9637 50.7334C53.8273 50.1775 53.7539 49.5586 53.7539 48.8768ZM55.5476 48.8768C55.5476 49.3174 55.5895 49.7265 55.663 50.0936C55.7364 50.4607 55.8518 50.7754 56.0091 51.0481C56.1664 51.3104 56.3553 51.5201 56.5965 51.667C56.8378 51.8138 57.121 51.8873 57.4566 51.8873C58.065 51.8873 58.537 51.6565 58.8622 51.174C59.1979 50.702 59.3552 49.9363 59.3552 48.8663C59.3552 48.4468 59.3237 48.0482 59.2503 47.6811C59.1769 47.3139 59.072 46.9888 58.9146 46.716C58.7678 46.4433 58.5685 46.2335 58.3272 46.0762C58.086 45.9189 57.7923 45.8454 57.4461 45.8454C56.8378 45.8454 56.3657 46.0867 56.0406 46.5692C55.7154 47.0727 55.5476 47.8384 55.5476 48.8768Z" fill="white"/>
<path d="M66.6955 51.1713C66.6955 50.9091 66.6011 50.6888 66.4018 50.521C66.2025 50.3532 65.9613 50.2063 65.6676 50.0699C65.3739 49.9336 65.0487 49.7972 64.7025 49.6504C64.3564 49.5035 64.0417 49.3252 63.7375 49.1154C63.4438 48.9056 63.2026 48.6434 63.0033 48.3287C62.804 48.014 62.7096 47.605 62.7096 47.1224C62.7096 46.7029 62.783 46.3357 62.9194 46.0211C63.0557 45.7064 63.2655 45.4546 63.5277 45.2449C63.79 45.0351 64.0942 44.8882 64.4613 44.7833C64.8284 44.6784 65.2165 44.6365 65.6571 44.6365C66.1606 44.6365 66.6431 44.6784 67.0941 44.7623C67.5451 44.8463 67.9123 44.9826 68.206 45.14L67.671 46.577C67.4927 46.4616 67.22 46.3567 66.8528 46.2623C66.4857 46.1679 66.0871 46.1155 65.6676 46.1155C65.269 46.1155 64.9648 46.1889 64.755 46.3567C64.5452 46.5141 64.4403 46.7238 64.4403 46.9966C64.4403 47.2483 64.5347 47.4476 64.734 47.6154C64.9333 47.7833 65.1746 47.9406 65.4683 48.077C65.762 48.2238 66.0871 48.3707 66.4228 48.5175C66.7689 48.6644 67.0836 48.8532 67.3878 49.063C67.6815 49.2728 67.9332 49.535 68.1221 49.8497C68.3214 50.1643 68.4158 50.5524 68.4158 51.014C68.4158 51.4755 68.3423 51.8846 68.185 52.2203C68.0276 52.5559 67.8179 52.8391 67.5347 53.0594C67.2619 53.2797 66.9158 53.4475 66.5277 53.5524C66.1291 53.6573 65.699 53.7202 65.227 53.7202C64.6081 53.7202 64.0522 53.6573 63.5802 53.5419C63.1082 53.4265 62.762 53.3111 62.5312 53.1958L63.0767 51.7377C63.1711 51.7902 63.2865 51.8426 63.4333 51.9056C63.5802 51.958 63.7375 52.021 63.9263 52.0629C64.1046 52.1154 64.3039 52.1573 64.5032 52.1888C64.7025 52.2202 64.9123 52.2412 65.1326 52.2412C65.6361 52.2412 66.0242 52.1573 66.2969 51.9895C66.5591 51.7797 66.6955 51.5175 66.6955 51.1713Z" fill="#3354B4"/>
<path d="M75.7265 46.304H73.1776V53.5102H71.4783V46.304H68.9189V44.7831H75.7265V46.304Z" fill="#3354B4"/>
<path d="M37.4086 90.999C37.4086 90.999 37.4086 89.1739 40.912 88.0725C44.4154 86.9816 49.1146 82.3139 49.1146 82.3139C49.1146 82.3139 50.8559 78.5167 53.9817 76.4189C55.3768 75.4748 55.7859 73.9854 54.5691 72.9259C53.3523 71.8665 50.751 74.1217 47.1531 77.3419C47.1531 77.3419 46.5448 77.7301 47.8245 75.4224C49.1042 73.1043 54.6635 62.1324 54.6635 62.1324C54.6635 62.1324 56.2998 59.594 54.3173 58.5975C52.5132 57.6745 51.9258 59.6465 51.4013 60.6849C50.8664 61.7234 46.786 69.7057 46.786 69.7057C46.786 69.7057 46.2825 69.9365 46.3035 69.454L48.758 64.6394C48.758 64.6394 49.6286 63.1079 48.3489 62.4366C46.8385 61.6394 46.293 62.6045 45.9574 63.2653C45.6217 63.9261 43.4924 68.1114 43.4924 68.1114C43.4924 68.1114 42.9364 68.489 42.9574 67.8386L45.1182 63.5905C45.1182 63.5905 45.7056 62.5415 44.3525 61.8492C42.9994 61.1569 42.5064 62.2164 42.5064 62.2164L40.2722 66.6114C40.2722 66.6114 39.9155 66.9051 39.8211 66.3806L41.3316 63.4121C41.3316 63.4121 41.7197 62.4471 40.398 61.8073C39.0659 61.1779 38.5624 62.2164 38.5624 62.2164L29.8143 79.3559C29.8143 79.3559 28.4717 81.7475 29.3318 83.1006C30.1919 84.4537 28.4717 86.4572 28.4717 86.4572L37.4086 90.999Z" fill="#FFD1A9"/>
<path d="M28.4284 83.3442L26.8203 86.0125L37.9696 92.7319L39.5777 90.0637L28.4284 83.3442Z" fill="#B9CBFF"/>
<path d="M26.0525 85.1053L23.3398 89.6063L36.4207 97.49L39.1334 92.9889L26.0525 85.1053Z" fill="#183A9B"/>
<path d="M32.5833 89.0579L29.8711 93.559L36.4115 97.5L39.1237 92.999L32.5833 89.0579Z" fill="#09277D"/>
<path d="M34.0089 86.7013L32.4014 89.3699L37.9722 92.7256L39.5797 90.057L34.0089 86.7013Z" fill="#9CB5FF"/>
<path d="M57.0869 59.2164C56.9716 59.164 56.8772 59.0696 56.8037 58.9437C56.1009 57.6745 54.7164 56.9612 53.2688 57.15C52.9017 57.192 52.5661 56.9402 52.5241 56.5731C52.4821 56.206 52.7339 55.8703 53.101 55.8284C55.094 55.5766 57.003 56.5416 57.968 58.3038C58.1464 58.629 58.031 59.0276 57.7058 59.2059C57.5065 59.3213 57.2758 59.3108 57.0869 59.2164Z" fill="#09277D"/>
<path d="M59.1946 58.0207C59.0792 57.9578 58.9848 57.8739 58.9114 57.748C57.7366 55.6187 55.4184 54.4334 52.9954 54.7481C52.6283 54.79 52.2926 54.5383 52.2507 54.1712C52.2087 53.804 52.4604 53.4684 52.8276 53.4264C55.7856 53.0488 58.6282 54.4963 60.0757 57.1082C60.254 57.4333 60.1386 57.8319 59.8134 58.0102C59.6142 58.1256 59.3834 58.1151 59.1946 58.0207Z" fill="#09277D"/>
<path d="M61.2927 56.8248C61.1773 56.7618 61.0829 56.6779 61.0095 56.552C59.3627 53.5626 56.111 51.9053 52.7229 52.3353C52.3558 52.3773 52.0202 52.1255 51.9782 51.7584C51.9362 51.3913 52.188 51.0556 52.5551 51.0137C56.4886 50.5102 60.2648 52.4297 62.1738 55.9017C62.3521 56.2269 62.2367 56.6359 61.9116 56.8038C61.7123 56.9296 61.4815 56.9192 61.2927 56.8248Z" fill="#09277D"/>
<path d="M75.097 77.6042C75.097 77.6147 75.097 77.6147 75.097 77.6042L75.1075 75.9469C75.1075 75.9364 75.1075 75.9364 75.1075 75.9259L75.1389 72.884C75.1389 72.884 75.1389 72.884 75.1389 72.8945L75.1494 71.1638L75.1704 68.2477C75.2019 65.7198 79.1249 63.6954 83.9395 63.7373C88.7646 63.7793 92.6561 65.8667 92.6351 68.3946L92.6141 71.447V71.4575L92.5932 73.7651C92.5932 73.7651 92.5932 73.7651 92.5932 73.7756L92.5722 75.37C92.5722 75.37 92.5722 75.37 92.5722 75.3595L92.5617 77.7511L92.5407 80.8034C92.5092 83.3419 88.5967 84.7264 83.7612 84.695C78.9466 84.653 75.0445 83.195 75.0655 80.6671L75.097 77.6042Z" fill="#FFA31A"/>
<path d="M92.6347 68.3841C92.6137 70.9225 88.6907 72.9469 83.8656 72.8945C79.0406 72.863 75.149 70.7757 75.17 68.2372C75.2015 65.7093 79.1245 63.6849 83.9391 63.7268C88.7746 63.7688 92.6662 65.8562 92.6347 68.3841Z" fill="#FFD35C"/>
<path d="M90.8208 68.3735C90.8103 70.3874 87.695 71.9818 83.8769 71.9504C80.0587 71.9084 76.9749 70.2616 76.9854 68.2581C77.0064 66.2442 80.1217 64.6603 83.9398 64.6917C87.7579 64.7127 90.8418 66.37 90.8208 68.3735Z" fill="#FFA31A"/>
<path d="M88.723 68.3526C88.7125 69.7477 86.5412 70.8596 83.8874 70.8386C81.2336 70.8176 79.0833 69.6743 79.0938 68.2687C79.1043 66.8737 81.2756 65.7618 83.9294 65.7828C86.5936 65.8142 88.7335 66.9576 88.723 68.3526Z" fill="#FFD35C"/>
<path d="M83.467 69.9783C83.1838 69.9678 82.9425 69.9469 82.7432 69.9154C82.544 69.8839 82.3866 69.842 82.2712 69.8105L82.5649 69.3175C82.6488 69.349 82.7642 69.3909 82.9216 69.4119C83.0789 69.4434 83.2467 69.4539 83.4565 69.4748L83.467 68.4679C83.3202 68.4259 83.1628 68.3735 83.0265 68.3105C82.8901 68.2476 82.7537 68.1847 82.6384 68.1217C82.523 68.0378 82.4286 67.9644 82.3656 67.849C82.2817 67.7441 82.2607 67.6287 82.2607 67.4924C82.2607 67.2511 82.3761 67.0623 82.5964 66.9259C82.8167 66.7896 83.1104 66.6952 83.488 66.6532V66.2336L84.3166 66.2441V66.6532C84.5159 66.6637 84.7048 66.6847 84.8516 66.7057C85.0089 66.7266 85.1663 66.7581 85.2922 66.7896L84.9985 67.2616C84.9145 67.2406 84.8201 67.2196 84.6943 67.1987C84.5789 67.1777 84.4425 67.1672 84.2957 67.1462L84.2852 68.0588C84.4425 68.1007 84.5894 68.1637 84.7362 68.2161C84.8831 68.2686 85.0194 68.3315 85.1348 68.4259C85.2502 68.4993 85.3446 68.5833 85.418 68.6777C85.5019 68.7825 85.5334 68.8874 85.5334 69.0238C85.5229 69.286 85.418 69.4958 85.1873 69.6427C84.967 69.7895 84.6523 69.8944 84.2642 69.9364V70.3664H83.4355L83.467 69.9783ZM83.8551 67.1462C83.6453 67.1672 83.4985 67.1987 83.4146 67.2616C83.3411 67.3245 83.2992 67.4084 83.2992 67.4714C83.2992 67.5658 83.3516 67.6602 83.4565 67.7231C83.5614 67.7861 83.6978 67.849 83.8446 67.9119L83.8551 67.1462ZM83.939 69.4748C84.1278 69.4539 84.2642 69.4224 84.3586 69.3385C84.453 69.2651 84.495 69.1811 84.495 69.0762C84.495 68.9714 84.453 68.8874 84.3481 68.814C84.2432 68.7511 84.1069 68.6777 83.9495 68.6252L83.939 69.4748Z" fill="#FFA31A"/>
<path d="M83.7926 82.272C78.9675 82.23 75.076 80.1427 75.097 77.6042L75.0655 80.6566C75.0445 83.1846 78.9466 84.6426 83.7612 84.6845C88.5862 84.7265 92.5092 83.3419 92.5407 80.793L92.5617 77.7511C92.5407 80.2895 88.6177 82.3139 83.7926 82.272Z" fill="#FFA31A"/>
<path d="M83.8134 79.8594C78.9883 79.8174 75.0968 77.7301 75.1177 75.2021L75.0968 77.6042C75.0758 80.1426 78.9673 82.2195 83.7924 82.2719C88.6175 82.3139 92.5405 80.2895 92.5615 77.7511V78.3909L92.5824 75.349C92.5615 77.8874 88.6385 79.9014 83.8134 79.8594Z" fill="#E66409"/>
<path d="M83.8348 77.5412C79.0202 77.4992 75.1182 75.4118 75.1496 72.8839L75.1182 75.9258V75.9363L75.1287 75.202C75.1077 77.73 78.9992 79.8173 83.8243 79.8593C88.6494 79.9013 92.5724 77.8873 92.5934 75.3489L92.5829 76.0727L92.6143 73.0203C92.5724 75.5692 88.6599 77.5831 83.8348 77.5412Z" fill="#FFA31A"/>
<path d="M83.8448 75.2127C79.0197 75.1812 75.1387 73.0833 75.1597 70.5554L75.1387 72.884C75.1282 75.412 79.0092 77.4993 83.8238 77.5413C88.6489 77.5833 92.5719 75.5693 92.5929 73.0204V73.7547C92.5929 73.7547 92.5929 73.7547 92.5929 73.7442L92.6139 70.6918C92.6034 73.2407 88.6699 75.2651 83.8448 75.2127Z" fill="#FF700A"/>
<path d="M83.8664 72.8946C79.0413 72.8631 75.1497 70.7757 75.1707 68.2373L75.1602 70.5554C75.1393 73.0939 79.0308 75.1812 83.8454 75.2127C88.6705 75.2547 92.5935 73.2407 92.6145 70.6918V71.4365V71.4261L92.6354 68.3737C92.6249 70.9226 88.6915 72.947 83.8664 72.8946Z" fill="#FFA31A"/>
<path d="M68.2579 72.4645C63.5062 72.412 59.6462 74.5099 59.5098 77.1427C59.5098 77.1847 59.4888 77.2266 59.4888 77.2581L59.4679 79.7231C59.4469 82.4188 63.3384 84.6426 68.1635 84.674C72.9886 84.716 76.9116 82.5762 76.9326 79.8804L76.9221 80.6671V80.6566L76.9431 77.4049C76.9745 74.7302 73.083 72.5064 68.2579 72.4645Z" fill="url(#paint0_linear_1066_58659)"/>
<path d="M76.9531 77.4154C76.9321 80.1111 72.9986 82.2614 68.184 82.2195C63.3694 82.1775 59.4674 79.9643 59.4884 77.2581C59.5093 74.5728 63.4428 72.412 68.2574 72.4644C73.0825 72.5064 76.974 74.7301 76.9531 77.4154Z" fill="#FFD35C"/>
<path d="M75.1392 77.405C75.1182 79.5448 72.0134 81.2336 68.1953 81.2021C64.3772 81.1601 61.2828 79.4189 61.3038 77.2791C61.3248 75.1393 64.4296 73.44 68.2582 73.482C72.0763 73.5134 75.1602 75.2756 75.1392 77.405Z" fill="#FFA31A"/>
<path d="M73.0413 77.3945C73.0308 78.884 70.8596 80.0588 68.2058 80.0378C65.552 80.0168 63.4017 78.8001 63.4121 77.3001C63.4226 75.8211 65.5939 74.6358 68.2477 74.6568C70.9015 74.6882 73.0518 75.905 73.0413 77.3945Z" fill="#FFD35C"/>
<path d="M67.7749 79.1041C67.5022 79.0936 67.2609 79.0726 67.0616 79.0412C66.8623 79.0097 66.705 78.9677 66.5896 78.9363L66.8833 78.4013C66.9672 78.4433 67.0826 78.4852 67.2399 78.5062C67.3973 78.5272 67.5756 78.5587 67.7749 78.5692L67.7854 77.4992C67.6385 77.4468 67.4917 77.3944 67.3448 77.3314C67.198 77.2685 67.0721 77.1951 66.9567 77.1216C66.8413 77.0377 66.7574 76.9433 66.684 76.8384C66.6001 76.744 66.5791 76.6181 66.5791 76.4608C66.5791 76.2091 66.684 76.0098 66.9043 75.8629C67.1245 75.7161 67.4287 75.6217 67.7959 75.5797V75.1287L68.6245 75.1391V75.5692C68.8238 75.5797 69.0126 75.6007 69.1595 75.6217C69.3168 75.6426 69.4637 75.6741 69.6 75.7161L69.3063 76.2196C69.2224 76.1881 69.128 76.1671 69.0021 76.1461C68.8763 76.1251 68.7504 76.1042 68.6035 76.0937L68.5931 77.0692C68.7504 77.1111 68.8972 77.1741 69.0441 77.237C69.1805 77.2895 69.3168 77.3629 69.4427 77.4468C69.5581 77.5307 69.6525 77.6251 69.7364 77.73C69.8098 77.8349 69.8518 77.9503 69.8518 78.0971C69.8518 78.3699 69.7259 78.5901 69.5056 78.7475C69.2853 78.9048 68.9707 79.0097 68.5826 79.0622V79.5237L67.7539 79.5132V79.1041H67.7749ZM68.163 76.1042C67.9532 76.1147 67.8064 76.1566 67.7329 76.23C67.649 76.293 67.6175 76.3664 67.6175 76.4503C67.6175 76.5447 67.67 76.6391 67.7749 76.7125C67.8798 76.7755 68.0057 76.8489 68.163 76.9118V76.1042ZM68.2469 78.5796C68.4252 78.5482 68.5721 78.5167 68.6665 78.4433C68.7609 78.3699 68.8028 78.2755 68.8133 78.1706C68.8133 78.0552 68.7714 77.9608 68.656 77.8978C68.5511 77.8244 68.4252 77.751 68.2574 77.6985L68.2469 78.5796Z" fill="#FFA31A"/>
<path d="M68.1845 82.2195C63.3699 82.1775 59.4679 79.9643 59.4888 77.2581L59.4679 79.723C59.4469 82.4188 63.3384 84.6425 68.1635 84.674C72.9886 84.716 76.9116 82.5761 76.9326 79.8804L76.9221 80.6671V80.6566L76.9431 77.4049C76.9326 80.1216 72.9991 82.2719 68.1845 82.2195Z" fill="#FFA31A"/>
<defs>
<filter id="filter0_b_1066_58659" x="-20.8164" y="-21" width="157.885" height="157.885" filterUnits="userSpaceOnUse" color-interpolation-filters="sRGB">
<feFlood flood-opacity="0" result="BackgroundImageFix"/>
<feGaussianBlur in="BackgroundImageFix" stdDeviation="10.5"/>
<feComposite in2="SourceAlpha" operator="in" result="effect1_backgroundBlur_1066_58659"/>
<feBlend mode="normal" in="SourceGraphic" in2="effect1_backgroundBlur_1066_58659" result="shape"/>
</filter>
<linearGradient id="paint0_linear_1066_58659" x1="59.4694" y1="78.5775" x2="76.9532" y2="78.5775" gradientUnits="userSpaceOnUse">
<stop stop-color="#DD3F18"/>
<stop offset="0.4157" stop-color="#E74A1B"/>
<stop offset="1" stop-color="#FD6120"/>
</linearGradient>
</defs>
</svg>
