<svg width="114" height="113" viewBox="0 0 114 113" fill="none" xmlns="http://www.w3.org/2000/svg">
<g filter="url(#filter0_b_1066_58265)">
<path d="M56.7912 112.929C87.957 112.929 113.222 87.6644 113.222 56.4986C113.222 25.3327 87.957 0.067749 56.7912 0.067749C25.6253 0.067749 0.360352 25.3327 0.360352 56.4986C0.360352 87.6644 25.6253 112.929 56.7912 112.929Z" fill="#AAC0FF" fill-opacity="0.6"/>
<path d="M112.722 56.4986C112.722 87.3883 87.6809 112.429 56.7912 112.429C25.9014 112.429 0.860339 87.3883 0.860339 56.4986C0.860339 25.6088 25.9014 0.567736 56.7912 0.567736C87.6809 0.567736 112.722 25.6088 112.722 56.4986Z" stroke="#AAC0FF" stroke-opacity="0.15"/>
</g>
<path d="M73.0953 38.2083L77.4647 42.4929L77.4477 29.7481C77.4477 29.1444 76.9462 28.6581 76.3341 28.6581L36.4655 28.7335C35.8534 28.7335 35.3604 29.2283 35.3604 29.832L35.4624 83.6282C35.4624 84.2319 35.9639 84.7183 36.5675 84.7183L44.9747 84.7015L39.5767 79.394L73.0953 38.2083Z" fill="#FF693B"/>
<path d="M77.5498 83.5528L77.4648 40.7237L73.0954 36.4391L39.5684 79.4024L44.9663 84.7099L76.4362 84.6512C77.0568 84.6428 77.5498 84.1565 77.5498 83.5528Z" fill="#B22A00"/>
<path d="M67.7245 28.6614L45.0869 28.7063L45.101 35.5566L67.7385 35.5118L67.7245 28.6614Z" fill="#1A45BF"/>
<path d="M40.8513 35.5587C40.1033 35.5587 39.4912 36.1624 39.4912 36.9003V38.2083H56.3482V35.5587H40.8513Z" fill="#F4D34A"/>
<path d="M73.0949 36.9003C73.0949 36.1624 72.5508 35.5587 71.8028 35.5587H56.3398V38.2083H73.0949V36.9003Z" fill="#F4A82D"/>
<path d="M69.2359 37.5214C69.5927 37.5214 69.882 37.236 69.882 36.8839C69.882 36.5318 69.5927 36.2463 69.2359 36.2463C68.8791 36.2463 68.5898 36.5318 68.5898 36.8839C68.5898 37.236 68.8791 37.5214 69.2359 37.5214Z" fill="white"/>
<path d="M67.3062 37.5214C67.663 37.5214 67.9523 37.236 67.9523 36.8839C67.9523 36.5318 67.663 36.2463 67.3062 36.2463C66.9494 36.2463 66.6602 36.5318 66.6602 36.8839C66.6602 37.236 66.9494 37.5214 67.3062 37.5214Z" fill="white"/>
<path d="M71.8116 36.8839C71.8116 37.2362 71.5226 37.5214 71.1656 37.5214C70.8085 37.5214 70.5195 37.2362 70.5195 36.8839C70.5195 36.5315 70.8085 36.2463 71.1656 36.2463C71.5226 36.2463 71.8116 36.5315 71.8116 36.8839Z" fill="white"/>
<path d="M40.9108 75.7635V73.2145H56.3568V60.453H40.9108V57.904H56.3568V55.3551H40.9108V52.8061H56.3568V50.2572H40.9108V41.3442H56.3568V38.2251H39.4912L39.5762 79.4108L56.3652 79.3773V75.7718H40.9108V75.7635ZM40.9108 68.1082V65.5593V63.0103H51.0438V65.5593V68.1082V70.6572H40.9108V68.1082Z" fill="#FAFEFF"/>
<path d="M73.1373 56.0761L73.1203 47.1464L73.1033 38.2167H56.3652V41.3358H71.8197V50.2487H56.3652V52.7977H71.8197V55.3466H56.3652V57.8956H71.8197V60.4445H56.3652V73.2061H71.8197V75.755H56.3652V79.3604L73.1883 79.3269L73.1373 56.0761ZM71.8112 65.5592V68.1082V70.6571H61.6017V68.1082V65.5592V63.0102H71.8112V65.5592Z" fill="#C9C9C9"/>
<path d="M56.3571 41.3273H40.9111V50.2402H56.3571V41.3273Z" fill="#C9C9C9"/>
<path d="M71.8108 41.3273H56.3564V50.2402H71.8108V41.3273Z" fill="#979797"/>
<path d="M56.3571 52.7977H40.9111V55.3467H56.3571V52.7977Z" fill="#C9C9C9"/>
<path d="M71.8108 52.7977H56.3564V55.3467H71.8108V52.7977Z" fill="#979797"/>
<path d="M71.8108 57.8955H56.3564V60.4444H71.8108V57.8955Z" fill="#979797"/>
<path d="M56.3571 57.8955H40.9111V60.4444H56.3571V57.8955Z" fill="#C9C9C9"/>
<path d="M51.0441 68.1082V65.5593V63.002H40.9111V65.5593V68.1082V70.6572H51.0441V68.1082Z" fill="#C9C9C9"/>
<path d="M61.6016 65.5593V68.1082V70.6572H71.811V68.1082V65.5593V63.002H61.6016V65.5593Z" fill="#979797"/>
<path d="M56.3571 73.2144H40.9111V75.7633H56.3571V73.2144Z" fill="#C9C9C9"/>
<path d="M71.8108 73.2144H56.3564V75.7633H71.8108V73.2144Z" fill="#979797"/>
<path d="M56.144 84.9949L56.161 89.7742L54.4184 86.6802L54.4014 79.3687L56.4331 79.3604L56.4416 84.9865L56.144 84.9949Z" fill="#F4D34A"/>
<path d="M56.7651 89.7658L56.7481 84.9949L56.4421 84.9865L56.4336 79.3604H58.4653L58.4908 86.6635L56.7651 89.7658Z" fill="#F4A82D"/>
<path d="M56.7563 85.7916L56.7648 89.7659L56.4588 90.0678L56.1698 89.7743L56.1613 85.7916C55.7957 85.6658 55.5322 85.3304 55.5322 84.928C55.5322 84.4249 55.9488 84.0224 56.4503 84.014C56.9603 84.014 57.3769 84.4249 57.3769 84.9196C57.3769 85.322 57.1134 85.6658 56.7563 85.7916Z" fill="black"/>
<path d="M56.3657 43.784L56.3232 24.9603L60.3781 24.9519V26.5534H60.3866L60.3951 27.9453L60.4206 43.7672L56.3657 43.784Z" fill="#001C6C"/>
<path d="M52.3023 43.784L52.2683 27.9537L52.2598 26.5702L52.2683 24.9771L56.3231 24.9603L56.3656 43.784H52.3023Z" fill="#183A9B"/>
<path d="M56.3672 47.2526L53.0264 47.2593L53.091 79.3727L56.4318 79.366L56.3672 47.2526Z" fill="#183A9B"/>
<path d="M59.6148 47.2527L56.376 47.2593L56.4417 79.3643L59.6805 79.3577L59.6148 47.2527Z" fill="#001C6C"/>
<path d="M57.4195 24.9605L57.445 40.8914C57.445 41.4867 56.9605 41.973 56.3484 41.973C55.7448 41.973 55.2603 41.4951 55.2518 40.8998L55.2178 24.9605L52.251 24.9689C52.2425 23.3758 53.5517 22.0761 55.1668 22.0761L56.3059 22.0677H57.4365C59.0516 22.0677 60.3608 23.359 60.3693 24.9437L57.4195 24.9605Z" fill="white"/>
<path d="M59.6536 65.0446L56.4062 65.0529L56.4098 66.4454L59.6571 66.4371L59.6536 65.0446Z" fill="#C9C9C9"/>
<path d="M56.4062 65.0448L53.0654 65.0526L53.0687 66.4452L56.4095 66.4373L56.4062 65.0448Z" fill="white"/>
<path d="M60.4286 47.247L56.3737 47.2554L56.3652 43.7841L60.4201 43.7673L60.4286 47.247Z" fill="#C9C9C9"/>
<path d="M56.3707 43.7802L52.2988 43.7888L52.3062 47.2601L56.3781 47.2515L56.3707 43.7802Z" fill="white"/>
<defs>
<filter id="filter0_b_1066_58265" x="-20.6396" y="-20.9323" width="154.861" height="154.862" filterUnits="userSpaceOnUse" color-interpolation-filters="sRGB">
<feFlood flood-opacity="0" result="BackgroundImageFix"/>
<feGaussianBlur in="BackgroundImageFix" stdDeviation="10.5"/>
<feComposite in2="SourceAlpha" operator="in" result="effect1_backgroundBlur_1066_58265"/>
<feBlend mode="normal" in="SourceGraphic" in2="effect1_backgroundBlur_1066_58265" result="shape"/>
</filter>
</defs>
</svg>
