<svg width="40" height="41" viewBox="0 0 40 41" fill="none" xmlns="http://www.w3.org/2000/svg">
<path d="M28.3337 37.4668H11.667C10.9837 37.4668 10.417 36.9001 10.417 36.2168C10.417 35.5335 10.9837 34.9668 11.667 34.9668H28.3337C29.017 34.9668 29.5837 35.5335 29.5837 36.2168C29.5837 36.9001 29.017 37.4668 28.3337 37.4668Z" fill="url(#paint0_linear_1136_19936)"/>
<path d="M28.3337 37.4668H11.667C10.9837 37.4668 10.417 36.9001 10.417 36.2168C10.417 35.5335 10.9837 34.9668 11.667 34.9668H28.3337C29.017 34.9668 29.5837 35.5335 29.5837 36.2168C29.5837 36.9001 29.017 37.4668 28.3337 37.4668Z" fill="white"/>
<path d="M28.3337 37.4668H11.667C10.9837 37.4668 10.417 36.9001 10.417 36.2168C10.417 35.5335 10.9837 34.9668 11.667 34.9668H28.3337C29.017 34.9668 29.5837 35.5335 29.5837 36.2168C29.5837 36.9001 29.017 37.4668 28.3337 37.4668Z" fill="white"/>
<path d="M33.917 9.99995L27.2504 14.7666C26.367 15.4 25.1004 15.0166 24.717 14L21.567 5.59995C21.0337 4.14995 18.9837 4.14995 18.4504 5.59995L15.2837 13.9833C14.9004 15.0166 13.6504 15.4 12.767 14.75L6.10037 9.98328C4.76703 9.04995 3.00037 10.3666 3.55037 11.9166L10.4837 31.3333C10.717 32 11.3504 32.4333 12.0504 32.4333H27.9337C28.6337 32.4333 29.267 31.9833 29.5004 31.3333L36.4337 11.9166C37.0004 10.3666 35.2337 9.04995 33.917 9.99995ZM24.167 25.3833H15.8337C15.1504 25.3833 14.5837 24.8166 14.5837 24.1333C14.5837 23.45 15.1504 22.8833 15.8337 22.8833H24.167C24.8504 22.8833 25.417 23.45 25.417 24.1333C25.417 24.8166 24.8504 25.3833 24.167 25.3833Z" fill="url(#paint1_linear_1136_19936)"/>
<path d="M33.917 9.99995L27.2504 14.7666C26.367 15.4 25.1004 15.0166 24.717 14L21.567 5.59995C21.0337 4.14995 18.9837 4.14995 18.4504 5.59995L15.2837 13.9833C14.9004 15.0166 13.6504 15.4 12.767 14.75L6.10037 9.98328C4.76703 9.04995 3.00037 10.3666 3.55037 11.9166L10.4837 31.3333C10.717 32 11.3504 32.4333 12.0504 32.4333H27.9337C28.6337 32.4333 29.267 31.9833 29.5004 31.3333L36.4337 11.9166C37.0004 10.3666 35.2337 9.04995 33.917 9.99995ZM24.167 25.3833H15.8337C15.1504 25.3833 14.5837 24.8166 14.5837 24.1333C14.5837 23.45 15.1504 22.8833 15.8337 22.8833H24.167C24.8504 22.8833 25.417 23.45 25.417 24.1333C25.417 24.8166 24.8504 25.3833 24.167 25.3833Z" fill="white"/>
<path d="M33.917 9.99995L27.2504 14.7666C26.367 15.4 25.1004 15.0166 24.717 14L21.567 5.59995C21.0337 4.14995 18.9837 4.14995 18.4504 5.59995L15.2837 13.9833C14.9004 15.0166 13.6504 15.4 12.767 14.75L6.10037 9.98328C4.76703 9.04995 3.00037 10.3666 3.55037 11.9166L10.4837 31.3333C10.717 32 11.3504 32.4333 12.0504 32.4333H27.9337C28.6337 32.4333 29.267 31.9833 29.5004 31.3333L36.4337 11.9166C37.0004 10.3666 35.2337 9.04995 33.917 9.99995ZM24.167 25.3833H15.8337C15.1504 25.3833 14.5837 24.8166 14.5837 24.1333C14.5837 23.45 15.1504 22.8833 15.8337 22.8833H24.167C24.8504 22.8833 25.417 23.45 25.417 24.1333C25.417 24.8166 24.8504 25.3833 24.167 25.3833Z" fill="white"/>
<defs>
<linearGradient id="paint0_linear_1136_19936" x1="10.417" y1="36.2168" x2="37.8203" y2="36.5307" gradientUnits="userSpaceOnUse">
<stop stop-color="#FF9D00"/>
<stop offset="1" stop-color="#E66229"/>
</linearGradient>
<linearGradient id="paint1_linear_1136_19936" x1="3.44727" y1="18.4729" x2="50.7709" y2="18.5567" gradientUnits="userSpaceOnUse">
<stop stop-color="#FF9D00"/>
<stop offset="1" stop-color="#E66229"/>
</linearGradient>
</defs>
</svg>
