<?xml version="1.0" encoding="UTF-8"?>
<svg version="1.1" xmlns="http://www.w3.org/2000/svg" width="24" height="24">
<path d="M0 0 C0.66 0 1.32 0 2 0 C2.38218767 1.65614657 2.71395102 3.32457024 3 5 C2.67 5.33 2.34 5.66 2 6 C2 7.99750448 2.00355875 9.99555281 2.0625 11.9921875 C2 14 2 14 1 17 C-2.64019953 19.76655165 -6.63978236 19.0692098 -11 19 C-11.99 19.33 -12.98 19.66 -14 20 C-14.185625 19.13375 -14.185625 19.13375 -14.375 18.25 C-14.88336695 15.97758047 -14.88336695 15.97758047 -16.1875 14.1875 C-17.48744561 10.68764643 -16.32938345 8.38388516 -15 5 C-13.375 2.5625 -13.375 2.5625 -11 1 C-8.24267692 0.66627637 -5.79959491 0.81938097 -3 1 C-2.34 1 -1.68 1 -1 1 C-0.67 0.67 -0.34 0.34 0 0 Z " fill="#E2E6A9" transform="translate(19,2)"/>
<path d="M0 0 C3.96 0 7.92 0 12 0 C12 0.33 12 0.66 12 1 C8.37 1 4.74 1 1 1 C1 1.66 1 2.32 1 3 C4.63 3 8.26 3 12 3 C12 5.64 12 8.28 12 11 C10.18757948 11.02687279 8.37504767 11.04633715 6.5625 11.0625 C5.55316406 11.07410156 4.54382813 11.08570313 3.50390625 11.09765625 C1 11 1 11 0 10 C-0.14257189 6.66381769 -0.04228157 3.34024394 0 0 Z " fill="#B6987B" transform="translate(6,7)"/>
<path d="M0 0 C0.66 0 1.32 0 2 0 C2.33 1.65 2.66 3.3 3 5 C2.34 5 1.68 5 1 5 C1 5.66 1 6.32 1 7 C-1.64458379 8.32229189 -3.67761301 8.09677194 -6.625 8.0625 C-7.62789062 8.05347656 -8.63078125 8.04445313 -9.6640625 8.03515625 C-10.43492188 8.02355469 -11.20578125 8.01195312 -12 8 C-12 7.34 -12 6.68 -12 6 C-12.66 5.67 -13.32 5.34 -14 5 C-14 4.34 -14 3.68 -14 3 C-10.934781 0.95652067 -10.37142353 0.75946612 -6.9375 0.875 C-4.95889157 0.93781297 -2.97960521 1 -1 1 C-0.67 0.67 -0.34 0.34 0 0 Z " fill="#E6DC9F" transform="translate(19,2)"/>
<path d="M0 0 C0.33 0.66 0.66 1.32 1 2 C3.02463255 2.65213292 3.02463255 2.65213292 5 3 C5 3.66 5 4.32 5 5 C6.32 5 7.64 5 9 5 C9.33 4.34 9.66 3.68 10 3 C10 3.99 10 4.98 10 6 C6.7 6 3.4 6 0 6 C0 4.02 0 2.04 0 0 Z " fill="#A5836B" transform="translate(7,12)"/>
<path d="M0 0 C2.64 0 5.28 0 8 0 C8 0.99 8 1.98 8 3 C7.05125 2.938125 6.1025 2.87625 5.125 2.8125 C3.578125 2.9053125 3.578125 2.9053125 2 3 C1.34 3.99 0.68 4.98 0 6 C0 4.02 0 2.04 0 0 Z " fill="#BBA388" transform="translate(6,11)"/>
<path d="M0 0 C0 1.98 0 3.96 0 6 C-0.99 6.33 -1.98 6.66 -3 7 C-3 5.02 -3 3.04 -3 1 C-1 0 -1 0 0 0 Z " fill="#E6EDB9" transform="translate(6,7)"/>
</svg>
