<svg width="76" height="76" viewBox="0 0 76 76" fill="none" xmlns="http://www.w3.org/2000/svg">
<path d="M63.4882 55.1981C60.0868 60.2392 55.2669 64.1583 49.638 66.46C44.0091 68.7617 37.8241 69.3426 31.8651 68.1292C25.9062 66.9158 20.4408 63.9625 16.1602 59.643C11.8797 55.3234 8.97611 49.8315 7.81677 43.8618C6.65742 37.892 7.29435 31.7125 9.647 26.1048C11.9997 20.497 15.9624 15.7128 21.034 12.3572C26.1057 9.00159 32.0585 7.22525 38.1397 7.25282C44.221 7.28039 50.1574 9.11064 55.1985 12.5121L53.8764 14.4714C49.2229 11.3314 43.7428 9.64184 38.129 9.61639C32.5153 9.59094 27.0201 11.2307 22.3383 14.3284C17.6565 17.4261 13.9984 21.8425 11.8266 27.0192C9.65475 32.1959 9.06679 37.9003 10.137 43.4112C11.2072 48.922 13.8876 53.9917 17.8391 57.9793C21.7906 61.9668 26.8358 64.693 32.3368 65.8131C37.8377 66.9333 43.5472 66.3971 48.7434 64.2723C53.9396 62.1475 58.389 58.5296 61.529 53.8761L63.4882 55.1981Z" fill="#FF8F5A" fill-opacity="0.5"/>
<path d="M52.5027 17.3126C48.5055 14.5107 43.7821 12.9269 38.9038 12.7526C34.0254 12.5783 29.2011 13.821 25.014 16.3305C20.827 18.8399 17.4567 22.5087 15.3105 26.893C13.1644 31.2774 12.3344 36.1896 12.9209 41.0357C13.5073 45.8818 15.4852 50.4542 18.6153 54.2C21.7454 57.9458 25.8936 60.7046 30.5584 62.1428C35.2232 63.581 40.2047 63.637 44.9006 62.304C49.5965 60.971 53.8057 58.3061 57.0192 54.6316L55.3495 53.1714C52.4181 56.5233 48.5785 58.9542 44.2949 60.1702C40.0113 61.3861 35.4671 61.3351 31.2119 60.0232C26.9567 58.7112 23.1726 56.1947 20.3174 52.7777C17.4621 49.3608 15.6579 45.1898 15.1229 40.7692C14.5879 36.3486 15.3451 31.8677 17.3028 27.8682C19.2605 23.8688 22.3349 20.5222 26.1543 18.2331C29.9737 15.9439 34.3745 14.8103 38.8246 14.9693C43.2746 15.1283 47.5833 16.5731 51.2296 19.129L52.5027 17.3126Z" fill="#FF8F5A" fill-opacity="0.5"/>
<path d="M47.0151 20.6127C43.5944 18.7955 39.7117 18.0335 35.8579 18.423C32.0041 18.8125 28.3524 20.336 25.3644 22.8009C22.3765 25.2659 20.1866 28.5614 19.0717 32.2709C17.9568 35.9804 17.9669 39.9372 19.1008 43.641C20.2346 47.3447 22.4413 50.6291 25.4418 53.0787C28.4422 55.5283 32.1017 57.0332 35.9575 57.403C39.8132 57.7728 43.692 56.991 47.1034 55.1563C50.5148 53.3217 53.3055 50.5167 55.1227 47.096L53.6042 46.2893C51.9465 49.4097 49.4008 51.9684 46.289 53.642C43.1771 55.3155 39.6388 56.0287 36.1216 55.6914C32.6044 55.354 29.2662 53.9813 26.5292 51.7468C23.7922 49.5122 21.7792 46.5162 20.7449 43.1377C19.7106 39.7591 19.7014 36.1497 20.7184 32.7659C21.7355 29.3821 23.7331 26.3758 26.4587 24.1273C29.1842 21.8788 32.5154 20.489 36.0308 20.1337C39.5462 19.7784 43.0881 20.4735 46.2085 22.1312L47.0151 20.6127Z" fill="#FF8F5A" fill-opacity="0.5"/>
</svg>
