<svg width="41" height="40" viewBox="0 0 41 40" fill="none" xmlns="http://www.w3.org/2000/svg">
<path d="M28.8337 36.6667H12.167C11.4837 36.6667 10.917 36.1001 10.917 35.4167C10.917 34.7334 11.4837 34.1667 12.167 34.1667H28.8337C29.517 34.1667 30.0837 34.7334 30.0837 35.4167C30.0837 36.1001 29.517 36.6667 28.8337 36.6667Z" fill="#57AEFF"/>
<path d="M28.8337 36.6667H12.167C11.4837 36.6667 10.917 36.1001 10.917 35.4167C10.917 34.7334 11.4837 34.1667 12.167 34.1667H28.8337C29.517 34.1667 30.0837 34.7334 30.0837 35.4167C30.0837 36.1001 29.517 36.6667 28.8337 36.6667Z" fill="#0A2C8C"/>
<path d="M28.8337 36.6667H12.167C11.4837 36.6667 10.917 36.1001 10.917 35.4167C10.917 34.7334 11.4837 34.1667 12.167 34.1667H28.8337C29.517 34.1667 30.0837 34.7334 30.0837 35.4167C30.0837 36.1001 29.517 36.6667 28.8337 36.6667Z" fill="#57AEFF"/>
<path d="M34.417 9.1999L27.7504 13.9666C26.867 14.5999 25.6004 14.2166 25.217 13.1999L22.067 4.7999C21.5337 3.3499 19.4837 3.3499 18.9504 4.7999L15.7837 13.1832C15.4004 14.2166 14.1504 14.5999 13.267 13.9499L6.60037 9.18324C5.26703 8.2499 3.50037 9.56657 4.05037 11.1166L10.9837 30.5332C11.217 31.1999 11.8504 31.6332 12.5504 31.6332H28.4337C29.1337 31.6332 29.767 31.1832 30.0004 30.5332L36.9337 11.1166C37.5004 9.56657 35.7337 8.2499 34.417 9.1999ZM24.667 24.5832H16.3337C15.6504 24.5832 15.0837 24.0166 15.0837 23.3332C15.0837 22.6499 15.6504 22.0832 16.3337 22.0832H24.667C25.3504 22.0832 25.917 22.6499 25.917 23.3332C25.917 24.0166 25.3504 24.5832 24.667 24.5832Z" fill="#57AEFF"/>
</svg>
