<svg width="14" height="15" viewBox="0 0 14 15" fill="none" xmlns="http://www.w3.org/2000/svg">
<path d="M7.00001 13.7C10.5899 13.7 13.5 10.7898 13.5 7.19996C13.5 3.6101 10.5899 0.699951 7.00001 0.699951C3.41015 0.699951 0.5 3.6101 0.5 7.19996C0.5 10.7898 3.41015 13.7 7.00001 13.7Z" fill="white" stroke="#001246"/>
<path d="M6.99335 1.19995C5.80798 1.19995 4.64923 1.55145 3.66363 2.21001C2.67802 2.86857 1.90984 3.8046 1.45622 4.89974C1.0026 5.99489 0.883909 7.19995 1.11516 8.36254C1.34642 9.52514 1.91723 10.5931 2.75541 11.4312C3.5936 12.2694 4.66151 12.8402 5.82411 13.0715C6.9867 13.3027 8.19177 13.1841 9.28691 12.7304C10.382 12.2768 11.3181 11.5086 11.9766 10.523C12.6352 9.53743 12.9867 8.37867 12.9867 7.1933C12.9867 5.60377 12.3553 4.07933 11.2313 2.95536C10.1073 1.83139 8.58289 1.19995 6.99335 1.19995ZM9.81023 5.50184L6.85351 9.60396C6.76543 9.72286 6.63691 9.80542 6.49215 9.83609C6.3474 9.86676 6.19643 9.84341 6.06771 9.77044L4.3696 8.77821C4.23184 8.6952 4.13269 8.56086 4.09398 8.40476C4.05527 8.24865 4.08015 8.08356 4.16316 7.9458C4.24617 7.80804 4.3805 7.7089 4.53661 7.67018C4.69272 7.63147 4.85781 7.65635 4.99557 7.73936L6.2009 8.45856L8.86461 4.80262C8.96347 4.70358 9.09387 4.64226 9.2332 4.62928C9.37253 4.6163 9.51201 4.65248 9.62747 4.73156C9.74292 4.81063 9.82706 4.92762 9.8653 5.06222C9.90355 5.19683 9.89349 5.34058 9.83686 5.46855L9.81023 5.50184Z" fill="white"/>
</svg>
