<svg width="16" height="15" viewBox="0 0 16 15" fill="none" xmlns="http://www.w3.org/2000/svg">
<path d="M7.99999 14.4079C11.9809 14.4079 15.208 11.1808 15.208 7.19994C15.208 3.21907 11.9809 -0.00805664 7.99999 -0.00805664C4.01912 -0.00805664 0.791992 3.21907 0.791992 7.19994C0.791992 11.1808 4.01912 14.4079 7.99999 14.4079Z" fill="#0A2C8C"/>
<path d="M7.99199 -0.00805664C6.56797 -0.00805664 5.17592 0.414216 3.99189 1.20536C2.80786 1.99651 1.88501 3.12099 1.34006 4.43662C0.795112 5.75225 0.652528 7.19993 0.930341 8.59659C1.20815 9.99326 1.89389 11.2762 2.90083 12.2831C3.90776 13.29 5.19068 13.9758 6.58734 14.2536C7.98401 14.5314 9.43169 14.3888 10.7473 13.8439C12.0629 13.2989 13.1874 12.3761 13.9786 11.192C14.7697 10.008 15.192 8.61597 15.192 7.19194C15.192 5.28238 14.4334 3.45104 13.0832 2.10077C11.7329 0.750513 9.90155 -0.00805664 7.99199 -0.00805664ZM11.376 5.15994L7.82399 10.0879C7.71819 10.2308 7.56378 10.33 7.38989 10.3668C7.216 10.4037 7.03463 10.3756 6.87999 10.2879L4.83999 9.09594C4.6745 8.99622 4.5554 8.83484 4.50889 8.64731C4.46238 8.45977 4.49227 8.26144 4.592 8.09594C4.69172 7.93045 4.8531 7.81135 5.04063 7.76484C5.22817 7.71833 5.4265 7.74822 5.59199 7.84794L7.03999 8.71194L10.24 4.31994C10.3588 4.20096 10.5154 4.12729 10.6828 4.1117C10.8502 4.09611 11.0177 4.13958 11.1564 4.23458C11.2951 4.32957 11.3962 4.47011 11.4422 4.63181C11.4881 4.79352 11.476 4.96621 11.408 5.11994L11.376 5.15994Z" fill="white"/>
</svg>
