<svg width="187" height="294" viewBox="0 0 187 294" fill="none" xmlns="http://www.w3.org/2000/svg">
<path d="M11.3952 0.763973C6.63242 -3.9991 1.51935 14.6916 0 24.3142H17.4726C17.4726 17.4771 16.7127 6.08186 11.3952 0.763973Z" fill="#000514"/>
<path d="M174.726 0.763598C169.408 6.08149 167.889 17.4808 167.889 24.3179L186.121 24.3177C184.756 15.6748 180.493 -0.286932 176.187 0.00392082H175.486L174.726 0.763398L174.726 0.763598Z" fill="#000514"/>
<path fill-rule="evenodd" clip-rule="evenodd" d="M9.87695 0.00439453C11.3963 1.52338 16.714 7.60079 17.4737 24.3147C18.4962 46.8108 17.9802 213.474 17.4737 294L92.6818 226.389L167.89 294C167.383 213.474 166.867 46.8108 167.89 24.3147C168.649 7.60079 173.967 1.52338 175.486 0.00439453H92.6818H92.6815H9.87695Z" fill="url(#paint0_linear_1077_61952)"/>
<path d="M58.7534 94.5156C56.8116 94.5156 55.1473 94.1611 53.7603 93.4522C52.4041 92.7125 51.3716 91.6491 50.6627 90.2621C49.9538 88.8752 49.5839 87.1954 49.5531 85.2228C49.5531 85.1611 49.5531 85.0995 49.5531 85.0378C49.5531 84.9454 49.5531 84.8683 49.5531 84.8067H54.5C54.5 86.5943 54.7928 87.9813 55.3784 88.9676C55.964 89.9231 57.1045 90.4008 58.7997 90.4008C59.7243 90.4008 60.4949 90.1235 61.1113 89.5687C61.7277 88.983 62.1901 88.1046 62.4983 86.9334C62.8065 85.7313 62.9606 84.2211 62.9606 82.4026V76.7159C62.4983 77.4865 61.8048 78.1183 60.8801 78.6115C59.9863 79.0738 58.8613 79.305 57.5051 79.305C55.4401 79.305 53.8219 78.8581 52.6507 77.9642C51.4795 77.0396 50.6473 75.7759 50.1541 74.1731C49.6918 72.5396 49.4606 70.644 49.4606 68.4865C49.4606 66.2057 49.7689 64.156 50.3853 62.3376C51.0017 60.4882 51.988 59.0242 53.3442 57.9454C54.7312 56.8667 56.5342 56.3273 58.7534 56.3273C60.9109 56.3273 62.6678 56.8821 64.024 57.9917C65.3801 59.0704 66.3664 60.5345 66.9829 62.3838C67.6301 64.2331 67.9537 66.2982 67.9537 68.579V81.1543C67.9537 83.5584 67.6763 85.7776 67.1216 87.8118C66.5668 89.846 65.6267 91.4796 64.3014 92.7125C62.976 93.9145 61.1267 94.5156 58.7534 94.5156ZM58.7534 75.5601C59.8322 75.5601 60.7106 75.2981 61.3887 74.7742C62.0668 74.2194 62.5907 73.6183 62.9606 72.9711V67.4232C62.9606 66.1286 62.8373 64.9574 62.5907 63.9095C62.3442 62.8307 61.9127 61.9831 61.2962 61.3667C60.6798 60.7194 59.8322 60.3958 58.7534 60.3958C57.6747 60.3958 56.8116 60.7194 56.1644 61.3667C55.5479 62.0139 55.101 62.8615 54.8236 63.9095C54.5771 64.9266 54.4538 66.0516 54.4538 67.2845C54.4538 68.7639 54.5154 70.1355 54.6387 71.3992C54.7928 72.6629 55.1627 73.68 55.7483 74.4505C56.3647 75.1903 57.3664 75.5601 58.7534 75.5601Z" fill="white"/>
<path d="M84.0182 94.0995V67.3769H88.9651V94.0995H84.0182ZM84.0182 63.4009V58.2228H88.9651V63.4009H84.0182Z" fill="white"/>
<path d="M94.2595 94.0995V67.3769H99.2064V70.0122C100.1 69.18 101.087 68.4711 102.165 67.8855C103.244 67.2999 104.431 67.0071 105.725 67.0071C106.804 67.0071 107.621 67.2845 108.176 67.8393C108.761 68.394 109.162 69.0875 109.378 69.9197C109.624 70.7519 109.747 71.5995 109.747 72.4625V94.0995H104.801V73.8957C104.801 72.9403 104.662 72.2005 104.384 71.6766C104.107 71.1526 103.537 70.8906 102.674 70.8906C102.119 70.8906 101.533 71.0601 100.917 71.3992C100.331 71.7074 99.7612 72.0927 99.2064 72.555V94.0995H94.2595Z" fill="white"/>
<path d="M54.7696 132.101C53.1603 132.101 51.9065 131.764 51.0083 131.09C50.1287 130.416 49.5112 129.509 49.1556 128.367C48.8188 127.226 48.6504 125.953 48.6504 124.55V116.522C48.6504 114.987 48.8188 113.649 49.1556 112.508C49.5112 111.366 50.1287 110.487 51.0083 109.869C51.9065 109.233 53.1603 108.915 54.7696 108.915C56.1918 108.915 57.3146 109.177 58.138 109.701C58.9801 110.225 59.5789 110.973 59.9345 111.946C60.3088 112.92 60.4959 114.089 60.4959 115.455V117.252H57.4924V115.652C57.4924 114.81 57.4456 114.07 57.3521 113.434C57.2772 112.779 57.0526 112.274 56.6784 111.918C56.3041 111.563 55.6772 111.385 54.7977 111.385C53.8995 111.385 53.2445 111.582 52.8328 111.975C52.4211 112.349 52.1498 112.891 52.0188 113.603C51.9065 114.295 51.8504 115.109 51.8504 116.045V125.055C51.8504 126.197 51.9439 127.104 52.1311 127.778C52.3182 128.433 52.627 128.901 53.0574 129.181C53.4878 129.462 54.0679 129.602 54.7977 129.602C55.6585 129.602 56.276 129.415 56.6503 129.041C57.0246 128.648 57.2585 128.115 57.3521 127.441C57.4456 126.767 57.4924 125.981 57.4924 125.083V123.399H60.4959V125.083C60.4959 126.468 60.3275 127.694 59.9906 128.76C59.6538 129.808 59.0737 130.632 58.2503 131.23C57.4269 131.811 56.2667 132.101 54.7696 132.101Z" fill="white"/>
<path d="M67.7281 132.073C66.5304 132.073 65.5854 131.829 64.893 131.343C64.2006 130.856 63.7047 130.164 63.4053 129.266C63.1246 128.367 62.9842 127.31 62.9842 126.094V121.378C62.9842 120.162 63.1246 119.104 63.4053 118.206C63.7047 117.308 64.2006 116.615 64.893 116.129C65.5854 115.642 66.5304 115.399 67.7281 115.399C68.9257 115.399 69.8614 115.642 70.535 116.129C71.2274 116.615 71.714 117.308 71.9947 118.206C72.2941 119.104 72.4438 120.162 72.4438 121.378V126.094C72.4438 127.31 72.2941 128.367 71.9947 129.266C71.714 130.164 71.2274 130.856 70.535 131.343C69.8614 131.829 68.9257 132.073 67.7281 132.073ZM67.7281 129.855C68.3082 129.855 68.7105 129.687 68.9351 129.35C69.1783 129.013 69.3187 128.573 69.3561 128.031C69.4122 127.469 69.4403 126.889 69.4403 126.29V121.21C69.4403 120.592 69.4122 120.012 69.3561 119.469C69.3187 118.927 69.1783 118.487 68.9351 118.15C68.7105 117.794 68.3082 117.617 67.7281 117.617C67.1479 117.617 66.7362 117.794 66.493 118.15C66.2497 118.487 66.1 118.927 66.0439 119.469C66.0064 120.012 65.9877 120.592 65.9877 121.21V126.29C65.9877 126.889 66.0064 127.469 66.0439 128.031C66.1 128.573 66.2497 129.013 66.493 129.35C66.7362 129.687 67.1479 129.855 67.7281 129.855Z" fill="white"/>
<path d="M75.1892 131.848V115.624H77.9681V117.167C78.5108 116.55 79.1096 116.091 79.7646 115.792C80.4195 115.493 81.0932 115.343 81.7856 115.343C82.3844 115.343 82.9177 115.493 83.3856 115.792C83.8721 116.091 84.2183 116.625 84.4242 117.392C85.0043 116.681 85.6312 116.166 86.3048 115.848C86.9972 115.511 87.7177 115.343 88.4662 115.343C88.9902 115.343 89.4674 115.474 89.8978 115.736C90.3282 115.979 90.6744 116.382 90.9364 116.943C91.1984 117.486 91.3294 118.206 91.3294 119.104V131.848H88.5785V119.301C88.5785 118.515 88.4475 117.991 88.1855 117.729C87.9423 117.448 87.6054 117.308 87.175 117.308C86.7633 117.308 86.3329 117.429 85.8838 117.673C85.4347 117.897 85.023 118.215 84.6487 118.627C84.6487 118.702 84.6487 118.777 84.6487 118.852C84.6487 118.927 84.6487 119.011 84.6487 119.104V131.848H81.8979V119.301C81.8979 118.515 81.7669 117.991 81.5049 117.729C81.2616 117.448 80.9248 117.308 80.4944 117.308C80.0827 117.308 79.6523 117.429 79.2032 117.673C78.7728 117.897 78.3611 118.215 77.9681 118.627V131.848H75.1892Z" fill="white"/>
<path d="M100.078 132.073C99.4983 132.073 98.9743 131.932 98.5065 131.652C98.0574 131.352 97.6644 131.025 97.3275 130.669V131.848H94.3241V109.111H97.3275V116.915C97.6831 116.503 98.1041 116.148 98.5907 115.848C99.0959 115.549 99.6948 115.399 100.387 115.399C101.229 115.399 101.894 115.624 102.38 116.073C102.885 116.503 103.26 117.055 103.503 117.729C103.746 118.384 103.905 119.058 103.98 119.75C104.055 120.424 104.092 121.004 104.092 121.49V125.42C104.092 126.562 103.98 127.647 103.756 128.676C103.531 129.687 103.129 130.51 102.549 131.146C101.968 131.764 101.145 132.073 100.078 132.073ZM99.4608 129.715C99.9848 129.715 100.359 129.528 100.584 129.153C100.808 128.76 100.949 128.236 101.005 127.581C101.061 126.926 101.089 126.206 101.089 125.42V121.49C101.089 120.817 101.051 120.199 100.977 119.638C100.902 119.058 100.743 118.599 100.499 118.262C100.256 117.925 99.8725 117.757 99.3486 117.757C98.9556 117.757 98.5813 117.841 98.2258 118.01C97.8889 118.178 97.5895 118.365 97.3275 118.571V128.985C97.5895 129.191 97.8983 129.369 98.2538 129.518C98.6281 129.649 99.0304 129.715 99.4608 129.715Z" fill="white"/>
<path d="M111.286 132.073C110.088 132.073 109.143 131.829 108.451 131.343C107.758 130.856 107.262 130.164 106.963 129.266C106.682 128.367 106.542 127.31 106.542 126.094V121.378C106.542 120.162 106.682 119.104 106.963 118.206C107.262 117.308 107.758 116.615 108.451 116.129C109.143 115.642 110.088 115.399 111.286 115.399C112.483 115.399 113.419 115.642 114.093 116.129C114.785 116.615 115.272 117.308 115.552 118.206C115.852 119.104 116.001 120.162 116.001 121.378V126.094C116.001 127.31 115.852 128.367 115.552 129.266C115.272 130.164 114.785 130.856 114.093 131.343C113.419 131.829 112.483 132.073 111.286 132.073ZM111.286 129.855C111.866 129.855 112.268 129.687 112.493 129.35C112.736 129.013 112.876 128.573 112.914 128.031C112.97 127.469 112.998 126.889 112.998 126.29V121.21C112.998 120.592 112.97 120.012 112.914 119.469C112.876 118.927 112.736 118.487 112.493 118.15C112.268 117.794 111.866 117.617 111.286 117.617C110.706 117.617 110.294 117.794 110.051 118.15C109.807 118.487 109.658 118.927 109.602 119.469C109.564 120.012 109.545 120.592 109.545 121.21V126.29C109.545 126.889 109.564 127.469 109.602 128.031C109.658 128.573 109.807 129.013 110.051 129.35C110.294 129.687 110.706 129.855 111.286 129.855Z" fill="white"/>
<path d="M130.249 139.807V66.3295C129.837 66.9487 129.011 67.5679 127.773 68.1871C126.534 68.8062 125.158 69.3566 123.645 69.8382C122.2 70.3198 120.858 70.767 119.62 71.1798C118.45 71.5238 117.694 71.7302 117.35 71.799V65.7103C118.313 65.4351 119.448 65.0223 120.755 64.4719C122.062 63.9215 123.369 63.2679 124.677 62.5112C125.984 61.6856 127.257 60.7568 128.495 59.7248C129.802 58.6928 130.903 57.5232 131.797 56.2161H137.886V139.807H130.249Z" fill="white"/>
<path d="M53.5627 197.463C50.2229 197.463 47.5552 196.811 45.5595 195.508C43.5638 194.205 42.1383 192.352 41.283 189.949C40.4277 187.505 40 184.654 40 181.396V162.64C40 159.382 40.4277 156.592 41.283 154.27C42.179 151.908 43.6045 150.116 45.5595 148.894C47.5552 147.631 50.2229 147 53.5627 147C56.9025 147 59.5499 147.631 61.5048 148.894C63.4598 150.156 64.865 151.949 65.7203 154.27C66.6163 156.592 67.0643 159.382 67.0643 162.64V181.457C67.0643 184.674 66.6163 187.485 65.7203 189.888C64.865 192.291 63.4598 194.164 61.5048 195.508C59.5499 196.811 56.9025 197.463 53.5627 197.463ZM53.5627 192.026C55.3955 192.026 56.7803 191.659 57.7171 190.926C58.6538 190.152 59.2851 189.093 59.611 187.749C59.9368 186.364 60.0997 184.756 60.0997 182.923V161.235C60.0997 159.402 59.9368 157.834 59.611 156.531C59.2851 155.187 58.6538 154.168 57.7171 153.476C56.7803 152.743 55.3955 152.376 53.5627 152.376C51.7299 152.376 50.3248 152.743 49.3473 153.476C48.4105 154.168 47.7792 155.187 47.4534 156.531C47.1276 157.834 46.9646 159.402 46.9646 161.235V182.923C46.9646 184.756 47.1276 186.364 47.4534 187.749C47.7792 189.093 48.4105 190.152 49.3473 190.926C50.3248 191.659 51.7299 192.026 53.5627 192.026Z" fill="white"/>
<path d="M75.3768 196.913V166.428H71.1614V161.601H75.3768V159.769C75.3768 157.569 75.5398 155.696 75.8656 154.148C76.2321 152.559 76.9653 151.338 78.0649 150.482C79.1646 149.627 80.8141 149.199 83.0135 149.199C83.8281 149.199 84.5408 149.24 85.1518 149.322C85.8034 149.362 86.5162 149.464 87.29 149.627V154.392C86.9235 154.311 86.5162 154.25 86.0682 154.209C85.6202 154.128 85.2129 154.087 84.8463 154.087C83.5837 154.087 82.7691 154.514 82.4026 155.37C82.0767 156.184 81.9138 157.284 81.9138 158.669V161.601H87.29V166.428H81.9138V196.913H75.3768ZM90.8945 196.913V166.428H86.6791V161.601H90.8945V159.769C90.8945 157.569 91.0575 155.696 91.3833 154.148C91.7498 152.559 92.483 151.338 93.5826 150.482C94.6823 149.627 96.3318 149.199 98.5312 149.199C99.3458 149.199 100.059 149.24 100.669 149.322C101.321 149.362 102.034 149.464 102.808 149.627V154.392C102.441 154.311 102.034 154.25 101.586 154.209C101.138 154.128 100.731 154.087 100.364 154.087C99.1014 154.087 98.2868 154.514 97.9203 155.37C97.5944 156.184 97.4315 157.284 97.4315 158.669V161.601H102.808V166.428H97.4315V196.913H90.8945Z" fill="white"/>
<path d="M114.934 197.402C112.164 197.402 110.026 196.873 108.519 195.814C107.012 194.714 105.953 193.125 105.342 191.048C104.772 188.93 104.487 186.344 104.487 183.289V175.225C104.487 172.089 104.792 169.482 105.403 167.405C106.014 165.328 107.073 163.76 108.58 162.701C110.128 161.642 112.246 161.113 114.934 161.113C117.907 161.113 120.086 161.723 121.471 162.945C122.896 164.167 123.833 165.939 124.281 168.26C124.729 170.541 124.953 173.29 124.953 176.508V179.379H111.024V186.466C111.024 187.892 111.146 189.053 111.39 189.949C111.675 190.845 112.103 191.517 112.673 191.965C113.284 192.372 114.058 192.576 114.995 192.576C115.972 192.576 116.706 192.352 117.194 191.904C117.724 191.415 118.07 190.743 118.233 189.888C118.436 188.991 118.538 187.953 118.538 186.772V184.633H124.892V185.978C124.892 189.521 124.139 192.311 122.632 194.347C121.125 196.384 118.559 197.402 114.934 197.402ZM111.024 175.836H118.538V172.659C118.538 171.193 118.457 169.971 118.294 168.994C118.131 167.975 117.785 167.222 117.255 166.733C116.767 166.204 115.972 165.939 114.873 165.939C113.814 165.939 112.999 166.183 112.429 166.672C111.9 167.161 111.533 167.996 111.329 169.177C111.126 170.317 111.024 171.906 111.024 173.942V175.836Z" fill="white"/>
<path d="M131.056 196.913V161.601H137.593V166.611C138.897 164.452 140.2 163.006 141.503 162.273C142.807 161.54 144.11 161.174 145.413 161.174C145.576 161.174 145.719 161.174 145.841 161.174C146.004 161.174 146.207 161.194 146.452 161.235V168.444C145.963 168.24 145.393 168.077 144.741 167.955C144.13 167.792 143.499 167.711 142.847 167.711C141.829 167.711 140.892 167.955 140.037 168.444C139.222 168.892 138.408 169.788 137.593 171.132V196.913H131.056Z" fill="white"/>
<defs>
<linearGradient id="paint0_linear_1077_61952" x1="-93.4392" y1="399.6" x2="-124.543" y2="-79.4044" gradientUnits="userSpaceOnUse">
<stop offset="0.64" stop-color="#3363EC"/>
<stop offset="0.81" stop-color="#1D47BF"/>
<stop offset="1" stop-color="#1C46BD"/>
</linearGradient>
</defs>
</svg>
