<svg width="91" height="105" viewBox="0 0 91 105" fill="none" xmlns="http://www.w3.org/2000/svg">
<g clip-path="url(#clip0_1199_16634)">
<path d="M45.7835 47.1146C44.8696 47.1146 44.1309 46.3705 44.1309 45.4499V1.66472C44.1309 0.744137 44.8696 0 45.7835 0C46.6975 0 47.4362 0.744137 47.4362 1.66472V45.4499C47.4362 46.3705 46.6937 47.1146 45.7835 47.1146Z" fill="white"/>
<path d="M45.6419 33.0181C45.2192 33.0181 44.7965 32.857 44.4729 32.5309L30.0519 18.0088C29.4046 17.3605 29.4046 16.3057 30.0519 15.6536C30.6955 15.0015 31.7427 15.0015 32.39 15.6536L45.6419 28.9982L58.6082 15.9375C59.2517 15.2854 60.299 15.2854 60.9463 15.9375C61.5937 16.5857 61.5937 17.6405 60.9463 18.2926L46.811 32.5309C46.4873 32.857 46.0646 33.0181 45.6419 33.0181Z" fill="white"/>
<path d="M45.5773 17.9593C45.1546 17.9593 44.7319 17.7981 44.4083 17.4721L37.2492 10.2609C36.6018 9.61264 36.6018 8.55781 37.2492 7.90573C37.8927 7.25365 38.9399 7.25365 39.5873 7.90573L45.5811 13.9432L51.7767 7.70244C52.4203 7.05036 53.4675 7.05036 54.1149 7.70244C54.7622 8.35068 54.7622 9.40551 54.1149 10.0576L46.7502 17.4759C46.4265 17.7981 46.0038 17.9593 45.5773 17.9593Z" fill="white"/>
<path d="M39.5793 50.3942C39.2975 50.3942 39.0157 50.3213 38.7529 50.1717L1.10693 28.2772C0.314868 27.8169 0.044499 26.8005 0.50146 26.0026C0.958421 25.2048 1.96754 24.9324 2.75961 25.3927L40.4056 47.2872C41.1977 47.7475 41.468 48.764 41.0111 49.5618C40.7064 50.095 40.1505 50.3942 39.5793 50.3942Z" fill="white"/>
<path d="M7.69138 48.7868C6.96025 48.7868 6.29384 48.2958 6.09583 47.5517C5.85973 46.6618 6.38143 45.7488 7.26489 45.511L25.3644 40.6243L20.6196 22.7842C20.3835 21.8943 20.9052 20.9814 21.7886 20.7436C22.6683 20.5019 23.5746 21.0312 23.8145 21.9211L28.9896 41.3723C29.1038 41.798 29.0429 42.2545 28.8258 42.6342C28.605 43.0178 28.247 43.294 27.8205 43.409L8.1255 48.7254C7.97698 48.7676 7.83228 48.7868 7.69138 48.7868Z" fill="white"/>
<path d="M4.62888 38.6337C3.89775 38.6337 3.23134 38.1427 3.03333 37.3986C2.79723 36.5087 3.31893 35.5957 4.20239 35.3579L12.3858 33.1485L10.12 24.6255C9.88394 23.7356 10.4056 22.8227 11.2891 22.5849C12.1687 22.3432 13.0789 22.8725 13.315 23.7624L16.011 33.8965C16.1253 34.3223 16.0643 34.7787 15.8473 35.1585C15.6264 35.542 15.2685 35.8182 14.842 35.9333L5.05919 38.5723C4.91448 38.6145 4.76978 38.6337 4.62888 38.6337Z" fill="white"/>
<path d="M1.65593 79.3351C1.08473 79.3351 0.528757 79.0359 0.224116 78.5028C-0.232845 77.7049 0.0375239 76.6884 0.82959 76.2281L38.4756 54.3336C39.2676 53.8734 40.2768 54.1457 40.7337 54.9435C41.1907 55.7414 40.9203 56.7578 40.1282 57.2181L2.47846 79.1126C2.21951 79.2622 1.93391 79.3351 1.65593 79.3351Z" fill="white"/>
<path d="M21.9717 84.4559C21.8309 84.4559 21.6861 84.4367 21.5414 84.3983C20.658 84.1605 20.1363 83.2476 20.3724 82.3577L25.22 64.1264L7.50512 59.347C6.62166 59.1092 6.09997 58.1963 6.33606 57.3064C6.57216 56.4165 7.47846 55.8872 8.36192 56.1288L27.6723 61.3416C28.5558 61.5794 29.0775 62.4923 28.8414 63.3822L23.5635 83.2246C23.3693 83.9649 22.7029 84.4559 21.9717 84.4559Z" fill="white"/>
<path d="M11.7123 82.0509C11.5714 82.0509 11.4267 82.0317 11.282 81.9934C10.3985 81.7556 9.87685 80.8426 10.1129 79.9527L12.3064 71.7059L3.84496 69.4198C2.96151 69.1819 2.43981 68.269 2.67591 67.3791C2.912 66.4892 3.81831 65.9599 4.70177 66.2016L14.7625 68.9173C15.646 69.1551 16.1677 70.068 15.9316 70.9579L13.3117 80.812C13.1099 81.5599 12.4434 82.0509 11.7123 82.0509Z" fill="white"/>
<path d="M45.2152 105C44.3013 105 43.5625 104.256 43.5625 103.335V59.55C43.5625 58.6294 44.3013 57.8853 45.2152 57.8853C46.1291 57.8853 46.8679 58.6294 46.8679 59.55V103.335C46.8679 104.256 46.1291 105 45.2152 105Z" fill="white"/>
<path d="M59.7773 89.8334C59.3546 89.8334 58.9319 89.6723 58.6082 89.3463L45.3563 75.9979L32.39 89.0586C31.7465 89.7107 30.6993 89.7107 30.0519 89.0586C29.4046 88.4104 29.4046 87.3555 30.0519 86.7035L44.1873 72.4651C44.8308 71.8131 45.878 71.8131 46.5254 72.4651L60.9463 86.9911C61.5937 87.6394 61.5937 88.6942 60.9463 89.3463C60.6226 89.6723 60.1999 89.8334 59.7773 89.8334Z" fill="white"/>
<path d="M38.0569 97.7847C37.6342 97.7847 37.2115 97.6236 36.8879 97.2976C36.2405 96.6494 36.2405 95.5945 36.8879 94.9425L44.2526 87.5241C44.8733 86.8989 45.97 86.8989 46.5907 87.5241L53.7535 94.7392C54.4009 95.3874 54.4009 96.4422 53.7535 97.0943C53.11 97.7464 52.0628 97.7464 51.4154 97.0943L45.4216 91.0568L39.226 97.2976C38.9023 97.6236 38.4796 97.7847 38.0569 97.7847Z" fill="white"/>
<path d="M89.0617 79.8297C88.7799 79.8297 88.4981 79.7569 88.2353 79.6073L50.5894 57.7128C49.7973 57.2525 49.5269 56.236 49.9839 55.4382C50.4408 54.6403 51.45 54.368 52.242 54.8283L89.888 76.7228C90.6801 77.1831 90.9504 78.1995 90.4935 78.9974C90.1888 79.5305 89.6329 79.8297 89.0617 79.8297Z" fill="white"/>
<path d="M68.7842 84.3137C68.0531 84.3137 67.3867 83.8227 67.1887 83.0786L62.0136 63.6275C61.8993 63.2017 61.9603 62.7452 62.1773 62.3655C62.3982 61.9819 62.7561 61.7057 63.1826 61.5907L82.8815 56.2743C83.7611 56.0327 84.6674 56.562 84.9073 57.4519C85.1434 58.3418 84.6217 59.2547 83.7383 59.4925L65.6388 64.3793L70.3836 82.2232C70.6197 83.1131 70.098 84.026 69.2145 84.2638C69.0698 84.2945 68.9251 84.3137 68.7842 84.3137Z" fill="white"/>
<path d="M79.2781 82.4688C78.5469 82.4688 77.8805 81.9778 77.6825 81.2337L74.9865 71.0996C74.7504 70.2097 75.2721 69.2968 76.1555 69.059L85.9383 66.42C86.8179 66.1822 87.7281 66.7077 87.9641 67.5975C88.2002 68.4874 87.6785 69.4004 86.7951 69.6382L78.6117 71.8476L80.8774 80.3706C81.1135 81.2605 80.5918 82.1734 79.7084 82.4112C79.5675 82.4496 79.4228 82.4688 79.2781 82.4688Z" fill="white"/>
<path d="M51.7009 50.8893C51.1297 50.8893 50.5737 50.5901 50.269 50.0569C49.8121 49.2591 50.0824 48.2426 50.8745 47.7823L88.5205 25.8878C89.3126 25.4276 90.3217 25.6999 90.7786 26.4977C91.2356 27.2956 90.9652 28.312 90.1732 28.7723L52.5272 50.6668C52.2682 50.8164 51.9826 50.8893 51.7009 50.8893Z" fill="white"/>
<path d="M83.0642 48.929C82.9233 48.929 82.7786 48.9098 82.6339 48.8715L63.3235 43.6587C62.44 43.4209 61.9183 42.508 62.1544 41.6181L67.4323 21.7795C67.6684 20.8896 68.5747 20.3603 69.4582 20.602C70.3416 20.8398 70.8633 21.7527 70.6272 22.6426L65.7796 40.8739L83.4945 45.6533C84.378 45.8911 84.8997 46.804 84.6636 47.6939C84.4617 48.438 83.7915 48.929 83.0642 48.929Z" fill="white"/>
<path d="M86.7273 38.8484C86.5864 38.8484 86.4417 38.8292 86.297 38.7909L76.2362 36.0752C75.8135 35.9601 75.4518 35.6839 75.2309 35.3003C75.01 34.9168 74.9529 34.4641 75.0672 34.0384L77.6871 24.1843C77.9232 23.2944 78.8295 22.7651 79.7129 23.0067C80.5964 23.2446 81.1181 24.1575 80.882 25.0474L78.6886 33.2942L87.15 35.5765C88.0334 35.8143 88.5551 36.7272 88.319 37.6171C88.1248 38.3574 87.4584 38.8484 86.7273 38.8484Z" fill="white"/>
<path d="M45.4975 61.2148C40.7261 61.2148 36.8457 57.3062 36.8457 52.5C36.8457 47.6938 40.7261 43.7852 45.4975 43.7852C50.2689 43.7852 54.1493 47.6938 54.1493 52.5C54.1493 57.3062 50.2689 61.2148 45.4975 61.2148ZM45.4975 47.1146C42.5501 47.1146 40.1511 49.5311 40.1511 52.5C40.1511 55.4689 42.5501 57.8854 45.4975 57.8854C48.4449 57.8854 50.8439 55.4689 50.8439 52.5C50.8439 49.5311 48.4449 47.1146 45.4975 47.1146Z" fill="white"/>
<path d="M39.2419 33.2179L33.4232 27.4489C32.8977 26.9272 32.0942 26.8199 31.4507 27.1842C30.8071 27.5486 30.4835 28.2966 30.6548 29.0177L32.6388 37.4296C32.7416 37.8668 33.0196 38.2466 33.4042 38.4767L37.2769 40.7973C37.5359 40.9546 37.8291 41.0313 38.1223 41.0313C38.4079 41.0313 38.6897 40.9584 38.9449 40.8089C39.4627 40.5097 39.7788 39.9535 39.775 39.3513L39.7369 34.3878C39.7331 33.9505 39.5541 33.5286 39.2419 33.2179Z" fill="white"/>
<path d="M32.1735 52.3736C32.1735 51.7714 31.8536 51.219 31.3357 50.9198L27.0479 48.4726C26.6671 48.254 26.214 48.2003 25.7913 48.3153L17.9239 50.5056C17.2118 50.705 16.7206 51.3494 16.713 52.0936C16.7054 52.8377 17.1852 53.4936 17.8935 53.7046L26.1188 56.1825C26.2749 56.2285 26.4348 56.2515 26.591 56.2515C26.8728 56.2515 27.1507 56.1786 27.3983 56.0406L31.3281 53.8197C31.846 53.5281 32.1697 52.9758 32.1735 52.3736Z" fill="white"/>
<path d="M38.7268 64.0652C38.209 63.7622 37.573 63.766 37.0589 64.069L32.8092 66.5853C32.4322 66.8078 32.158 67.176 32.0476 67.6018L29.9989 75.561C29.8123 76.2783 30.1246 77.0339 30.7567 77.4136C31.0194 77.5709 31.3088 77.6438 31.5983 77.6438C32.0095 77.6438 32.417 77.4904 32.733 77.1912L38.9744 71.2534C39.3019 70.9427 39.4885 70.5131 39.4923 70.0643L39.5494 65.5266C39.557 64.9244 39.2447 64.3644 38.7268 64.0652Z" fill="white"/>
<path d="M58.3608 67.5672C58.258 67.13 57.9801 66.7502 57.5954 66.5201L53.7227 64.2033C53.2124 63.8964 52.5727 63.8926 52.0548 64.1918C51.5369 64.491 51.2208 65.0471 51.2246 65.6493L51.2627 70.6128C51.2665 71.0539 51.4417 71.4759 51.7578 71.7866L57.5764 77.5555C57.8925 77.8701 58.3113 78.035 58.7378 78.035C59.0158 78.035 59.2938 77.966 59.549 77.8202C60.1925 77.4558 60.5162 76.7078 60.3448 75.9867L58.3608 67.5672Z" fill="white"/>
<path d="M73.11 51.2922L64.8847 48.8143C64.4544 48.6839 63.9936 48.7376 63.6014 48.9562L59.6716 51.1771C59.1499 51.4725 58.83 52.0248 58.8262 52.627C58.8262 53.2293 59.146 53.7816 59.6639 54.0808L63.9518 56.528C64.2031 56.6699 64.4849 56.7428 64.7667 56.7428C64.9152 56.7428 65.0637 56.7236 65.2084 56.6814L73.0757 54.4912C73.7878 54.2918 74.2791 53.6474 74.2867 52.9032C74.2943 52.1629 73.8145 51.5032 73.11 51.2922Z" fill="white"/>
<path d="M52.2719 40.9353C52.527 41.0849 52.8164 41.1616 53.102 41.1616C53.3914 41.1616 53.6808 41.0849 53.9398 40.9315L58.1895 38.4152C58.5665 38.1927 58.8407 37.8245 58.9511 37.3987L60.9998 29.4395C61.1864 28.7222 60.8742 27.9666 60.242 27.5869C59.6061 27.2071 58.8026 27.2992 58.2657 27.8093L52.0244 33.7471C51.7007 34.0578 51.5103 34.4874 51.5065 34.9362L51.4494 39.4739C51.4417 40.0761 51.754 40.6361 52.2719 40.9353Z" fill="white"/>
</g>
<defs>
<clipPath id="clip0_1199_16634">
<rect width="91" height="105" fill="white"/>
</clipPath>
</defs>
</svg>
