<svg width="30" height="30" viewBox="0 0 30 30" fill="none" xmlns="http://www.w3.org/2000/svg">
<g clip-path="url(#clip0_1_884)">
<path fill-rule="evenodd" clip-rule="evenodd" d="M30 5.45956C28.8977 5.96154 27.7109 6.30101 26.4659 6.45269C27.7373 5.67263 28.7128 4.43572 29.1724 2.96226C27.982 3.68455 26.6667 4.21 25.2615 4.49169C24.1416 3.26562 22.5409 2.5 20.7695 2.5C17.3728 2.5 14.617 5.32593 14.617 8.81094C14.617 9.3057 14.6698 9.78603 14.7755 10.2483C9.66015 9.98466 5.1259 7.47472 2.08839 3.65204C1.55837 4.58739 1.25549 5.67263 1.25549 6.82828C1.25549 9.01679 2.34196 10.9489 3.99366 12.0811C2.98644 12.0504 2.03557 11.7633 1.20443 11.2938V11.3714C1.20443 14.4303 3.32629 16.9818 6.14368 17.5596C5.62775 17.7077 5.08364 17.7817 4.52192 17.7817C4.12573 17.7817 3.73833 17.7438 3.36327 17.6697C4.14685 20.1761 6.41837 22.0016 9.11251 22.0504C7.00651 23.7441 4.35111 24.7535 1.46856 24.7535C0.971997 24.7535 0.480718 24.7246 0 24.6668C2.72407 26.4545 5.96055 27.5 9.43476 27.5C20.7572 27.5 26.9466 17.8846 26.9466 9.54406C26.9466 9.26959 26.9414 8.99512 26.9308 8.72607C28.1335 7.83586 29.1777 6.72536 30 5.45956Z" fill="#00AAEC"/>
</g>
<defs>
<clipPath id="clip0_1_884">
<rect width="30" height="30" fill="white"/>
</clipPath>
</defs>
</svg>
