<svg width="185" height="168" viewBox="0 0 185 168" fill="none" xmlns="http://www.w3.org/2000/svg">
<path d="M86.7135 151.212L85.3433 149.783V149.493L85.1911 149.649L85.0606 149.493V149.783L83.6686 151.212L57.4395 167.179H85.0606H85.3433H112.943L86.7135 151.212Z" fill="#638BFF"/>
<path d="M94.6515 142.86H75.7734V156.147H94.6515V142.86Z" fill="#577FEE"/>
<path d="M170.381 28.5011H0V147.036H170.381V28.5011Z" fill="#638BFF"/>
<path d="M163.032 38.751H7.375V136.585H163.032V38.751Z" fill="#EDEDED"/>
<path d="M157.461 55.0977H12.918V136.585H157.461V55.0977Z" fill="white"/>
<path d="M163.032 38.751H7.375V44.2668H163.032V38.751Z" fill="#EDEDED"/>
<path d="M163.032 126.893H7.375V136.585H163.032V126.893Z" fill="#0A2C8C"/>
<path d="M89.4539 64.8232H48.7617V106.605H89.4539V64.8232Z" fill="#CF5631"/>
<path d="M110.907 61.0814H39.875V63.3592H110.907V61.0814Z" fill="#0A2C8C"/>
<path d="M119.567 107.845H48.5352V110.123H119.567V107.845Z" fill="#0A2C8C"/>
<path d="M47.3477 121.721L47.3477 50.6896L45.0698 50.6896L45.0698 121.721L47.3477 121.721Z" fill="#0A2C8C"/>
<path d="M91.834 47.2257L91.834 118.258L94.1118 118.258L94.1118 47.2257L91.834 47.2257Z" fill="#0A2C8C"/>
<path d="M108.88 50.5757C108.88 50.5757 90.5456 48.2309 85.4998 59.0393C80.4541 69.8701 78.1704 89.6557 73.1247 90.5936C68.079 91.5316 108.902 99.0796 122.19 68.9321C135.479 38.7847 108.88 50.5757 108.88 50.5757Z" fill="#FF693B"/>
<path d="M128.582 34.7201C128.582 34.7201 138.065 27.0381 152.593 17.7705C166.947 8.61461 184.999 0.820923 184.999 0.820923C184.999 0.820923 175.908 16.2966 163.598 28.7576C152.745 39.7447 141.892 50.5754 141.892 50.5754L128.582 34.7201Z" fill="#272727"/>
<path d="M168.644 11.1605C168.644 11.1605 144.328 23.2418 128.278 38.3156C112.227 53.3893 132.562 40.1914 132.562 40.1914C132.562 40.1914 152.897 20.7407 168.644 11.1605Z" fill="#939393"/>
<path d="M128.632 33.1781L108.617 50.2725L122.915 67.9216L142.93 50.8273L128.632 33.1781Z" fill="#D8D8D8"/>
<path d="M115.298 44.5612L108.627 50.2593L122.925 67.9084L129.596 62.2103L115.298 44.5612Z" fill="#0A2C8C"/>
<path d="M128.278 35.6578L117.273 44.9254L119.883 48.0518L130.584 38.6279L128.278 35.6578Z" fill="white"/>
<path d="M110.707 50.6871L122.865 66.4531L128.367 61.9868L122.973 65.2919L110.707 50.6871Z" fill="white"/>
<path d="M106.268 53.2327C106.268 53.2327 94.045 51.2006 90.065 58.5699C86.0849 65.9393 96.7854 61.875 106.268 53.2327Z" fill="#B22A00"/>
<path d="M174.929 148.253C172.863 146.355 170.732 144.479 168.6 142.693C157.552 133.492 148.635 127.351 145.96 125.542L146.569 124.515L124.276 110.714L124.081 111.049C124.081 111.049 120.231 92.4917 108.595 91.1518C96.9814 89.8119 78.2678 97.11 75.7449 92.5321C73.222 87.9541 79.4518 126.971 111.531 129.986C111.988 130.031 112.445 130.076 112.88 130.098L112.728 130.366L120.166 134.966L135.042 144.167L135.499 143.385C136.825 144.077 140.327 145.864 144.981 148.253H174.929Z" fill="black" fill-opacity="0.6"/>
</svg>
