<svg width="114" height="152" viewBox="0 0 114 152" fill="none" xmlns="http://www.w3.org/2000/svg">
<path d="M81.2833 136.315H65.1627C63.4599 136.315 62.3299 135.464 62.7282 133.809C63.7337 129.629 66.8897 121.135 69.2503 115.117C69.897 113.468 71.0284 112.059 72.4869 111.055L89.1326 99.5918C90.5658 98.6048 92.5797 98.1986 93.6621 99.5611C95.1155 101.391 94.8883 103.898 93.4934 105.772C88.7429 112.156 77.3175 118.55 80.614 119.864C84.4524 121.394 94.4322 109.917 98.6544 104.943C100.706 102.527 100.502 100.271 99.6236 98.5855C98.8123 97.0283 98.4764 94.9941 99.6109 93.654L105.1 87.1693C106.626 85.367 109.326 85.1487 111.122 86.6826C112.409 87.7821 112.923 89.5392 112.432 91.1592L103.735 119.853C102.687 123.314 100.423 126.279 97.361 128.203L87.1358 134.628C85.3825 135.73 83.3539 136.315 81.2833 136.315Z" fill="#5A81F2"/>
<path d="M61.418 141.758C61.418 140.653 62.3134 139.758 63.418 139.758H81.6806C82.7852 139.758 83.6806 140.653 83.6806 141.758V150C83.6806 151.105 82.7852 152 81.6806 152H63.418C62.3134 152 61.418 151.105 61.418 150V141.758Z" fill="#FF693B"/>
<path d="M31.957 136.315H48.0775C49.7803 136.315 50.9103 135.464 50.5121 133.809C49.5065 129.629 46.3506 121.135 43.99 115.117C43.3433 113.468 42.2119 112.059 40.7533 111.055L24.1076 99.5918C22.6744 98.6048 20.6606 98.1986 19.5781 99.5611C18.1247 101.391 18.352 103.898 19.7468 105.772C24.4973 112.156 35.9227 118.55 32.6262 119.864C28.7878 121.394 18.808 109.917 14.5858 104.943C12.5345 102.527 12.7387 100.271 13.6166 98.5855C14.4279 97.0283 14.7639 94.9941 13.6294 93.654L8.13987 87.1693C6.61417 85.367 3.91391 85.1487 2.11853 86.6826C0.831455 87.7821 0.317142 89.5392 0.808144 91.1592L9.50477 119.853C10.5536 123.314 12.8174 126.279 15.8793 128.203L26.1045 134.628C27.8577 135.73 29.8863 136.315 31.957 136.315Z" fill="#5A81F2"/>
<path d="M27.9395 141.281C27.9395 140.176 28.8349 139.281 29.9395 139.281H48.2021C49.3067 139.281 50.2021 140.176 50.2021 141.281V149.523C50.2021 150.628 49.3067 151.523 48.2021 151.523H29.9395C28.8349 151.523 27.9395 150.628 27.9395 149.523V141.281Z" fill="#FF693B"/>
<path d="M55.3311 2.11503C56.124 1.24755 57.4905 1.24755 58.2834 2.11503L66.2765 10.8592C66.8024 11.4345 67.6147 11.6519 68.3577 11.4161L79.6679 7.82632C80.7894 7.47038 81.9743 8.1547 82.2265 9.30396L84.7596 20.8483C84.9271 21.6116 85.5237 22.2074 86.2872 22.3738L97.8728 24.8993C99.0249 25.1504 99.7108 26.3388 99.3519 27.4621L95.7576 38.7123C95.5192 39.4584 95.7383 40.275 96.3182 40.8016L105.076 48.7544C105.95 49.5481 105.95 50.922 105.076 51.7156L96.3182 59.6685C95.7383 60.195 95.5192 61.0116 95.7576 61.7578L99.3519 73.008C99.7108 74.1313 99.0249 75.3196 97.8728 75.5708L86.2872 78.0963C85.5237 78.2627 84.9271 78.8585 84.7596 79.6217L82.2265 91.1661C81.9743 92.3154 80.7894 92.9997 79.6679 92.6438L68.3577 89.054C67.6147 88.8182 66.8024 89.0355 66.2765 89.6109L58.2834 98.355C57.4905 99.2225 56.124 99.2225 55.3311 98.355L47.338 89.6109C46.8121 89.0355 45.9998 88.8182 45.2568 89.054L33.9466 92.6438C32.8251 92.9997 31.6402 92.3154 31.388 91.1661L28.8549 79.6217C28.6874 78.8585 28.0908 78.2627 27.3273 78.0963L15.7417 75.5708C14.5896 75.3196 13.9037 74.1313 14.2626 73.008L17.8569 61.7578C18.0953 61.0116 17.8762 60.195 17.2963 59.6685L8.53865 51.7156C7.66471 50.922 7.66471 49.5481 8.53865 48.7544L17.2963 40.8016C17.8762 40.275 18.0953 39.4584 17.8569 38.7123L14.2626 27.4621C13.9037 26.3388 14.5896 25.1504 15.7417 24.8993L27.3273 22.3738C28.0908 22.2074 28.6874 21.6116 28.8549 20.8483L31.388 9.30396C31.6402 8.1547 32.8251 7.47038 33.9466 7.82632L45.2568 11.4161C45.9998 11.6519 46.8121 11.4345 47.338 10.8592L55.3311 2.11503Z" fill="white"/>
<ellipse cx="56.8047" cy="50.235" rx="29.9394" ry="29.841" fill="#183A9B"/>
<path d="M51.3945 44.3719L40.2899 59.7442C39.8122 60.4055 40.2847 61.3297 41.1005 61.3297H72.4901C73.3081 61.3297 73.7801 60.4011 73.2979 59.7403L66.4381 50.3391C65.7817 49.4395 64.517 49.2494 63.6251 49.9161L62.217 50.9687C61.3419 51.6229 60.1037 51.4537 59.4362 50.5888L54.599 44.3211C53.7823 43.2628 52.1772 43.2883 51.3945 44.3719Z" fill="white"/>
<ellipse cx="64.0922" cy="41.8184" rx="3.07071" ry="3.06061" fill="white"/>
</svg>
