<svg width="185" height="152" viewBox="0 0 185 152" fill="none" xmlns="http://www.w3.org/2000/svg">
<path d="M172.591 0.483643H0V144.4H172.591V0.483643Z" fill="#638BFF"/>
<path d="M164.071 27.3313H9.16797V134.141H164.071V27.3313Z" fill="#183A9B"/>
<path d="M164.071 8.28442H9.16797V21.1006H164.071V8.28442Z" fill="#183A9B"/>
<path d="M30.6421 31.7385H20.832V34.9299H30.6421V31.7385Z" fill="white"/>
<path d="M30.6421 63.7288H20.832V66.9201H30.6421V63.7288Z" fill="white"/>
<path d="M37.021 36.8549H27.2109V40.0463H37.021V36.8549Z" fill="#FF693B"/>
<path d="M48.3296 36.8549H38.5195V40.0463H48.3296V36.8549Z" fill="#FF693B"/>
<path d="M59.6402 36.8549H49.8301V40.0463H59.6402V36.8549Z" fill="white"/>
<path d="M70.9234 36.8549H61.1133V40.0463H70.9234V36.8549Z" fill="white"/>
<path d="M90.7703 36.8549H73.4883V40.0463H90.7703V36.8549Z" fill="white"/>
<path d="M41.9214 42.1487H32.1113V45.3401H41.9214V42.1487Z" fill="#FF693B"/>
<path d="M53.23 42.1487H43.4199V45.3401H53.23V42.1487Z" fill="#FF693B"/>
<path d="M64.5464 42.1487H54.7363V45.3401H64.5464V42.1487Z" fill="white"/>
<path d="M75.8277 42.1487H66.0176V45.3401H75.8277V42.1487Z" fill="white"/>
<path d="M41.9214 53.0406H32.1113V56.2321H41.9214V53.0406Z" fill="#FF693B"/>
<path d="M53.23 53.0406H43.4199V56.2321H53.23V53.0406Z" fill="#FF693B"/>
<path d="M64.5464 53.0406H54.7363V56.2321H64.5464V53.0406Z" fill="white"/>
<path d="M75.8277 53.0406H66.0176V56.2321H75.8277V53.0406Z" fill="white"/>
<path d="M95.6766 53.0406H78.3945V56.2321H95.6766V53.0406Z" fill="white"/>
<path d="M37.021 58.5104H27.2109V61.7017H37.021V58.5104Z" fill="#FF693B"/>
<path d="M48.3296 58.5104H38.5195V61.7017H48.3296V58.5104Z" fill="#FF693B"/>
<path d="M59.6402 58.5104H49.8301V61.7017H59.6402V58.5104Z" fill="white"/>
<path d="M70.9234 58.5104H61.1133V61.7017H70.9234V58.5104Z" fill="white"/>
<path d="M46.8277 47.468H37.0176V50.6594H46.8277V47.468Z" fill="#FF693B"/>
<path d="M58.1402 47.468H48.3301V50.6594H58.1402V47.468Z" fill="#FF693B"/>
<path d="M69.4487 47.468H59.6387V50.6594H69.4487V47.468Z" fill="white"/>
<path d="M80.728 47.468H70.918V50.6594H80.728V47.468Z" fill="white"/>
<path d="M100.581 47.468H83.2988V50.6594H100.581V47.468Z" fill="white"/>
<path d="M30.6421 110.384H20.832V113.575H30.6421V110.384Z" fill="white"/>
<path d="M37.021 115.475H27.2109V118.666H37.021V115.475Z" fill="#FF693B"/>
<path d="M48.3296 115.475H38.5195V118.666H48.3296V115.475Z" fill="#FF693B"/>
<path d="M59.6402 115.475H49.8301V118.666H59.6402V115.475Z" fill="white"/>
<path d="M70.9234 115.475H61.1133V118.666H70.9234V115.475Z" fill="white"/>
<path d="M90.7703 115.475H73.4883V118.666H90.7703V115.475Z" fill="#183A9B"/>
<path d="M41.9214 120.793H32.1113V123.985H41.9214V120.793Z" fill="#FF693B"/>
<path d="M53.23 120.793H43.4199V123.985H53.23V120.793Z" fill="#FF693B"/>
<path d="M64.5464 120.793H54.7363V123.985H64.5464V120.793Z" fill="white"/>
<path d="M46.8277 126.113H37.0176V129.304H46.8277V126.113Z" fill="#FF693B"/>
<path d="M58.1402 126.113H48.3301V129.304H58.1402V126.113Z" fill="#FF693B"/>
<path d="M69.4487 126.113H59.6387V129.304H69.4487V126.113Z" fill="white"/>
<path d="M80.728 126.113H70.918V129.304H80.728V126.113Z" fill="white"/>
<path d="M100.581 126.113H83.2988V129.304H100.581V126.113Z" fill="#183A9B"/>
<path d="M28.6322 99.8725L16.8652 92.3246V86.3471L28.6322 78.8752V84.4981L20.4995 89.3359L28.6322 94.3003V99.8725Z" fill="#638BFF"/>
<path d="M32.293 104.735L41.0611 68.5156H45.8898L37.0963 104.735H32.293Z" fill="#638BFF"/>
<path d="M63.6322 102.633C62.3869 104.305 60.43 105.141 57.7614 105.141C55.0929 105.141 53.0852 104.254 51.7636 102.456C50.442 100.683 49.7812 98.0996 49.7812 94.7563V79.0527C49.7812 73.6831 51.179 70.3397 54.0255 68.9973C55.0675 68.5161 56.3382 68.2628 57.8123 68.2628C62.8952 68.2628 65.4367 71.4542 65.4367 77.8369V82.8013H60.125V78.1915C60.125 76.3426 59.9726 75.0001 59.6422 74.215C59.3372 73.4045 58.7018 73.0245 57.7869 73.0245C56.8719 73.0245 56.2366 73.4551 55.8808 74.2909C55.525 75.1268 55.3471 76.4439 55.3471 78.1915V95.0349C55.3471 96.9852 55.5249 98.3529 55.8553 99.1887C56.1857 100.025 56.8211 100.43 57.7361 100.43C58.651 100.43 59.2609 99.9993 59.6167 99.1634C59.9471 98.3276 60.125 96.9092 60.125 94.9589V89.7919H65.5383V94.8829C65.4875 98.3782 64.8775 100.962 63.6322 102.633Z" fill="#638BFF"/>
<path d="M83.6012 102.557C82.3305 104.28 80.3227 105.166 77.5525 105.166C74.7823 105.166 72.7492 104.305 71.453 102.557C70.1569 100.81 69.5215 98.2008 69.5215 94.6801V78.1914C69.5215 71.5807 72.2154 68.288 77.6288 68.288C80.4244 68.288 82.4321 69.1238 83.652 70.7955C84.8719 72.4672 85.4819 74.9493 85.4819 78.1914V94.6801C85.5073 98.1754 84.872 100.81 83.6012 102.557ZM75.5448 99.1379C75.8751 99.9737 76.5359 100.379 77.5271 100.379C78.5183 100.379 79.179 99.9485 79.5094 99.0873C79.8398 98.2261 79.9923 96.757 79.9923 94.7054V77.9128C79.9923 76.2158 79.8398 74.9493 79.5094 74.1641C79.179 73.3789 78.5437 72.999 77.6288 72.999C76.6884 72.999 76.0277 73.3789 75.6464 74.1641C75.2652 74.9493 75.0873 76.1904 75.0873 77.8874V94.7054C75.0619 96.833 75.2144 98.3021 75.5448 99.1379Z" fill="#638BFF"/>
<path d="M90.4668 104.736V68.6937H98.5741C101.243 68.6937 103.149 69.4789 104.369 71.0492C105.563 72.6196 106.173 74.9245 106.173 77.9639L106.198 94.2247C106.198 97.8467 105.589 100.506 104.394 102.203C103.2 103.9 101.192 104.736 98.4216 104.736H90.4668ZM95.9818 100.481H97.7862C98.8028 100.481 99.5398 100.152 99.9973 99.493C100.455 98.8345 100.684 97.644 100.684 95.8964L100.658 78.0905C100.658 76.2162 100.429 74.8992 99.9719 74.0886C99.5145 73.3035 98.7266 72.8982 97.6084 72.8982H95.9818V100.481Z" fill="#638BFF"/>
<path d="M111.15 104.736V68.6937H123.273V73.4301H116.665V83.9161H122.943V88.5512H116.665V100.025H123.527V104.761H111.15V104.736Z" fill="#638BFF"/>
<path d="M127.064 99.8725V94.2496L135.197 89.4119L127.064 84.4475V78.8752L138.857 86.3725V92.3753L127.064 99.8725Z" fill="#638BFF"/>
<path d="M159.956 10.9948H152.535V18.3906H159.956V10.9948Z" fill="#638BFF"/>
<path d="M148.573 10.9948H141.152V18.3906H148.573V10.9948Z" fill="#638BFF"/>
<path d="M137.216 10.9948H129.795V18.3906H137.216V10.9948Z" fill="#638BFF"/>
<path d="M20.8117 10.9948H13.3906V18.3906H20.8117V10.9948Z" fill="#638BFF"/>
<path d="M172.518 120.869L170.892 119.527C171.502 118.362 172.036 117.146 172.518 115.905V87.4357C166.826 73.0239 152.797 62.8165 136.328 62.8165C114.827 62.8165 97.3926 80.1918 97.3926 101.62C97.3926 123.047 114.827 140.423 136.328 140.423C146.57 140.423 155.872 136.471 162.835 130.038L172.518 137.991V120.869ZM136.328 127.986C121.714 127.986 109.897 116.183 109.897 101.645C109.897 87.0811 121.74 75.3034 136.328 75.3034C150.941 75.3034 162.785 87.1065 162.785 101.645C162.785 116.183 150.941 127.986 136.328 127.986Z" fill="#2D2D2D" fill-opacity="0.7"/>
<path d="M182.608 140.322L153.991 116.817C156.787 111.473 158.388 105.368 158.388 98.9096C158.388 77.4818 140.954 60.1066 119.453 60.1066C97.9521 60.1066 80.5176 77.4818 80.5176 98.9096C80.5176 120.337 97.9521 137.713 119.453 137.713C129.695 137.713 138.997 133.761 145.96 127.328L174.171 150.504C176.966 152.808 181.109 152.403 183.422 149.617L183.498 149.516C185.811 146.755 185.404 142.626 182.608 140.322ZM119.427 125.276C104.814 125.276 92.9962 113.473 92.9962 98.935C92.9962 84.3712 104.839 72.5934 119.427 72.5934C134.041 72.5934 145.859 84.3965 145.859 98.935C145.884 113.473 134.041 125.276 119.427 125.276Z" fill="white"/>
</svg>
