<svg width="185" height="149" viewBox="0 0 185 149" fill="none" xmlns="http://www.w3.org/2000/svg">
<path d="M165.475 20H18.3197C14.4401 20 11.248 23.2797 11.248 27.2639V117.54C11.248 121.548 14.4401 124.804 18.3197 124.804H165.475C169.379 124.804 172.547 121.524 172.547 117.54V27.2639C172.571 23.2797 169.379 20 165.475 20Z" fill="#638BFF"/>
<path d="M163.757 27.0695C162.922 26.5836 161.965 26.3164 160.934 26.3164H22.8881C19.7451 26.3164 17.1914 28.8916 17.1914 32.0255V115.281C17.1914 117.127 18.0999 118.779 19.475 119.824C20.4326 120.552 21.6112 120.99 22.8881 120.99H160.958C164.101 120.99 166.655 118.415 166.655 115.281V32.0012C166.63 29.8876 165.476 28.0413 163.757 27.0695Z" fill="#4164C8"/>
<path opacity="0.75" d="M160.934 26.292H22.8881C19.7451 26.292 17.1914 28.8671 17.1914 32.0011V115.256C17.1914 117.103 18.0999 118.755 19.475 119.799L163.782 27.0451C162.922 26.5835 161.965 26.292 160.934 26.292Z" fill="#2448AE" fill-opacity="0.7"/>
<path d="M108.574 38.892C105.664 42.2836 105.086 46.8533 106.674 50.6971L72.8269 90.0279C68.7254 89.0878 64.263 90.3731 61.3402 93.7528C57.1784 98.5843 57.7678 105.832 62.6512 109.949C62.6632 109.961 62.6873 109.973 62.6993 109.985L66.5243 105.534L63.9743 103.392L65.1651 96.9897L71.3716 94.8L73.9215 96.9421L114.516 49.7808L114.456 49.7689L111.449 41.4148L117.078 34.8696C113.915 34.9648 110.787 36.3096 108.574 38.892Z" fill="#183A9B"/>
<path d="M123.272 51.3757L114.516 49.7811L73.9214 96.9423L76.3871 99.0249L75.1964 105.427L72.0931 106.522L68.9899 107.617L66.5241 105.534L62.6992 109.985C67.5826 114.055 74.8716 113.46 79.0213 108.652C81.9321 105.261 82.5094 100.691 80.9217 96.8471L114.769 57.5163C118.87 58.4565 123.333 57.1712 126.255 53.7915C128.469 51.2091 129.323 47.9484 128.914 44.8424L123.272 51.3757Z" fill="#001C6C"/>
<path d="M68.8319 42.0934L59.4621 35.9052C59.2215 35.7148 58.7043 35.8576 58.2833 36.2146L57.8984 36.5359L86.1884 69.5357C86.8139 69.024 87.3551 68.5122 87.7881 68.0124L71.6826 49.2217L68.8319 42.0934Z" fill="#E8E8E8"/>
<path d="M57.5036 36.8688C57.0826 37.2258 56.8541 37.7137 56.9984 37.9755L61.6292 48.1385L68.2927 52.0656L84.3983 70.8563C85.0719 70.416 85.6612 69.9876 86.1785 69.5592L57.8885 36.5475L57.5036 36.8688Z" fill="white"/>
<path d="M107.708 82.8997C107.239 82.3761 106.782 81.8525 106.313 81.3289C99.866 78.6037 95.5719 73.5936 93.2626 66.5724C92.7935 66.2987 92.2883 66.1559 91.7831 66.1202C90.7607 66.0369 89.7023 66.3344 88.8603 67.0484C88.8603 67.0484 88.5115 67.3459 87.9822 67.7862C87.9221 67.8695 87.8379 67.9409 87.7657 68.0243C87.3327 68.5241 86.8035 69.0239 86.166 69.5475L120.35 109.426L123.152 107.069C124.836 105.653 125.041 103.142 123.621 101.476L107.708 82.8997Z" fill="#B22A00"/>
<path d="M84.401 70.8445C84.3048 70.904 84.2326 70.9635 84.1364 71.023C83.6072 71.4633 83.2584 71.7489 83.2584 71.7489C82.4164 72.463 81.9473 73.4388 81.8631 74.4503C81.815 74.9501 81.9232 75.4857 82.0796 75.9736C88.6229 79.4366 92.9169 84.4348 94.6489 91.1228C95.0939 91.6583 95.539 92.1938 95.9961 92.7293L111.921 111.306C113.353 112.972 115.89 113.174 117.574 111.77L120.377 109.426L86.1812 69.5474C85.6519 69.9758 85.0626 70.4042 84.401 70.8445Z" fill="#FF693B"/>
<path d="M184.822 143.705L184.724 141.397L0 142.927V143.826C0 146.28 2.60278 148.272 5.84397 148.272H179.002C182.268 148.272 184.92 146.207 184.822 143.705Z" fill="#001C6C"/>
<path d="M167.881 124.488H17.1168C13.63 124.488 10.0942 125.63 9.21022 127.063L0.272374 141.396C-0.832579 143.17 1.52465 144.676 5.52704 144.676H179.471C183.474 144.676 185.831 143.17 184.726 141.396L175.813 127.063C174.904 125.63 171.368 124.488 167.881 124.488Z" fill="#638BFF"/>
<path d="M161.324 129.979H23.6715C20.504 129.979 17.6065 130.513 17.2628 131.145L13.9479 137.242C13.555 137.947 15.9859 138.53 19.3744 138.53H165.646C169.01 138.53 171.465 137.947 171.072 137.242L167.757 131.145C167.389 130.513 164.492 129.979 161.324 129.979Z" fill="#001C6C"/>
<path d="M159.264 125.873H25.7606C22.6913 125.873 20.0885 126.019 19.9903 126.189L19.1063 127.768C19.0081 127.938 21.4881 128.084 24.6311 128.084H160.368C163.487 128.084 165.991 127.938 165.893 127.768L165.034 126.189C164.936 126.019 162.333 125.873 159.264 125.873Z" fill="#001C6C"/>
<path d="M126.408 139.258H58.5883C57.0168 139.258 55.6909 139.501 55.6172 139.769L54.9543 142.392C54.8806 142.684 56.1329 142.927 57.7289 142.927H127.243C128.839 142.927 130.091 142.684 130.017 142.392L129.354 139.769C129.305 139.477 127.979 139.258 126.408 139.258Z" fill="#3163F3"/>
</svg>
