<svg width="133" height="135" viewBox="0 0 133 135" fill="none" xmlns="http://www.w3.org/2000/svg">
<path d="M67.3463 68.3978H4.14258V123.568H67.3463V68.3978Z" fill="#638BFF"/>
<path d="M132.185 68.3978H67.3203V123.568H132.185V68.3978Z" fill="#638BFF"/>
<path d="M67.3203 135H128.361C130.466 135 132.185 133.281 132.185 131.176V123.568H67.3203V135Z" fill="#001C6C"/>
<path d="M4.14258 123.568V131.177C4.14258 133.281 5.86123 135 7.96609 135H67.3463V123.568H4.14258Z" fill="#001C6C"/>
<path d="M22.4258 50.1112H4.13867V68.3984H22.4258V50.1112Z" fill="white"/>
<path d="M59.0156 50.1111L77.3028 68.3983H95.59L77.3028 50.1111H59.0156Z" fill="white"/>
<path d="M77.3125 50.1111L95.5997 68.3983H113.887L95.5997 50.1111H77.3125Z" fill="#638BFF"/>
<path d="M40.7129 50.1112L59.0194 68.3984H77.3065L59.0194 50.1112H40.7129Z" fill="#073B5B"/>
<path d="M95.6016 50.1111L113.889 68.3983H132.195L113.889 50.1111H95.6016Z" fill="white"/>
<path d="M113.883 50.1112L132.17 68.3984V52.274C132.17 51.0767 131.204 50.1112 130.007 50.1112H113.883Z" fill="#638BFF"/>
<path d="M4.13867 50.1112L22.4258 68.3984H40.713L22.4258 50.1112H4.13867Z" fill="#638BFF"/>
<path d="M40.7208 50.1111H22.4336L40.7208 68.3983H59.0272L40.7208 50.1111Z" fill="white"/>
<path d="M123.364 0L105.676 4.63454L110.31 22.3424L126.145 18.2099C127.169 17.9396 127.786 16.8968 127.516 15.854L123.364 0Z" fill="white"/>
<path d="M70.2733 13.9036L57.2 36.2266L39.4922 40.8419L52.5655 18.5188L70.2733 13.9036Z" fill="white"/>
<path d="M52.5724 18.5186L39.4991 40.8416L21.8105 45.4762L34.8838 23.1531L52.5724 18.5186Z" fill="#638BFF"/>
<path d="M87.9572 9.26917L74.8839 31.5923L57.1953 36.2268L70.2686 13.9038L87.9572 9.26917Z" fill="#638BFF"/>
<path d="M34.8886 23.1533L21.8153 45.4764L4.10742 50.111L17.1807 27.7879L34.8886 23.1533Z" fill="white"/>
<path d="M17.1719 27.7882L4.09857 50.1113L0.0819538 34.7593C-0.265638 33.4655 0.526101 32.1331 1.81991 31.7855L17.1719 27.7882Z" fill="#638BFF"/>
<path d="M123.365 0L110.292 22.3424L92.6035 26.9576L105.677 4.63454L123.365 0Z" fill="#638BFF"/>
<path d="M87.962 9.26894L105.67 4.6344L92.5965 26.9575L74.8887 31.5921L87.962 9.26894Z" fill="white"/>
<path d="M23.5078 62.2767H3.0578C1.9764 62.2767 1.10742 61.4077 1.10742 60.3263V39.8764C1.10742 38.1384 3.19297 37.2888 4.42885 38.5053L24.8788 58.9553C26.0954 60.1912 25.2264 62.2767 23.5078 62.2767Z" fill="#001C6C"/>
<path d="M5.91795 42.6382C5.91795 43.623 5.1069 44.4341 4.12206 44.4341C3.13722 44.4341 2.32617 43.623 2.32617 42.6382C2.32617 41.6533 3.13722 40.8423 4.12206 40.8423C5.12621 40.8423 5.91795 41.6533 5.91795 42.6382Z" fill="white"/>
<path d="M5.91795 59.2447C5.91795 60.2296 5.1069 61.0407 4.12206 61.0407C3.13722 61.0407 2.32617 60.2296 2.32617 59.2447C2.32617 58.2599 3.13722 57.4489 4.12206 57.4489C5.12621 57.4682 5.91795 58.2599 5.91795 59.2447Z" fill="white"/>
<path d="M22.7402 59.2447C22.7402 60.2296 21.9292 61.0407 20.9443 61.0407C19.9595 61.0407 19.1484 60.2296 19.1484 59.2447C19.1484 58.2599 19.9595 57.4489 20.9443 57.4489C21.9485 57.4682 22.7402 58.2599 22.7402 59.2447Z" fill="white"/>
<path d="M67.4123 25.4319C44.2782 25.4319 25.5469 44.1825 25.5469 67.2973C25.5469 90.4314 44.2975 109.163 67.4123 109.163C68.9765 109.163 70.5213 109.066 72.0276 108.892C87.8237 107.154 100.936 96.6301 106.458 82.321C108.254 77.6478 109.278 72.5884 109.278 67.278C109.278 44.1632 90.5465 25.4319 67.4123 25.4319Z" fill="#001C6C"/>
<path d="M67.6628 31.4573C47.8694 31.4573 31.8223 47.5044 31.8223 67.2978C31.8223 87.0912 47.8694 103.138 67.6628 103.138C68.9952 103.138 70.3277 103.061 71.6215 102.907L53.315 84.6001C52.8902 84.3491 52.5812 83.8856 52.5812 83.3063V51.2507C52.5812 50.1307 53.7592 49.3968 54.7633 49.8989L86.8189 65.9268C87.1665 66.1006 87.379 66.3902 87.4948 66.7184L101.089 80.1394C102.634 76.1421 103.503 71.8165 103.503 67.2785C103.503 47.5044 87.4562 31.4573 67.6628 31.4573Z" fill="#FF693B"/>
<path d="M86.8184 68.6497L54.7628 84.6776C54.2607 84.9286 53.7393 84.8707 53.3145 84.6197L71.6209 102.926C85.1384 101.439 96.3578 92.4404 101.089 80.1782L87.4943 66.7573C87.7646 67.4139 87.5715 68.2635 86.8184 68.6497Z" fill="#B22A00"/>
<path d="M86.8159 65.9461L54.7602 49.9183C53.7561 49.4162 52.5781 50.15 52.5781 51.27V83.3256C52.5781 83.8857 52.8871 84.3491 53.3119 84.6195C53.7368 84.8705 54.2582 84.9285 54.7602 84.6774L86.8159 68.6496C87.9166 68.0896 87.9166 66.5061 86.8159 65.9461Z" fill="white"/>
</svg>
