<svg width="148" height="143" viewBox="0 0 148 143" fill="none" xmlns="http://www.w3.org/2000/svg">
<path d="M76.675 68.4967H115.12L127.487 80.8716C131.123 77.1869 133.37 72.1582 133.37 66.5965V20.4109C133.37 15.0346 131.262 10.1681 127.858 6.5298L112.781 21.616L76.6982 20.9671H45.3169L30.6105 6.25171C27.0439 9.91318 24.8438 14.9187 24.8438 20.4109V66.5965C24.8438 72.1119 27.0671 77.1174 30.6337 80.8021L42.9083 68.5199H76.675V68.4967Z" fill="#A4D8E6"/>
<path d="M76.675 68.4967H115.12L127.487 80.8716C131.123 77.1869 133.37 72.1582 133.37 66.5965V20.4109C133.37 15.0346 131.262 10.1681 127.858 6.5298L112.781 21.616L76.6982 20.9671H45.3169L30.6105 6.25171C27.0439 9.91318 24.8438 14.9187 24.8438 20.4109V66.5965C24.8438 72.1119 27.0671 77.1174 30.6337 80.8021L42.9083 68.5199H76.675V68.4967Z" fill="#2D58D6"/>
<path d="M117.344 0.551248C115.955 0.249987 114.496 0.0877686 113.013 0.0877686H76.6527H45.1556C39.4583 0.0877686 34.2937 2.4515 30.6113 6.25202L45.3177 20.9674H76.6759L112.759 21.6163L127.836 6.53011C125.08 3.56385 121.443 1.43186 117.344 0.551248Z" fill="#638BFF"/>
<path d="M45.1561 86.9204H113.014C118.665 86.9204 123.783 84.603 127.466 80.872L115.098 68.4972H76.6533H42.9328L30.6582 80.7794C34.3406 84.5567 39.482 86.9204 45.1561 86.9204Z" fill="#A4D8E6"/>
<path d="M79.0586 21.0139V68.4972H115.118L127.485 80.872C131.121 77.1874 133.368 72.1587 133.368 66.5969V20.4114C133.368 15.0351 131.26 10.1686 127.856 6.53027L112.779 21.6165L79.0586 21.0139Z" fill="#5FB0CF"/>
<path d="M79.0586 21.0139V68.4972H115.118L127.485 80.872C131.121 77.1874 133.368 72.1587 133.368 66.5969V20.4114C133.368 15.0351 131.26 10.1686 127.856 6.53027L112.779 21.6165L79.0586 21.0139Z" fill="#2D58D6"/>
<path d="M112.756 21.6163L127.833 6.53011C125.077 3.56385 121.441 1.43186 117.341 0.551248C115.952 0.249987 114.493 0.0877686 113.011 0.0877686H79.0586V21.0138L112.756 21.6163Z" fill="#183A9B"/>
<path d="M127.462 80.872L115.095 68.4972H79.0586V86.9204H113.034C118.662 86.9204 123.78 84.603 127.462 80.872Z" fill="#5FB0CF"/>
<path d="M45.1581 86.9204H113.016C118.667 86.9204 123.785 84.603 127.467 80.872L115.1 68.4972H76.6552H42.9348L30.6602 80.7794C34.3425 84.5567 39.484 86.9204 45.1581 86.9204Z" fill="#E6F2F0"/>
<path d="M45.1581 86.9204H113.016C118.667 86.9204 123.785 84.603 127.467 80.872L115.1 68.4972H76.6552H42.9348L30.6602 80.7794C34.3425 84.5567 39.484 86.9204 45.1581 86.9204Z" fill="#638BFF"/>
<path d="M117.712 66.5966C117.712 69.1921 115.605 71.2777 113.034 71.2777H45.176C42.5821 71.2777 40.4746 69.1689 40.4746 66.5966V20.4111C40.4746 17.8156 42.5821 15.7068 45.176 15.7068H113.034C115.628 15.7068 117.712 17.8156 117.712 20.4111V66.5966Z" fill="#436ADA"/>
<path d="M113.036 15.7068H79.084V71.2777H113.013C115.607 71.2777 117.691 69.1689 117.691 66.5966V20.4111C117.714 17.8156 115.607 15.7068 113.036 15.7068Z" fill="#B9CBFF"/>
<path d="M46.8354 33.464C47.5997 33.3249 48.4566 33.2091 49.3829 33.1164C50.3093 33.0237 51.2357 33.0005 52.1389 33.0005C53.0885 33.0005 54.0612 33.07 55.0107 33.2322C55.9834 33.3944 56.8404 33.6957 57.6046 34.1592C58.3689 34.6227 58.9942 35.2715 59.4805 36.1058C59.9669 36.94 60.1985 38.0292 60.1985 39.3733C60.1985 40.5783 59.9901 41.6212 59.5732 42.4554C59.1563 43.2897 58.6005 43.9849 57.8825 44.5179C57.1877 45.0509 56.4003 45.4449 55.4971 45.6766C54.617 45.9083 53.6906 46.0242 52.7411 46.0242C52.6485 46.0242 52.5095 46.0242 52.3011 46.0242C52.0926 46.0242 51.8842 46.0242 51.6757 46.001C51.4441 46.001 51.2357 45.9779 51.0273 45.9547C50.8188 45.9315 50.6567 45.9083 50.5641 45.9083V52.5592H46.7891V33.464H46.8354ZM52.44 36.2448C52.0695 36.2448 51.7221 36.268 51.3978 36.2912C51.0736 36.3143 50.7957 36.3607 50.6104 36.3839V42.6408C50.6799 42.664 50.7957 42.6872 50.9346 42.6872C51.0736 42.7103 51.2357 42.7103 51.3978 42.7335C51.5599 42.7335 51.7221 42.7567 51.8842 42.7567C52.0463 42.7567 52.1621 42.7567 52.2316 42.7567C52.7179 42.7567 53.2274 42.7103 53.7138 42.6176C54.2001 42.5249 54.6402 42.3627 55.0107 42.1078C55.4045 41.8529 55.7055 41.5053 55.9371 41.065C56.1687 40.6247 56.2845 40.0453 56.2845 39.327C56.2845 38.7244 56.1687 38.2146 55.9603 37.8206C55.7518 37.4267 55.4508 37.1023 55.1034 36.8705C54.756 36.6388 54.3391 36.4766 53.8759 36.3839C53.3896 36.2912 52.9264 36.2448 52.44 36.2448Z" fill="white"/>
<path d="M61.6543 42.8961C61.6543 39.675 62.3722 37.2185 63.785 35.4805C65.1977 33.7424 67.2126 32.885 69.8297 32.885C71.1961 32.885 72.4004 33.1167 73.4426 33.6034C74.4616 34.09 75.3185 34.7621 75.9901 35.6427C76.6617 36.5233 77.1713 37.5893 77.4955 38.8175C77.8197 40.0457 77.9818 41.413 77.9818 42.9193C77.9818 46.1405 77.2639 48.5969 75.8512 50.3349C74.4384 52.073 72.4235 52.9304 69.8065 52.9304C68.4169 52.9304 67.2126 52.6987 66.1704 52.212C65.1514 51.7254 64.2945 51.0533 63.6229 50.1727C62.9512 49.2921 62.4649 48.2261 62.1175 46.9979C61.8164 45.7697 61.6543 44.4024 61.6543 42.8961ZM65.6146 42.8961C65.6146 43.8694 65.7072 44.7732 65.8694 45.5843C66.0315 46.3954 66.2862 47.0906 66.6336 47.6931C66.981 48.2725 67.3979 48.7359 67.9306 49.0604C68.4632 49.3848 69.0885 49.547 69.8297 49.547C71.1729 49.547 72.2151 49.0372 72.933 47.9712C73.6742 46.9284 74.0216 45.2367 74.0216 42.8729C74.0216 41.946 73.9521 41.0654 73.7899 40.2543C73.6278 39.4432 73.3962 38.7248 73.0488 38.1223C72.7246 37.5198 72.2846 37.0563 71.7519 36.7087C71.2192 36.3611 70.5708 36.1989 69.8065 36.1989C68.4632 36.1989 67.4211 36.7319 66.7031 37.7979C65.9852 38.9102 65.6146 40.6019 65.6146 42.8961Z" fill="white"/>
<path d="M90.2315 47.9653C90.2315 47.3859 90.0231 46.8993 89.583 46.5285C89.143 46.1577 88.6103 45.8333 87.9618 45.532C87.3134 45.2308 86.5954 44.9295 85.8312 44.6051C85.0669 44.2806 84.3721 43.8867 83.7005 43.4232C83.052 42.9597 82.5193 42.3804 82.0793 41.6852C81.6393 40.9899 81.4308 40.0862 81.4308 39.0202C81.4308 38.0932 81.5929 37.2821 81.894 36.5869C82.1951 35.8917 82.6583 35.3355 83.2373 34.872C83.8163 34.4086 84.4879 34.0841 85.2985 33.8524C86.1091 33.6207 86.966 33.528 87.9387 33.528C89.0503 33.528 90.1157 33.6207 91.1116 33.806C92.1074 33.9914 92.918 34.2927 93.5665 34.6403L92.3853 37.8151C91.9916 37.5602 91.3895 37.3285 90.5789 37.1199C89.7683 36.9113 88.8882 36.7955 87.9618 36.7955C87.0818 36.7955 86.4102 36.9577 85.947 37.3285C85.4838 37.6761 85.2522 38.1396 85.2522 38.7421C85.2522 39.2982 85.4606 39.7386 85.9006 40.1093C86.3407 40.4801 86.8733 40.8277 87.5218 41.129C88.1703 41.4534 88.8882 41.7779 89.6293 42.1023C90.3936 42.4267 91.0884 42.8439 91.76 43.3073C92.4085 43.7708 92.9643 44.3502 93.3812 45.0454C93.8212 45.7406 94.0297 46.598 94.0297 47.6177C94.0297 48.6373 93.8676 49.5411 93.5202 50.2827C93.1728 51.0242 92.7096 51.6499 92.0843 52.1366C91.4821 52.6232 90.7178 52.994 89.8609 53.2257C88.9809 53.4575 88.0313 53.5965 86.9891 53.5965C85.6227 53.5965 84.3953 53.4575 83.3531 53.2026C82.3109 52.9477 81.5466 52.6927 81.0371 52.4378L82.2414 49.2167C82.4498 49.3325 82.7046 49.4484 83.0288 49.5875C83.3531 49.7033 83.7005 49.8424 84.1173 49.9351C84.5111 50.0509 84.9511 50.1436 85.3911 50.2131C85.8312 50.2827 86.2943 50.329 86.7807 50.329C87.8924 50.329 88.7493 50.1436 89.3514 49.7728C89.9304 49.3094 90.2315 48.73 90.2315 47.9653Z" fill="#3354B4"/>
<path d="M110.171 37.212H104.543V53.1325H100.792V37.212H95.1406V33.8518H110.171V37.212Z" fill="#3354B4"/>
<path d="M31.2027 130.091C31.2027 130.091 31.2027 126.059 38.938 123.625C41.2632 122.901 42.9641 122.473 44.2059 122.228C45.6897 121.936 48.1697 120.379 48.9104 119.061C50.2619 116.655 52.693 113.264 56.6566 110.602C59.7368 108.516 60.64 105.225 57.9535 102.885C55.267 100.544 49.5234 105.527 41.5796 112.641C41.5796 112.641 40.2364 113.498 43.0619 108.4C45.8873 103.279 58.162 79.0389 58.162 79.0389C58.162 79.0389 61.7749 73.4308 57.3977 71.2293C53.4142 69.19 52.1173 73.5467 50.9593 75.8409C49.7782 78.1351 40.7691 95.7705 40.7691 95.7705C40.7691 95.7705 39.6574 96.2803 39.7037 95.2143L45.1231 84.5775C45.1231 84.5775 47.0453 81.1941 44.2199 79.711C40.8849 77.9497 39.6805 80.0817 38.9394 81.5417C38.1983 83.0016 33.4969 92.248 33.4969 92.248C33.4969 92.248 32.2695 93.0823 32.3158 91.6455L37.0867 82.2601C37.0867 82.2601 38.3836 79.9427 35.396 78.4132C32.4084 76.8837 31.3199 79.2243 31.3199 79.2243L26.3869 88.9342C26.3869 88.9342 25.5995 89.583 25.3911 88.4243L28.726 81.8661C28.726 81.8661 29.5829 79.7341 26.6648 78.3205C23.7236 76.9301 22.6119 79.2243 22.6119 79.2243L14.4351 104.368C14.4351 104.368 11.4707 109.652 13.3698 112.641C15.2689 115.63 11.4707 120.057 11.4707 120.057L31.2027 130.091Z" fill="white"/>
<path d="M11.2362 111.726L7.68555 117.621L32.3023 132.466L35.853 126.571L11.2362 111.726Z" fill="#B9CBFF"/>
<path d="M5.98946 115.616L0 125.56L28.8816 142.978L34.871 133.034L5.98946 115.616Z" fill="#183A9B"/>
<path d="M20.4102 124.349L14.4219 134.293L28.8627 143L34.851 133.056L20.4102 124.349Z" fill="#09277D"/>
<path d="M23.5571 119.142L20.0078 125.038L32.3077 132.452L35.857 126.556L23.5571 119.142Z" fill="#9CB5FF"/>
<path d="M69.0181 65.7393C68.7634 65.6234 68.5549 65.4148 68.3928 65.1367C66.8411 62.3327 63.784 60.7569 60.588 61.174C59.7774 61.2667 59.0363 60.7105 58.9437 59.8994C58.851 59.0884 59.4069 58.3468 60.2174 58.2541C64.6178 57.6979 68.8328 59.8299 70.9635 63.7231C71.3572 64.4415 71.1025 65.3221 70.3845 65.7161C69.9445 65.971 69.435 65.9478 69.0181 65.7393Z" fill="#09277D"/>
<path d="M73.6777 63.0979C73.4229 62.9589 73.2145 62.7735 73.0524 62.4954C70.4585 57.7911 65.3402 55.1725 59.9903 55.8677C59.1798 55.9604 58.4386 55.4042 58.346 54.5931C58.2534 53.782 58.8092 53.0405 59.6198 52.9478C66.1508 52.1135 72.4271 55.3115 75.6231 61.0818C76.0168 61.8002 75.7621 62.6808 75.0441 63.0747C74.6041 63.3297 74.0946 63.3065 73.6777 63.0979Z" fill="#09277D"/>
<path d="M78.3063 60.4557C78.0516 60.3166 77.8431 60.1312 77.681 59.8531C74.0449 53.2486 66.8654 49.5871 59.3849 50.5372C58.5743 50.6299 57.8332 50.0738 57.7405 49.2627C57.6479 48.4516 58.2037 47.71 59.0143 47.6173C67.6992 46.505 76.0367 50.7458 80.2517 58.4164C80.6454 59.1348 80.3907 60.0385 79.6727 60.4093C79.2327 60.6874 78.7232 60.6642 78.3063 60.4557Z" fill="#09277D"/>
<path d="M108.771 106.363C108.771 106.386 108.771 106.386 108.771 106.363L108.794 102.702C108.794 102.679 108.794 102.679 108.794 102.655L108.863 95.935C108.863 95.935 108.863 95.935 108.863 95.9582L108.887 92.1345L108.933 85.6921C109.002 80.1072 117.664 75.6347 128.294 75.7274C138.948 75.8201 147.54 80.4317 147.494 86.0166L147.447 92.7602V92.7833L147.401 97.8816C147.401 97.8816 147.401 97.8816 147.401 97.9048L147.355 101.427C147.355 101.427 147.355 101.427 147.355 101.404L147.332 106.688L147.285 113.431C147.216 119.039 138.577 122.098 127.901 122.029C117.27 121.936 108.655 118.715 108.701 113.13L108.771 106.363Z" fill="#FFA31A"/>
<path d="M147.499 85.9934C147.452 91.6015 138.79 96.074 128.137 95.9581C117.484 95.8886 108.891 91.277 108.938 85.6689C109.007 80.084 117.669 75.6115 128.299 75.7042C138.976 75.7969 147.568 80.4085 147.499 85.9934Z" fill="#FFD35C"/>
<path d="M143.491 85.9701C143.468 90.4195 136.589 93.9419 128.159 93.8724C119.729 93.7797 112.92 90.1414 112.943 85.7152C112.99 81.2658 119.868 77.7666 128.298 77.8361C136.728 77.8824 143.537 81.5439 143.491 85.9701Z" fill="#FFA31A"/>
<path d="M138.85 85.924C138.827 89.0061 134.033 91.4625 128.174 91.4162C122.314 91.3698 117.567 88.8439 117.59 85.7386C117.613 82.6565 122.407 80.2 128.267 80.2464C134.149 80.3159 138.874 82.8418 138.85 85.924Z" fill="#FFD35C"/>
<path d="M127.251 89.5155C126.626 89.4923 126.093 89.446 125.653 89.3765C125.213 89.3069 124.866 89.2142 124.611 89.1447L125.26 88.0556C125.445 88.1251 125.7 88.2178 126.047 88.2641C126.394 88.3336 126.765 88.3568 127.228 88.4032L127.251 86.1785C126.927 86.0858 126.58 85.9699 126.279 85.8309C125.977 85.6918 125.676 85.5528 125.422 85.4137C125.167 85.2283 124.958 85.0661 124.819 84.8112C124.634 84.5795 124.588 84.3246 124.588 84.0233C124.588 83.4903 124.843 83.0732 125.329 82.7719C125.815 82.4706 126.464 82.2621 127.298 82.1694V81.2424L129.127 81.2656V82.1694C129.567 82.1926 129.984 82.2389 130.308 82.2853C130.656 82.3316 131.003 82.4011 131.281 82.4707L130.633 83.5135C130.447 83.4671 130.239 83.4208 129.961 83.3744C129.706 83.3281 129.405 83.3049 129.081 83.2586L129.058 85.2747C129.405 85.3674 129.729 85.5064 130.054 85.6223C130.378 85.7382 130.679 85.8772 130.934 86.0858C131.188 86.248 131.397 86.4334 131.559 86.6419C131.744 86.8737 131.814 87.1054 131.814 87.4067C131.791 87.986 131.559 88.4495 131.049 88.7739C130.563 89.0984 129.868 89.3301 129.011 89.4228V90.3729H127.182L127.251 89.5155ZM128.108 83.2586C127.645 83.3049 127.321 83.3744 127.135 83.5135C126.973 83.6525 126.881 83.8379 126.881 83.9769C126.881 84.1855 126.996 84.3941 127.228 84.5331C127.46 84.6722 127.761 84.8112 128.085 84.9503L128.108 83.2586ZM128.293 88.4032C128.71 88.3568 129.011 88.2873 129.22 88.1019C129.428 87.9397 129.521 87.7543 129.521 87.5226C129.521 87.2908 129.428 87.1054 129.197 86.9432C128.965 86.8042 128.664 86.6419 128.317 86.5261L128.293 88.4032Z" fill="#FFA31A"/>
<path d="M127.97 116.676C117.317 116.583 108.725 111.971 108.771 106.363L108.701 113.107C108.655 118.692 117.27 121.913 127.901 122.006C138.554 122.098 147.216 119.039 147.285 113.408L147.332 106.688C147.285 112.296 138.624 116.768 127.97 116.676Z" fill="#FFA31A"/>
<path d="M128.019 111.346C117.366 111.253 108.774 106.641 108.82 101.056L108.774 106.363C108.727 111.971 117.32 116.56 127.973 116.676C138.626 116.768 147.288 112.296 147.334 106.688V108.101L147.381 101.381C147.334 106.989 138.673 111.438 128.019 111.346Z" fill="#E66409"/>
<path d="M128.064 106.224C117.434 106.131 108.818 101.52 108.888 95.9348L108.818 102.655V102.678L108.842 101.056C108.795 106.641 117.387 111.253 128.041 111.345C138.694 111.438 147.356 106.989 147.402 101.381L147.379 102.98L147.449 96.2361C147.356 101.867 138.717 106.317 128.064 106.224Z" fill="#FFA31A"/>
<path d="M128.09 101.08C117.436 101.01 108.867 96.3754 108.914 90.7905L108.867 95.9351C108.844 101.52 117.413 106.132 128.043 106.224C138.697 106.317 147.359 101.868 147.405 96.2364V97.8585C147.405 97.8585 147.405 97.8586 147.405 97.8354L147.451 91.0918C147.428 96.723 138.743 101.196 128.09 101.08Z" fill="#FF700A"/>
<path d="M128.133 95.9581C117.479 95.8886 108.887 91.277 108.933 85.6689L108.91 90.7904C108.864 96.3985 117.456 101.01 128.087 101.08C138.74 101.172 147.402 96.7229 147.448 91.0916V92.737V92.7138L147.494 85.9702C147.471 91.6015 138.786 96.074 128.133 95.9581Z" fill="#FFA31A"/>
<path d="M93.6716 95.008C83.1803 94.8921 74.6576 99.5269 74.3565 105.344C74.3565 105.436 74.3102 105.529 74.3102 105.598L74.2639 111.044C74.2175 117 82.8098 121.913 93.4632 121.982C104.117 122.075 112.778 117.348 112.825 111.392L112.802 113.13V113.107L112.848 105.923C112.917 100.014 104.325 95.1007 93.6716 95.008Z" fill="url(#paint0_linear_1199_41169)"/>
<path d="M112.873 105.946C112.827 111.902 104.142 116.652 93.512 116.56C82.8817 116.467 74.2664 111.577 74.3127 105.599C74.359 99.666 83.0439 94.8922 93.6742 95.008C104.328 95.1007 112.92 100.014 112.873 105.946Z" fill="#FFD35C"/>
<path d="M108.86 105.923C108.814 110.651 101.959 114.382 93.5286 114.312C85.0985 114.219 78.2664 110.372 78.3127 105.645C78.3591 100.918 85.2143 97.1634 93.6676 97.2561C102.098 97.3256 108.907 101.219 108.86 105.923Z" fill="#FFA31A"/>
<path d="M104.231 105.9C104.208 109.19 99.4141 111.786 93.5547 111.74C87.6954 111.693 82.9476 109.005 82.9708 105.691C82.9939 102.424 87.788 99.805 93.6474 99.8513C99.5068 99.9208 104.255 102.609 104.231 105.9Z" fill="#FFD35C"/>
<path d="M92.607 109.677C92.0048 109.654 91.4722 109.607 91.0321 109.538C90.5921 109.468 90.2447 109.376 89.99 109.306L90.6384 108.124C90.8237 108.217 91.0785 108.31 91.4259 108.356C91.7733 108.402 92.167 108.472 92.607 108.495L92.6302 106.131C92.3059 106.015 91.9817 105.9 91.6574 105.761C91.3332 105.622 91.0553 105.459 90.8005 105.297C90.5458 105.112 90.3605 104.903 90.1984 104.671C90.0131 104.463 89.9668 104.185 89.9668 103.837C89.9668 103.281 90.1984 102.841 90.6847 102.516C91.1711 102.192 91.8427 101.983 92.6533 101.891V100.894L94.4829 100.917V101.867C94.923 101.891 95.3398 101.937 95.6641 101.983C96.0115 102.03 96.3357 102.099 96.6368 102.192L95.9883 103.304C95.803 103.235 95.5946 103.188 95.3167 103.142C95.0388 103.096 94.7608 103.049 94.4366 103.026L94.4135 105.181C94.7608 105.274 95.0851 105.413 95.4093 105.552C95.7104 105.668 96.0115 105.83 96.2894 106.015C96.5441 106.201 96.7526 106.409 96.9379 106.641C97.1 106.873 97.1926 107.128 97.1926 107.452C97.1926 108.055 96.9147 108.541 96.4283 108.889C95.942 109.237 95.2472 109.468 94.3903 109.584V110.604L92.5607 110.581V109.677H92.607ZM93.4639 103.049C93.0007 103.072 92.6765 103.165 92.5144 103.327C92.3291 103.466 92.2596 103.629 92.2596 103.814C92.2596 104.023 92.3754 104.231 92.607 104.393C92.8386 104.532 93.1165 104.695 93.4639 104.834V103.049ZM93.6492 108.518C94.0429 108.449 94.3671 108.379 94.5756 108.217C94.784 108.055 94.8766 107.846 94.8998 107.614C94.8998 107.36 94.8072 107.151 94.5524 107.012C94.3208 106.85 94.0429 106.688 93.6723 106.572L93.6492 108.518Z" fill="#FFA31A"/>
<path d="M93.5095 116.56C82.8792 116.467 74.2639 111.577 74.3102 105.598L74.2639 111.044C74.2175 117 82.8098 121.913 93.4632 121.982C104.117 122.075 112.778 117.348 112.825 111.392L112.802 113.13V113.107L112.848 105.923C112.825 111.925 104.14 116.675 93.5095 116.56Z" fill="#FFA31A"/>
<defs>
<linearGradient id="paint0_linear_1199_41169" x1="74.2673" y1="108.513" x2="112.87" y2="108.513" gradientUnits="userSpaceOnUse">
<stop stop-color="#DD3F18"/>
<stop offset="0.4157" stop-color="#E74A1B"/>
<stop offset="1" stop-color="#FD6120"/>
</linearGradient>
</defs>
</svg>
