<svg width="28" height="28" viewBox="0 0 28 28" fill="none" xmlns="http://www.w3.org/2000/svg">
<path d="M22.2249 5.72832C21.1553 4.6479 19.8813 3.79127 18.4772 3.20838C17.073 2.62549 15.5669 2.32803 14.0466 2.33332C7.6766 2.33332 2.48494 7.52499 2.48494 13.895C2.48494 15.9367 3.0216 17.92 4.02494 19.67L2.3916 25.6667L8.5166 24.0567C10.2083 24.9783 12.1099 25.4683 14.0466 25.4683C20.4166 25.4683 25.6083 20.2767 25.6083 13.9067C25.6083 10.815 24.4066 7.90999 22.2249 5.72832ZM14.0466 23.5083C12.3199 23.5083 10.6283 23.0417 9.1466 22.1667L8.7966 21.9567L5.1566 22.9133L6.12494 19.3667L5.8916 19.005C4.93231 17.4731 4.42293 15.7024 4.4216 13.895C4.4216 8.59832 8.73827 4.28165 14.0349 4.28165C16.6016 4.28165 19.0166 5.28499 20.8249 7.10499C21.7203 7.99628 22.4299 9.05643 22.9126 10.224C23.3952 11.3915 23.6413 12.6433 23.6366 13.9067C23.6599 19.2033 19.3433 23.5083 14.0466 23.5083ZM19.3199 16.3217C19.0283 16.1817 17.6049 15.4817 17.3483 15.3767C17.0799 15.2833 16.8933 15.2367 16.6949 15.5167C16.4966 15.8083 15.9483 16.4617 15.7849 16.6483C15.6216 16.8467 15.4466 16.87 15.1549 16.7183C14.8633 16.5783 13.9299 16.2633 12.8333 15.2833C11.9699 14.5133 11.3983 13.5683 11.2233 13.2767C11.0599 12.985 11.1999 12.8333 11.3516 12.6817C11.4799 12.5533 11.6433 12.3433 11.7833 12.18C11.9233 12.0167 11.9816 11.8883 12.0749 11.7017C12.1683 11.5033 12.1216 11.34 12.0516 11.2C11.9816 11.06 11.3983 9.63665 11.1649 9.05332C10.9316 8.49332 10.6866 8.56332 10.5116 8.55165H9.9516C9.75327 8.55165 9.44993 8.62165 9.1816 8.91332C8.92493 9.20499 8.17827 9.90499 8.17827 11.3283C8.17827 12.7517 9.2166 14.1283 9.3566 14.315C9.4966 14.5133 11.3983 17.43 14.2916 18.6783C14.9799 18.9817 15.5166 19.1567 15.9366 19.285C16.6249 19.5067 17.2549 19.4717 17.7566 19.4017C18.3166 19.32 19.4716 18.7017 19.7049 18.025C19.9499 17.3483 19.9499 16.7767 19.8683 16.6483C19.7866 16.52 19.6116 16.4617 19.3199 16.3217Z" fill="#FF7636"/>
</svg>
